<svg width="96" height="96" viewBox="0 0 96 96" fill="none" xmlns="http://www.w3.org/2000/svg">
<path d="M0 48C0 21.4903 21.4903 0 48 0C74.5097 0 96 21.4903 96 48C96 74.5097 74.5097 96 48 96C21.4903 96 0 74.5097 0 48Z" fill="white"/>
<rect width="56" height="56" transform="translate(20 20)" fill="white"/>
<path d="M55.9348 27.9351C53.1178 27.9351 50.4351 28.5198 48 29.5726C45.5649 28.5199 42.8822 27.9351 40.0651 27.9351C29.0011 27.9351 20 36.9362 20 48.0002C20 59.0642 29.0011 68.0654 40.065 68.0654C42.8821 68.0654 45.5649 67.4806 47.9999 66.4278C50.4349 67.4805 53.1177 68.0654 55.9347 68.0654C66.9988 68.0654 76 59.0642 76 48.0002C76 36.9362 66.9988 27.9351 55.9348 27.9351ZM51.7231 34.6519L39.0085 42.7171C40.4525 38.0996 43.7377 34.289 48 32.1465C49.3418 32.8212 50.5927 33.663 51.7231 34.6519ZM39.7604 55.2612C39.3597 54.3717 39.0336 53.4503 38.7857 52.5067L56.5094 41.373C56.8433 42.1982 57.114 43.0477 57.3192 43.914L39.7604 55.2612ZM57.7249 46.4299C57.7705 46.9475 57.7952 47.471 57.7952 48.0002C57.7952 48.7689 57.7459 49.5263 57.6506 50.2695L42.86 59.9636C42.1139 59.1486 41.4451 58.266 40.8623 57.3272L57.7249 46.4299ZM38.323 50.0418C38.2446 49.3641 38.2051 48.6824 38.2048 48.0002C38.2048 47.2936 38.2476 46.5968 38.3284 45.9115L53.4136 36.3428C54.2008 37.243 54.8954 38.2203 55.4869 39.2598L38.323 50.0418ZM40.065 65.732C30.2878 65.732 22.3333 57.7776 22.3333 48.0002C22.3333 38.2228 30.2878 30.2684 40.065 30.2684C41.8612 30.2684 43.5955 30.5378 45.2307 31.0369C39.6107 34.5964 35.8715 40.8695 35.8715 48.0003C35.8715 51.3218 36.6835 54.457 38.1181 57.219C38.1473 57.3574 38.2016 57.4894 38.2782 57.6084C38.3219 57.6748 38.3723 57.7366 38.4287 57.7927C40.0677 60.7092 42.405 63.1732 45.2308 64.9639C43.5564 65.4743 41.8155 65.7331 40.065 65.732ZM44.5924 61.6179L56.9055 53.5476C55.4204 58.0459 52.1805 61.7526 47.9999 63.8539C46.7821 63.2416 45.6388 62.4913 44.5924 61.6179ZM55.9348 65.732C54.1845 65.7332 52.4436 65.4742 50.7693 64.9637C56.3893 61.4042 60.1287 55.131 60.1287 48.0002C60.1287 46.7259 60.0079 45.4795 59.7797 44.2705C59.7773 44.2553 59.774 44.2403 59.771 44.2251C58.7126 38.6883 55.3724 33.9523 50.7693 31.0368C52.4436 30.5262 54.1845 30.2672 55.9348 30.2684C65.7121 30.2684 73.6667 38.2228 73.6667 48.0002C73.6667 57.7776 65.7121 65.732 55.9348 65.732Z" fill="#1B6936"/>
</svg>
