<svg width="40" height="40" viewBox="0 0 40 40" fill="none" xmlns="http://www.w3.org/2000/svg">
<path d="M23.4437 36.5501H11.8812C11.3625 36.5501 10.9437 36.1313 10.9437 35.6126C10.9437 35.0938 11.3625 34.6751 11.8812 34.6751H23.2125L35.4375 28.3188C35.7437 28.1626 35.9312 27.8501 35.9312 27.5063C35.9312 27.2126 35.7937 26.9376 35.5562 26.7688C35.3187 26.5938 35.0187 26.5501 34.7437 26.6376L24.1812 30.0563C23.8562 30.1626 23.5375 30.2001 23.2312 30.1626C22.7187 30.1126 22.3375 29.6501 22.3937 29.1376C22.4437 28.6251 22.9 28.2376 23.4187 28.3001C23.4687 28.3001 23.5312 28.3001 23.6062 28.2751L34.1687 24.8563C35.025 24.5751 35.9312 24.7251 36.6625 25.2501C37.3937 25.7813 37.8125 26.6063 37.8125 27.5063C37.8125 28.5501 37.2375 29.5001 36.3062 29.9813L23.875 36.4438C23.7437 36.5126 23.5937 36.5501 23.4437 36.5501ZM19.6937 26.4563H16.7437C15.425 26.4563 14.1812 25.8876 13.325 24.8938L13.1312 24.6813C12.6187 24.0938 11.8812 23.7563 11.1125 23.7563H8.0437C7.52495 23.7563 7.1062 23.3376 7.1062 22.8188C7.1062 22.3001 7.52495 21.8813 8.0437 21.8813H11.1125C12.425 21.8813 13.675 22.4501 14.5375 23.4376L14.7312 23.6563C14.9801 23.9466 15.2888 24.1795 15.6362 24.3392C15.9836 24.4989 16.3614 24.5815 16.7437 24.5813H19.6937C20.2125 24.5813 20.6312 25.0001 20.6312 25.5188C20.6312 26.0376 20.2125 26.4563 19.6937 26.4563Z" fill="#1B6936"/>
<path d="M14.75 32.3313C14.4688 32.3313 14.1938 32.2063 14.0063 31.9688C13.6875 31.5626 13.7625 30.9688 14.175 30.6563L16.1938 29.0876C16.3562 28.9626 16.5625 28.8876 16.7688 28.8876H21.85C22.5187 28.8876 23.0688 28.3438 23.0688 27.6688C23.0688 26.9938 22.525 26.4501 21.85 26.4501H17.3563C16.8375 26.4501 16.4188 26.0313 16.4188 25.5126C16.4188 24.9938 16.8375 24.5751 17.3563 24.5751H21.85C23.5562 24.5751 24.9438 25.9626 24.9438 27.6688C24.9438 29.3751 23.5562 30.7626 21.85 30.7626H17.0938L15.325 32.1376C15.1562 32.2688 14.95 32.3376 14.75 32.3376V32.3313ZM6.79375 37.8126H4.375C3.16875 37.8126 2.1875 36.8313 2.1875 35.6251V22.8188C2.1875 21.6126 3.16875 20.6313 4.375 20.6313H6.79375C8 20.6313 8.98125 21.6126 8.98125 22.8188V35.6251C8.98125 36.8313 8 37.8126 6.79375 37.8126ZM4.375 22.5063C4.2 22.5063 4.0625 22.6438 4.0625 22.8188V35.6251C4.0625 35.8001 4.2 35.9376 4.375 35.9376H6.79375C6.96875 35.9376 7.10625 35.8001 7.10625 35.6251V22.8188C7.10625 22.6438 6.96875 22.5063 6.79375 22.5063H4.375ZM24.3812 19.5313C23.8625 19.5313 23.4437 19.1126 23.4437 18.5938V7.1001C23.4437 6.58135 23.8625 6.1626 24.3812 6.1626C24.9 6.1626 25.3187 6.58135 25.3187 7.1001V18.5938C25.3187 19.1126 24.9 19.5313 24.3812 19.5313Z" fill="#1B6936"/>
<path d="M24.3812 8.03135C22.7687 8.03135 21.4625 6.71885 21.4625 5.1126C21.4625 3.50635 22.775 2.19385 24.3812 2.19385C25.9875 2.19385 27.3 3.50635 27.3 5.1126C27.3 6.71885 25.9875 8.03135 24.3812 8.03135ZM24.3812 4.0626C23.8062 4.0626 23.3375 4.53135 23.3375 5.10635C23.3375 5.68135 23.8062 6.1501 24.3812 6.1501C24.9562 6.1501 25.425 5.68135 25.425 5.10635C25.425 4.53135 24.9562 4.0626 24.3812 4.0626ZM28.5313 23.2126H20.2187C19.7 23.2126 19.2812 22.7938 19.2812 22.2751V18.5938C19.2812 18.0751 19.7 17.6563 20.2187 17.6563H28.5313C29.05 17.6563 29.4688 18.0751 29.4688 18.5938V22.2751C29.4688 22.7938 29.05 23.2126 28.5313 23.2126ZM21.1625 21.3376H27.6V19.5313H21.1625V21.3376Z" fill="#1B6936"/>
<path d="M32.8376 6.05005H26.3626C25.8438 6.05005 25.4251 5.6313 25.4251 5.11255C25.4251 4.5938 25.8438 4.17505 26.3626 4.17505H32.8376C33.3563 4.17505 33.7751 4.5938 33.7751 5.11255C33.7751 5.6313 33.3563 6.05005 32.8376 6.05005ZM22.4001 6.05005H15.9126C15.3938 6.05005 14.9751 5.6313 14.9751 5.11255C14.9751 4.5938 15.3938 4.17505 15.9126 4.17505H22.4001C22.9188 4.17505 23.3376 4.5938 23.3376 5.11255C23.3376 5.6313 22.9188 6.05005 22.4001 6.05005ZM15.9188 16.3563C13.1751 16.3563 10.9438 14.125 10.9438 11.3813C10.9438 10.8625 11.3626 10.4438 11.8813 10.4438H19.9501C20.4688 10.4438 20.8876 10.8625 20.8876 11.3813C20.8876 14.125 18.6563 16.3563 15.9126 16.3563H15.9188ZM12.9626 12.3188C13.3626 13.5688 14.5313 14.4813 15.9188 14.4813C17.3063 14.4813 18.4751 13.5688 18.8688 12.3188H12.9626Z" fill="#1B6936"/>
<path d="M19.0374 12.3189C18.6937 12.3189 18.3624 12.1314 18.1999 11.8002L15.9124 7.20645L13.6249 11.8002C13.5139 12.0223 13.3191 12.1912 13.0835 12.2697C12.8479 12.3483 12.5908 12.33 12.3687 12.2189C12.1466 12.1079 11.9777 11.9131 11.8991 11.6775C11.8206 11.442 11.8389 11.1848 11.9499 10.9627L15.0749 4.6877C15.2312 4.36895 15.5562 4.16895 15.9124 4.16895C16.2687 4.16895 16.5937 4.36895 16.7499 4.6877L19.8749 10.9627C20.1062 11.4252 19.9187 11.9877 19.4562 12.2189C19.3249 12.2877 19.1812 12.3189 19.0374 12.3189ZM32.8374 16.3564C30.0937 16.3564 27.8624 14.1252 27.8624 11.3814C27.8624 10.8627 28.2812 10.4439 28.7999 10.4439H36.8687C37.3874 10.4439 37.8062 10.8627 37.8062 11.3814C37.8062 14.1252 35.5749 16.3564 32.8312 16.3564H32.8374ZM29.8874 12.3189C30.2874 13.5689 31.4562 14.4814 32.8437 14.4814C34.2312 14.4814 35.3999 13.5689 35.7937 12.3189H29.8874Z" fill="#1B6936"/>
<path d="M29.7063 12.3189C29.5465 12.3191 29.3894 12.2783 29.2498 12.2005C29.1102 12.1228 28.9929 12.0106 28.9089 11.8746C28.825 11.7387 28.7772 11.5835 28.7702 11.4239C28.7632 11.2643 28.7971 11.1055 28.8688 10.9627L31.9938 4.6877C32.15 4.36895 32.475 4.16895 32.8313 4.16895C33.1875 4.16895 33.5125 4.36895 33.6688 4.6877L36.7938 10.9627C36.9048 11.1848 36.9231 11.442 36.8446 11.6775C36.7661 11.9131 36.5972 12.1079 36.375 12.2189C36.1529 12.33 35.8958 12.3483 35.6602 12.2697C35.4246 12.1912 35.2298 12.0223 35.1188 11.8002L32.8313 7.20645L30.5438 11.8002C30.3813 12.1314 30.05 12.3189 29.7063 12.3189Z" fill="#1B6936"/>
</svg>
