<svg width="56" height="56" viewBox="0 0 56 56" fill="none" xmlns="http://www.w3.org/2000/svg">
<path d="M35.9348 7.93506C33.1178 7.93506 30.4351 8.51979 28 9.57259C25.5649 8.51991 22.8822 7.93506 20.0651 7.93506C9.00107 7.93506 0 16.9362 0 28.0002C0 39.0642 9.00107 48.0654 20.065 48.0654C22.8821 48.0654 25.5649 47.4806 27.9999 46.4278C30.4349 47.4805 33.1177 48.0654 35.9347 48.0654C46.9988 48.0654 56 39.0642 56 28.0002C56 16.9362 46.9988 7.93506 35.9348 7.93506ZM31.7231 14.6519L19.0085 22.7171C20.4525 18.0996 23.7377 14.289 28 12.1465C29.3418 12.8212 30.5927 13.663 31.7231 14.6519ZM19.7604 35.2612C19.3597 34.3717 19.0336 33.4503 18.7857 32.5067L36.5094 21.373C36.8433 22.1982 37.114 23.0477 37.3192 23.914L19.7604 35.2612ZM37.7249 26.4299C37.7705 26.9475 37.7952 27.471 37.7952 28.0002C37.7952 28.7689 37.7459 29.5263 37.6506 30.2695L22.86 39.9636C22.1139 39.1486 21.4451 38.266 20.8623 37.3272L37.7249 26.4299ZM18.323 30.0418C18.2446 29.3641 18.2051 28.6824 18.2048 28.0002C18.2048 27.2936 18.2476 26.5968 18.3284 25.9115L33.4136 16.3428C34.2008 17.243 34.8954 18.2203 35.4869 19.2598L18.323 30.0418ZM20.065 45.732C10.2878 45.732 2.33333 37.7776 2.33333 28.0002C2.33333 18.2228 10.2878 10.2684 20.065 10.2684C21.8612 10.2684 23.5955 10.5378 25.2307 11.0369C19.6107 14.5964 15.8715 20.8695 15.8715 28.0003C15.8715 31.3218 16.6835 34.457 18.1181 37.219C18.1473 37.3574 18.2016 37.4894 18.2782 37.6084C18.3219 37.6748 18.3723 37.7366 18.4287 37.7927C20.0677 40.7092 22.405 43.1732 25.2308 44.9639C23.5564 45.4743 21.8155 45.7331 20.065 45.732ZM24.5924 41.6179L36.9055 33.5476C35.4204 38.0459 32.1805 41.7526 27.9999 43.8539C26.7821 43.2416 25.6388 42.4913 24.5924 41.6179ZM35.9348 45.732C34.1845 45.7332 32.4436 45.4742 30.7693 44.9637C36.3893 41.4042 40.1287 35.131 40.1287 28.0002C40.1287 26.7259 40.0079 25.4795 39.7797 24.2705C39.7773 24.2553 39.774 24.2403 39.771 24.2251C38.7126 18.6883 35.3724 13.9523 30.7693 11.0368C32.4436 10.5262 34.1845 10.2672 35.9348 10.2684C45.7121 10.2684 53.6667 18.2228 53.6667 28.0002C53.6667 37.7776 45.7121 45.732 35.9348 45.732Z" fill="white"/>
</svg>
