<svg width="56" height="56" viewBox="0 0 56 56" fill="none" xmlns="http://www.w3.org/2000/svg">
<g clip-path="url(#clip0_4177_2083)">
<path d="M10.6507 37.7113H1.84078C1.11595 37.7113 0.528281 38.299 0.528281 39.0238V54.1181C0.528281 54.843 1.11595 55.4306 1.84078 55.4306H10.6508C11.3757 55.4306 11.9633 54.843 11.9633 54.1181V39.0238C11.9632 38.2989 11.3757 37.7113 10.6507 37.7113ZM9.33822 52.8056H3.15328V40.3363H9.33833L9.33822 52.8056ZM25.1838 23.5892H16.3738C15.6489 23.5892 15.0613 24.1768 15.0613 24.9017V53.7752C15.0613 54.5001 15.6489 55.0877 16.3738 55.0877H25.1838C25.9086 55.0877 26.4963 54.5001 26.4963 53.7752V24.9017C26.4963 24.1767 25.9088 23.5892 25.1838 23.5892ZM23.8713 52.4627H17.6863V26.2142H23.8713V52.4627ZM39.7169 28.3926H30.907C30.1821 28.3926 29.5945 28.9803 29.5945 29.7051V53.4322C29.5945 54.1571 30.1821 54.7447 30.907 54.7447H39.7169C40.4417 54.7447 41.0294 54.1571 41.0294 53.4322V29.7051C41.0294 28.9801 40.4417 28.3926 39.7169 28.3926ZM38.4044 52.1197H32.2195V31.0176H38.4044V52.1197ZM54.25 15.0127H45.44C44.7151 15.0127 44.1275 15.6004 44.1275 16.3252V53.0892C44.1275 53.8141 44.7151 54.4017 45.44 54.4017H54.25C54.9748 54.4017 55.5625 53.8141 55.5625 53.0892V16.3252C55.5625 15.6003 54.9748 15.0127 54.25 15.0127ZM52.9375 51.7767H46.7525V17.6377H52.9375V51.7767ZM5.38355 31.2649C8.11092 31.2649 10.3298 29.0461 10.3298 26.3187C10.3298 25.5476 10.1522 24.8172 9.83609 24.166L18.0565 16.9713C18.8634 17.5066 19.8105 17.7917 20.7788 17.7908C22.4615 17.7908 23.9496 16.9456 24.8435 15.6582L30.3786 17.596C30.3705 17.708 30.3663 17.8203 30.3659 17.9326C30.3659 20.6599 32.5847 22.8787 35.3119 22.8787C38.0393 22.8787 40.2582 20.6599 40.2582 17.9326C40.2588 17.2068 40.0987 16.4899 39.7893 15.8334L47.0734 9.60995C47.8907 10.166 48.8565 10.4628 49.845 10.4616C52.5724 10.4616 54.7913 8.24276 54.7913 5.51538C54.7913 2.78812 52.5724 0.569336 49.845 0.569336C47.1177 0.569336 44.8989 2.78812 44.8989 5.51538C44.8983 6.24113 45.0584 6.958 45.3678 7.61451L38.0837 13.8381C37.2664 13.2821 36.3005 12.9853 35.3119 12.9864C33.6294 12.9864 32.1413 13.8315 31.2473 15.1189L25.7123 13.1811C25.7199 13.0698 25.725 12.9577 25.725 12.8445C25.725 10.1171 23.5061 7.89834 20.7787 7.89834C18.0514 7.89834 15.8326 10.1171 15.8326 12.8445C15.8318 13.5902 16.0006 14.3264 16.3263 14.9972L8.10578 22.1919C7.29885 21.6567 6.35184 21.3716 5.38355 21.3726C2.65628 21.3727 0.4375 23.5915 0.4375 26.3187C0.4375 29.046 2.65628 31.2649 5.38355 31.2649ZM49.8449 3.19445C51.1248 3.19445 52.1662 4.2357 52.1662 5.51549C52.1662 6.7954 51.1248 7.83676 49.8449 7.83676C48.565 7.83676 47.5238 6.7954 47.5238 5.51549C47.5238 4.2357 48.565 3.19445 49.8449 3.19445ZM35.3118 15.6115C36.5918 15.6115 37.6331 16.6528 37.6331 17.9327C37.6331 19.2125 36.5917 20.2538 35.3118 20.2538C34.032 20.2538 32.9908 19.2125 32.9908 17.9327C32.9908 16.6528 34.032 15.6115 35.3118 15.6115ZM20.7788 10.5234C22.0588 10.5234 23.1001 11.5647 23.1001 12.8446C23.1001 14.1246 22.0588 15.1659 20.7788 15.1659C19.4989 15.1659 18.4577 14.1245 18.4577 12.8446C18.4577 11.5647 19.4989 10.5234 20.7788 10.5234ZM5.38355 23.9977C6.66356 23.9977 7.70481 25.0389 7.70481 26.3187C7.70481 27.5986 6.66345 28.6399 5.38355 28.6399C4.10375 28.6399 3.0625 27.5986 3.0625 26.3187C3.0625 25.0389 4.10375 23.9977 5.38355 23.9977Z" fill="#1B6936"/>
</g>
<defs>
<clipPath id="clip0_4177_2083">
<rect width="56" height="56" fill="white"/>
</clipPath>
</defs>
</svg>
