<svg width="56" height="56" viewBox="0 0 56 56" fill="none" xmlns="http://www.w3.org/2000/svg">
<g clip-path="url(#clip0_3846_5174)">
<path d="M14.8973 31.5781H41.1027C41.7067 31.5781 42.1964 31.0883 42.1964 30.4843V25.8648C42.1964 20.0513 38.1306 15.1695 32.6933 13.9137C34.3808 12.5445 35.462 10.4556 35.462 8.11814C35.462 4.00367 32.1146 0.65625 28 0.65625C23.8854 0.65625 20.5381 4.00356 20.5381 8.11814C20.5381 10.4556 21.6192 12.5444 23.3067 13.9137C17.8692 15.1695 13.8035 20.0513 13.8035 25.8648V30.4843C13.8035 31.0883 14.2933 31.5781 14.8973 31.5781ZM27.6275 15.7876H28.3725L29.9805 26.3729L28 28.7679L26.0195 26.3729L27.6275 15.7876ZM40.0089 25.8648V29.3906H30.3236L31.9782 27.3896C32.0763 27.2709 32.1483 27.1329 32.1894 26.9844C32.2305 26.836 32.2398 26.6806 32.2167 26.5284L30.5886 15.8096C35.8401 16.1491 40.009 20.5289 40.009 25.8648H40.0089ZM22.7256 8.11814C22.7256 5.20986 25.0917 2.84375 28 2.84375C30.9083 2.84375 33.2745 5.20986 33.2745 8.11814C33.2745 11.0264 30.9084 13.3925 28 13.3925C25.0916 13.3925 22.7256 11.0264 22.7256 8.11814ZM15.9911 25.8648C15.9911 20.5289 20.1599 16.1491 25.4115 15.8096L23.7834 26.5284C23.7602 26.6806 23.7695 26.836 23.8106 26.9845C23.8517 27.1329 23.9237 27.2709 24.0219 27.3896L25.6765 29.3906H15.9912V25.8648H15.9911ZM49.3606 43.0066C50.2799 42.0459 50.8465 40.7451 50.8465 39.3138C50.8465 36.3658 48.448 33.9674 45.5 33.9674C42.552 33.9674 40.1535 36.3658 40.1535 39.3138C40.1535 40.7451 40.7201 42.0459 41.6394 43.0066C39.5501 43.6663 37.8063 45.1085 36.75 46.9872C35.6937 45.1084 33.9498 43.6663 31.8606 43.0066C32.7799 42.0459 33.3465 40.7451 33.3465 39.3138C33.3465 36.3658 30.948 33.9674 28 33.9674C25.052 33.9674 22.6536 36.3658 22.6536 39.3138C22.6536 40.7451 23.2202 42.0459 24.1395 43.0066C22.0502 43.6663 20.3063 45.1085 19.25 46.9872C18.1937 45.1084 16.4498 43.6663 14.3606 43.0066C15.2799 42.0459 15.8465 40.7451 15.8465 39.3138C15.8465 36.3658 13.448 33.9674 10.5 33.9674C7.55202 33.9674 5.15364 36.3658 5.15364 39.3138C5.15364 40.7451 5.7202 42.0459 6.6395 43.0066C3.17516 44.1005 0.65625 47.3438 0.65625 51.165V54.2499C0.65625 54.8539 1.14603 55.3436 1.75 55.3436H29.3169C29.9208 55.3436 30.4106 54.8539 30.4106 54.2499C30.4106 53.6459 29.9208 53.1561 29.3169 53.1561H20.3438V51.165C20.3438 47.6546 23.1995 44.7988 26.7099 44.7988H29.2901C32.8005 44.7988 35.6562 47.6546 35.6562 51.165V53.1561H32.8442C32.2403 53.1561 31.7505 53.6459 31.7505 54.2499C31.7505 54.8539 32.2403 55.3436 32.8442 55.3436H54.25C54.854 55.3436 55.3438 54.8539 55.3438 54.2499V51.165C55.3438 47.3438 52.8248 44.1005 49.3606 43.0066ZM10.5 36.1549C12.2419 36.1549 13.659 37.572 13.659 39.3138C13.659 41.0555 12.2419 42.4727 10.5 42.4727C8.75809 42.4727 7.34114 41.0557 7.34114 39.3138C7.34114 37.5718 8.7582 36.1549 10.5 36.1549ZM2.84375 51.165C2.84375 47.6546 5.69953 44.7988 9.20992 44.7988H11.7901C15.3005 44.7988 18.1562 47.6546 18.1562 51.165V53.1561H2.84375V51.165ZM28 36.1549C29.7419 36.1549 31.159 37.572 31.159 39.3138C31.159 41.0555 29.7419 42.4727 28 42.4727C26.2581 42.4727 24.8411 41.0557 24.8411 39.3138C24.8411 37.5718 26.2582 36.1549 28 36.1549ZM45.5 36.1549C47.2419 36.1549 48.659 37.572 48.659 39.3138C48.659 41.0555 47.2419 42.4727 45.5 42.4727C43.7581 42.4727 42.341 41.0557 42.341 39.3138C42.341 37.5718 43.7581 36.1549 45.5 36.1549ZM53.1562 53.1561H37.8438V51.165C37.8438 47.6546 40.6995 44.7988 44.2099 44.7988H46.7901C50.3005 44.7988 53.1562 47.6546 53.1562 51.165V53.1561ZM41.6196 18.4177V19.1358C41.6196 20.0922 42.1714 20.9218 42.9731 21.3242V22.0125C42.9731 23.4555 44.147 24.6295 45.5901 24.6295H47.5277C48.9706 24.6295 50.1446 23.4556 50.1446 22.0125V21.3242C50.9463 20.9218 51.4982 20.0923 51.4982 19.1358V18.4177C51.4982 17.0439 52.1626 16.1171 53.0039 14.9434C54.0463 13.489 55.3438 11.6791 55.3438 8.63986C55.3438 6.16645 54.3701 4.08373 52.5279 2.61691C50.9402 1.35253 48.8205 0.65625 46.5591 0.65625C44.2976 0.65625 42.1778 1.35253 40.5903 2.61691C38.7481 4.08373 37.7744 6.16645 37.7744 8.63986C37.7744 11.6791 39.0717 13.489 40.1143 14.9434C40.9555 16.117 41.6199 17.0439 41.6199 18.4177H41.6196ZM47.5277 22.442H45.5901C45.3573 22.442 45.1606 22.2453 45.1606 22.0125V21.5832H47.957V22.0125C47.957 22.2453 47.7603 22.442 47.5276 22.442H47.5277ZM46.559 2.84375C49.7364 2.84375 53.1561 4.65752 53.1561 8.63986C53.1561 10.976 52.2186 12.2841 51.2259 13.6689C50.2844 14.9825 49.3107 16.3408 49.3107 18.4175V19.1357C49.3107 19.2766 49.1917 19.3956 49.0509 19.3956H44.0671C43.9262 19.3956 43.8072 19.2766 43.8072 19.1357V18.4175C43.8072 16.3408 42.8337 14.9825 41.892 13.6689C40.8994 12.2841 39.9618 10.976 39.9618 8.63986C39.9618 4.65752 43.3816 2.84375 46.559 2.84375Z" fill="#1B6936"/>
</g>
<defs>
<clipPath id="clip0_3846_5174">
<rect width="56" height="56" fill="white"/>
</clipPath>
</defs>
</svg>
