<svg width="56" height="56" viewBox="0 0 56 56" fill="none" xmlns="http://www.w3.org/2000/svg">
<path fill-rule="evenodd" clip-rule="evenodd" d="M24.4791 24.8587C24.4791 22.9173 26.0585 21.338 27.9999 21.338C29.9413 21.338 31.5207 22.9173 31.5207 24.8587C31.5207 26.8002 29.9402 28.3784 27.9999 28.3784C26.0596 28.3784 24.4791 26.7991 24.4791 24.8587ZM32.9535 30.9684C32.6308 31.2298 32.1802 31.2288 31.8608 30.963L30.9836 30.2345C30.7649 30.053 30.4663 30.007 30.2038 30.1175C30.0752 30.171 29.9639 30.259 29.8821 30.3717C29.8003 30.4844 29.7511 30.6174 29.74 30.7563L29.6438 31.8938C29.6088 32.3072 29.2938 32.6309 28.8804 32.6769C28.806 32.6845 28.7316 32.6922 28.6572 32.6987V40.4502H34.0954C34.6214 35.4747 36.238 33.4961 37.6719 31.7428C39.0468 30.0628 40.2346 28.6114 40.2346 24.5667C40.2346 17.8216 34.7472 12.3331 28.001 12.3331C21.2547 12.3331 15.7674 17.8216 15.7674 24.5667C15.7674 28.6114 16.9552 30.0628 18.33 31.7428C19.7639 33.4961 21.3816 35.4747 21.9066 40.4502H27.3436V32.6987C27.2889 32.6944 27.2354 32.6889 27.1818 32.6834C26.7694 32.6408 26.4522 32.3192 26.4139 31.9069L26.3079 30.7705C26.2957 30.6318 26.2454 30.4991 26.1626 30.3872C26.0798 30.2752 25.9677 30.1884 25.8386 30.1361C25.7468 30.0989 25.6494 30.0781 25.5499 30.0781C25.3694 30.0781 25.1966 30.1427 25.0588 30.2586L24.1871 30.9936C23.8699 31.2616 23.4193 31.267 23.0944 31.0078C22.6507 30.6532 22.2462 30.2521 21.888 29.8112C21.6266 29.4886 21.6288 29.038 21.8946 28.7186L22.623 27.8414C22.8046 27.6227 22.8505 27.323 22.74 27.0605C22.6865 26.9319 22.5986 26.8206 22.4859 26.7388C22.3732 26.6569 22.2401 26.6078 22.1013 26.5967L20.9638 26.5005C20.5504 26.4655 20.2277 26.1516 20.1807 25.7381C20.1183 25.1759 20.115 24.6028 20.1741 24.0395C20.2168 23.6272 20.5383 23.31 20.9518 23.2717L22.0871 23.1667C22.2258 23.1545 22.3584 23.1043 22.4704 23.0215C22.5823 22.9387 22.6692 22.8266 22.7214 22.6975C22.8286 22.4339 22.7805 22.1342 22.5979 21.9177L21.8629 21.0459C21.5949 20.7288 21.5894 20.277 21.8486 19.9533C22.203 19.5103 22.6044 19.1056 23.0441 18.748C23.3668 18.4866 23.8174 18.4888 24.1368 18.7534L25.0139 19.4819C25.2327 19.6634 25.5313 19.7094 25.7938 19.5989C26.0563 19.4884 26.2335 19.2445 26.2575 18.9602L26.3538 17.8227C26.3888 17.4092 26.7038 17.0866 27.1161 17.0406C27.6801 16.9779 28.2491 16.9754 28.8136 17.033C29.226 17.0756 29.5443 17.3972 29.5825 17.8095L29.6875 18.9459C29.6997 19.0846 29.75 19.2173 29.8328 19.3292C29.9156 19.4412 30.0277 19.5281 30.1568 19.5803C30.4193 19.6886 30.7189 19.6394 30.9366 19.4567L31.8083 18.7217C32.1255 18.4538 32.5761 18.4483 32.901 18.7075C33.3439 19.0619 33.7497 19.4633 34.1074 19.9041C34.3688 20.2267 34.3666 20.6773 34.1019 20.9967L33.3735 21.8739C33.1919 22.0927 33.146 22.3923 33.2564 22.6548C33.3669 22.9173 33.6108 23.0945 33.8952 23.1186L35.0316 23.2148C35.4461 23.2498 35.7688 23.5648 35.8147 23.9772C35.8771 24.5405 35.8793 25.1114 35.8213 25.6747C35.7786 26.087 35.4571 26.4042 35.0447 26.4425L33.9083 26.5475C33.6239 26.5737 33.3822 26.7531 33.2739 27.0167C33.1668 27.2792 33.2138 27.58 33.3975 27.7966L34.1325 28.6683C34.4005 28.9855 34.406 29.4372 34.1468 29.7609C33.7921 30.2043 33.391 30.6084 32.9502 30.9662L32.9535 30.9684ZM21.9657 41.7616H34.033V47.0214H21.9657V41.7616ZM22.0039 48.3339H33.9958C33.6622 51.2881 31.1007 53.5938 27.9999 53.5938C24.8991 53.5938 22.3386 51.2881 22.0039 48.3339ZM41.523 25.515H48.1533C48.4596 27.0812 49.8432 28.2669 51.498 28.2669C53.3782 28.2669 54.9061 26.7378 54.9061 24.8587C54.9061 22.9797 53.3771 21.4495 51.498 21.4495C49.8432 21.4495 48.4607 22.6352 48.1533 24.2025H41.5405C41.4738 21.6902 40.7202 19.3462 39.4602 17.3523H44.0747C44.3372 17.3523 44.5735 17.197 44.6774 16.9564L47.4949 10.4191C47.7278 10.4694 47.9685 10.4956 48.2157 10.4956C50.0947 10.4956 51.6238 8.96656 51.6238 7.0875C51.6238 5.20844 50.0947 3.67937 48.2157 3.67937C46.3366 3.67937 44.8075 5.20844 44.8075 7.0875C44.8075 8.25234 45.396 9.28266 46.2907 9.89844L43.6438 16.0398H38.5185C36.1614 13.1381 32.6308 11.2262 28.6561 11.0359V7.84656C30.2224 7.54031 31.408 6.15781 31.408 4.50187C31.408 2.62281 29.8789 1.09375 27.9999 1.09375C26.1208 1.09375 24.5918 2.62281 24.5918 4.50187C24.5918 6.15781 25.7774 7.54031 27.3436 7.84656V11.0359C23.3689 11.2262 19.8383 13.1381 17.4813 16.0398H12.356L9.7091 9.89844C10.6038 9.28266 11.1922 8.25234 11.1922 7.0875C11.1922 5.20844 9.66316 3.67937 7.7841 3.67937C5.90504 3.67937 4.37598 5.20844 4.37598 7.0875C4.37598 8.96656 5.90504 10.4956 7.7841 10.4956C8.03129 10.4956 8.27301 10.4694 8.50488 10.4191L11.3224 16.9564C11.4263 17.197 11.6625 17.3523 11.925 17.3523H16.5396C15.2807 19.3462 14.526 21.6902 14.4593 24.2025H7.84754C7.54019 22.6352 6.1577 21.4495 4.50285 21.4495C2.62379 21.4495 1.09473 22.9786 1.09473 24.8587C1.09473 26.7389 2.62379 28.2669 4.50285 28.2669C6.1577 28.2669 7.54019 27.0812 7.84754 25.515H14.4779C14.6463 29.0325 15.7597 30.6513 17.0011 32.188H11.9261C11.6636 32.188 11.4274 32.3444 11.3235 32.585L8.50598 39.1223C8.27301 39.072 8.03238 39.0447 7.7852 39.0447C5.90613 39.0447 4.37707 40.5737 4.37707 42.4539C4.37707 44.3341 5.90613 45.862 7.7852 45.862C9.66426 45.862 11.1933 44.333 11.1933 42.4539C11.1933 41.288 10.6049 40.2577 9.71019 39.643L12.3571 33.5005H18.0544C19.228 35.0448 20.3043 36.9983 20.6554 41.1327V47.6777C20.6554 51.6633 23.9508 54.9062 28.0021 54.9062C32.0533 54.9062 35.3488 51.6633 35.3488 47.6777V41.1327C35.6999 36.9983 36.7761 35.0448 37.9497 33.5005H43.6471L46.2939 39.643C45.3993 40.2577 44.8108 41.288 44.8108 42.4539C44.8108 44.333 46.3399 45.862 48.2189 45.862C50.098 45.862 51.6271 44.333 51.6271 42.4539C51.6271 40.5748 50.098 39.0447 48.2189 39.0447C47.9718 39.0447 47.7311 39.072 47.4982 39.1223L44.6807 32.585C44.6299 32.4673 44.5457 32.367 44.4387 32.2964C44.3316 32.2259 44.2062 32.1882 44.078 32.188H39.003C40.2444 30.6513 41.3579 29.0325 41.5263 25.515H41.523Z" fill="#1B6936"/>
</svg>
