<svg width="40" height="40" viewBox="0 0 40 40" fill="none" xmlns="http://www.w3.org/2000/svg">
<path d="M36.4014 11.4572C36.3815 11.4052 36.356 11.3556 36.3254 11.3091C34.7681 8.38786 32.456 5.93763 29.63 4.21358C26.804 2.48954 23.5674 1.55475 20.2573 1.50659C20.2473 1.50659 20.2376 1.50471 20.2276 1.5044C20.079 1.49691 19.93 1.49691 19.7814 1.5044C19.7698 1.5044 19.7586 1.50659 19.747 1.5069C16.4363 1.55431 13.1989 2.48871 10.372 4.21273C7.54524 5.93676 5.2325 8.38732 3.67481 11.3091C3.64423 11.3556 3.61877 11.4052 3.59887 11.4572C1.65028 15.1854 1.03416 19.4675 1.85262 23.5938C1.89958 23.7903 2.02089 23.9611 2.19107 24.0701C2.36125 24.1791 2.56705 24.2179 2.76526 24.1784C2.96346 24.1389 3.13864 24.0241 3.25399 23.8582C3.36934 23.6922 3.4159 23.488 3.38387 23.2885C2.68642 19.7699 3.12673 16.1207 4.64106 12.8691C6.50034 13.8987 8.50373 14.6431 10.5842 15.0775C10.4094 16.2926 10.3008 17.5163 10.2589 18.7431C10.2519 18.9503 10.3275 19.1518 10.4691 19.3033C10.6107 19.4547 10.8067 19.5437 11.0139 19.5506C11.2211 19.5576 11.4226 19.482 11.574 19.3404C11.7254 19.1988 11.8144 19.0028 11.8214 18.7956C11.8601 17.6558 11.9591 16.5188 12.1179 15.3894C14.4624 15.8091 16.8373 16.036 19.2189 16.0678V23.9281C18.1314 23.9469 17.0595 24 16.0189 24.0906C15.7598 23.0714 15.1207 22.1899 14.2325 21.6269C13.3443 21.0639 12.2743 20.8619 11.242 21.0626C10.2097 21.2632 9.29324 21.8512 8.68057 22.7059C8.0679 23.5606 7.80544 24.6173 7.947 25.6594C6.50123 26.1153 5.12877 26.7773 3.872 27.625C3.78828 27.6845 3.7171 27.7599 3.66253 27.847C3.60795 27.934 3.57105 28.0309 3.55393 28.1321C3.53681 28.2334 3.53981 28.3371 3.56274 28.4372C3.58568 28.5373 3.62812 28.6319 3.68762 28.7156C3.74713 28.7994 3.82254 28.8705 3.90955 28.9251C3.99656 28.9797 4.09347 29.0166 4.19475 29.0337C4.29602 29.0508 4.39968 29.0478 4.49979 29.0249C4.59991 29.002 4.69453 28.9595 4.77825 28.9C5.90917 28.1369 7.145 27.5421 8.447 27.1344C8.87212 27.8847 9.52213 28.4826 10.3053 28.8436C11.0884 29.2047 11.9652 29.3106 12.8118 29.1466C13.6585 28.9826 14.4322 28.5569 15.0239 27.9295C15.6156 27.3021 15.9953 26.5048 16.1095 25.65C17.3657 25.5406 18.6689 25.4844 20.0001 25.4844C21.3314 25.4844 22.6345 25.5406 23.8907 25.65C24.0049 26.5048 24.3847 27.3021 24.9763 27.9295C25.568 28.5569 26.3418 28.9826 27.1884 29.1466C28.035 29.3106 28.9118 29.2047 29.695 28.8436C30.4781 28.4826 31.1281 27.8847 31.5532 27.1344C32.8552 27.5421 34.0911 28.1369 35.222 28.9C35.3546 28.9935 35.5129 29.0437 35.6751 29.0438C35.841 29.0441 36.0027 28.9916 36.1368 28.8939C36.2709 28.7961 36.3704 28.6583 36.4209 28.5002C36.4713 28.3422 36.4702 28.1722 36.4176 28.0148C36.365 27.8574 36.2636 27.7209 36.1282 27.625C34.8715 26.7773 33.499 26.1153 32.0532 25.6594C32.1963 24.6167 31.9347 23.5587 31.3221 22.7029C30.7095 21.847 29.7924 21.2582 28.7593 21.0574C27.7261 20.8566 26.6552 21.0591 25.7667 21.6232C24.8781 22.1873 24.2393 23.0702 23.9814 24.0906C22.9407 24 21.8689 23.9469 20.7814 23.9281V16.0678C23.1628 16.036 25.5376 15.8091 27.882 15.3894C28.0409 16.5188 28.1399 17.6558 28.1786 18.7956C28.1854 18.9983 28.2707 19.1903 28.4165 19.3312C28.5622 19.4721 28.7571 19.5508 28.9598 19.5506H28.9867C29.1938 19.5436 29.3896 19.4547 29.531 19.3033C29.6725 19.1519 29.7481 18.9505 29.7411 18.7435C29.6992 17.5166 29.5906 16.2929 29.4157 15.0778C31.4962 14.6434 33.4996 13.899 35.3589 12.8694C36.8732 16.1211 37.3135 19.7702 36.6161 23.2888C36.5756 23.492 36.6175 23.7029 36.7325 23.8752C36.8476 24.0475 37.0263 24.167 37.2295 24.2075C37.2801 24.2178 37.3316 24.223 37.3832 24.2228C37.5638 24.2226 37.7387 24.1599 37.8783 24.0452C38.0178 23.9306 38.1133 23.7712 38.1486 23.5941C38.9669 19.468 38.3508 15.1861 36.4023 11.4581L36.4014 11.4572ZM27.972 22.5438C28.6497 22.5446 29.2994 22.8142 29.7786 23.2934C30.2578 23.7726 30.5274 24.4223 30.5282 25.1C30.5282 25.1344 30.5282 25.1656 30.5251 25.2C30.5065 25.7328 30.3194 26.2459 29.9907 26.6656C29.703 27.039 29.3174 27.3253 28.8769 27.4928C28.4363 27.6604 27.958 27.7027 27.4948 27.615C27.0317 27.5273 26.6019 27.313 26.2532 26.996C25.9044 26.6789 25.6502 26.2715 25.5189 25.8188C25.451 25.5852 25.4163 25.3433 25.4157 25.1C25.4152 24.8116 25.4638 24.5252 25.5595 24.2531C25.7358 23.7539 26.0623 23.3215 26.4943 23.0154C26.9263 22.7093 27.4425 22.5446 27.972 22.5438ZM15.2639 3.74127C13.2457 5.8169 11.6667 9.2294 10.8398 13.5391C8.92117 13.1389 7.07523 12.4469 5.36637 11.4872C7.55558 7.73628 11.0968 4.96491 15.2639 3.74127ZM12.3707 13.8563C13.5001 8.0019 16.2104 3.7769 19.2189 3.14409V14.5056C16.9223 14.4755 14.632 14.2584 12.3707 13.8563ZM12.027 27.6594C11.6369 27.6595 11.2519 27.5699 10.9019 27.3976C10.5519 27.2253 10.2461 26.9749 10.0082 26.6656C9.67955 26.2459 9.49245 25.7328 9.47387 25.2C9.47075 25.1656 9.47075 25.1344 9.47075 25.1C9.47075 24.4221 9.74006 23.7719 10.2195 23.2925C10.6988 22.8131 11.349 22.5438 12.027 22.5438C12.705 22.5438 13.3551 22.8131 13.8345 23.2925C14.3139 23.7719 14.5832 24.4221 14.5832 25.1C14.5827 25.3433 14.548 25.5852 14.4801 25.8188C14.3245 26.3489 14.0017 26.8145 13.5598 27.1462C13.118 27.4779 12.5807 27.6579 12.0282 27.6594H12.027ZM20.7814 3.14284C23.7857 3.77002 26.5001 7.9969 27.6295 13.8566C25.3682 14.2584 23.0779 14.4755 20.7814 14.5056V3.14284ZM29.1604 13.5391C28.3336 9.22971 26.7542 5.81752 24.7389 3.7419C28.9049 4.966 32.4451 7.73706 34.6339 11.4872C32.925 12.4469 31.0791 13.1389 29.1604 13.5391ZM36.4189 35.95C34.3564 30.425 34.047 30.2031 28.1595 30.2031H27.7876C22.3814 30.2031 21.6751 30.3906 20.0001 34.7031C18.3251 30.3906 17.622 30.2031 12.2157 30.2031H11.8439C5.95637 30.2031 5.64387 30.425 3.58137 35.9531L3.522 36.1063C3.30637 36.6875 3.10637 37.3531 3.49075 37.9031C3.87512 38.4531 4.56262 38.5 5.18137 38.5H18.872C19.2545 38.5182 19.637 38.4652 20.0001 38.3438C20.3622 38.4652 20.7437 38.5182 21.1251 38.5H34.8157C35.4345 38.5 36.1282 38.4531 36.5095 37.9031C36.6567 37.6904 36.7332 37.4368 36.7282 37.1781C36.7084 36.809 36.6238 36.4461 36.4782 36.1063L36.4189 35.95ZM18.872 36.9375H5.18137C5.06262 36.9375 4.96575 36.9344 4.89075 36.9281C4.91262 36.8563 4.94387 36.7656 4.98762 36.6531L5.04387 36.4969C5.96575 34.0344 6.42512 32.7969 7.16887 32.2813C7.91262 31.7656 9.23137 31.7656 11.8626 31.7656H12.197C14.8282 31.7656 16.1439 31.7656 16.8876 32.2813C17.6314 32.7969 18.0907 34.0313 19.0126 36.4969L19.0689 36.65C19.1126 36.7656 19.1439 36.8563 19.1657 36.9281C19.0907 36.9344 18.9939 36.9375 18.872 36.9375ZM34.8157 36.9375H21.1251C21.0064 36.9375 20.9095 36.9344 20.8376 36.9281C20.8638 36.8348 20.8951 36.743 20.9314 36.6531L20.9876 36.5C21.9095 34.0344 22.3689 32.7969 23.1126 32.2813C23.8564 31.7656 25.1689 31.7656 27.8064 31.7656H28.1407C30.772 31.7625 32.0876 31.7656 32.8314 32.2813C33.5751 32.7969 34.0345 34.0313 34.9564 36.4969L35.0126 36.65C35.0564 36.7656 35.0876 36.8563 35.1095 36.9281C35.0345 36.9344 34.9376 36.9375 34.8157 36.9375Z" fill="#1B6936"/>
</svg>
