<svg width="56" height="56" viewBox="0 0 56 56" fill="none" xmlns="http://www.w3.org/2000/svg">
<g clip-path="url(#clip0_4177_1833)">
<mask id="mask0_4177_1833" style="mask-type:luminance" maskUnits="userSpaceOnUse" x="0" y="0" width="56" height="56">
<path d="M0 0H56V56H0V0Z" fill="white"/>
</mask>
<g mask="url(#mask0_4177_1833)">
<path fill-rule="evenodd" clip-rule="evenodd" d="M47.2111 11.4819C47.2109 11.4819 47.2113 11.4818 47.2111 11.4819L42.5658 13.4133C42.5443 13.4211 42.5267 13.4371 42.5169 13.4577C42.5133 13.4655 42.5112 13.4739 42.5107 13.4824C42.5104 13.4937 42.5124 13.5048 42.5165 13.5153L42.5205 13.5263L48.6732 31.2767L48.678 31.2908C48.6809 31.2995 48.6846 31.3052 48.6895 31.3106C48.6979 31.3192 48.7079 31.326 48.719 31.3308C48.7484 31.344 48.7736 31.342 48.7912 31.3347C48.7911 31.3349 48.7913 31.3346 48.7912 31.3347L53.437 29.4031C53.4585 29.3953 53.4761 29.3793 53.4859 29.3587C53.4895 29.3509 53.4916 29.3425 53.492 29.3339C53.4923 29.3227 53.4904 29.3116 53.4862 29.3011L53.4823 29.2901L47.3295 11.5397L47.3247 11.5256C47.3225 11.5183 47.3186 11.5115 47.3133 11.5059C47.3049 11.4973 47.2949 11.4904 47.2838 11.4856C47.2544 11.4725 47.2288 11.4746 47.2111 11.4819ZM49.7008 10.7244C49.2181 9.29218 47.6147 8.60126 46.2524 9.16497L41.6149 11.0931C40.3527 11.6104 39.6833 13.0268 40.1529 14.3522L46.302 32.0919C46.7847 33.5242 48.388 34.2151 49.7503 33.6514L49.7523 33.6506L54.3879 31.7231C55.6501 31.206 56.3195 29.7896 55.8498 28.4642L49.7008 10.7244ZM7.86624 12.0743L7.86591 12.0753L2.52032 30.1626C2.51752 30.172 2.51461 30.1815 2.51157 30.1909C2.50271 30.2186 2.51201 30.2661 2.56987 30.2868L7.28251 31.9716L7.30504 31.9801C7.30613 31.9804 7.30723 31.9808 7.31095 31.9806C7.32149 31.9794 7.33169 31.9761 7.34102 31.9711C7.35302 31.9655 7.36379 31.9576 7.37269 31.9478C7.38159 31.938 7.38845 31.9265 7.39287 31.914L7.39309 31.913L12.7388 13.8258C12.7415 13.8163 12.7445 13.8068 12.7474 13.7974C12.7564 13.7698 12.7471 13.7221 12.6892 13.7015L7.9766 12.0166L7.95396 12.0083C7.95287 12.008 7.95177 12.0075 7.94816 12.0077C7.93758 12.0089 7.92732 12.0121 7.91798 12.0173C7.906 12.0229 7.89525 12.0308 7.88637 12.0406C7.87749 12.0504 7.87064 12.0619 7.86624 12.0743ZM8.83016 9.65902C7.41616 9.13129 5.88251 9.96035 5.46426 11.3549L0.11932 29.4399C-0.300242 30.7746 0.422398 32.1824 1.72648 32.6482L6.42895 34.3293C7.84295 34.8571 9.37649 34.0279 9.79474 32.6335L9.79627 32.6285L15.1398 14.5484C15.5592 13.2138 14.8368 11.8062 13.533 11.3403L8.83016 9.65902Z" fill="#1B6936"/>
<path fill-rule="evenodd" clip-rule="evenodd" d="M33.8373 14.8096C32.5674 14.4831 31.4748 14.4364 30.6675 14.7594L30.6538 14.7649C28.7282 15.5087 25.0647 17.9479 22.6158 21.2014C22.1181 21.8909 22.173 22.926 22.7272 23.5677C22.7613 23.6071 22.7928 23.6485 22.8215 23.6917L22.8267 23.6994C23.2291 24.1438 23.8132 24.2544 24.3121 24.0405L24.3167 24.0387C24.7127 23.8707 25.1615 23.5655 25.687 23.138C26.0082 22.8768 26.292 22.6273 26.5911 22.3644C26.8124 22.1699 27.0421 21.968 27.3015 21.7485C27.8473 21.2867 28.4727 20.7954 29.1341 20.4718C29.8082 20.1421 30.6614 19.9184 31.5704 20.2175C32.2611 20.4452 33.2325 20.9782 34.2654 21.6044C35.3341 22.2522 36.5811 23.0699 37.865 23.9423C40.4327 25.6868 43.1912 27.6791 45.0497 29.0363C46.6417 30.1815 47.2351 32.2338 46.7177 34.0772L46.715 34.0867C46.124 36.1308 44.2654 37.4479 42.3333 37.3005C42.3381 38.3407 41.9984 39.3891 41.2976 40.23L41.2957 40.2322C40.2603 41.469 38.6607 41.9529 37.1946 41.5215C37.1493 42.5532 36.7675 43.5758 36.0337 44.3764L36.0299 44.3806C34.7396 45.7754 32.6947 46.1204 31.0394 45.1128L26.325 42.2305C25.7343 41.8693 25.5482 41.0977 25.9094 40.5069C26.2706 39.9162 27.0422 39.73 27.6329 40.0912L32.3432 42.971C32.343 42.9709 32.3433 42.9712 32.3432 42.971C32.9332 43.3299 33.6709 43.2364 34.1872 42.68C35.0209 41.7678 34.7728 40.2174 33.8283 39.647C33.828 39.6468 33.8276 39.6466 33.8273 39.6465L28.9948 36.742C28.4014 36.3854 28.2091 35.615 28.5657 35.0217C28.9222 34.4282 29.6924 34.2361 30.2859 34.5926L37.5681 38.9668C38.1399 39.3149 38.8752 39.2167 39.3725 38.6234C40.0676 37.7879 39.9268 36.5222 39.2229 35.871L32.1662 31.3538L32.1629 31.3517C31.5804 30.9788 31.4099 30.2047 31.7819 29.6216C32.1538 29.0384 32.9278 28.8667 33.5114 29.2378L33.5147 29.2399L40.3515 33.5861C40.481 33.6691 40.6058 33.759 40.7254 33.8556L41.7969 34.5415C42.6543 35.0963 43.918 34.7236 44.305 33.3949C44.5658 32.4582 44.2331 31.5364 43.5834 31.0704L43.5749 31.0642C41.7222 29.7113 38.9892 27.7375 36.4559 26.0163C35.1883 25.1551 33.9815 24.3644 32.9657 23.7487C31.9141 23.1113 31.1698 22.7256 30.7861 22.5992C30.7304 22.5809 30.5855 22.5531 30.236 22.7242C29.8725 22.902 29.4466 23.218 28.9212 23.6626C28.7187 23.8353 28.5176 24.0096 28.318 24.1856C27.9744 24.4865 27.6031 24.8116 27.2692 25.0832C26.6913 25.5533 26.0237 26.0379 25.2976 26.3462C23.7622 27.0031 21.9765 26.5906 20.8662 25.2655C20.8369 25.2305 20.8095 25.1939 20.7841 25.1559L20.7748 25.1418C19.5263 23.6355 19.4053 21.3485 20.5945 19.7176L20.6054 19.7028C23.33 16.0786 27.3724 13.3467 29.7434 12.4285C31.2899 11.8126 33.0139 12.009 34.4615 12.3812C36.0094 12.7791 37.4896 13.4481 38.4744 13.8934C38.5883 13.9448 38.6956 13.9932 38.7955 14.038C39.4455 14.3288 40.0587 14.3315 40.5247 14.2562C40.7104 14.2265 40.893 14.1802 41.0703 14.1179C41.1207 14.1001 41.1703 14.0803 41.2192 14.0586C41.8345 13.7541 42.5817 14.0014 42.893 14.615C43.2063 15.2326 42.9598 15.987 42.3423 16.3004L41.775 15.1824C42.3423 16.3004 42.3419 16.3006 42.3414 16.3008L42.3404 16.3014L42.3383 16.3025L42.3336 16.3049L42.3222 16.3105L42.2919 16.325C42.2685 16.336 42.2384 16.3498 42.202 16.3657C42.1295 16.3974 42.0313 16.4374 41.9105 16.4803C41.5904 16.5934 41.2607 16.6774 40.9255 16.7313C40.1097 16.8633 38.9771 16.8661 37.7716 16.3269C37.6652 16.2792 37.5549 16.2295 37.441 16.1781C36.4395 15.7265 35.1601 15.1497 33.8373 14.8096ZM12.7115 28.8593L12.711 28.8605L10.1031 35.368C9.82964 36.0874 10.1799 37.1058 11.1056 37.5603L11.3591 37.6755C11.3706 37.6808 11.382 37.6862 11.3934 37.6917C12.2582 38.1169 13.0575 37.7403 13.3152 37.1037L13.3156 37.1025L15.9236 30.5949C16.1969 29.8756 15.8468 28.8572 14.9212 28.4026L14.6675 28.2875C14.656 28.2822 14.6446 28.2768 14.6333 28.2713C13.7684 27.8461 12.9691 28.2226 12.7115 28.8593ZM15.7209 26.0119C13.7086 25.0347 11.2491 25.7827 10.3857 27.9221L7.77218 34.444L7.76628 34.4589C6.9709 36.5196 8.03337 38.8604 10.0262 39.8236L10.053 39.8361L10.3057 39.951C12.318 40.9282 14.7775 40.1803 15.641 38.0407L18.2545 31.519L18.2604 31.5041C19.0557 29.4434 17.9933 27.1026 16.0005 26.1394C15.9916 26.1351 15.9827 26.1309 15.9737 26.1269L15.7209 26.0119Z" fill="#1B6936"/>
<path fill-rule="evenodd" clip-rule="evenodd" d="M19.4743 33.109C18.5308 32.6525 17.658 33.0584 17.3755 33.7645L14.8606 40.0393C14.8606 40.0394 14.8607 40.0392 14.8606 40.0393C14.5478 40.8221 14.9353 41.9355 15.9358 42.4174L16.1931 42.5343L16.2204 42.5471C17.1639 43.0036 18.0367 42.5977 18.3192 41.8916L20.834 35.6166M20.5517 30.8448C18.4707 29.8472 15.9355 30.6146 15.0478 32.8325C15.0477 32.8326 15.0478 32.8324 15.0478 32.8325L15.0474 32.8333L12.5326 39.1081C11.6748 41.2529 12.7976 43.7001 14.8668 44.6855L14.887 44.6949L15.1429 44.8113C17.2242 45.809 19.7599 45.0413 20.6472 42.8228L23.1621 36.5479C24.02 34.4031 22.8971 31.9559 20.8279 30.9706L20.8078 30.9612L20.5517 30.8448ZM19.7589 33.2387L19.5015 33.1217C19.4924 33.1175 19.4833 33.1133 19.4743 33.109" fill="#1B6936"/>
<path fill-rule="evenodd" clip-rule="evenodd" d="M22.6736 38.037C22.6736 38.0372 22.6737 38.0369 22.6736 38.037L21.1354 41.8948C20.8223 42.6775 21.2099 43.7907 22.2106 44.2727L22.4679 44.3897C22.477 44.3938 22.4861 44.398 22.4952 44.4024C23.4384 44.8589 24.3111 44.4533 24.5938 43.7473C24.5937 43.7475 24.5938 43.7472 24.5938 43.7473L26.1321 39.8891C26.4453 39.1063 26.0576 37.9932 25.057 37.5112L24.7996 37.3943C24.7905 37.3901 24.7814 37.3859 24.7724 37.3815C23.8291 36.9251 22.9563 37.3312 22.6736 38.037ZM25.8498 35.1173C23.7685 34.1196 21.233 34.8872 20.3455 37.1058L18.8074 40.9635C18.8073 40.9637 18.8075 40.9633 18.8074 40.9635C17.95 43.108 19.0726 45.5556 21.1415 46.5408L21.1617 46.5502L21.4177 46.6666C23.499 47.6643 26.0346 46.8967 26.922 44.6781L28.4602 40.8204L28.4605 40.8196C29.3178 38.675 28.1949 36.2283 26.126 35.2431L26.1059 35.2337L25.8498 35.1173ZM24.5489 15.329C23.2529 14.8693 21.8905 14.6043 20.9237 14.8568C19.4156 15.2508 17.643 15.349 16.303 15.3583C15.7371 15.3622 15.1711 15.3512 14.6058 15.3254C14.3924 15.3156 14.1793 15.3032 13.9662 15.2882L13.9283 15.2852L13.9175 15.2844L13.9131 15.284C13.9129 15.284 13.9123 15.284 14.0145 14.0344L13.9131 15.284C13.2229 15.2276 12.7085 14.6224 12.765 13.9323C12.8213 13.2423 13.4263 12.7287 14.1162 12.7849L14.1231 12.7855L14.1512 12.7875C14.1769 12.7895 14.2164 12.7922 14.2684 12.7957C14.3726 12.8025 14.5267 12.8117 14.721 12.8206C15.1102 12.8385 15.6575 12.8554 16.2855 12.851C17.5642 12.842 19.0877 12.7449 20.2899 12.4309C22.0332 11.9753 24.0157 12.4794 25.3871 12.9658C25.9958 13.1829 26.5927 13.432 27.1752 13.712C27.3983 13.8191 27.5781 13.911 27.7041 13.9773C27.7672 14.0106 27.8171 14.0374 27.8522 14.0566L27.8939 14.0796L27.9063 14.0865L27.9103 14.0888L27.9118 14.0895C27.9121 14.0898 27.9129 14.0902 27.2966 15.182L27.9129 14.0902C28.5159 14.4306 28.7288 15.1952 28.3885 15.7982C28.0484 16.4009 27.2843 16.6139 26.6814 16.2743L26.6804 16.2738L26.6764 16.2716L26.6505 16.2573C26.6127 16.2367 26.5747 16.2164 26.5366 16.1964C26.389 16.1189 26.24 16.0442 26.0897 15.9722C25.5878 15.7309 25.0735 15.5162 24.5489 15.329Z" fill="#1B6936"/>
</g>
</g>
<defs>
<clipPath id="clip0_4177_1833">
<rect width="56" height="56" fill="white"/>
</clipPath>
</defs>
</svg>
