<svg width="40" height="40" viewBox="0 0 40 40" fill="none" xmlns="http://www.w3.org/2000/svg">
<path fill-rule="evenodd" clip-rule="evenodd" d="M19.7322 27.3907C19.7322 27.4504 19.815 27.4736 19.8329 27.648C19.8412 27.7286 19.9045 27.7171 19.9058 27.7836C19.9069 27.8452 19.9064 27.7715 19.9817 27.8983C20.035 27.8177 20.0644 27.8353 20.0887 27.8053C20.1785 27.6942 20.2033 27.8297 20.3568 27.441L20.4816 27.0768C20.5276 26.8656 20.5661 26.8297 20.5816 26.763C20.6157 26.5979 20.5778 24.9203 20.5879 24.763C21.0256 24.423 21.0776 24.3184 21.4202 24.0058C21.5805 23.8595 21.9958 23.3223 22.1394 23.1354L22.5967 22.4349C23.2604 21.3468 23.6933 20.1554 23.8483 18.8931L23.9095 18.2429C23.9453 17.6392 23.9185 17.0235 23.849 16.4224L23.7824 16.0512C23.7847 15.9162 23.7245 15.723 23.6894 15.5722L23.4832 14.7942C23.2819 14.1855 23.0473 13.627 22.6982 13.0876C22.3172 12.4989 21.7908 11.9178 21.2583 11.4663C21.0271 11.2703 20.4784 10.8436 20.2081 10.7308C20.1012 10.6862 20.244 10.7994 20.2531 10.8455C20.2392 10.8455 20.2268 10.8525 20.2136 10.8594C20.2051 10.8594 20.1934 10.8525 20.1888 10.8525C20.1771 10.8665 20.1888 10.8812 20.1988 10.8951C20.202 10.8951 20.2051 10.9021 20.2081 10.9098L20.033 10.7882C20.0631 10.8646 20.1512 11.0762 20.2035 11.1238C20.5054 11.3982 20.4999 11.3636 20.763 11.6523C20.8594 11.7581 20.7747 11.7291 20.8893 11.8522C21.172 12.1558 21.1926 12.1127 21.4349 12.4947C21.5772 12.719 21.8581 13.1718 21.9627 13.3945C21.9976 13.4658 22.0433 13.5301 22.0735 13.6014L22.2463 14.0161C22.258 14.1691 22.3538 14.3184 22.4005 14.4516C22.6999 15.3047 22.8426 15.8842 22.912 16.7866C22.9835 17.7148 22.9019 18.751 22.6477 19.6503C22.4571 20.3249 22.1953 20.9306 21.8525 21.5359C21.5897 22.0001 21.3026 22.3615 20.9698 22.7705C20.9458 22.7991 20.9179 22.8208 20.8923 22.8495L20.6621 23.1138L20.6691 22.7208L20.6311 21.2429C20.6202 21.0786 20.6071 20.9143 20.6001 20.757C20.5952 20.626 20.5934 20.495 20.5947 20.364C20.5947 20.3144 20.5838 20.271 20.5823 20.2214L20.5722 19.7075C20.5566 19.5554 20.5757 19.5446 20.566 19.4502C20.5591 19.379 20.549 19.3077 20.5451 19.2356C20.5404 19.1434 20.5474 19.0434 20.5304 18.9504L20.5195 17.6934L20.5048 17.3152L20.5443 17.3291C20.6302 17.3291 20.7415 17.2783 20.7908 17.2082L20.8908 17.1439C21.0296 17.0115 20.9162 17.1536 21.0535 16.9649L21.155 16.8153H21.1565L21.2456 16.6579C21.2518 16.651 21.2503 16.6362 21.2557 16.6292L21.3169 16.5439C21.3275 16.4951 21.3356 16.5362 21.3456 16.5006L21.3898 16.4006C21.5382 16.2095 21.5224 16.258 21.637 16.051L21.6765 15.972C21.6723 15.9523 21.6977 15.9839 21.6959 15.9511C21.6945 15.9276 21.792 15.8302 21.7804 15.7364C21.77 15.6524 21.7111 15.3174 21.6595 15.273L21.5889 15.2156C21.578 15.2078 21.575 15.2078 21.5703 15.2078C21.5695 15.2009 21.5664 15.2009 21.5641 15.2009L21.5408 15.1443C21.5248 15.1443 21.3945 15.0677 21.4052 15.1226C21.4068 15.1308 21.3809 15.1447 21.3548 15.1296C21.2947 15.0947 21.3516 15.1835 21.306 15.1722C21.2604 15.161 21.1744 15.2292 21.1503 15.2374C21.1429 15.2398 21.0988 15.1938 21.0968 15.2296C21.0968 15.2374 21.0953 15.2374 21.0914 15.2443L20.8178 15.4722L20.7341 15.5365L20.4892 15.7086L20.4396 15.7651C20.4099 15.218 20.4166 15.175 20.2568 14.601L20.0808 13.9872C19.9882 13.6264 19.9747 13.8123 19.9436 13.8159C19.9081 13.8201 19.8859 13.7592 19.8608 13.8159C19.8482 13.7721 19.8368 13.7108 19.8073 13.6873C19.7988 13.6942 19.7911 13.7012 19.7872 13.7012C19.714 13.819 19.6568 13.9144 19.6919 14.0585C19.6919 14.0586 19.6961 14.2179 19.6562 14.2367C19.5924 14.2669 19.6831 14.4683 19.6516 14.5801C19.5987 14.7674 19.5889 15.3307 19.5609 15.3582C19.5071 15.4109 19.5366 15.4868 19.5346 15.5511C19.5338 15.5798 19.5268 15.6077 19.526 15.6371L19.5051 16.5509L19.4872 17.3507L19.4461 18.2288L19.3965 19.3711C19.27 19.2572 19.2556 19.209 19.0958 19.1076L19.0222 19.0572H19.0183C19.0282 19.0275 19.0211 19.0566 18.9602 19.0068C18.8508 18.9174 18.8204 18.9166 18.644 18.9355L18.3503 18.9789L18.2643 19.0572C18.2526 19.0719 18.2511 19.0719 18.2496 19.0789C18.2488 19.0789 18.2464 19.0789 18.2449 19.0858C18.173 19.0858 18.1876 19.1145 18.176 19.1145C18.167 19.1331 18.0901 19.2354 18.155 19.2354C18.1573 19.2431 18.1589 19.2501 18.1596 19.264L18.138 19.3074C18.2177 19.3074 18.1674 19.3421 18.2092 19.45L18.2302 19.4996C18.2338 19.4996 18.1898 19.557 18.231 19.557C18.2469 19.6046 18.2725 19.6087 18.3186 19.6926L18.4426 19.8638L18.6379 20.2211C18.6621 20.2546 18.8029 20.3444 18.8029 20.3715L18.9339 20.5211C18.9478 20.5281 18.9672 20.535 18.9804 20.5498L19.178 20.7567C19.19 20.7874 19.28 20.8854 19.3516 20.8854C19.3562 20.8923 19.3562 20.8923 19.3601 20.8994C19.3679 20.8994 19.3663 20.9141 19.381 20.9141C19.3919 20.9141 19.405 20.9071 19.4167 20.9071L19.4182 21.5279C19.4205 21.6209 19.4298 21.7139 19.4321 21.807C19.4412 22.2626 19.4246 22.7225 19.4445 23.1779C18.7996 22.505 18.4013 21.9099 17.9759 21.0637C17.4966 20.1102 17.2221 18.8726 17.1924 17.8358C17.19 17.715 17.173 17.5933 17.18 17.4794C17.2298 16.6738 17.2085 16.5567 17.3628 15.7868C17.4401 15.4014 17.5021 15.0013 17.6449 14.6367L17.7612 14.2298C17.7914 14.1062 17.8644 13.9868 17.8704 13.9586C17.9059 13.793 18.0172 13.6518 18.0549 13.5021C18.0868 13.3753 18.3608 12.915 18.4525 12.7945L18.8888 12.1303L19.3174 11.6591C19.3876 11.5921 19.4419 11.3995 19.7018 11.1593C19.8744 10.9997 19.7555 11.0337 19.88 10.9167C19.9436 10.857 19.8852 10.8667 20.0327 10.6811C19.9114 10.7418 19.9205 10.6994 19.8529 10.7098C19.787 10.7307 19.7103 10.7525 19.646 10.7378C19.5976 10.7323 19.232 10.9436 19.1445 11.0028C18.8374 11.2107 18.4609 11.492 18.2176 11.7592L17.7704 12.2304C17.5632 12.4216 17.1976 12.9899 17.0512 13.2518C16.9043 13.5149 16.6425 14.0879 16.5412 14.3655C16.3931 14.7718 16.3103 15.0642 16.2212 15.48L16.1274 15.8652C15.9564 16.897 15.922 17.5956 16.0173 18.6575C16.0448 18.9628 16.1768 19.6187 16.2645 19.9355C16.5396 20.9286 16.8678 21.7192 17.4387 22.5853C17.8381 23.1913 18.4784 23.938 19.0065 24.3918L19.556 24.8274C19.556 24.9695 19.5833 24.8582 19.5979 25.0699C19.6093 25.2359 19.6685 26.8762 19.7079 27.0412C19.7312 27.1379 19.7292 27.2834 19.7322 27.3907ZM28.3356 27.0129C28.0083 27.6185 27.5173 28.1334 26.9979 28.5908L26.1585 29.348C25.7459 29.7362 24.9796 30.5939 24.7612 31.0685C24.6852 31.2337 24.6352 31.2285 24.5441 31.5258C24.35 32.1599 24.3292 32.4787 24.3388 33.0967L24.3596 34.2894L22.8468 34.4034C22.5152 34.4398 22.1827 34.4607 21.8548 34.4964L20.5621 34.6181C20.5559 34.4251 20.5481 34.2322 20.5451 34.033C20.5404 33.7114 20.5474 33.3897 20.5304 33.0611C20.5272 33.0115 20.5288 32.9611 20.5288 32.9115L20.5249 31.3546C20.5231 30.904 20.5369 30.5686 20.435 30.1053C20.4241 30.0549 20.4102 30.0123 20.3962 29.9619C20.4544 29.855 20.5171 29.748 20.5884 29.6551C20.7984 29.3761 21.0193 29.1676 21.3084 28.9622C21.4909 28.8327 21.742 28.6557 21.9253 28.5554C22.1869 28.4123 23.1444 27.6882 23.4087 27.4843L24.5534 26.5985L24.6348 26.5558C24.8231 26.5138 24.8455 26.652 24.9936 26.7698H24.9912L24.9656 26.8062C24.9648 26.8062 24.9633 26.8131 24.9618 26.8131C24.9314 26.8522 24.9246 26.8403 24.9153 26.8844C24.879 26.8844 24.8851 26.9131 24.8735 26.9131L24.8224 26.9418L24.5279 27.1913L24.3612 27.3556C24.2312 27.5156 24.2612 27.4727 24.1288 27.5912L24.014 27.7051L23.897 27.8129L23.7591 27.9772L23.315 28.3624L23.043 28.6484C23.0422 28.6484 23.0399 28.6554 23.0345 28.6554C23.0136 28.6484 23.0074 28.6623 23.0012 28.677L22.8252 28.8622C22.6868 28.9837 22.652 29.3184 22.5989 29.4907C22.5495 29.6514 22.6232 29.618 22.6361 29.6333L22.6803 29.6976C22.6997 29.6976 22.6669 29.7312 22.6841 29.7766L22.76 29.8046C22.8512 29.8483 22.8481 29.755 22.9128 29.755C22.9182 29.748 22.9236 29.748 22.9399 29.7619C22.9903 29.8026 22.9937 29.6836 23.0422 29.6836C23.1272 29.6836 23.2897 29.573 23.3072 29.5697C23.3405 29.5634 23.3586 29.6074 23.38 29.5619L23.4281 29.5333L23.9497 29.162L24.579 28.7698C24.7156 28.6669 24.7032 28.6536 24.7604 28.5978L24.9161 28.4622L25.2075 28.2335C25.2323 28.2049 25.2532 28.177 25.2796 28.1553L25.6322 27.8623L25.7423 27.7414C25.8508 27.6539 25.9972 27.4098 26.0159 27.2772L26.0484 27.0052C26.0352 26.9626 26.0043 26.913 26.0175 26.8696C26.0183 26.8696 26.0175 26.8696 26.0152 26.8626C25.984 26.81 26.0181 26.7785 25.9764 26.7418L25.926 26.5558C25.9252 26.5558 25.9237 26.5488 25.9229 26.5488L26.4677 26.0203L26.7405 25.7707C27.4516 25.1053 27.8361 24.6258 28.0867 23.5852L28.8756 20.3286L29.0608 19.5575C29.0913 19.4474 29.3451 19.4514 29.3561 19.6002L29.3057 20.4C29.2964 20.5434 29.3003 20.686 29.2933 20.8286L29.2104 22.4142C29.2042 22.6142 29.1941 22.8142 29.17 23.0071L29.1391 23.514L28.9926 24.8276C28.8791 25.5592 28.6592 26.4083 28.3356 27.0129ZM28.3161 28.7698C27.8135 29.2813 27.0186 29.8603 26.515 30.3903C25.9684 30.9655 25.4176 31.5493 25.2952 32.3541C25.2383 32.7271 25.252 32.9778 25.2502 33.3469L25.2448 33.8181C25.262 34.1643 25.2052 34.1607 25.2021 34.311L25.1943 34.6605C25.1855 34.9027 24.9995 35.0821 24.7433 35.0821C24.6922 35.0821 24.641 35.0821 24.5899 35.0743C24.4922 35.0674 24.39 35.0743 24.2908 35.0743C23.8454 35.0683 23.2107 35.048 22.7733 35.0108C22.522 34.9895 21.8187 35.0612 21.7279 35.0108C21.6573 34.9717 21.222 34.9678 21.176 34.9751C21.0197 35.0004 20.6429 34.9727 20.4623 34.9534C20.3177 35.1479 20.1354 35.1607 19.919 35.1674C19.8484 35.1674 19.7772 35.1751 19.7074 35.1674C19.4873 35.1604 19.2688 35.1674 19.0479 35.1751C18.7898 35.1821 18.5302 35.1751 18.2713 35.1821H17.2995C17.1445 35.1821 16.991 35.196 16.836 35.196L15.3209 35.203C15.0164 35.2084 14.7537 34.9654 14.7505 34.6318L14.7172 32.8609C14.7067 32.3651 14.6067 31.9156 14.3374 31.4899C13.8664 30.7453 13.1454 30.1185 12.4789 29.5478C11.8516 29.0106 11.2734 28.4587 10.856 27.7265C10.5471 27.1844 10.2608 26.418 10.1578 25.813L10.0207 25.1341C9.89043 24.3337 9.86123 23.9366 9.80595 23.1276C9.77499 22.6749 9.73531 21.5553 9.77571 21.1142C9.81499 20.6854 9.79787 20.1039 9.81451 19.6285C9.83251 19.1144 10.3048 18.6373 10.8887 18.7148C11.054 18.7367 11.3072 18.8692 11.3304 18.9217C11.4548 19.203 11.462 19.0635 11.4784 19.3502C11.4792 19.3789 11.4847 19.4068 11.4869 19.4719C11.4482 19.3859 11.3993 19.3146 11.3381 19.3006C11.3178 19.2931 11.2452 19.1792 11.1413 19.1859C10.9668 19.1972 10.9273 19.1214 10.7368 19.2076C10.6156 19.2624 10.6119 19.3482 10.5663 19.4215C10.4942 19.5374 10.5147 19.6394 10.5221 19.7641C10.5504 20.2378 10.6361 20.6571 10.6616 21.1568C10.6677 21.276 10.7233 22.1566 10.7577 22.2922C10.8158 22.5214 10.795 22.7388 10.8468 22.9633C10.85 22.978 10.853 22.9919 10.853 22.999C10.8647 23.2562 10.9196 23.4918 10.9685 23.7274L11.0507 24.342C11.1904 25.0756 11.4223 26.1995 11.7195 26.7623C11.9519 27.2024 12.1012 27.4756 12.4557 27.8403C12.727 28.141 13.0502 28.4193 13.3935 28.7122C14.1551 29.3612 14.998 30.1525 15.4952 31.0543C15.9857 31.9436 15.9365 32.6907 15.937 33.625V34.0109C16.0509 34.0109 16.1633 34.0109 16.2749 34.0178C16.6632 34.0395 17.0476 34.0109 17.4351 34.0178L18.8301 33.9962H19.399L19.4416 31.1333C19.4465 30.6182 19.4367 30.2591 19.1898 29.7615C18.9604 29.2993 18.5213 28.9744 18.1272 28.6548L16.0424 26.9482L15.5496 26.5414C15.4249 26.4366 15.2382 26.4583 15.1187 26.584L14.9683 26.7057C14.9683 26.7127 14.9691 26.7127 14.9683 26.7127L14.9784 26.7623C14.9836 26.7859 15.0132 26.769 15.0156 26.791L15.0364 26.8057C15.0248 26.8196 15.0636 26.8267 15.086 26.8336C15.0984 26.8414 15.0892 26.8483 15.0945 26.8483C15.0975 26.8617 15.1725 26.8861 15.1898 26.9483L15.5409 27.2196L15.7532 27.377L15.9191 27.5126C15.9392 27.5552 15.9927 27.5552 16.0214 27.5908L16.1516 27.6768C16.3435 27.8175 16.3283 27.8186 16.4919 27.9976L16.722 28.2332L16.8004 28.3123L17.294 28.7757C17.3045 28.7869 17.3548 28.7822 17.3336 28.8408C17.3304 28.8478 17.332 28.8547 17.3352 28.8547C17.3468 28.8687 17.3631 28.8834 17.37 28.9051C17.3747 28.919 17.3894 28.9191 17.398 28.926C17.5132 29.0523 17.4721 29.1234 17.5979 29.1477C17.6203 29.152 17.583 29.1813 17.5956 29.2051C17.6033 29.2191 17.6111 29.226 17.6188 29.2407C17.6189 29.2407 17.6964 29.2596 17.6816 29.3407C17.6618 29.4494 17.6757 29.433 17.5925 29.433C17.5884 29.4741 17.5626 29.4703 17.5398 29.4973C17.5287 29.5105 17.5622 29.5829 17.4042 29.5694L17.1144 29.5546L16.8896 29.533C16.738 29.5075 16.5463 29.3407 16.5269 29.3407C16.4879 29.3407 16.5004 29.305 16.4866 29.305C16.4528 29.305 16.2722 29.1695 16.1913 29.126L15.9309 28.9408L15.6798 28.7478C15.6464 28.7449 15.5708 28.6714 15.5124 28.6548C15.4573 28.6393 15.5185 28.6408 15.4334 28.6044C15.4164 28.5971 15.0443 28.3158 14.942 28.2835L14.4561 27.9332C14.2136 27.6803 14.2866 27.7846 14.1236 27.5054C14.066 27.4066 14.0893 27.4273 14.064 27.3481C14.0133 27.1898 13.9699 27.1347 13.9833 26.9126C13.9892 26.8155 14.0168 26.5892 14.1058 26.5343C14.1422 26.5049 14.1632 26.477 14.1856 26.4483L13.5524 25.8268L13.1836 25.4626C12.9264 25.2361 12.9588 25.1988 12.8069 24.9844C12.3853 24.3892 12.264 23.9628 12.1211 23.2631C12.066 22.9918 12.0017 22.7206 11.9568 22.4494C11.9275 22.2678 11.764 21.7096 11.7049 21.5139C11.6459 21.3185 11.7136 21.3964 11.6724 21.1923L11.5724 20.742C11.4901 20.4974 11.404 20.1003 11.3903 19.843C11.3848 19.7418 11.3667 19.5945 11.3802 19.4997C11.4329 19.5733 11.4991 19.7949 11.5344 19.8926C11.5344 19.7622 11.5227 19.8106 11.6181 19.8926C11.6368 19.843 11.6019 19.757 11.6088 19.6996C11.6267 19.6857 11.6383 19.7213 11.6492 19.75C11.8564 20.2514 12.025 20.827 12.2111 21.3496L12.8822 23.3344C13.1231 24.0694 13.3273 24.3564 13.8812 24.8914L14.7429 25.7051C15.08 25.5099 15.535 25.4582 15.8852 25.6486C16.0031 25.7126 16.1062 25.7569 16.2208 25.8485L18.8256 27.9123C19.3843 28.3587 19.7278 28.5719 20.1036 29.2407C20.106 29.2407 20.1091 29.233 20.1121 29.226C20.4566 28.5547 21.5245 27.7655 22.1047 27.2552C22.248 27.1291 22.2672 27.079 22.4433 26.9336C22.5293 26.8623 22.62 26.791 22.6898 26.7127C22.6968 26.7058 22.7068 26.691 22.7161 26.684C22.9052 26.5484 23.0532 26.3841 23.216 26.2198C23.3868 26.0515 23.6152 25.9179 23.8135 25.7129L24.0243 25.5695C24.2002 25.4626 24.4001 25.406 24.6032 25.3843C24.8249 25.3626 25.0535 25.3983 25.2619 25.4843C25.2697 25.4913 25.276 25.4913 25.2829 25.4982L25.9216 24.8627C26.1829 24.6114 26.2538 24.5862 26.4726 24.2776C26.6912 23.9693 26.7844 23.7074 26.8732 23.3562L27.5212 20.7498L27.8684 19.2929C28.0122 18.7112 28.5357 18.2988 29.106 18.2862C29.2932 18.282 29.435 18.291 29.616 18.3505C30.2299 18.5524 30.5803 19.1134 30.536 19.7431L30.5119 19.9718C30.4662 20.3143 30.4786 20.6638 30.4515 21.0142C30.4194 21.4318 30.4187 21.8678 30.3941 22.2922C30.3097 23.75 30.148 25.2875 29.6594 26.6771C29.4898 27.1595 29.2367 27.6502 28.9263 28.062C28.7829 28.2521 28.4761 28.6193 28.3161 28.7698ZM37.6293 31.8186L37.5657 31.5257C37.4475 31.0897 37.2936 30.8641 37.0829 30.505L36.4304 29.4123L35.7127 28.2551C35.6802 28.225 35.7099 28.2096 35.6072 28.0769L34.9981 27.0841C34.8659 26.878 34.6403 26.599 34.4796 26.3982L34.1751 26.0418L34.2836 26.0774C34.3988 26.1419 34.5456 26.1982 34.6812 26.1982L34.7493 26.2199C34.7834 26.213 34.8222 26.1842 34.8446 26.206C34.8548 26.2101 34.8589 26.1849 34.8934 26.206C34.9208 26.2228 34.9299 26.1913 34.9616 26.1913C35.0026 26.1913 35.0388 26.232 35.1631 26.2199C35.2556 26.211 35.2821 26.2775 35.3196 26.2338C35.3714 26.1737 35.4347 26.2102 35.4622 26.1703C35.5016 26.1134 35.5005 26.1579 35.5118 26.1409C35.5343 26.1052 35.5475 26.0983 35.5652 26.0913C35.555 25.997 35.6049 25.8736 35.5784 25.7705C35.5261 25.5672 35.4224 25.461 35.4088 25.4062C35.3836 25.3052 35.0791 25.1083 34.9879 25.0916C34.9841 25.0916 34.981 25.0916 34.9787 25.0847C34.9592 25.0469 34.8728 25.0288 34.8353 25.0064L34.6632 24.9134L34.0355 24.6988C33.8703 24.6803 33.5768 24.5452 33.4348 24.5275C33.1454 24.4914 32.8728 24.6985 32.8388 25.0421L32.8272 25.1986L32.835 25.4342C32.7953 25.7714 32.7812 25.8235 32.7776 26.1488L32.7737 26.4061C32.7828 26.4275 32.7461 26.4134 32.7652 26.4627C32.7756 26.4895 32.7329 26.7514 32.7861 26.8773C32.8874 27.1169 32.9158 27.1273 33.0248 27.3346C33.0388 27.3625 33.052 27.3911 33.0868 27.4268C33.0915 27.4268 33.0938 27.4338 33.1132 27.4338C33.1356 27.4338 33.1224 27.4198 33.1527 27.4198C33.1651 27.4198 33.1767 27.4268 33.1891 27.4268L33.234 27.4338C33.2626 27.4737 33.2606 27.5098 33.3596 27.4625C33.4131 27.4369 33.4291 27.3908 33.4139 27.3625C33.4124 27.3625 33.4139 27.3555 33.4154 27.3555C33.4322 27.3179 33.4305 27.303 33.4588 27.2982C33.5049 27.2904 33.4791 27.2952 33.4743 27.2199C33.4735 27.206 33.4673 27.1912 33.482 27.1773C33.5415 27.1169 33.581 26.9055 33.6115 26.8913C33.679 26.8599 33.636 26.8715 33.6472 26.827L33.7308 26.4487L34.0276 27.0773C34.0501 27.1199 34.0827 27.1555 34.0997 27.1982C34.1395 27.2987 34.2149 27.4077 34.2144 27.4554C34.2132 27.5726 34.2879 27.6221 34.333 27.7127L34.6468 28.2839L35.2684 29.4123L35.9977 30.733C36.0746 30.8892 36.3568 31.3866 36.4123 31.5405C36.5928 32.0416 36.5699 32.482 36.3821 32.975C36.3404 33.0847 36.2959 33.1838 36.2209 33.2758C36.1427 33.375 36.0845 33.4966 35.9752 33.561C35.8337 33.6497 35.7798 33.7687 35.4366 33.8966C34.9549 34.076 34.4584 34.0315 33.9486 34.033L32.7613 34.0399C32.6869 34.0399 32.6125 34.0469 32.5389 34.0469C32.2295 34.0394 31.5219 34.0254 31.2672 34.0539C31.1516 34.0678 31.0354 34.0678 30.92 34.0825L30.6402 34.0895C30.5309 34.1111 30.4247 34.1468 30.3116 34.139C30.3062 34.1321 30.3 34.139 30.2946 34.139C30.108 34.1765 30.1444 34.1271 29.9931 34.1825L29.4924 34.2111C29.2581 34.2111 29.1005 34.2698 28.8817 34.2607C28.8167 34.2581 28.6001 34.257 28.5446 34.2894C28.373 34.3897 28.2047 34.3407 28.1316 34.4033C28.0557 34.4683 28.0125 34.4202 27.9897 34.4537C27.9603 34.4894 27.9145 34.4963 27.8688 34.518C27.9747 34.567 27.9537 34.583 28.0021 34.625C28.0456 34.6537 28.0897 34.6746 28.1129 34.725C28.1468 34.7999 28.6757 34.9181 28.7647 34.9466C29.0188 35.0281 29.264 35.0229 29.449 35.0893C29.7429 35.1947 31.0764 35.2249 31.44 35.2249H31.4826C31.9509 35.2546 32.4186 35.2459 32.8807 35.2606C33.1601 35.2694 34.7804 35.2701 35.0592 35.2318C35.8568 35.1224 36.4187 34.8136 36.9812 34.2112C37.1231 34.0591 37.4131 33.5814 37.4896 33.375C37.5499 33.2122 37.6424 32.8816 37.6632 32.7186C37.6919 32.4945 37.6876 32.0246 37.6293 31.8186ZM13.7275 10.117C13.729 10.117 13.7275 10.1101 13.7275 10.1101L13.7205 9.83881C13.7439 9.54473 13.79 9.64025 13.8492 9.48849C13.8757 9.42041 13.9644 9.31521 14.0181 9.25985C14.0892 9.18665 14.2414 9.15969 14.3018 9.11025L14.384 9.13817C14.3863 9.15289 14.394 9.15985 14.4212 9.15985C14.4895 9.16801 14.4154 9.18673 14.5537 9.24585C14.6036 9.26721 14.568 9.34137 14.6188 9.39545C14.6859 9.46689 14.6732 9.58433 14.7103 9.60241C14.7559 9.62465 14.7305 9.66489 14.7622 9.67369H14.7645C14.7576 9.70313 14.7979 9.72409 14.8219 9.75273C14.8358 9.76665 14.8288 9.78145 14.8343 9.80233L14.88 9.90233L14.9343 10.2239L14.956 10.3378C15.2594 9.45921 15.373 9.23097 15.8092 8.43137L15.9999 8.08185C16.0705 7.91545 16.0908 7.94657 16.106 7.89585L16.7446 6.70313L17.3646 5.58945C17.5801 5.21041 17.6854 5.00073 18.0102 4.66097C18.0613 4.60441 18.1156 4.56097 18.1683 4.51137C18.3707 4.31137 18.732 4.09425 18.9936 3.97585L19.4432 3.84025L19.8563 3.78289C20.03 3.76713 20.4554 3.78505 20.6305 3.81857C20.8638 3.86817 21.0924 3.94721 21.3117 4.04721C22.0108 4.36145 22.3669 4.76457 22.7408 5.39649C23.1064 6.01417 23.54 6.72409 23.8724 7.35337C23.9011 7.41073 23.9243 7.46033 23.9522 7.51769L24.0948 7.76721C24.1513 7.86721 24.2126 7.96713 24.2552 8.08185L24.5211 8.54609C24.6636 8.80489 25.115 9.69481 25.1558 9.90233C25.1798 10.024 25.2263 10.1387 25.2712 10.2526L25.4332 10.7812C25.5024 11.0449 25.4892 10.9683 25.5131 11.2167C25.5188 11.2755 25.4883 11.2064 25.4751 11.395C25.4727 11.4293 25.4386 11.4466 25.4495 11.5593C25.4115 11.5306 25.3813 11.495 25.3316 11.488C25.3057 11.4862 25.2976 11.417 25.2232 11.388C25.1258 11.3502 25.0543 11.1535 24.9132 11.0881C24.8348 11.0517 24.7276 10.7806 24.5792 10.6022C24.4288 10.4214 24.3291 10.2342 24.204 10.0379C24.0916 9.86153 24.0488 9.86281 24.0033 9.78145C23.9762 9.73105 23.9529 9.68145 23.9088 9.65281C23.9048 9.64585 23.9002 9.63809 23.8979 9.63809C23.8521 9.53113 23.7661 9.45985 23.694 9.37457L23.5484 9.13817C23.3468 8.87961 22.8684 8.06817 22.7043 7.75329C22.6703 7.68897 22.6253 7.62465 22.5888 7.56033L21.9905 6.53969C21.6732 5.99497 21.3916 5.37345 20.7808 5.10441C20.5505 5.00305 20.4636 4.96929 20.1988 4.94713C19.7819 4.91217 19.2369 5.08833 18.9138 5.33929C18.7976 5.43225 18.6891 5.53225 18.596 5.65393C18.5607 5.69667 18.5285 5.74199 18.5 5.78953L17.7017 7.07529C17.5832 7.28921 17.4491 7.49609 17.3266 7.70305L16.9438 8.33857L16.282 9.44601C16.2172 9.59769 16.168 9.56857 16.1254 9.63121C15.9316 9.91657 15.7509 10.2428 15.531 10.517L15.9208 10.3884C15.9479 10.359 15.9802 10.4126 15.9929 10.4101C16.0867 10.392 16.1847 10.3556 16.2836 10.3744C16.3324 10.3838 16.3658 10.2778 16.4044 10.331C16.4253 10.3597 16.4363 10.3379 16.4812 10.3379C16.4964 10.3151 16.5446 10.2957 16.5912 10.331C16.6935 10.4083 16.6514 10.3998 16.6316 10.4596H16.637L16.6517 10.4953C16.6707 10.5856 16.7496 10.5418 16.6533 10.6882C16.5288 10.8774 16.5293 10.9064 16.3736 11.1238C16.3298 11.1848 16.1727 11.2749 16.1155 11.302C16.0922 11.3098 16.0697 11.3237 16.0465 11.3307C16.0199 11.3457 16.0372 11.3664 15.9737 11.3664C15.9567 11.4028 15.9249 11.395 15.9008 11.4168L15.6707 11.5454C15.6568 11.5524 15.642 11.5524 15.628 11.5594C15.5908 11.581 15.5568 11.602 15.5196 11.6237L15.0987 11.8027L14.9011 11.9236L14.7562 11.9949C14.4165 12.1596 14.0386 11.9813 13.9727 11.581L13.9424 11.4594L13.8611 11.1308C13.8603 11.1308 13.8588 11.1238 13.858 11.1238L13.7456 10.5814L13.7275 10.117ZM12.6464 34.9466C12.8804 34.6332 12.6833 34.2376 12.4286 34.132C12.3699 34.1077 12.3727 34.082 12.348 34.0754C12.2138 34.0396 11.9081 33.7792 11.7946 33.7043L11.4257 33.4756L11.3412 33.4323C11.3389 33.4113 11.3234 33.4043 11.3079 33.4043L11.0529 33.247C10.9239 33.1843 10.5708 33.1896 10.4182 33.1896C10.2348 33.1896 10.3116 33.2275 10.2833 33.2609C10.2711 33.2755 10.2311 33.2942 10.2337 33.3182C10.2337 33.3182 10.2322 33.3182 10.2314 33.3252H10.2012C10.1221 33.3252 10.1466 33.4674 10.1516 33.4755L10.2097 33.5182C10.235 33.5561 10.2461 33.5606 10.2337 33.5825C10.2051 33.633 10.2701 33.6184 10.2926 33.6329C10.3517 33.6709 10.3475 33.7288 10.4414 33.8321C10.45 33.8398 10.4654 33.8398 10.4701 33.8538C10.4779 33.8755 10.4933 33.8895 10.5073 33.9042C10.5096 33.9042 10.5104 33.9103 10.5081 33.9181C10.4906 33.9806 10.5396 33.9713 10.55 33.9824L10.836 34.2467L10.1439 34.1894C10.0951 34.1894 10.0462 34.1963 9.99899 34.1894C9.92227 34.1754 9.84555 34.1754 9.76955 34.1754C9.70195 34.1754 9.73795 34.1213 9.53083 34.132L9.30219 34.1251H8.78995C8.11571 34.1164 7.44139 34.0798 6.76723 34.0894L6.33243 34.0754C6.21851 34.0754 6.10459 34.0755 5.99147 34.0677C5.50195 34.0316 5.10499 34.0948 4.66155 33.9042C4.40627 33.7944 4.39819 33.7594 4.21203 33.6391C4.13267 33.5879 3.85659 33.2934 3.78731 33.1896C3.69491 33.0511 3.55771 32.7639 3.55091 32.6324L3.51915 32.4038C3.48139 32.0354 3.58531 31.7346 3.72219 31.4187C3.80491 31.2278 4.60795 29.8559 4.74675 29.6122C4.78315 29.5478 4.81339 29.4766 4.85371 29.4192L5.47995 28.3125C5.52875 28.2047 5.58299 28.0978 5.62955 27.9909C5.65691 27.9301 5.73683 27.8251 5.76283 27.7483C5.79923 27.6414 5.82091 27.5337 5.88683 27.4406C5.89067 27.4337 5.89299 27.4266 5.89299 27.4266C5.92403 27.2988 5.99571 27.2507 6.00843 27.1414C6.01483 27.0864 6.20915 26.7317 6.23315 26.6912C6.36139 26.4752 6.38571 26.3099 6.49203 26.141C6.73395 25.7563 6.57051 25.8646 6.72067 25.5341C6.78035 25.4027 6.70683 25.4163 6.75939 25.3202C6.79883 25.2481 6.74923 25.3212 6.77803 25.1342C6.72299 25.1698 6.72299 25.1698 6.64475 25.1915C6.58363 25.1999 6.56443 25.2476 6.47427 25.2419C6.39923 25.2372 6.02579 25.6262 5.95659 25.6915C5.78731 25.851 5.62675 26.1058 5.49155 26.22C5.29947 26.3823 4.80419 27.1707 4.63131 27.4484C4.54531 27.5841 4.46467 27.7336 4.38251 27.877L3.62611 29.1046L3.02163 30.1617C2.89531 30.3858 2.66595 30.7714 2.56595 31.0041C2.26043 31.7154 2.24555 32.4317 2.48531 33.1757C2.51163 33.2609 2.55275 33.3323 2.58531 33.4113C2.76867 33.8319 3.01611 34.141 3.35099 34.4466C3.52275 34.6034 4.02667 34.8819 4.23531 34.9388C4.26163 34.9466 4.28643 34.9535 4.31283 34.9682C4.38179 34.9892 4.45003 35.0109 4.51979 35.0248C4.96931 35.1347 5.20627 35.1274 5.64971 35.1248L8.27779 35.0605C8.32587 35.0441 8.33531 35.086 8.49011 35.0605L9.48755 35.0248H9.64795C10.0441 35.0062 10.5659 34.906 10.9662 34.8319L10.8802 34.9109C10.8134 34.9397 10.6065 35.115 10.5772 35.1961C10.5725 35.209 10.5339 35.2164 10.5252 35.2465C10.518 35.2716 10.5144 35.3317 10.4857 35.3317C10.488 35.3604 10.474 35.3682 10.464 35.3751C10.4348 35.3962 10.4712 35.4167 10.4237 35.4604C10.2747 35.5977 10.3316 35.6261 10.2764 35.6534C10.1736 35.7044 10.2615 35.7771 10.2129 35.8386C10.1901 35.8674 10.2332 35.898 10.216 35.9246C10.2019 35.9466 10.2236 35.9385 10.2292 36.0176L10.4207 36.1532C10.4478 36.1602 10.4765 36.1819 10.4997 36.1819C10.5338 36.1959 10.564 36.1959 10.5958 36.2028C10.7808 36.2503 10.8233 36.187 10.8996 36.2175C11.0029 36.2588 11.3599 36.0546 11.391 36.0028C11.4374 36.0028 11.4928 35.9481 11.532 35.9246C11.7752 35.7783 11.9971 35.5929 12.1955 35.389L12.328 35.2464C12.3644 35.2107 12.4024 35.1821 12.442 35.1535C12.4559 35.1395 12.4636 35.1248 12.476 35.1108C12.5201 35.0682 12.5899 35.0328 12.6464 34.9466Z" fill="#1B6936"/>
</svg>
