<svg width="40" height="40" viewBox="0 0 40 40" fill="none" xmlns="http://www.w3.org/2000/svg">
<path d="M26.6518 27.5014H13.3484C13.1412 27.5014 12.9424 27.5837 12.7959 27.7302C12.6494 27.8767 12.5671 28.0754 12.5671 28.2826C12.5671 28.4898 12.6494 28.6885 12.7959 28.835C12.9424 28.9815 13.1412 29.0639 13.3484 29.0639H14.3903L14.6837 29.6813C15.3953 31.1785 15.6882 32.8404 15.5314 34.4906L15.4545 35.3C15.4442 35.4084 15.4567 35.5177 15.4911 35.6209C15.5255 35.7242 15.5811 35.8191 15.6543 35.8996C15.7275 35.9801 15.8167 36.0445 15.9163 36.0885C16.0158 36.1325 16.1234 36.1553 16.2323 36.1553H23.7679C23.8767 36.1553 23.9843 36.1325 24.0839 36.0885C24.1834 36.0445 24.2726 35.9802 24.3458 35.8997C24.4191 35.8191 24.4747 35.7242 24.5091 35.621C24.5435 35.5177 24.5559 35.4084 24.5456 35.3001L24.4687 34.4906C24.3119 32.8404 24.6049 31.1785 25.3164 29.6813L25.6099 29.0639H26.6518C26.859 29.0639 27.0577 28.9815 27.2042 28.835C27.3507 28.6885 27.433 28.4898 27.433 28.2826C27.433 28.0754 27.3507 27.8767 27.2042 27.7302C27.0577 27.5837 26.859 27.5014 26.6518 27.5014ZM22.909 34.5928H17.0912C17.2632 32.6963 16.9281 30.7882 16.1202 29.0639H23.8801C23.0721 30.7882 22.737 32.6963 22.909 34.5928ZM27.1734 6.78666C25.3178 4.95722 22.8332 3.90597 20.2281 3.84799C17.6229 3.79001 15.094 4.72969 13.1589 6.47477C11.2237 8.21985 10.0284 10.6384 9.81767 13.2357C9.60691 15.833 10.3966 18.4126 12.0251 20.4469C12.156 20.6101 12.2918 20.7693 12.4324 20.9243C13.7424 22.358 14.4703 24.2289 14.4737 26.1709C14.4737 26.3781 14.556 26.5768 14.7025 26.7233C14.849 26.8698 15.0477 26.9521 15.2549 26.9521C15.4621 26.9521 15.6608 26.8698 15.8073 26.7233C15.9539 26.5768 16.0362 26.3781 16.0362 26.1709C16.0331 23.8405 15.1605 21.5951 13.5893 19.8741C13.4702 19.7427 13.3551 19.6078 13.2441 19.4695C12.3799 18.39 11.787 17.1191 11.515 15.7633C11.2429 14.4076 11.2998 13.0063 11.6807 11.677C12.0616 10.3477 12.7555 9.12905 13.7043 8.1231C14.6531 7.11714 15.8291 6.35319 17.1339 5.89524C18.4387 5.43729 19.8342 5.29867 21.2035 5.49099C22.5729 5.68331 23.8763 6.20098 25.0044 7.00063C26.1325 7.80028 27.0526 8.85862 27.6876 10.087C28.3226 11.3154 28.654 12.6781 28.654 14.0609C28.6619 16.0312 27.9897 17.9439 26.7509 19.476C26.6428 19.6105 26.5308 19.7417 26.4149 19.8695C24.8426 21.592 23.9688 23.8387 23.964 26.1709C23.964 26.2735 23.9842 26.3751 24.0235 26.4699C24.0627 26.5646 24.1203 26.6508 24.1928 26.7233C24.2654 26.7959 24.3515 26.8534 24.4463 26.8927C24.541 26.9319 24.6426 26.9521 24.7452 26.9521C24.8478 26.9521 24.9494 26.9319 25.0442 26.8927C25.139 26.8534 25.2251 26.7959 25.2977 26.7233C25.3702 26.6508 25.4278 26.5646 25.467 26.4699C25.5063 26.3751 25.5265 26.2735 25.5265 26.1709C25.5315 24.2267 26.2611 22.3541 27.5726 20.9188C27.7092 20.7681 27.8414 20.6133 27.9688 20.4547C29.5514 18.482 30.3461 15.9925 30.1992 13.4677C30.0523 10.943 28.9742 8.5624 27.1735 6.78658L27.1734 6.78666Z" fill="#1B6936"/>
<path d="M20 26.7269C20.2072 26.7269 20.4059 26.6445 20.5524 26.498C20.6989 26.3515 20.7812 26.1528 20.7812 25.9456V19.1741L22.4278 17.3976C22.5667 17.2453 22.6398 17.0443 22.6311 16.8384C22.6225 16.6325 22.5328 16.4383 22.3817 16.2982C22.2305 16.1581 22.0301 16.0834 21.8241 16.0904C21.6181 16.0974 21.4232 16.1855 21.2819 16.3355L20.7812 16.8756V15.4858C20.7812 15.2786 20.6989 15.0799 20.5524 14.9334C20.4059 14.7869 20.2072 14.7046 20 14.7046C19.7928 14.7046 19.5941 14.7869 19.4476 14.9334C19.3011 15.0799 19.2187 15.2786 19.2187 15.4858V16.8755L18.7181 16.3354C18.5768 16.1854 18.3819 16.0973 18.1759 16.0903C17.9699 16.0833 17.7695 16.158 17.6183 16.2981C17.4672 16.4382 17.3775 16.6324 17.3689 16.8383C17.3602 17.0443 17.4333 17.2453 17.5722 17.3976L19.2187 19.1741V25.9456C19.2187 26.1528 19.3011 26.3515 19.4476 26.498C19.5941 26.6445 19.7928 26.7269 20 26.7269Z" fill="#1B6936"/>
<path d="M22.0933 21.6978C22.2236 21.6978 22.3519 21.6651 22.4662 21.6026C23.1006 21.2543 23.6551 20.7773 24.0944 20.2021C24.5337 19.627 24.8479 18.9664 25.0171 18.2628C25.1878 17.5664 25.2091 16.8417 25.0794 16.1364C24.9497 15.4312 24.6721 14.7615 24.2647 14.1714C24.2594 14.1635 24.254 14.1559 24.2485 14.1484L20.6311 9.21105C20.6223 9.1991 20.6126 9.18785 20.6032 9.17636C20.5971 9.16894 20.5913 9.16121 20.5849 9.1541C20.575 9.14293 20.5643 9.13238 20.5536 9.12175C20.5475 9.11566 20.5416 9.10933 20.5353 9.10347C20.5233 9.0923 20.5108 9.08152 20.4981 9.07113C20.4929 9.06691 20.4878 9.06261 20.4826 9.05855C20.4756 9.053 20.4691 9.04691 20.4618 9.0416C20.4546 9.03628 20.4467 9.03183 20.4392 9.02675L20.4354 9.02394V9.02425C20.2682 8.91163 20.0639 8.86808 19.8652 8.90273C19.6666 8.93737 19.4891 9.04752 19.3699 9.21011L15.7517 14.1483C15.7462 14.1559 15.7408 14.1635 15.7355 14.1712C15.3282 14.7613 15.0505 15.4311 14.9208 16.1363C14.7912 16.8415 14.8124 17.5662 14.9832 18.2626C15.1523 18.9663 15.4665 19.6268 15.9058 20.202C16.345 20.7771 16.8996 21.2542 17.5339 21.6025C17.7158 21.6999 17.9287 21.7214 18.1263 21.6623C18.324 21.6033 18.4902 21.4685 18.5888 21.2873C18.6874 21.1062 18.7104 20.8934 18.6528 20.6954C18.5951 20.4974 18.4615 20.3302 18.2811 20.2303C17.8381 19.9863 17.4511 19.6525 17.1446 19.2503C16.8382 18.848 16.6192 18.3862 16.5016 17.8944C16.3839 17.412 16.3693 16.9102 16.4587 16.4218C16.5482 15.9334 16.7397 15.4694 17.0207 15.06L20.0001 10.9937L22.9794 15.0601C23.2605 15.4695 23.452 15.9335 23.5415 16.4219C23.6309 16.9103 23.6163 17.4121 23.4986 17.8945C23.381 18.3863 23.162 18.8481 22.8556 19.2504C22.5491 19.6526 22.162 19.9864 21.7191 20.2303C21.5665 20.3134 21.4459 20.445 21.3765 20.6042C21.307 20.7634 21.2926 20.9413 21.3355 21.1097C21.3785 21.278 21.4763 21.4272 21.6135 21.5338C21.7508 21.6403 21.9196 21.698 22.0933 21.6978Z" fill="#1B6936"/>
</svg>
