<svg width="240" height="240" viewBox="0 0 240 240" fill="none" xmlns="http://www.w3.org/2000/svg">
<g clip-path="url(#clip0_4240_6870)">
<circle cx="120" cy="120" r="120" fill="#EAEAEA"/>
<path d="M120.015 144.703C151.296 144.703 176.866 119.132 176.866 87.8515C176.866 56.5706 151.296 31 120.015 31C88.734 31 63.1639 56.5706 63.1639 87.8515C63.1639 119.132 88.7345 144.703 120.015 144.703ZM217.581 190.134C216.091 186.41 214.106 182.935 211.871 179.707C200.451 162.826 182.825 151.654 162.964 148.923C160.482 148.675 157.751 149.171 155.765 150.661C145.338 158.357 132.925 162.329 120.015 162.329C107.106 162.329 94.6928 158.357 84.2659 150.661C82.2796 149.171 79.5487 148.426 77.0663 148.923C57.2056 151.654 39.331 162.826 28.1595 179.707C25.9251 182.935 23.9389 186.659 22.4497 190.134C21.705 191.624 21.9531 193.362 22.6977 194.851C24.684 198.327 27.1663 201.803 29.4006 204.782C32.8761 209.499 36.6002 213.719 40.8207 217.691C44.2962 221.167 48.2683 224.394 52.2408 227.622C71.8531 242.269 95.4379 249.965 119.767 249.965C144.097 249.965 167.682 242.269 187.294 227.622C191.266 224.643 195.238 221.167 198.714 217.691C202.686 213.719 206.658 209.499 210.134 204.782C212.616 201.554 214.851 198.327 216.837 194.851C218.078 193.362 218.326 191.624 217.581 190.134Z" fill="#B6B6B6"/>
</g>
<defs>
<clipPath id="clip0_4240_6870">
<rect width="240" height="240" fill="white"/>
</clipPath>
</defs>
</svg>
