<svg width="32" height="32" viewBox="0 0 32 32" fill="none" xmlns="http://www.w3.org/2000/svg">
<g clip-path="url(#clip0_3389_766)">
<path d="M16.0002 0.320312C24.6608 0.320312 31.6811 7.34065 31.6811 16.0013C31.6811 24.6606 24.6608 31.6809 16.0002 31.6809C7.33956 31.6809 0.319336 24.6607 0.319336 16.0014C0.319336 7.34065 7.33956 0.320312 16.0002 0.320312Z" fill="#D6D4D1"/>
<mask id="mask0_3389_766" style="mask-type:luminance" maskUnits="userSpaceOnUse" x="0" y="0" width="32" height="32">
<path d="M16.0001 0.701172C24.4498 0.701172 31.2988 7.5507 31.2988 16.0007C31.2988 24.4492 24.4498 31.2995 16.0001 31.2995C7.55021 31.2995 0.700684 24.4492 0.700684 16.0007C0.700684 7.5507 7.55033 0.701172 16.0001 0.701172Z" fill="white"/>
</mask>
<g mask="url(#mask0_3389_766)">
<path d="M-6.94043 0.703125H38.9552V31.3001H-6.94043V0.703125Z" fill="#026C34"/>
<path d="M4.04542 11.2249C4.04542 11.2249 4.32347 10.8323 4.32347 10.4614C4.32347 10.0885 4.09678 10.151 4.01189 10.213C3.92688 10.2776 3.75822 10.4435 3.84583 10.545C3.93083 10.6458 4.02374 10.4679 4.08369 10.4679C4.14295 10.4679 4.15876 10.4988 4.15876 10.6557C4.15876 10.8119 4.04542 11.2249 4.04542 11.2249Z" fill="white"/>
<path d="M3.3771 11.2994C3.3771 11.2994 3.39494 13.223 3.81591 13.223C3.81591 13.223 4.0024 13.223 4.05512 12.7237C4.11044 12.2244 4.32584 10.9752 4.85089 10.9752C5.37595 10.9752 4.58797 11.9858 5.00442 12.8707C5.00442 12.8707 5.15592 13.1987 5.44052 13.1987C5.44052 13.1987 5.36996 11.8634 5.27976 11.418C5.1908 10.9701 5.24093 10.9701 5.24093 10.9701C5.24093 10.9701 5.03863 10.7243 5.16913 10.5029C5.30155 10.2815 5.36612 10.1952 5.48929 10.3882C5.60794 10.5826 6.04076 11.1953 5.64542 11.4055L5.80877 13.1381C5.80877 13.1381 6.22319 12.8765 6.12306 12.3956C6.0236 11.9127 5.81272 11.1992 6.06638 10.8224C6.06638 10.8224 6.41025 11.0451 6.41025 11.3883C6.41025 11.7322 6.38327 13.0993 7.07427 13.0993C7.76212 13.0993 6.90561 11.5662 6.90561 11.2908C6.90561 11.2908 6.87333 11.215 7.03804 11.0411C7.20274 10.8671 7.2225 10.8013 7.34837 10.933C7.47221 11.0654 7.70149 11.2947 7.70149 11.5201C7.70149 11.7454 7.50845 11.6498 7.50845 11.6498C7.50845 11.6498 7.74112 12.3876 7.74112 12.8804C7.74112 13.3738 7.45517 13.7737 6.92616 13.7737C6.39715 13.7737 6.29702 13.1268 6.29702 13.1268C6.29702 13.1268 6.00452 13.5992 5.85494 13.6993L5.96828 15.8654C5.96828 15.8654 5.9544 16.1921 5.77524 16.3608C5.77524 16.3608 5.73561 16.3767 5.72116 16.1526C5.70468 15.9339 5.49843 13.9417 5.49843 13.9417C5.49843 13.9417 4.56889 14.1024 4.56889 12.7248C4.56889 12.7248 4.57939 12.4969 4.60389 12.2281C4.63087 11.9612 4.60129 11.6727 4.51493 11.8855C4.42857 12.099 4.40023 12.2894 4.26521 12.9692C4.12884 13.6466 3.95759 13.8369 3.75404 13.8369C3.55174 13.8369 3.17627 13.215 3.17627 12.2018C3.17751 11.1841 3.3771 11.2994 3.3771 11.2994Z" fill="white"/>
<path d="M6.75724 10.2871C6.75724 10.2871 6.78953 10.6658 6.9259 10.6658C7.06487 10.6658 7.08338 10.3991 7.08338 10.3991C7.08338 10.3991 7.13746 10.4485 7.13746 10.6224C7.13746 10.7957 7.00831 10.8642 6.93776 10.8642C6.86663 10.8642 6.73421 10.7857 6.73421 10.7021C6.73421 10.7021 6.67235 10.8496 6.4819 10.8496C6.29281 10.8496 6.21051 10.6224 6.21051 10.4867C6.21051 10.3503 6.26583 10.2344 6.30929 10.2344C6.35208 10.2344 6.37263 10.4314 6.37263 10.4716C6.37263 10.5138 6.40615 10.6469 6.48721 10.6469C6.56826 10.6469 6.64797 10.5756 6.75724 10.2871ZM3.35449 15.63C3.35449 15.63 4.01129 14.7083 5.03577 14.4382C5.03577 14.4382 5.21233 14.3657 5.21233 14.5514C5.21233 14.7405 5.23672 14.734 4.99491 14.8051C4.75648 14.8784 4.12204 15.1478 3.35449 15.63ZM10.9545 14.6286C10.9545 14.5436 10.9479 14.0595 10.8656 14.0541C10.7833 14.0509 10.5724 14.2182 10.6119 14.2603C10.6507 14.3044 10.7898 14.9237 10.4663 14.9237C10.1408 14.9237 10.0492 14.1318 10.0492 14.1318C9.86941 14.6364 9.63878 14.9863 9.39505 14.9863C9.15324 14.9863 9.08866 14.6734 9.08866 14.5976C9.08866 14.5205 9.14533 14.1818 9.01427 14.1818C8.88185 14.1818 8.61373 14.4769 8.61373 14.4769L8.43119 11.8582C8.61373 12.0552 8.72436 11.9056 8.72436 11.7192C8.72436 11.5334 8.36007 10.559 8.27506 10.4108C8.19005 10.2665 8.02139 10.4556 7.87983 10.6684C7.73555 10.8819 7.89699 11.0815 7.89699 11.0815C7.89699 11.3806 7.9339 11.8463 8.04002 12.768C8.14806 13.691 8.23826 14.7213 8.23826 14.7213L7.88909 14.9283C7.88909 14.9283 7.66511 14.1673 7.06498 14.1673C6.46542 14.1673 6.47005 14.6746 6.47005 15.4243C6.47005 16.1747 7.62899 15.5969 7.62899 15.5969C7.62899 16.089 6.91484 17.0839 5.96215 17.0839C5.00755 17.0839 5.24338 15.4138 5.24338 15.4138C4.68999 16.5529 5.03126 17.7124 5.9424 17.7124C6.85286 17.7124 7.6843 16.8665 7.8813 16.4711C8.07829 16.0745 7.99859 15.4625 7.99859 15.4625L8.26671 15.307C8.26671 15.307 8.33726 16.2155 8.20744 16.811C8.07965 17.4026 6.8628 18.2314 5.85084 18.2314C4.84025 18.2314 4.72228 17.2853 4.72228 17.0008C4.72228 16.7135 4.78877 16.3841 4.78877 16.1706C4.78877 15.9571 4.73605 15.8597 4.73605 15.8597C4.4475 16.2419 4.45664 17.1458 4.45664 17.1458C4.45664 18.8243 5.2716 18.8824 5.77227 18.8824C6.27294 18.8824 7.07142 18.7822 8.05763 18.0971C9.0426 17.412 8.66239 15.1476 8.66239 15.1476L8.7361 15.0672C8.7361 15.0672 8.72561 15.3973 9.2177 15.3973C9.71046 15.3973 9.95487 15.0264 9.95487 15.0264C10.1519 15.3288 10.4213 15.3288 10.4213 15.3288C10.9934 15.3289 10.9545 14.7149 10.9545 14.6286ZM7.06894 15.186C6.82972 15.186 6.79088 14.7473 6.97998 14.7473C7.16975 14.7473 7.41156 15.0912 7.41156 15.0912C7.41156 15.0912 7.30871 15.186 7.06894 15.186ZM3.80775 16.5399C3.80775 16.5399 3.88147 16.8614 3.75774 17.1987C3.63514 17.5359 3.56074 18.7297 4.1708 17.9471C4.1708 17.9471 4.40009 18.7297 3.80651 18.7297C3.21157 18.7297 3.44616 17.4359 3.60816 16.9959C3.76948 16.5557 3.80775 16.5399 3.80775 16.5399Z" fill="white"/>
<path d="M9.84457 16.2896C9.84457 16.2896 9.57578 16.4398 9.57578 16.1341C9.57578 15.8259 9.83994 15.8601 9.83994 15.8601C9.83994 15.8601 10.0685 15.8759 10.0685 16.3186C10.0685 16.7614 9.79716 16.9749 9.79716 16.9749C9.79716 16.9749 9.93229 16.5478 9.84457 16.2896ZM11.1761 10.7036C11.1761 10.6028 11.1411 10.2812 10.8915 10.2812C10.6406 10.2812 10.3908 10.5205 10.3908 10.8808C10.3908 11.2406 10.5674 11.3229 10.5674 11.3229C10.0832 12.0963 8.39009 13.0542 9.48705 12.5806C10.5839 12.1042 10.8402 11.5094 10.8402 11.5094C11.2151 11.5272 11.0009 11.2274 11.0009 11.2274C11.0009 11.2274 11.1761 10.8025 11.1761 10.7036ZM10.7656 11.006C10.6621 10.9198 10.6905 10.8222 10.7188 10.7523C10.7471 10.6792 10.8835 10.6067 10.8835 10.7431C10.8836 10.8848 10.7656 11.006 10.7656 11.006ZM10.8967 12.8855C10.8967 12.8855 10.8684 13.4482 10.4012 13.4482C9.93217 13.4482 10.0211 12.7004 10.5079 12.3499C10.5079 12.3499 10.5969 12.342 10.4935 12.5317C10.3906 12.7208 10.1831 13.1688 10.4717 13.1688C10.7617 13.1675 10.8967 12.8855 10.8967 12.8855ZM13.8357 10.6608C13.8357 10.6608 13.7356 10.5824 13.8324 10.4612C13.9286 10.3393 14.0188 10.3532 14.1104 10.5758C14.204 10.7972 14.2817 11.2788 14.0715 11.8019C14.0715 11.8005 14.1473 11.006 13.8357 10.6608ZM14.3996 13.993C14.3996 13.993 14.5169 14.4601 14.646 14.4601C14.7745 14.4601 14.7963 13.9772 14.7963 13.9772C14.7963 13.9772 14.9893 14.3844 15.0914 14.3844C15.1955 14.3844 15.1982 13.8356 15.1982 13.8356C15.1982 13.8356 15.3411 13.9772 15.3411 14.2737C15.3411 14.5709 15.1481 14.6183 15.0848 14.6183C15.0203 14.6183 14.8516 14.4806 14.8516 14.4806C14.8516 14.4806 14.7949 14.7342 14.6086 14.7342C14.4253 14.7342 14.2929 14.3672 14.3996 13.993ZM19.4191 10.4329C19.4191 10.4329 19.5297 10.1964 19.6575 10.3584C19.7853 10.5179 19.9276 10.8466 19.9276 11.2056C19.9276 11.5673 19.7009 11.7347 19.7009 11.7347C19.7009 11.7347 19.8012 11.114 19.5653 10.8809C19.3321 10.6457 19.3241 10.6225 19.4191 10.4329ZM19.5297 12.2676C19.5297 12.2676 19.6087 12.5403 19.693 12.5403C19.7747 12.5403 19.8445 12.1852 19.8445 12.1852C19.8445 12.1852 19.9249 12.4981 20.0251 12.4981C20.1226 12.4981 20.2214 12.0823 20.2214 12.0823C20.2214 12.0823 20.294 12.2003 20.294 12.4657C20.294 12.7298 20.1463 12.7569 20.1054 12.7569C20.0659 12.7569 19.9539 12.7543 19.8789 12.6048C19.8789 12.6048 19.8063 12.7595 19.6351 12.7595C19.4718 12.7617 19.4559 12.4481 19.5297 12.2676ZM27.0586 11.0225C27.0586 11.0225 27.1666 10.786 27.2958 10.9454C27.4249 11.1061 27.5672 11.4362 27.5672 11.7952C27.5672 12.1543 27.3379 12.3229 27.3379 12.3229C27.3379 12.3229 27.4381 11.7023 27.2061 11.4677C26.969 11.2339 26.9611 11.2123 27.0586 11.0225ZM16.7521 18.2213C16.7521 18.2213 17.1238 17.8945 17.3175 17.8945C17.5085 17.8945 17.2951 18.2371 17.2951 18.3372C17.2951 18.4374 17.2503 18.6507 17.5586 18.5006C17.8682 18.3503 18.1502 18.2371 18.2042 18.2555C18.257 18.2792 17.7575 18.8405 17.3043 18.8405C16.851 18.8405 17.0724 18.357 17.0868 18.2898C17.1027 18.2265 17.1185 18.129 16.8668 18.2463C16.6125 18.3582 16.7521 18.2213 16.7521 18.2213ZM25.3456 17.9578C25.3456 17.9578 25.6355 17.9341 25.6355 18.0975C25.6355 18.2621 25.3574 18.4584 25.5959 18.4584C25.8382 18.4584 25.8279 18.6442 25.6302 18.7351C25.4299 18.83 25.0069 19.0394 25.0069 18.7878C25.0069 18.5348 25.306 18.6217 25.306 18.4031C25.306 18.1844 25.0846 18.3043 25.0846 18.1435C25.0848 17.9841 25.3456 17.9578 25.3456 17.9578ZM24.3152 15.0675C24.3152 15.0675 24.4286 14.8837 24.5893 15.0662C24.7501 15.244 24.816 15.4516 24.816 15.6703C24.816 15.8864 24.6474 16.0392 24.6039 16.0313C24.5577 16.0235 24.6091 15.8403 24.6091 15.6935C24.6091 15.5465 24.3839 15.3614 24.3073 15.3021C24.2283 15.244 24.2678 15.109 24.3152 15.0675ZM24.6237 14.0958C24.6237 14.0958 24.7884 13.9701 24.7884 14.2863C24.7884 14.6032 24.4708 14.5169 23.8436 14.9892C23.2164 15.4616 23.3956 15.1579 23.4233 15.1117C23.4535 15.0662 24.6237 14.0958 24.6237 14.0958ZM23.4614 13.1043C23.4614 13.1043 23.6565 13.381 23.7738 13.6313C23.8951 13.8796 24.0229 13.9581 24.0282 13.6491C24.0334 13.3388 24.0282 12.8908 24.0282 12.8908C24.0282 12.8908 24.0203 12.7004 24.1362 12.7004C24.2494 12.7004 24.2547 12.8519 24.3313 12.7696C24.405 12.6859 24.3338 12.5699 24.3128 12.4968C24.2891 12.4244 24.21 12.2392 24.0256 12.4092C23.8397 12.5779 23.8569 12.7737 23.8806 13.0042C23.9043 13.2335 23.9347 13.6248 23.7858 13.2954C23.6355 12.9667 23.5485 12.6498 23.3483 12.6498C23.1493 12.6498 23.1967 13.2039 23.3245 13.2039C23.4535 13.2038 23.4614 13.1043 23.4614 13.1043Z" fill="white"/>
<path d="M17.9199 16.0259C17.4166 16.1155 15.0179 16.0681 15.0179 16.0681C15.8855 15.661 16.4309 15.4692 16.4309 15.4692L16.6075 15.5594L16.6127 15.4152C16.6127 15.4152 17.5561 15.0495 17.5561 14.564C17.5561 14.0765 16.892 13.6798 16.4624 13.6798C16.033 13.6798 15.7589 14.2253 15.7589 14.5257C15.7589 14.8281 15.8999 14.9711 15.8999 14.9711C15.8999 14.9711 14.4011 15.4849 14.2081 15.6299C14.0152 15.7729 13.8978 16.1338 13.8978 16.3421C13.8978 16.5503 14.4294 16.5082 14.4294 16.5082C15.4992 16.5082 15.7036 16.8086 15.7036 16.8086C14.6423 17.2144 14.9123 18.0287 14.9123 18.0287C14.1092 17.773 13.9531 17.3646 13.8358 16.9193C13.7179 16.4766 13.6118 15.6135 13.482 15.1425C13.3535 14.6708 12.9088 13.5508 12.818 13.5508C12.7264 13.5508 12.4648 14.0495 12.5715 14.3599C12.6776 14.6708 13.2731 16.6189 13.2731 16.6189C12.6736 17.7679 11.8158 18.3977 11.2585 18.3977C10.701 18.3977 10.786 17.8865 10.786 17.8865C11.8955 17.3055 12.389 16.4424 12.389 15.9101C12.389 15.3718 12.1353 14.7934 12.1353 14.7934C12.1353 14.7934 12.3119 14.8947 12.3119 14.7084C12.3119 14.5193 11.7875 13.9375 11.7025 13.9375C11.6161 13.9375 11.3744 14.3493 11.3744 14.5318C11.3744 14.7137 11.578 14.7676 11.578 14.7676C11.578 14.7676 12.0233 15.3665 12.0233 15.8653C12.0233 16.3633 10.8888 17.1169 10.8888 17.1169C10.8888 17.1169 11.0061 16.2895 10.8565 16.3158C10.7062 16.3421 10.3907 17.4766 10.3907 17.4766C10.3907 17.4766 9.10475 18.279 9.03487 18.3119C8.96443 18.3423 7.74228 18.8732 8.23312 18.8732C8.72589 18.8732 10.369 18.1301 10.369 18.1301C10.3841 19.0366 11.234 19.0591 11.234 19.0591C12.3837 19.0591 13.4548 17.3594 13.4548 17.3594C14.1489 18.922 15.5548 18.9643 15.8802 18.9643C16.2069 18.9643 16.2543 18.6744 16.2543 18.4716C16.2543 18.2686 15.3057 18.1553 15.3057 17.7073C15.3057 17.2566 17.1872 16.8535 17.6509 16.7665C18.12 16.6821 18.1332 16.5426 18.1886 16.3936C18.2413 16.2447 18.4232 15.9364 17.9199 16.0259ZM16.3678 14.3671C16.4283 14.3671 16.9238 14.6181 16.9238 14.6747C16.9238 14.7314 16.3599 14.842 16.3599 14.842C16.2676 14.5838 16.3072 14.3671 16.3678 14.3671Z" fill="white"/>
<path d="M11.6617 10.8829C11.6617 10.8829 11.5945 11.5615 11.5945 11.9416C11.5945 12.3238 11.8548 12.8416 12.0696 12.8416C12.2824 12.8416 12.8575 10.7263 13.3108 10.7263C13.7642 10.7263 13.4037 11.2671 13.4037 12.3397C13.4037 13.4102 14.0758 13.0348 14.1502 13.0038C14.2252 12.9702 14.7247 12.6856 14.7247 12.0188C14.7247 11.3509 14.4927 10.6979 14.4927 10.5859C14.4927 10.4739 14.695 10.0061 14.8004 10.1109C14.9059 10.2163 15.0929 10.8613 15.0929 11.3106C15.0929 11.7612 15.2636 12.9108 15.7959 12.9108C16.3282 12.9108 15.9565 11.6965 15.896 11.4983C15.8354 11.2967 15.5745 10.7941 15.6733 10.6682C15.7747 10.543 15.8986 10.3539 15.9407 10.2716C15.9855 10.1893 16.1317 10.2947 16.2504 10.4252C16.3729 10.5576 16.6152 10.8719 16.6152 11.1611C16.6152 11.4509 16.2569 11.0866 16.2569 11.0866C16.2569 11.0866 16.4914 11.779 16.4914 12.3857C16.4914 12.9932 16.1712 13.426 15.7853 13.426C15.4005 13.426 14.9459 12.8634 14.9459 12.8634C14.9459 12.8634 14.5638 13.6704 13.7792 13.6704C12.9938 13.6704 13.0572 12.4628 13.0572 12.4628C13.0572 12.4628 13.1217 11.81 13.0354 11.8396C12.9505 11.8679 12.6967 12.646 12.6077 12.8969C12.5175 13.1506 12.4279 13.4167 12.1756 13.4167C11.9219 13.4167 11.3837 12.7947 11.3837 12.0095C11.3837 11.2242 11.6617 10.8829 11.6617 10.8829ZM17.6956 11.3322L18.2938 12.2092L18.1975 11.1794C18.1975 11.1794 18.0803 11.0839 18.0803 10.9231C18.0803 10.7637 18.1989 10.3928 18.3622 10.3928C18.5256 10.3928 18.9948 11.5476 18.9948 11.8072C18.9948 12.0662 18.7589 11.8757 18.7589 11.8757L18.805 13.0497C18.805 13.0497 20.0804 14.9128 20.5285 16.0637C20.979 17.2127 20.7049 17.189 20.5838 16.9096C20.4612 16.625 19.5521 14.6993 18.8776 13.8791C18.8776 13.8791 19.0844 16.0373 19.0844 16.5618C19.0844 17.0863 18.925 18.1376 18.6837 18.1376C18.4415 18.1376 18.784 17.4183 18.7694 16.986C18.7524 16.5512 18.4625 13.8047 18.3359 13.0497L17.0302 11.232C17.0302 11.232 16.7734 11.2643 16.7734 10.9C16.7734 10.537 16.6917 10.1891 16.8577 10.1891C17.0237 10.1891 18.0145 11.1109 18.0145 11.2722C18.0145 11.4317 17.6956 11.3322 17.6956 11.3322Z" fill="white"/>
<path d="M21.1056 11.6409C21.1056 11.6409 21.0857 12.3287 21.2294 13.5712C21.3718 14.8125 21.3928 15.7123 21.3928 16.2058C21.3928 16.6985 21.543 19.0755 19.0738 19.0755C19.0738 19.0755 18.9209 19.0807 18.9209 19.0202C18.9209 18.9596 19.071 18.9069 19.2871 18.8332C19.5045 18.7593 21.1503 18.2561 21.0132 16.298C20.8762 14.342 20.6495 11.2496 20.5414 11.1495C20.5414 11.1495 20.4427 11.0968 20.4427 10.9037C20.4427 10.7094 20.8208 10.3412 20.9209 10.3412C21.0198 10.3412 21.3372 11.4157 21.3372 11.6232C21.3374 11.8333 21.1056 11.6409 21.1056 11.6409ZM22.3006 11.7984C22.3006 11.7984 22.7183 15.5115 22.8581 16.4351C22.9976 17.3548 22.489 17.8054 22.3968 17.8054C22.3073 17.8054 22.418 17.4892 22.418 16.9858C22.418 16.4826 21.9253 13.2004 21.8198 12.3315C21.7118 11.4638 21.601 11.4684 21.601 10.9447C21.601 10.4209 21.9305 10.2227 22.0186 10.2227C22.1043 10.2227 22.2149 10.5804 22.2149 10.5804C22.2149 10.5804 22.4521 11.2834 22.5799 11.4804C22.7091 11.6787 22.7091 11.765 22.7091 11.8309C22.7078 11.8932 22.4521 11.9269 22.3006 11.7984Z" fill="white"/>
<path d="M22.0333 16.4994C22.0333 16.4994 22.012 18.2598 22.5418 18.2598C22.5418 18.2598 22.6868 18.3519 23.0926 17.4296C23.5011 16.51 23.6934 16.3386 23.8858 16.3386C24.0782 16.3386 24.4603 17.1029 24.8397 17.1029C25.2205 17.1029 25.3325 16.5139 25.3325 16.0883C25.3325 15.6555 25.1282 12.8733 25.1282 12.8733L23.8963 11.2922C23.8963 11.2922 23.8435 11.2395 23.8435 10.8944C23.8435 10.5491 23.7935 10.3264 23.9225 10.3264C24.053 10.3264 24.2441 10.615 24.4878 10.8238C24.7302 11.0333 24.8304 11.1078 24.8304 11.229C24.8304 11.3489 24.6498 11.2731 24.6498 11.2731L25.053 11.8686L24.9896 11.1558C24.9896 11.1558 24.8764 10.9997 24.8764 10.835C24.8764 10.6716 25.074 10.267 25.1952 10.267C25.3191 10.267 25.7011 11.331 25.7011 11.5378C25.7011 11.7467 25.535 11.5273 25.535 11.5273L25.593 12.6697L26.3508 13.7034C26.3508 13.7034 26.0384 11.7415 26.0384 10.8929C26.0384 10.8929 25.9962 10.8539 25.9962 10.7308C25.9962 10.6083 26.2439 10.2031 26.3652 10.2031C26.4864 10.2031 26.8197 11.3396 26.8197 11.5931C26.8197 11.8442 26.6208 11.6703 26.6208 11.6703L26.8237 14.3668C26.8237 14.3668 27.7935 15.7272 27.9595 16.1067C28.1255 16.4862 28.1084 17.0396 28.0491 17.0131C27.9898 16.9867 27.5234 16.0592 26.8949 15.3154C26.8949 15.3154 27.0754 16.8471 26.738 17.087C26.738 17.087 26.705 16.4572 26.705 16.1355C26.705 15.8141 26.5522 14.8595 26.5522 14.8595L25.6786 13.6341C25.6786 13.6341 25.8143 15.9591 25.8143 16.5889C25.8143 17.2214 25.5073 17.8011 24.9408 17.8011C24.3729 17.8011 23.8749 17.1001 23.8749 17.1001C23.8749 17.1001 23.6798 17.2318 23.282 18.0423C22.8788 18.8499 22.7549 18.9184 22.5836 18.9184C22.4122 18.9184 21.7271 18.5101 21.7271 17.8156C21.7223 17.1186 22.0333 16.4994 22.0333 16.4994Z" fill="white"/>
<path d="M27.8149 10.8612C27.8149 10.8612 27.7675 10.8328 27.7675 10.699C27.7675 10.5666 28.0047 10.2049 28.11 10.2049C28.218 10.2049 28.7175 11.286 28.7175 11.4922C28.7175 11.7004 28.4868 11.4613 28.4868 11.4613C28.4868 11.4613 28.4815 11.6583 28.6108 13.2763C28.7399 14.891 29.4804 17.8175 27.3458 18.6831C25.2139 19.5514 27.774 18.1139 28.1364 17.2206C28.4962 16.3246 28.2841 15.1572 28.1641 13.9496C28.0416 12.7434 27.8149 10.8612 27.8149 10.8612ZM24.9082 23.0576H22.6077L22.601 22.8468C22.601 22.8468 22.7579 22.698 22.7579 22.5939C22.7579 22.4884 22.6077 22.2092 22.4997 22.2092C22.3941 22.2092 22.2335 22.4436 22.2335 22.5781C22.2335 22.7151 22.3968 22.8495 22.3968 22.8495V23.0604L6.4281 23.0102C7.19824 23.7824 7.27139 23.7956 10.7268 23.8813C14.1836 23.967 22.4391 23.7204 22.4391 23.7204V23.9774C22.4391 23.9774 22.273 24.1052 22.273 24.2408C22.273 24.3765 22.414 24.6058 22.5378 24.6058C22.663 24.6058 22.7369 24.3344 22.7369 24.3344H23.5525C23.5525 24.3344 23.538 24.5005 23.7383 24.5005C23.9373 24.5005 23.9452 24.3121 23.9452 24.3121H24.8162C24.8162 24.3121 24.9426 24.5084 25.143 24.5084C25.3419 24.5084 25.5963 24.4121 25.5963 23.7046C25.5933 23.0023 24.9082 23.0576 24.9082 23.0576ZM24.7448 24.1065L23.9412 24.1171C23.9412 24.1171 23.8859 23.9695 23.7356 23.9695C23.5855 23.9695 23.5618 24.1408 23.5618 24.1408L22.7764 24.1527C22.7764 24.1527 22.7369 24.0301 22.6288 23.9643L22.6156 23.7099L24.7739 23.6572C24.7725 23.6558 24.6579 23.9274 24.7448 24.1065Z" fill="white"/>
</g>
</g>
<defs>
<clipPath id="clip0_3389_766">
<rect width="32" height="32" fill="white"/>
</clipPath>
</defs>
</svg>
