<svg width="540" height="540" viewBox="0 0 540 540" fill="none" xmlns="http://www.w3.org/2000/svg">
<g opacity="0.04">
<path d="M512.562 208.893C461.19 331.124 26.5925 369.128 154.106 540C69.4375 524.126 95.3171 422.224 150.582 383.566C252.867 286.319 483.599 283.664 507.453 122.557C596.296 284.228 493.676 500.469 315.637 527.745C285.019 532.69 234.193 536.2 226.371 496.159C223.57 479.649 229.031 466.193 243.072 455.519C316.148 406.877 412.391 403.804 477.926 341.743C516.032 307.303 520.789 259.571 512.562 208.929V208.893Z" fill="white"/>
<path d="M27.6489 325.343C82.2973 207.44 494.081 171.836 393.557 0C496.618 44.2046 401.08 153.762 338.046 184.674C238.385 249.844 53.8631 266.21 30.2033 407.824C-48.5807 257.463 34.4844 65.6614 189.938 16.4017C218.548 6.09155 248.251 5.03689 277.883 8.30996C310.281 11.4739 324.656 57.8606 293.985 77.8991C237.54 116.649 167.741 124.449 108.441 157.689C48.2257 185.147 -2.79356 259.227 27.6489 325.325V325.343Z" fill="white"/>
</g>
</svg>
