<svg width="80" height="80" viewBox="0 0 80 80" fill="none" xmlns="http://www.w3.org/2000/svg">
<path d="M0 40C0 17.9086 17.9086 0 40 0C62.0914 0 80 17.9086 80 40C80 62.0914 62.0914 80 40 80C17.9086 80 0 62.0914 0 40Z" fill="#E8F0EB"/>
<g clip-path="url(#clip0_3962_15495)">
<path d="M56.2889 23.6126C56.1947 24.9168 55.8822 25.6095 55.362 25.6095C55.1074 25.6095 54.8633 25.7106 54.6833 25.8906C54.5033 26.0706 54.4022 26.3147 54.4022 26.5693C54.4022 26.8238 54.5033 27.068 54.6833 27.2479C54.8633 27.4279 55.1074 27.5291 55.362 27.5291C57.078 27.5291 58.0271 26.2154 58.2047 23.6421C62.7598 23.1632 63.9998 19.1555 63.9998 16.9717C63.9998 16.7171 63.8987 16.473 63.7187 16.293C63.5387 16.113 63.2946 16.0119 63.0401 16.0119C61.8938 15.9407 60.7503 16.1903 59.7379 16.7328C58.7256 17.2754 57.8845 18.0893 57.3091 19.0833C56.6753 18.1313 55.8146 17.3521 54.8044 16.8159C53.7943 16.2797 52.6665 16.0034 51.5229 16.0119C51.2684 16.0119 51.0243 16.113 50.8443 16.293C50.6643 16.473 50.5632 16.7171 50.5632 16.9717C50.3892 20.3603 52.9119 23.2859 56.2889 23.6126ZM56.2322 21.6467C55.3211 21.5112 54.4762 21.0908 53.8186 20.4457C53.1611 19.8007 52.7246 18.964 52.5717 18.0556C54.4411 18.333 55.9191 19.7829 56.2322 21.6467ZM61.9566 18.0209C61.6787 19.8903 60.2287 21.3679 58.365 21.6813C58.6428 19.812 60.0928 18.3344 61.9566 18.0209ZM44.8045 21.7705H48.6435C48.8981 21.7705 49.1422 21.6694 49.3222 21.4894C49.5022 21.3094 49.6033 21.0653 49.6033 20.8107C49.6033 20.5562 49.5022 20.3121 49.3222 20.1321C49.1422 19.9521 48.8981 19.851 48.6435 19.851H44.8045C44.5499 19.851 44.3058 19.9521 44.1258 20.1321C43.9458 20.3121 43.8447 20.5562 43.8447 20.8107C43.8447 21.0653 43.9458 21.3094 44.1258 21.4894C44.3058 21.6694 44.5499 21.7705 44.8045 21.7705ZM44.8045 24.6498H48.6435C48.8981 24.6498 49.1422 24.5486 49.3222 24.3687C49.5022 24.1887 49.6033 23.9445 49.6033 23.69C49.6033 23.4355 49.5022 23.1913 49.3222 23.0113C49.1422 22.8314 48.8981 22.7302 48.6435 22.7302H44.8045C44.5499 22.7302 44.3058 22.8314 44.1258 23.0113C43.9458 23.1913 43.8447 23.4355 43.8447 23.69C43.8447 23.9445 43.9458 24.1887 44.1258 24.3687C44.3058 24.5486 44.5499 24.6498 44.8045 24.6498ZM63.04 58.2414H62.0802V40.006C62.0802 39.7514 61.9791 39.5073 61.7991 39.3273C61.6191 39.1473 61.375 39.0462 61.1204 39.0462H52.4826V32.3279C52.4823 32.0941 52.3968 31.8684 52.2421 31.6931C52.0873 31.5179 51.8739 31.4051 51.6419 31.376L36.2857 29.4565C36.1507 29.4395 36.0136 29.4514 35.8836 29.4915C35.7536 29.5316 35.6335 29.5989 35.5315 29.6889C35.4295 29.7789 35.3477 29.8896 35.2918 30.0137C35.2358 30.1377 35.2069 30.2723 35.207 30.4083V37.7143L28.1853 40.0551C27.9942 40.1188 27.8279 40.241 27.71 40.4044C27.5922 40.5678 27.5288 40.7642 27.5289 40.9657V58.2414H25.5756L24.6495 32.3067V28.4888C24.6495 28.2343 24.5483 27.9901 24.3684 27.8102C24.1884 27.6302 23.9442 27.5291 23.6897 27.5291H19.8506C19.5961 27.5291 19.352 27.6302 19.172 27.8102C18.992 27.9901 18.8909 28.2343 18.8909 28.4888V32.3067L17.9645 58.2414H16.9715C16.7169 58.2414 16.4728 58.3426 16.2928 58.5226C16.1128 58.7025 16.0117 58.9467 16.0117 59.2012V63.0403C16.0117 63.2948 16.1128 63.5389 16.2928 63.7189C16.4728 63.8989 16.7169 64 16.9715 64H63.0401C63.2946 64 63.5387 63.8989 63.7187 63.7189C63.8987 63.5389 63.9998 63.2948 63.9998 63.0403V59.2012C63.9998 58.9467 63.8987 58.7025 63.7187 58.5226C63.5387 58.3426 63.2946 58.2414 63.0401 58.2414H63.04ZM20.7768 33.2876H22.7633L23.6551 58.2414H19.885L20.7768 33.2876ZM17.9311 60.161H62.0802V62.0805H17.9311V60.161ZM29.4483 41.658L39.0459 38.458V58.2414H29.4483V41.658ZM60.1607 58.2414H40.9654V40.9657H60.1607V58.2414ZM37.1264 31.496L50.563 33.1756V39.0462H48.6435V37.1267C48.6435 36.8721 48.5424 36.628 48.3624 36.448C48.1824 36.268 47.9383 36.1669 47.6838 36.1669C47.4292 36.1669 47.1851 36.268 47.0051 36.448C46.8251 36.628 46.724 36.8721 46.724 37.1267V39.0462H44.8045V37.1267C44.8045 36.8721 44.7034 36.628 44.5234 36.448C44.3434 36.268 44.0993 36.1669 43.8447 36.1669C43.5902 36.1669 43.346 36.268 43.1661 36.448C42.9861 36.628 42.8849 36.8721 42.8849 37.1267V39.0462H40.9654V37.1267C40.9655 36.9746 40.9294 36.8247 40.8601 36.6894C40.7909 36.554 40.6904 36.437 40.5671 36.3481C40.4437 36.2591 40.301 36.2008 40.1507 36.1779C40.0004 36.1549 39.8468 36.168 39.7025 36.2161L37.1265 37.0798L37.1264 31.496ZM20.8104 29.4486H22.7299V31.3681H20.8104V29.4486Z" fill="#1B6936"/>
<path d="M32.3276 42.8855C32.073 42.8855 31.8289 42.9866 31.6489 43.1666C31.4689 43.3466 31.3678 43.5907 31.3678 43.8452V47.6843C31.3678 47.9388 31.4689 48.1829 31.6489 48.3629C31.8289 48.5429 32.073 48.644 32.3276 48.644C32.5821 48.644 32.8262 48.5429 33.0062 48.3629C33.1862 48.1829 33.2873 47.9388 33.2873 47.6843V43.8452C33.2873 43.5907 33.1862 43.3466 33.0062 43.1666C32.8262 42.9866 32.5821 42.8855 32.3276 42.8855ZM36.1666 42.8855C35.9121 42.8855 35.668 42.9866 35.488 43.1666C35.308 43.3466 35.2069 43.5907 35.2069 43.8452V47.6843C35.2069 47.9388 35.308 48.1829 35.488 48.3629C35.668 48.5429 35.9121 48.644 36.1666 48.644C36.4212 48.644 36.6653 48.5429 36.8453 48.3629C37.0253 48.1829 37.1264 47.9388 37.1264 47.6843V43.8452C37.1264 43.5907 37.0253 43.3466 36.8453 43.1666C36.6653 42.9866 36.4212 42.8855 36.1666 42.8855ZM32.3276 50.5636C32.073 50.5636 31.8289 50.6647 31.6489 50.8447C31.4689 51.0247 31.3678 51.2688 31.3678 51.5233V55.3624C31.3678 55.6169 31.4689 55.861 31.6489 56.041C31.8289 56.221 32.073 56.3221 32.3276 56.3221C32.5821 56.3221 32.8262 56.221 33.0062 56.041C33.1862 55.861 33.2873 55.6169 33.2873 55.3624V51.5233C33.2873 51.2688 33.1862 51.0247 33.0062 50.8447C32.8262 50.6647 32.5821 50.5636 32.3276 50.5636ZM36.1666 50.5636C35.9121 50.5636 35.668 50.6647 35.488 50.8447C35.308 51.0247 35.2069 51.2688 35.2069 51.5233V55.3624C35.2069 55.6169 35.308 55.861 35.488 56.041C35.668 56.221 35.9121 56.3221 36.1666 56.3221C36.4212 56.3221 36.6653 56.221 36.8453 56.041C37.0253 55.861 37.1264 55.6169 37.1264 55.3624V51.5233C37.1264 51.2688 37.0253 51.0247 36.8453 50.8447C36.6653 50.6647 36.4212 50.5636 36.1666 50.5636ZM50.5631 42.8855C49.618 42.8864 48.6838 43.0862 47.821 43.472C46.9583 43.8578 46.1865 44.4208 45.5557 45.1246C45.2085 45.5201 45.2442 46.1223 45.6368 46.4733C45.8253 46.6422 46.0728 46.7297 46.3255 46.7169C46.5782 46.7041 46.8156 46.592 46.986 46.4049C47.6101 45.705 48.4262 45.204 49.3327 44.9643C50.2393 44.7246 51.1963 44.7566 52.0848 45.0566C52.9732 45.3567 53.7538 45.9113 54.3295 46.6516C54.9052 47.3918 55.2505 48.2849 55.3226 49.2199H53.4423L56.3216 52.0992L59.2009 49.2199H57.2622C57.0587 45.6677 54.1209 42.8901 50.5631 42.8855ZM54.1402 52.8027C53.5161 53.5027 52.7 54.0038 51.7933 54.2435C50.8867 54.4832 49.9295 54.451 49.041 54.1509C48.1526 53.8509 47.3721 53.2963 46.7965 52.5561C46.2209 51.816 45.8756 50.9228 45.8037 49.9879H47.6839L44.8046 47.1087L41.9253 49.9879H43.864C44.0164 52.699 45.7873 55.0512 48.3507 55.9472C50.9137 56.8432 53.7643 56.1066 55.5729 54.0811C55.6871 53.9559 55.7661 53.8026 55.8019 53.637C55.8377 53.4713 55.829 53.2992 55.7767 53.138C55.7243 52.9768 55.6303 52.8323 55.504 52.7192C55.3778 52.6062 55.2238 52.5285 55.0579 52.4942C54.8919 52.4601 54.7199 52.4705 54.5592 52.5243C54.3985 52.5781 54.255 52.6735 54.1431 52.8008L54.1402 52.8027ZM21.7702 25.6097C22.0247 25.6097 22.2689 25.5086 22.4488 25.3286C22.6288 25.1486 22.7299 24.9045 22.7299 24.65V21.7707C22.7299 20.7106 23.5895 19.8512 24.6495 19.8512H25.6092C26.6694 19.8512 27.5288 20.7106 27.5288 21.7707C27.5288 23.8912 29.2473 25.6097 31.3678 25.6097H32.3276C34.4478 25.6097 36.1666 23.8912 36.1666 21.7707V18.8914C36.1666 18.6369 36.0655 18.3927 35.8855 18.2127C35.7055 18.0328 35.4614 17.9316 35.2069 17.9316C34.9523 17.9316 34.7082 18.0328 34.5282 18.2127C34.3482 18.3927 34.2471 18.6369 34.2471 18.8914V21.7707C34.2471 22.8312 33.3878 23.6902 32.3276 23.6902H31.3678C30.3079 23.6902 29.4483 22.8312 29.4483 21.7707C29.4483 19.6506 27.7295 17.9316 25.6092 17.9316H24.6495C22.529 17.9316 20.8104 19.6506 20.8104 21.7707V24.65C20.8104 24.9045 20.9115 25.1486 21.0915 25.3286C21.2715 25.5086 21.5156 25.6097 21.7702 25.6097Z" fill="#1B6936"/>
</g>
<defs>
<clipPath id="clip0_3962_15495">
<rect width="48" height="48" fill="white" transform="translate(16 16)"/>
</clipPath>
</defs>
</svg>
