<svg width="80" height="80" viewBox="0 0 80 80" fill="none" xmlns="http://www.w3.org/2000/svg">
<path d="M0 40C0 17.9086 17.9086 0 40 0C62.0914 0 80 17.9086 80 40C80 62.0914 62.0914 80 40 80C17.9086 80 0 62.0914 0 40Z" fill="#E8F0EB"/>
<path d="M40.5142 24.7395C40.3722 22.523 38.6018 20.7474 36.3888 20.5947C35.9901 19.3096 34.7901 18.3735 33.3756 18.3735C32.9619 18.3735 32.5599 18.4529 32.1871 18.6045C31.1725 17.0122 29.3874 16 27.4575 16C24.6839 16 22.3768 18.0017 21.9328 20.6689C21.7743 20.6626 21.6155 20.6647 21.4572 20.6752C19.2711 20.8218 17.5109 22.5806 17.3628 24.7666C17.3531 24.9106 17.3503 25.0551 17.3544 25.1994C17.4233 27.598 19.3578 29.4768 21.7584 29.4768H36.0776C37.2268 29.4801 38.3323 29.0369 39.1611 28.2408C39.9899 27.4447 40.4771 26.3578 40.52 25.2094C40.5261 25.0528 40.5241 24.8959 40.5142 24.7395ZM38.6462 25.1351C38.6213 25.7991 38.3395 26.4274 37.8602 26.8876C37.381 27.3478 36.7417 27.6038 36.0773 27.6017H21.7583C20.3793 27.6017 19.2682 26.5228 19.2286 25.1451C19.2262 25.061 19.2278 24.9768 19.2336 24.8928C19.3184 23.639 20.3284 22.6302 21.5829 22.5461C21.7965 22.5319 22.0112 22.5443 22.2218 22.5832C22.254 22.5892 22.2863 22.5934 22.3185 22.596C22.5167 22.6155 22.9236 22.6124 23.2768 22.3362C23.5342 22.1351 23.6937 21.841 23.7287 21.5054C23.7307 21.4892 23.7322 21.4729 23.7332 21.4568C23.7337 21.4497 23.7341 21.4427 23.7344 21.4355C23.8222 19.439 25.4576 17.875 27.4575 17.875C28.9961 17.875 30.3965 18.8424 30.9419 20.2823C30.9972 20.4283 31.0881 20.5581 31.2063 20.6601C31.3245 20.762 31.4663 20.8329 31.6188 20.8662C31.7713 20.8994 31.9296 20.8941 32.0795 20.8506C32.2294 20.8072 32.3661 20.7271 32.4772 20.6175C32.716 20.3805 33.039 20.2478 33.3754 20.2486C34.077 20.2486 34.6484 20.8165 34.6543 21.5168C34.654 21.5265 34.6538 21.5363 34.6536 21.5462C34.6523 21.6809 34.68 21.8144 34.735 21.9375C34.7899 22.0606 34.8707 22.1703 34.9719 22.2593C35.0732 22.3483 35.1924 22.4145 35.3215 22.4532C35.4506 22.4919 35.5865 22.5024 35.72 22.4838C35.8917 22.4601 36.0653 22.4534 36.2383 22.4638C37.5267 22.5422 38.5604 23.5721 38.6428 24.8592C38.6486 24.9507 38.6499 25.0437 38.6462 25.1351ZM35.3445 47.4888C35.3323 47.4288 35.3145 47.3697 35.2911 47.3135C35.2676 47.2574 35.2386 47.203 35.2048 47.1513C35.1711 47.1007 35.1317 47.052 35.0886 47.0088C35.0455 46.9657 34.9967 46.9263 34.9461 46.8926C34.8437 46.8246 34.7291 46.7772 34.6086 46.7529C34.4876 46.7285 34.363 46.7285 34.242 46.7529C34.1216 46.7773 34.007 46.8247 33.9046 46.8926C33.8539 46.9263 33.8052 46.9657 33.7621 47.0088C33.719 47.052 33.6795 47.1008 33.6459 47.1513C33.6121 47.2029 33.5831 47.2574 33.5596 47.3135C33.5362 47.3697 33.5184 47.4288 33.5062 47.4888C33.494 47.5497 33.4874 47.6107 33.4874 47.6717C33.4874 47.9182 33.5878 48.1601 33.7622 48.3344C33.8053 48.3775 33.8541 48.4169 33.9047 48.4516C33.9562 48.4853 34.0106 48.5144 34.0669 48.5378C34.1231 48.5612 34.1821 48.5791 34.2421 48.5913C34.3031 48.6033 34.3641 48.6091 34.4249 48.6091C34.4868 48.6091 34.5478 48.6034 34.6086 48.5913C34.6687 48.5792 34.7276 48.5613 34.7839 48.5379C34.8401 48.5145 34.8945 48.4854 34.9461 48.4517C34.9968 48.417 35.0455 48.3776 35.0886 48.3345C35.1317 48.2913 35.1711 48.2435 35.2048 48.192C35.2386 48.1413 35.2676 48.087 35.2911 48.0307C35.3145 47.9735 35.3323 47.9154 35.3445 47.8554C35.3567 47.7945 35.3633 47.7335 35.3633 47.6717C35.3633 47.6107 35.3567 47.5497 35.3445 47.4888ZM22.4296 47.4888C22.4055 47.3682 22.3581 47.2536 22.29 47.1512C22.2553 47.1006 22.216 47.0519 22.1728 47.0088C22.0855 46.9224 21.9823 46.8536 21.869 46.8063C21.8118 46.7828 21.7527 46.7651 21.6937 46.7528C21.5727 46.7284 21.4481 46.7284 21.3271 46.7528C21.2067 46.7773 21.0922 46.8247 20.9897 46.8925C20.9381 46.9262 20.8902 46.9656 20.8471 47.0088C20.7603 47.0961 20.6916 47.1996 20.6447 47.3134C20.6213 47.3696 20.6035 47.4288 20.5913 47.4888C20.5791 47.5496 20.5725 47.6106 20.5725 47.6716C20.5725 47.7334 20.5791 47.7944 20.5913 47.8553C20.6035 47.9153 20.6213 47.9734 20.6447 48.0306C20.6681 48.0869 20.6972 48.1413 20.731 48.1919C20.7647 48.2433 20.8036 48.291 20.8471 48.3344C20.9341 48.4218 21.0377 48.4909 21.1518 48.5378C21.2653 48.585 21.387 48.6092 21.5099 48.6091C21.571 48.6091 21.6327 48.6034 21.6936 48.5912C21.7526 48.579 21.8117 48.5612 21.8689 48.5377C21.9251 48.5143 21.9795 48.4852 22.0301 48.4515C22.0817 48.4168 22.1296 48.3774 22.1727 48.3343C22.3479 48.1581 22.4466 47.92 22.4474 47.6716C22.4474 47.6106 22.4418 47.5496 22.4296 47.4888Z" fill="#1B6936"/>
<path d="M62.3396 54.0385C62.2977 53.8643 62.2066 53.7057 62.0773 53.5816C61.948 53.4575 61.7858 53.3731 61.61 53.3383C61.4846 53.3135 59.727 52.9781 57.763 53.2132V50.6296C57.763 50.1119 57.3432 49.6921 56.8255 49.6921C56.6771 49.6921 56.5135 49.6921 56.339 49.6949C55.8694 48.9006 55.3167 48.2167 54.824 47.6831V41.1173C59.1354 39.969 62.3212 36.0308 62.3212 31.3624C62.3212 28.6233 61.2088 26.0111 59.2518 24.114C59.2939 23.7994 59.315 23.4824 59.315 23.165C59.315 19.2573 56.136 16.0781 52.2285 16.0781C48.3209 16.0781 45.1419 19.2573 45.1419 23.165C45.1419 23.4828 45.1632 23.8002 45.2051 24.114C44.2341 25.055 43.462 26.1815 42.9348 27.4267C42.4075 28.6718 42.1358 30.0102 42.1357 31.3624C42.1357 36.0304 45.321 39.9684 49.6321 41.117V43.8577L47.9136 42.5314C47.7493 42.4046 47.5476 42.3359 47.3401 42.336C47.1326 42.3361 46.931 42.4051 46.7669 42.5321L44.1194 44.5813L41.4549 42.5306C41.2909 42.4043 41.0895 42.3358 40.8825 42.336C40.6754 42.3361 40.4741 42.4049 40.3102 42.5315L37.6543 44.5814L34.9983 42.5315C34.8342 42.4048 34.6327 42.3361 34.4254 42.3361C34.2181 42.3361 34.0167 42.4048 33.8526 42.5315L31.1966 44.5814L28.5406 42.5315C28.3765 42.4048 28.175 42.3361 27.9677 42.3361C27.7604 42.3361 27.559 42.4048 27.3949 42.5315L24.7389 44.5814L22.0829 42.5315C21.9188 42.4048 21.7173 42.3361 21.51 42.3361C21.3027 42.3361 21.1013 42.4048 20.9372 42.5315L17.7084 45.0235C17.595 45.1111 17.5031 45.2236 17.4399 45.3522C17.3766 45.4809 17.3438 45.6223 17.3438 45.7657V63.062C17.3438 63.5797 17.7636 63.9995 18.2812 63.9995H50.5696C50.6892 63.9995 50.8037 63.977 50.9089 63.9361C51.9674 63.8983 52.7292 63.7528 52.8102 63.7368C52.8481 63.7293 52.885 63.7195 52.9211 63.7077C52.9571 63.7195 52.9942 63.7293 53.032 63.7368C53.1251 63.7552 54.119 63.9451 55.4292 63.9451C57.1832 63.9451 59.5042 63.6048 60.9888 62.0578V62.0579C63.5822 59.3555 62.3916 54.2544 62.3396 54.0385ZM22.4473 62.1245V51.4174C22.4473 50.8997 22.0275 50.4799 21.5098 50.4799C20.9921 50.4799 20.5723 50.8997 20.5723 51.4174V62.1245H19.2186V46.2263L21.5098 44.4578L23.8012 46.2263V62.1245H22.4473ZM25.6762 62.1245V46.2263L27.9675 44.4578L30.2588 46.2263V62.1245H25.6762ZM36.7165 62.1245H35.3627V51.4174C35.3627 50.8997 34.9429 50.4799 34.4252 50.4799C33.9075 50.4799 33.4877 50.8997 33.4877 51.4174V62.1245H32.1339V46.2263L34.4252 44.4578L36.7165 46.2263V62.1245ZM38.5915 62.1245V46.2263L40.8836 44.4572L43.1832 46.2271V62.1245H38.5915ZM44.0106 31.3624C44.0107 30.1878 44.2625 29.0268 44.7492 27.9577C45.2358 26.8886 45.9459 25.9363 46.8316 25.1648C46.9577 25.0548 47.0521 24.913 47.105 24.7542C47.1579 24.5954 47.1673 24.4254 47.1322 24.2618C47.0554 23.9012 47.0167 23.5336 47.0168 23.165C47.0168 20.2912 49.3548 17.9531 52.2284 17.9531C55.1019 17.9531 57.4399 20.2911 57.4399 23.165C57.44 23.5336 57.4013 23.9012 57.3245 24.2618C57.2894 24.4254 57.2988 24.5955 57.3517 24.7543C57.4046 24.913 57.499 25.0548 57.6252 25.1648C58.5109 25.9363 59.221 26.8887 59.7076 27.9578C60.1942 29.0268 60.446 30.1878 60.4462 31.3624C60.4462 35.5769 57.2574 39.0607 53.166 39.5273V34.8037C53.1706 34.7996 53.1752 34.7955 53.1797 34.7913L56.7517 31.5005C57.1326 31.1497 57.1567 30.5566 56.8059 30.1758C56.4551 29.7949 55.8621 29.7706 55.4812 30.1215L53.166 32.2545V29.8101L55.6892 27.4703C56.0689 27.1182 56.0912 26.5251 55.7392 26.1454C55.3869 25.7657 54.7938 25.7437 54.4142 26.0954L53.166 27.2528V25.1445C53.166 24.6268 52.7462 24.207 52.2285 24.207C51.7108 24.207 51.291 24.6268 51.291 25.1445V32.2547L48.9757 30.1216C48.5947 29.7707 48.0017 29.7952 47.651 30.1759C47.3002 30.5567 47.3244 31.1497 47.7052 31.5006L51.2772 34.7914L51.291 34.8038V39.5274C47.1994 39.0607 44.0106 35.5769 44.0106 31.3624ZM52.9217 48.4215C53.2949 48.7768 53.7969 49.3029 54.265 49.9491C53.7731 50.0887 53.3043 50.3041 52.921 50.6365C52.5379 50.3043 52.0692 50.0889 51.5775 49.9493C52.0453 49.3051 52.5482 48.7778 52.9217 48.4215ZM51.5069 47.1796V41.43C51.987 41.464 52.4688 41.464 52.9489 41.43V46.2357C52.7312 46.2291 52.518 46.2985 52.346 46.432C52.3128 46.4578 51.9736 46.7235 51.5069 47.1796ZM45.0583 46.2254L47.3414 44.4583L49.632 46.2262V49.4818C49.5882 49.5519 49.5451 49.6229 49.5025 49.6948C49.328 49.692 49.1645 49.692 49.0162 49.692C48.893 49.692 48.771 49.7163 48.6572 49.7635C48.5433 49.8106 48.4399 49.8798 48.3529 49.967C48.2658 50.0541 48.1968 50.1576 48.1497 50.2715C48.1027 50.3853 48.0785 50.5073 48.0787 50.6305L48.0815 53.2134C46.8933 53.0708 45.7804 53.1372 45.0583 53.2174V46.2254ZM51.8342 61.9916C51.4903 62.0326 51.0806 62.0641 50.6372 62.0717C50.5854 62.068 50.5334 62.0686 50.4817 62.0734C49.0094 62.0793 47.2151 61.8113 46.2059 60.7597C44.8574 59.3547 44.9688 56.5835 45.2075 55.0836C46.7142 54.9042 49.4816 54.9047 50.8357 56.3157C52.1842 57.7206 52.0729 60.4917 51.8342 61.9916ZM52.9208 55.9989C52.7191 55.6486 52.4773 55.318 52.1885 55.0172C51.5591 54.3615 50.7797 53.9227 49.9568 53.6346L49.9546 51.5923C51.8198 51.7057 51.9757 52.1956 51.9828 52.9406C51.9878 53.4548 52.4075 53.869 52.9218 53.869C53.4361 53.869 53.8542 53.4548 53.8593 52.9406C53.8664 52.1955 54.0223 51.7056 55.888 51.5923V53.6335C55.064 53.9216 54.2833 54.3608 53.6532 55.0172C53.3645 55.318 53.1226 55.6487 52.9208 55.9989ZM59.6357 60.7595C58.2872 62.1647 55.514 62.1668 54.0058 61.99C53.9054 61.3593 53.8557 60.7215 53.857 60.0828C53.8628 58.7362 54.1214 57.2372 55.0059 56.3156C56.3543 54.9106 59.1273 54.908 60.6358 55.0851C60.8768 56.5832 60.9901 59.3483 59.6357 60.7595Z" fill="#1B6936"/>
</svg>
