<svg width="80" height="80" viewBox="0 0 80 80" fill="none" xmlns="http://www.w3.org/2000/svg">
<path d="M0 40C0 17.9086 17.9086 0 40 0C62.0914 0 80 17.9086 80 40C80 62.0914 62.0914 80 40 80C17.9086 80 0 62.0914 0 40Z" fill="#E8F0EB"/>
<path fill-rule="evenodd" clip-rule="evenodd" d="M30.5967 42.8531H30.1912V43.2586H30.5967V42.8531ZM31.8834 42.2097V43.9019C31.8833 44.0725 31.8154 44.2361 31.6948 44.3567C31.5742 44.4773 31.4106 44.5452 31.24 44.5453H29.5478C29.3772 44.5452 29.2136 44.4773 29.093 44.3567C28.9724 44.2361 28.9046 44.0725 28.9045 43.9019V42.2097C28.9046 42.0391 28.9725 41.8756 29.0931 41.7549C29.2137 41.6343 29.3772 41.5665 29.5478 41.5663H31.24C31.4106 41.5665 31.5742 41.6343 31.6948 41.7549C31.8154 41.8755 31.8832 42.0391 31.8834 42.2097ZM38.3825 31.9197H37.9765V32.3252H38.3825V31.9197ZM39.0258 33.6118H37.333C37.2486 33.6119 37.1649 33.5952 37.0869 33.5629C37.0089 33.5306 36.938 33.4832 36.8783 33.4234C36.8186 33.3637 36.7712 33.2928 36.739 33.2147C36.7067 33.1367 36.6901 33.053 36.6902 32.9685V31.2763C36.6902 30.9213 36.9781 30.6329 37.333 30.6329H39.0258C39.1963 30.633 39.3599 30.7008 39.4804 30.8215C39.6009 30.9421 39.6686 31.1057 39.6686 31.2763V32.9685C39.6687 33.0529 39.6522 33.1366 39.6199 33.2147C39.5876 33.2927 39.5403 33.3637 39.4806 33.4234C39.4209 33.4832 39.35 33.5306 39.2719 33.5629C39.1939 33.5952 39.1103 33.6119 39.0258 33.6118ZM26.5348 38.8903H26.1289V39.2958H26.5348V38.8903ZM27.8211 38.2469V39.9391C27.8211 40.0236 27.8045 40.1073 27.7722 40.1854C27.7399 40.2635 27.6925 40.3344 27.6327 40.3942C27.573 40.454 27.502 40.5013 27.424 40.5337C27.3459 40.566 27.2622 40.5826 27.1777 40.5825H25.4855C25.401 40.5825 25.3174 40.5658 25.2394 40.5334C25.1614 40.5011 25.0905 40.4537 25.0308 40.3939C24.9711 40.3342 24.9238 40.2633 24.8915 40.1852C24.8592 40.1072 24.8426 40.0236 24.8427 39.9391V38.2469C24.8426 38.1624 24.8591 38.0788 24.8914 38.0007C24.9237 37.9227 24.971 37.8517 25.0307 37.792C25.0904 37.7322 25.1613 37.6848 25.2393 37.6525C25.3174 37.6201 25.401 37.6035 25.4855 37.6035H27.1777C27.2622 37.6034 27.3459 37.62 27.424 37.6523C27.5021 37.6846 27.5731 37.7319 27.6329 37.7917C27.6926 37.8515 27.74 37.9225 27.7723 38.0006C27.8046 38.0787 27.8212 38.1624 27.8211 38.2469ZM26.5348 34.9269H26.1289V35.3325H26.5348V34.9269ZM27.8211 34.2837V35.9758C27.8212 36.0604 27.8046 36.1441 27.7723 36.2222C27.74 36.3003 27.6926 36.3713 27.6328 36.431C27.5731 36.4908 27.5021 36.5382 27.424 36.5705C27.3459 36.6028 27.2622 36.6193 27.1777 36.6192H25.4855C25.401 36.6192 25.3174 36.6026 25.2393 36.5703C25.1613 36.5379 25.0904 36.4905 25.0307 36.4308C24.971 36.371 24.9237 36.3001 24.8914 36.222C24.8591 36.144 24.8426 36.0603 24.8427 35.9758V34.2837C24.8426 34.1992 24.8592 34.1156 24.8915 34.0375C24.9238 33.9595 24.9711 33.8886 25.0308 33.8288C25.0905 33.7691 25.1614 33.7217 25.2394 33.6893C25.3174 33.657 25.401 33.6403 25.4855 33.6403H27.1777C27.2622 33.6402 27.3459 33.6568 27.424 33.6891C27.5021 33.7214 27.573 33.7688 27.6328 33.8285C27.6925 33.8883 27.7399 33.9593 27.7722 34.0373C27.8045 34.1154 27.8211 34.1991 27.8211 34.2837ZM59.4094 43.3132L58.3492 42.4186C58.2664 42.3488 58.2027 42.2593 58.1639 42.1582C58.1251 42.0572 58.1125 41.948 58.1273 41.8408C58.2051 41.267 58.2016 40.6852 58.117 40.1124C58.1011 40.0052 58.1125 39.8957 58.1501 39.7941C58.1877 39.6925 58.2503 39.6019 58.3322 39.5309L59.3821 38.6234L58.8708 37.4095L57.4881 37.5266C57.3803 37.5355 57.272 37.5172 57.1731 37.4733C57.0742 37.4294 56.9879 37.3613 56.9222 37.2754C56.5721 36.8142 56.1583 36.4049 55.6933 36.0598C55.6063 35.9953 55.537 35.9098 55.4918 35.8113C55.4467 35.7128 55.4271 35.6045 55.4349 35.4964L55.5355 34.1128L54.3153 33.616L53.4212 34.6751C53.3514 34.7581 53.2618 34.822 53.1607 34.8611C53.0596 34.9001 52.9503 34.913 52.8429 34.8985C52.269 34.8203 51.687 34.8236 51.114 34.9083C51.0069 34.9245 50.8974 34.9133 50.7958 34.8757C50.6942 34.838 50.6038 34.7753 50.5331 34.6932L49.6256 33.6433L48.4122 34.1546L48.5288 35.5373C48.5381 35.6452 48.5199 35.7537 48.476 35.8526C48.432 35.9516 48.3638 36.0378 48.2776 36.1033C47.8163 36.4536 47.4071 36.8676 47.0621 37.3328C46.9974 37.4196 46.9118 37.4887 46.8134 37.5337C46.7149 37.5788 46.6067 37.5984 46.4987 37.5908L45.1151 37.4906L44.6183 38.7102L45.678 39.6048C45.7607 39.6747 45.8245 39.7642 45.8634 39.8652C45.9024 39.9662 45.9152 40.0754 45.9008 40.1827C45.8226 40.7567 45.8259 41.3389 45.9106 41.912C45.9268 42.019 45.9155 42.1284 45.8779 42.23C45.8403 42.3315 45.7775 42.4218 45.6955 42.4924L44.6461 43.3999L45.1569 44.6139L46.5396 44.4973C46.6475 44.4882 46.7559 44.5064 46.8548 44.5503C46.9538 44.5943 47.04 44.6624 47.1056 44.7485C47.4562 45.2099 47.8701 45.6194 48.3351 45.965C48.6793 46.2209 48.5892 46.5818 48.5605 46.9794H55.541C55.5058 46.5598 55.4045 46.1838 55.7509 45.9202C56.2121 45.5695 56.6216 45.1556 56.9674 44.6907C57.0319 44.6039 57.1173 44.5348 57.2155 44.4897C57.3138 44.4446 57.4219 44.425 57.5298 44.4328L58.9135 44.5334L59.4094 43.3132ZM55.8258 48.2661H48.3991C48.0137 49.9247 47.5179 51.4611 46.9251 52.8403H52.6318C53.9185 51.4832 54.995 49.9414 55.8258 48.2661ZM51.2836 54.1269H46.3226C45.5377 55.6606 44.5349 57.1164 43.3013 58.2017C46.2519 57.5073 48.9906 56.1093 51.2836 54.1269ZM43.859 55.6855C42.3907 57.6579 40.7088 58.7011 38.9938 58.7011C36.5182 58.7011 34.4892 56.562 33.1252 54.1269H44.8625C44.5467 54.6888 44.2124 55.2109 43.859 55.6855ZM34.6853 58.2017C33.4491 57.113 32.4531 55.6639 31.6646 54.1269H26.7035C28.9966 56.109 31.7351 57.507 34.6853 58.2017ZM25.356 52.8403H31.0615C30.4698 51.4612 29.974 49.9248 29.588 48.2661H22.1614C22.9922 49.9416 24.069 51.4834 25.356 52.8403ZM22.9131 46.9794V31.6632C22.9133 31.542 22.9615 31.4258 23.0471 31.34C23.1328 31.2542 23.249 31.2059 23.3702 31.2056H33.8124V46.9794H22.9131ZM30.9114 48.2661H47.0752C46.6682 49.9469 46.1424 51.4859 45.5171 52.8403H32.47C31.8447 51.486 31.319 49.947 30.9114 48.2661ZM35.0991 46.9794V25.1503L38.1792 23.0763L41.2592 25.1503V38.0437H39.1244C38.4357 38.0437 37.8748 38.6039 37.8748 39.2932V46.9795H35.0991V46.9794ZM39.161 39.3304H43.3683L44.5853 40.3663C44.5459 40.8248 44.5488 41.2859 44.5941 41.7438L43.4508 42.7323C43.3479 42.8212 43.2758 42.9403 43.2449 43.0727C43.2139 43.205 43.2257 43.3438 43.2785 43.469L44.1525 45.5445C44.2603 45.801 44.5219 45.9578 44.7989 45.9357L46.3049 45.8077C46.6007 46.1605 46.9287 46.485 47.2847 46.7771L47.2702 46.9794H39.161V39.3304ZM60.7776 43.3659L59.9279 45.4518C59.8227 45.7103 59.5631 45.8697 59.2851 45.8506L57.7791 45.7413C57.4871 46.0971 57.1626 46.4249 56.8097 46.7205L56.8324 46.9795H58.1692C58.3398 46.9795 58.5034 47.0473 58.6241 47.1679C58.7447 47.2886 58.8125 47.4522 58.8125 47.6229C58.8126 47.7074 58.796 47.791 58.7637 47.8691C58.7314 47.9472 58.684 48.0182 58.6242 48.0779C58.5645 48.1377 58.4935 48.185 58.4154 48.2173C58.3373 48.2496 58.2537 48.2662 58.1692 48.2661H57.2519C53.9845 55.4013 46.8643 59.9878 38.9939 59.9878C31.1225 59.9878 24.0027 55.4013 20.736 48.2661H19.8187C19.7342 48.2662 19.6505 48.2496 19.5724 48.2173C19.4943 48.185 19.4234 48.1377 19.3636 48.0779C19.3038 48.0182 19.2565 47.9472 19.2241 47.8691C19.1918 47.791 19.1752 47.7074 19.1753 47.6229C19.1753 47.4522 19.2431 47.2886 19.3638 47.168C19.4844 47.0473 19.6481 46.9795 19.8187 46.9795H21.6269V31.6632C21.6269 30.7016 22.4091 29.9194 23.3702 29.9194H33.8124V24.8082C33.8124 24.7028 33.8383 24.5991 33.8878 24.506C33.9372 24.413 34.0088 24.3336 34.0962 24.2747L37.8195 21.7668C37.9258 21.6954 38.0509 21.6573 38.1789 21.6573C38.3069 21.6573 38.432 21.6954 38.5382 21.7668L42.2616 24.2747C42.349 24.3335 42.4207 24.413 42.4702 24.506C42.5198 24.599 42.5457 24.7028 42.5458 24.8082V38.0436H43.5003L44.0992 36.5716C44.1506 36.4458 44.2404 36.3395 44.3559 36.2679C44.4713 36.1963 44.6065 36.163 44.742 36.1728L46.2485 36.2828C46.5407 35.9271 46.8651 35.5991 47.2175 35.303L47.0901 33.797C47.0788 33.6617 47.1106 33.5262 47.181 33.4101C47.2515 33.2939 47.3569 33.2031 47.4821 33.1506L49.5567 32.2761C49.682 32.2235 49.8207 32.2118 49.953 32.2428C50.0853 32.2737 50.2045 32.3457 50.2934 32.4484L51.2814 33.5917C51.7394 33.5469 52.2005 33.5441 52.6589 33.5834L53.6335 32.4288C53.7213 32.3253 53.8395 32.252 53.9713 32.2195C54.1031 32.187 54.2418 32.1969 54.3676 32.2478L56.4535 33.0981C56.5794 33.1492 56.6858 33.2389 56.7574 33.3544C56.8291 33.4698 56.8623 33.6049 56.8523 33.7404L56.743 35.2469C57.0986 35.539 57.4264 35.8633 57.7222 36.2158L59.2287 36.0884C59.364 36.0771 59.4994 36.1089 59.6155 36.1793C59.7316 36.2496 59.8225 36.3548 59.8752 36.4799L60.7491 38.555C60.802 38.6802 60.8137 38.819 60.7828 38.9513C60.7518 39.0837 60.6797 39.2028 60.5768 39.2917L59.4336 40.2796C59.479 40.7388 59.4816 41.199 59.4423 41.6571L60.5964 42.6317C60.7002 42.7194 60.7736 42.8376 60.8061 42.9694C60.8386 43.1013 60.8286 43.2401 60.7776 43.3659ZM55.3243 39.6177C55.6963 40.502 55.7024 41.4791 55.3403 42.3675C54.5932 44.2011 52.493 45.0854 50.6589 44.3383C48.8242 43.5912 47.94 41.4909 48.687 39.6569C49.0492 38.7685 49.7355 38.0735 50.6197 37.7015C52.4452 36.9333 54.5509 37.7815 55.3243 39.6177ZM56.5104 39.1183C57.8689 42.3488 55.479 45.8913 52.0074 45.8913C51.3784 45.8911 50.7554 45.7684 50.1733 45.5301C47.6819 44.5153 46.4809 41.6623 47.4957 39.1714C48.5128 36.6737 51.3566 35.4768 53.854 36.4938C55.0607 36.985 56.0043 37.9177 56.5104 39.1183ZM30.5967 38.8903H30.1912V39.2958H30.5967V38.8903ZM31.8834 38.2469C31.8834 38.1624 31.8668 38.0787 31.8345 38.0007C31.8021 37.9226 31.7548 37.8517 31.695 37.7919C31.6353 37.7322 31.5643 37.6848 31.4862 37.6524C31.4082 37.6201 31.3245 37.6035 31.24 37.6035H29.5478C29.4633 37.6035 29.3797 37.6201 29.3016 37.6525C29.2235 37.6848 29.1526 37.7322 29.0929 37.7919C29.0331 37.8517 28.9857 37.9226 28.9534 38.0007C28.9211 38.0788 28.9045 38.1624 28.9045 38.2469V39.9391C28.9045 40.1097 28.9723 40.2733 29.0929 40.394C29.2136 40.5146 29.3772 40.5824 29.5478 40.5825H31.24C31.4106 40.5824 31.5742 40.5146 31.6949 40.394C31.8155 40.2734 31.8833 40.1097 31.8834 39.9391V38.2469ZM30.5967 34.9269H30.1912V35.3325H30.5967V34.9269ZM31.8834 34.2837C31.8834 34.113 31.8156 33.9494 31.6949 33.8287C31.5743 33.7081 31.4106 33.6403 31.24 33.6403H29.5478C29.3772 33.6403 29.2136 33.7081 29.0929 33.8288C28.9723 33.9494 28.9045 34.113 28.9045 34.2837V35.9758C28.9045 36.0603 28.9211 36.144 28.9534 36.2221C28.9857 36.3001 29.0331 36.3711 29.0929 36.4308C29.1526 36.4906 29.2235 36.538 29.3016 36.5703C29.3797 36.6026 29.4633 36.6192 29.5478 36.6192H31.24C31.3245 36.6193 31.4082 36.6026 31.4862 36.5703C31.5643 36.538 31.6353 36.4906 31.695 36.4308C31.7548 36.3711 31.8021 36.3002 31.8345 36.2221C31.8668 36.144 31.8834 36.0603 31.8834 35.9758V34.2837ZM26.5348 42.8531H26.1289V43.2586H26.5348V42.8531ZM27.8211 42.2097C27.8211 42.1252 27.8045 42.0415 27.7721 41.9635C27.7398 41.8854 27.6924 41.8144 27.6327 41.7547C27.5729 41.6949 27.502 41.6476 27.4239 41.6152C27.3458 41.5829 27.2622 41.5663 27.1777 41.5663H25.4855C25.1306 41.5663 24.8427 41.8547 24.8427 42.2097V43.9019C24.8427 44.2568 25.1306 44.5453 25.4855 44.5453H27.1777C27.2622 44.5453 27.3458 44.5287 27.4239 44.4964C27.502 44.464 27.5729 44.4166 27.6327 44.3569C27.6924 44.2971 27.7398 44.2262 27.7721 44.1481C27.8045 44.0701 27.8211 43.9864 27.8211 43.9019V42.2097ZM27.0683 26.8136C27.0683 27.7817 28.3545 27.6917 28.3545 26.8734C28.3545 25.9065 27.0683 25.9946 27.0683 26.8136ZM29.6629 25.335C29.8946 25.6053 30.3017 25.6348 30.5693 25.4052C30.6336 25.3502 30.6863 25.2832 30.7246 25.2078C30.7629 25.1324 30.786 25.0503 30.7925 24.966C30.799 24.8817 30.7889 24.797 30.7626 24.7166C30.7364 24.6363 30.6945 24.5619 30.6395 24.4977C29.0612 22.6533 26.3604 22.6533 24.7823 24.4977C24.6713 24.6274 24.6163 24.7958 24.6295 24.966C24.6426 25.1361 24.7228 25.2941 24.8524 25.4052C25.1228 25.6358 25.5283 25.6043 25.7589 25.335C26.8273 24.0863 28.5948 24.0855 29.6629 25.335ZM37.9764 28.3624H38.3824V27.9569H37.9764V28.3624ZM36.6902 29.0058C36.6902 29.3607 36.9781 29.6492 37.333 29.6492H39.0258C39.1963 29.649 39.3599 29.5812 39.4804 29.4605C39.6009 29.3399 39.6686 29.1763 39.6686 29.0058V27.3136C39.6686 26.9587 39.3807 26.6702 39.0258 26.6702H37.333C36.9781 26.6702 36.6902 26.9586 36.6902 27.3136V29.0058ZM23.3305 23.1872C23.4181 23.1872 23.5048 23.1694 23.5852 23.1347C23.6657 23.1 23.7382 23.0492 23.7984 22.9855C25.9275 20.7313 29.4941 20.7297 31.6233 22.9855C31.8669 23.2435 32.2744 23.2558 32.5324 23.0118C32.6564 22.8947 32.729 22.7331 32.734 22.5626C32.739 22.392 32.6761 22.2264 32.5591 22.1022C29.9363 19.3173 25.485 19.3176 22.8624 22.1022C22.4746 22.5141 22.7723 23.1872 23.3305 23.1872ZM53.9648 28.7709C54.0197 28.8353 54.0868 28.8882 54.1621 28.9265C54.2375 28.9649 54.3197 28.988 54.404 28.9945C54.4883 29.0011 54.5731 28.9909 54.6535 28.9645C54.7338 28.9382 54.8082 28.8963 54.8723 28.8411C55.1422 28.6105 55.1731 28.2045 54.9425 27.9347C53.3654 26.092 50.6666 26.0883 49.0852 27.9347C48.8541 28.2045 48.8851 28.6105 49.1554 28.8411C49.2195 28.8961 49.2938 28.938 49.3741 28.9642C49.4543 28.9905 49.539 29.0007 49.6232 28.9941C49.7074 28.9876 49.7895 28.9646 49.8648 28.9263C49.94 28.888 50.007 28.8352 50.0619 28.7709C51.1297 27.5229 52.8981 27.5228 53.9648 28.7709ZM48.1014 26.4225C50.2269 24.1678 53.8014 24.1681 55.9264 26.4225C56.1692 26.6801 56.5769 26.6922 56.8354 26.4483C56.8969 26.3904 56.9463 26.3209 56.9809 26.2439C57.0155 26.1668 57.0346 26.0837 57.037 25.9993C57.0395 25.9148 57.0252 25.8308 56.9952 25.7518C56.9651 25.6729 56.9197 25.6007 56.8617 25.5393C54.2323 22.7526 49.7906 22.7542 47.1655 25.5393C47.0486 25.6634 46.9857 25.8288 46.9906 25.9993C46.9955 26.1697 47.0679 26.3312 47.1918 26.4483C47.3159 26.5654 47.4814 26.6285 47.652 26.6237C47.8225 26.6188 47.9842 26.5465 48.1014 26.4225ZM52.0131 29.6073C51.9286 29.6073 51.845 29.624 51.767 29.6564C51.689 29.6887 51.6181 29.7361 51.5584 29.7959C51.4987 29.8556 51.4514 29.9265 51.4191 30.0046C51.3868 30.0826 51.3702 30.1662 51.3702 30.2507V30.3105C51.3702 31.1288 52.6564 31.2182 52.6564 30.2507C52.6565 30.1662 52.6399 30.0825 52.6076 30.0044C52.5753 29.9263 52.5279 29.8553 52.4682 29.7956C52.4084 29.7358 52.3375 29.6884 52.2594 29.6561C52.1813 29.6238 52.0976 29.6072 52.0131 29.6073Z" fill="#1B6936"/>
</svg>
