<svg width="80" height="80" viewBox="0 0 80 80" fill="none" xmlns="http://www.w3.org/2000/svg">
<path d="M0 40C0 17.9086 17.9086 0 40 0C62.0914 0 80 17.9086 80 40C80 62.0914 62.0914 80 40 80C17.9086 80 0 62.0914 0 40Z" fill="#E8F0EB"/>
<g clip-path="url(#clip0_3658_3333)">
<path d="M63.1999 61.6017H54.8875L52.8068 39.4402C57.4888 41.8963 60.7377 43.1465 62.4846 43.1465C63.1714 43.1465 63.6292 42.9555 63.8551 42.5726C64.8974 40.7438 59.1531 36.7026 54.0446 33.5771C53.8554 33.1533 53.5941 32.7656 53.2723 32.4312C53.1408 26.3147 52.5311 19.1985 50.3999 19.1985C48.2586 19.1985 47.6534 26.293 47.5278 32.4174C47.1936 32.7611 46.9238 33.1619 46.7311 33.6009C41.6398 36.7111 35.9133 40.7353 36.9487 42.5789C37.171 42.9606 37.6241 43.1512 38.3065 43.1512C40.0419 43.1512 43.2761 41.9041 47.9393 39.4505L45.4448 61.6017H33.3785L32.3103 58.3983H42.4002C42.4056 58.3979 42.4103 58.3975 42.4162 58.3983C42.549 58.3983 42.6798 58.3653 42.7966 58.3022C42.9135 58.2391 43.0128 58.1479 43.0856 58.0368C43.1584 57.9257 43.2024 57.7982 43.2136 57.6659C43.2248 57.5336 43.2029 57.4005 43.1499 57.2788L40.7806 46.2319C40.7423 46.0529 40.6438 45.8924 40.5015 45.7773C40.3591 45.6621 40.1815 45.5994 39.9985 45.5995H19.2014C19.0183 45.5994 18.8407 45.6621 18.6984 45.7773C18.556 45.8924 18.4575 46.0529 18.4193 46.2319L16.018 57.4307C15.9929 57.5473 15.9942 57.668 16.0219 57.784C16.0495 57.9 16.1028 58.0084 16.1778 58.1011C16.2528 58.1939 16.3476 58.2688 16.4552 58.3202C16.5629 58.3716 16.6807 58.3984 16.8 58.3984H26.8899L25.8213 61.6017H16.8C16.5878 61.6017 16.3844 61.686 16.2343 61.8361C16.0843 61.9861 16 62.1896 16 62.4018C16 62.6139 16.0843 62.8174 16.2343 62.9675C16.3844 63.1175 16.5878 63.2018 16.8 63.2018H26.3955C26.3962 63.2018 26.3971 63.2022 26.3979 63.2022C26.3988 63.2022 26.3996 63.2018 26.4004 63.2018H32.7993C32.8001 63.2018 32.801 63.2022 32.8018 63.2022C32.8026 63.2022 32.8034 63.2018 32.8043 63.2018H63.2C63.305 63.2018 63.4091 63.1811 63.5061 63.1409C63.6032 63.1007 63.6914 63.0417 63.7657 62.9674C63.84 62.8931 63.8989 62.8049 63.9391 62.7079C63.9793 62.6108 64 62.5067 64 62.4017C64 62.2966 63.9793 62.1926 63.9391 62.0955C63.8989 61.9984 63.8399 61.9102 63.7656 61.836C63.6913 61.7617 63.6031 61.7027 63.5061 61.6625C63.409 61.6223 63.305 61.6017 63.1999 61.6017ZM54.3484 35.6511C58.6789 38.3892 61.2604 40.5359 62.1061 41.5652C60.9189 41.3679 58.0778 40.4071 53.3197 37.9054C53.8827 37.2975 54.2488 36.5169 54.3484 35.6511ZM38.698 41.5636C39.5456 40.5329 42.1229 38.3913 46.4415 35.6651C46.543 36.5215 46.906 37.2935 47.462 37.897C42.7225 40.3984 39.8872 41.363 38.698 41.5636ZM40.553 52.8007L41.4102 56.7983H35.0964L34.5251 52.8007H40.553ZM39.3519 47.1996L40.2099 51.2006H34.2964L33.7246 47.1996H39.3519ZM27.0913 47.1996H32.1085L32.6803 51.2006H26.5195L27.0913 47.1996ZM24.1033 56.7983H17.79L18.6471 52.8007H24.6748L24.1033 56.7983ZM24.9034 51.2006H18.9901L19.8478 47.1996H25.4752L24.9034 51.2006ZM25.7194 56.7983L26.2908 52.8007H32.909L33.4803 56.7983H25.7194ZM27.5083 61.6017L28.5768 58.3983H30.6233L31.6916 61.6017H27.5083ZM50.3987 21.2081C50.882 22.4909 51.4652 25.9838 51.6436 31.4161C51.2482 31.285 50.8333 31.1966 50.3944 31.1966C49.9589 31.1966 49.5472 31.2839 49.1545 31.4132C49.3268 25.9847 49.9123 22.4913 50.3987 21.2081ZM50.3944 32.7967C51.7175 32.7967 52.7942 33.8733 52.7942 35.1969C52.7942 36.5204 51.7176 37.5974 50.3944 37.5974C49.0709 37.5974 47.9942 36.5204 47.9942 35.1969C47.9942 33.8733 49.0709 32.7967 50.3944 32.7967ZM47.0549 61.6017L49.5872 39.1154C49.848 39.169 50.1179 39.1975 50.3944 39.1975C50.6598 39.1975 50.9185 39.1687 51.1696 39.1191L53.2804 61.6017H47.0549ZM26.3999 33.5944C29.9275 33.5944 32.7971 30.7243 32.7971 27.1967C32.7971 23.6692 29.9275 20.7995 26.3999 20.7995C22.8727 20.7995 20.003 23.6692 20.003 27.1967C20.003 30.7243 22.8727 33.5944 26.3999 33.5944ZM26.3999 22.3995C29.0449 22.3995 31.1971 24.5516 31.1971 27.1967C31.1971 29.8423 29.045 31.9943 26.3999 31.9943C23.7548 31.9943 21.603 29.8423 21.603 27.1967C21.6031 24.5516 23.7548 22.3995 26.3999 22.3995ZM26.3999 19.9983C26.6121 19.9983 26.8156 19.914 26.9656 19.7639C27.1156 19.6139 27.1999 19.4104 27.1999 19.1982V17.5988C27.1999 17.3867 27.1156 17.1832 26.9656 17.0331C26.8156 16.8831 26.6121 16.7988 26.3999 16.7988C26.1877 16.7988 25.9842 16.8831 25.8342 17.0331C25.6842 17.1832 25.5999 17.3867 25.5999 17.5988V19.1981C25.5999 19.3032 25.6205 19.4072 25.6607 19.5043C25.7009 19.6014 25.7599 19.6896 25.8342 19.7639C25.9084 19.8382 25.9966 19.8971 26.0937 19.9373C26.1908 19.9776 26.2948 19.9983 26.3999 19.9983ZM25.5999 35.2012V36.8005C25.5999 37.0126 25.6842 37.2161 25.8342 37.3662C25.9842 37.5162 26.1877 37.6005 26.3999 37.6005C26.6121 37.6005 26.8156 37.5162 26.9656 37.3662C27.1156 37.2161 27.1999 37.0126 27.1999 36.8005V35.2012C27.1999 34.989 27.1156 34.7855 26.9656 34.6355C26.8156 34.4854 26.6121 34.4012 26.3999 34.4012C26.1877 34.4012 25.9842 34.4854 25.8342 34.6355C25.6842 34.7855 25.5999 34.989 25.5999 35.2012ZM33.6007 27.1998C33.6007 27.412 33.685 27.6155 33.835 27.7655C33.9851 27.9156 34.1886 27.9999 34.4007 27.9999H36C36.2122 27.9999 36.4157 27.9156 36.5657 27.7655C36.7158 27.6155 36.8001 27.412 36.8001 27.1998C36.8001 26.9877 36.7158 26.7842 36.5657 26.6341C36.4157 26.4841 36.2122 26.3998 36 26.3998H34.4007C34.1886 26.3998 33.9851 26.4841 33.8351 26.6342C33.685 26.7842 33.6008 26.9877 33.6007 27.1998ZM16.8 27.9999H18.3993C18.6115 27.9999 18.815 27.9156 18.965 27.7655C19.115 27.6155 19.1993 27.412 19.1993 27.1998C19.1993 26.9877 19.115 26.7842 18.965 26.6341C18.815 26.4841 18.6115 26.3998 18.3993 26.3998H16.8C16.5878 26.3998 16.3844 26.4841 16.2343 26.6341C16.0843 26.7842 16 26.9877 16 27.1998C16 27.412 16.0843 27.6155 16.2343 27.7655C16.3844 27.9156 16.5878 27.9999 16.8 27.9999ZM32.0577 22.3417C32.1628 22.3419 32.2668 22.3212 32.3639 22.281C32.461 22.2408 32.5492 22.1817 32.6233 22.1073L33.7538 20.9764C34.0663 20.6639 34.0663 20.1572 33.7538 19.8451C33.4413 19.5326 32.9342 19.5326 32.6225 19.8451L31.492 20.9759C31.1795 21.2884 31.1795 21.7952 31.492 22.1073C31.5662 22.1817 31.6543 22.2407 31.7514 22.281C31.8485 22.3212 31.9526 22.3418 32.0577 22.3417ZM20.1768 32.292L19.0463 33.4229C18.7338 33.7354 18.7338 34.2421 19.0463 34.5543C19.1205 34.6287 19.2087 34.6877 19.3057 34.7279C19.4028 34.7681 19.5069 34.7888 19.612 34.7886C19.717 34.7888 19.8211 34.7682 19.9182 34.728C20.0153 34.6877 20.1034 34.6287 20.1776 34.5543L21.3081 33.4234C21.6206 33.1109 21.6206 32.6041 21.3081 32.292C20.9956 31.9794 20.4886 31.9794 20.1768 32.292Z" fill="#1B6936"/>
<path d="M32.623 32.2927C32.5487 32.2184 32.4605 32.1594 32.3635 32.1192C32.2664 32.079 32.1624 32.0583 32.0573 32.0583C31.9522 32.0583 31.8482 32.079 31.7512 32.1192C31.6541 32.1594 31.5659 32.2184 31.4916 32.2927C31.1791 32.6048 31.1791 33.1114 31.4916 33.424L32.6221 34.5549C32.6963 34.6293 32.7845 34.6883 32.8816 34.7285C32.9786 34.7688 33.0827 34.7894 33.1878 34.7893C33.2928 34.7894 33.3969 34.7688 33.494 34.7286C33.5911 34.6883 33.6792 34.6293 33.7534 34.5549C34.0659 34.2428 34.0659 33.7361 33.7534 33.4235L32.623 32.2927ZM20.1765 22.1079C20.3328 22.2642 20.5375 22.3423 20.7421 22.3423C20.9468 22.3423 21.1516 22.2642 21.3078 22.1079C21.6202 21.7958 21.6202 21.2892 21.3078 20.9766L20.1772 19.8457C20.103 19.7714 20.0148 19.7125 19.9177 19.6722C19.8207 19.632 19.7166 19.6113 19.6116 19.6113C19.5065 19.6113 19.4025 19.632 19.3054 19.6722C19.2084 19.7125 19.1202 19.7714 19.0459 19.8457C18.7334 20.1578 18.7334 20.6645 19.0459 20.9771L20.1765 22.1079Z" fill="#1B6936"/>
</g>
<defs>
<clipPath id="clip0_3658_3333">
<rect width="48" height="48" fill="white" transform="translate(16 16)"/>
</clipPath>
</defs>
</svg>
