<svg width="56" height="56" viewBox="0 0 56 56" fill="none" xmlns="http://www.w3.org/2000/svg">
<g clip-path="url(#clip0_3658_3212)">
<path d="M10.7288 22.4689C11.4974 19.9287 12.7392 17.5566 14.3887 15.4775M35.691 49.0852C33.1067 49.6897 30.4316 49.8003 27.8062 49.4114M46.2602 14.1592C48.0757 16.095 49.5092 18.3564 50.485 20.8245M48.8224 24.2402H43.1373C41.6954 24.2402 40.5157 25.4199 40.5157 26.8617C40.5157 28.3036 39.3361 29.4833 37.8941 29.4835H32.2846C30.1928 29.4835 28.4815 31.1948 28.4815 33.2867C28.4815 35.3785 30.1934 37.0899 32.2846 37.0899C33.5663 37.0899 34.6147 38.1384 34.6147 39.42C34.6147 40.6109 35.52 41.6005 36.6763 41.7348M16.4677 26.7039H20.2452C22.3368 26.7039 24.0482 24.9927 24.0482 22.9009C24.0482 20.8091 22.3364 19.0977 20.2452 19.0977C18.9635 19.0977 17.915 18.0491 17.915 16.7676C17.915 16.2419 17.7386 15.7553 17.4421 15.3644" stroke="#1B6936" stroke-width="3" stroke-miterlimit="2.6131" stroke-linecap="round" stroke-linejoin="round"/>
<path d="M28.7492 10.2919C27.3879 10.2919 26.2742 11.4057 26.2742 12.767C26.2742 14.1283 27.3879 15.2419 28.7492 15.2419H34.8875C38.0322 17.1287 42.2995 17.5821 45.7282 13.5591L50.1379 11.6217L44.7486 2.28711L42.5563 3.55367L26.8734 4.0883C25.6496 4.12997 24.7909 4.45077 23.8473 5.04555C19.7952 7.59902 15.865 10.3296 11.8129 12.8834C13.1567 15.211 15.5916 15.8868 17.8125 14.7392L26.4185 10.292H34.8876M16.1352 39.5672C16.8159 40.7461 18.3373 41.1537 19.5162 40.4731C20.6951 39.7925 21.1027 38.271 20.4221 37.0922L17.3529 31.7762C17.4145 28.1093 15.6737 24.1872 10.4751 23.2294L6.59236 20.3792L1.20312 29.7138L3.3962 30.9791L11.7006 44.2937C12.3487 45.3327 13.0558 45.9158 14.0427 46.4358C18.28 48.6682 22.6099 50.7067 26.8475 52.9389C28.1914 50.6113 27.5592 48.1647 25.455 46.8153L17.3005 41.5858L13.066 34.2514M47.7955 35.8536C48.4761 34.6748 48.0683 33.1533 46.8895 32.4728C45.7107 31.7921 44.1893 32.1997 43.5086 33.3787L40.4394 38.6947C37.233 40.4747 34.7068 43.9435 36.4766 48.9244L35.9495 53.7121H46.7281L46.7273 51.1801L54.1058 37.3311C54.6817 36.2503 54.8332 35.3464 54.79 34.2317C54.6047 29.4459 54.205 24.6768 54.0193 19.8908C51.3317 19.8908 49.5289 21.6615 49.4123 24.1586L48.9607 33.8353L44.7263 41.1697" stroke="#1B6936" stroke-width="3" stroke-miterlimit="22.9256" stroke-linecap="round" stroke-linejoin="round"/>
</g>
<defs>
<clipPath id="clip0_3658_3212">
<rect width="56" height="56" fill="white"/>
</clipPath>
</defs>
</svg>
