<svg width="96" height="96" viewBox="0 0 96 96" fill="none" xmlns="http://www.w3.org/2000/svg">
<g clip-path="url(#clip0_3682_4444)">
<circle cx="48" cy="48" r="48" fill="#E8F0EB"/>
<g clip-path="url(#clip1_3682_4444)">
<path fill-rule="evenodd" clip-rule="evenodd" d="M45.0944 47.2073L49.1398 47.2181V30.0591C49.1398 29.8601 49.2188 29.6694 49.3595 29.5287C49.5002 29.3881 49.6909 29.3091 49.8898 29.3091H54.2594V30.8091H50.6398V47.2221L54.2594 47.2317V48.7259L50.6398 48.7163V65.1909H54.2594V66.6909H49.8898C49.6909 66.6909 49.5002 66.6119 49.3595 66.4713C49.2188 66.3306 49.1398 66.1399 49.1398 65.9409V48.7122L45.0944 48.7014V47.2073ZM58.6202 24H65.0168C65.8026 24 66.5167 24.3203 67.0345 24.8365L65.921 25.8471C65.6799 25.6314 65.3626 25.5 65.0168 25.5H58.6202C58.2468 25.5 57.9068 25.6534 57.6597 25.9003C57.4127 26.1473 57.2594 26.4874 57.2594 26.8608V33.2573C57.2594 33.6308 57.4128 33.9708 57.6597 34.2178C57.9067 34.4648 58.2468 34.6181 58.6202 34.6181H65.0168C65.3903 34.6181 65.7303 34.4648 65.9772 34.2178C66.2242 33.9708 66.3775 33.6308 66.3775 33.2573V31.5059L67.8775 30.1447V33.2573C67.8775 34.0448 67.556 34.7603 67.0378 35.2784C66.5197 35.7966 65.8043 36.1181 65.0168 36.1181H58.6202C57.8327 36.1181 57.1173 35.7965 56.5992 35.2784C56.0811 34.7603 55.7594 34.0448 55.7594 33.2574V26.8609C55.7594 26.0734 56.0811 25.358 56.5992 24.8399C57.1174 24.3217 57.8328 24 58.6202 24ZM58.6202 59.8819H65.0168C65.8026 59.8819 66.5167 60.2022 67.0345 60.7184L65.921 61.7289C65.6799 61.5133 65.3626 61.3819 65.0168 61.3819H58.6202C58.2468 61.3819 57.9068 61.5353 57.6597 61.7822C57.4127 62.0291 57.2594 62.3693 57.2594 62.7427V69.1392C57.2594 69.5126 57.4128 69.8527 57.6597 70.0997C57.9067 70.3467 58.2468 70.5 58.6202 70.5H65.0168C65.3903 70.5 65.7303 70.3467 65.9772 70.0997C66.2242 69.8528 66.3775 69.5126 66.3775 69.1392V67.3878L67.8775 66.0265V69.1392C67.8775 69.9267 67.556 70.6421 67.0378 71.1603C66.5197 71.6784 65.8043 72 65.0168 72H58.6202C57.8327 72 57.1173 71.6783 56.5992 71.1602C56.0811 70.642 55.7594 69.9266 55.7594 69.1392V62.7427C55.7594 61.9552 56.0811 61.2397 56.5992 60.7217C57.1174 60.2035 57.8328 59.8819 58.6202 59.8819ZM58.6202 41.9409H65.0168C65.8026 41.9409 66.5167 42.2613 67.0345 42.7775L65.921 43.788C65.6799 43.5724 65.3626 43.4409 65.0168 43.4409H58.6202C58.2468 43.4409 57.9068 43.5943 57.6597 43.8412C57.4127 44.0882 57.2594 44.4283 57.2594 44.8017V51.1983C57.2594 51.5717 57.4128 51.9118 57.6597 52.1587C57.9067 52.4058 58.2468 52.5591 58.6202 52.5591H65.0168C65.3903 52.5591 65.7303 52.4058 65.9772 52.1587C66.2242 51.9118 66.3775 51.5717 66.3775 51.1983V49.4468L67.8775 48.0856V51.1983C67.8775 51.9858 67.556 52.7012 67.0378 53.2193C66.5197 53.7375 65.8043 54.0591 65.0168 54.0591H58.6202C57.8327 54.0591 57.1173 53.7374 56.5992 53.2192C56.0811 52.7011 55.7594 51.9857 55.7594 51.1983V44.8017C55.7594 44.0142 56.0811 43.2988 56.5992 42.7808C57.1174 42.2626 57.8328 41.9409 58.6202 41.9409Z" fill="#1B6936"/>
<path fill-rule="evenodd" clip-rule="evenodd" d="M59.2277 29.0828C59.1568 29.0134 59.1003 28.9307 59.0616 28.8394C59.0229 28.7481 59.0026 28.65 59.0021 28.5508C59.0015 28.4516 59.0206 28.3533 59.0584 28.2615C59.0961 28.1697 59.1516 28.0864 59.2217 28.0162C59.2919 27.9461 59.3752 27.8906 59.467 27.8529C59.5587 27.8152 59.6571 27.796 59.7563 27.7966C59.8555 27.7971 59.9536 27.8174 60.0449 27.8561C60.1362 27.8948 60.2189 27.9513 60.2883 28.0222L62.8897 30.6236L69.9029 24.2589C70.0501 24.1273 70.2433 24.0591 70.4405 24.0692C70.6377 24.0794 70.8229 24.167 70.9558 24.313C71.0887 24.459 71.1585 24.6516 71.1501 24.8489C71.1416 25.0462 71.0556 25.2321 70.9107 25.3663L63.3981 32.1841L63.394 32.1884C63.2533 32.329 63.0625 32.408 62.8637 32.408C62.6648 32.408 62.474 32.329 62.3334 32.1884L59.2277 29.0828ZM59.2277 47.0237C59.1568 46.9544 59.1003 46.8717 59.0616 46.7803C59.0229 46.689 59.0026 46.5909 59.0021 46.4917C59.0015 46.3925 59.0206 46.2942 59.0584 46.2024C59.0961 46.1107 59.1516 46.0273 59.2217 45.9572C59.2919 45.887 59.3752 45.8315 59.467 45.7938C59.5587 45.7561 59.6571 45.737 59.7563 45.7375C59.8555 45.7381 59.9536 45.7583 60.0449 45.797C60.1362 45.8358 60.2189 45.8922 60.2883 45.9631L62.8897 48.5645L69.9029 42.1998C70.0501 42.0682 70.2433 42 70.4405 42.0102C70.6377 42.0203 70.8229 42.1079 70.9558 42.2539C71.0887 42.4 71.1585 42.5926 71.1501 42.7898C71.1416 42.9871 71.0556 43.1731 70.9107 43.3072L63.3981 50.1251L63.394 50.1293C63.2533 50.2699 63.0625 50.3489 62.8637 50.3489C62.6648 50.3489 62.474 50.2699 62.3334 50.1293L59.2277 47.0237ZM59.2277 64.9647C59.1568 64.8953 59.1003 64.8126 59.0616 64.7213C59.0229 64.6299 59.0026 64.5318 59.0021 64.4326C59.0015 64.3334 59.0206 64.2351 59.0584 64.1434C59.0961 64.0516 59.1516 63.9683 59.2217 63.8981C59.2919 63.828 59.3752 63.7724 59.467 63.7347C59.5587 63.697 59.6571 63.6779 59.7563 63.6785C59.8555 63.679 59.9536 63.6992 60.0449 63.738C60.1362 63.7767 60.2189 63.8332 60.2883 63.9041L62.8897 66.5055L69.9029 60.1408C70.0501 60.0091 70.2433 59.941 70.4405 59.9511C70.6377 59.9612 70.8229 60.0489 70.9558 60.1949C71.0887 60.3409 71.1585 60.5335 71.1501 60.7308C71.1416 60.928 71.0556 61.114 70.9107 61.2481L63.3981 68.066L63.394 68.0702C63.2533 68.2109 63.0625 68.2899 62.8637 68.2899C62.6648 68.2899 62.474 68.2109 62.3334 68.0702L59.2277 64.9647ZM35.9236 41.2896C36.5523 41.4505 37.1548 41.7003 37.7128 42.0316L39.9525 40.41L41.7446 42.2021L40.123 44.4418C40.4542 44.9998 40.704 45.6023 40.8649 46.231L43.5944 46.668V49.2024L40.865 49.6393C40.7041 50.268 40.4543 50.8705 40.123 51.4286L41.7446 53.6683L39.9525 55.4604L37.7128 53.8388C37.1547 54.1699 36.5523 54.4197 35.9236 54.5806L35.4867 57.3102H32.9522L32.5153 54.5807C31.8866 54.4199 31.2841 54.17 30.7261 53.8387L28.4864 55.4603L26.6943 53.6682L28.3159 51.4285C27.9847 50.8704 27.7349 50.2679 27.574 49.6393L24.8445 49.2024V46.668L27.5741 46.231C27.735 45.6023 27.9848 44.9998 28.316 44.4418L26.6944 42.2021L28.4865 40.41L30.7261 42.0315C31.2842 41.7002 31.8867 41.4504 32.5154 41.2895L32.9523 38.5601H35.4867L35.9236 41.2896ZM34.2194 44.1904C32.1512 44.1904 30.4746 45.8671 30.4746 47.9352C30.4746 50.0033 32.1512 51.6799 34.2194 51.6799C36.2875 51.6799 37.9642 50.0033 37.9642 47.9352C37.9642 45.8671 36.2876 44.1904 34.2194 44.1904Z" fill="#1B6936"/>
</g>
</g>
<defs>
<clipPath id="clip0_3682_4444">
<rect width="96" height="96" fill="white"/>
</clipPath>
<clipPath id="clip1_3682_4444">
<rect width="48" height="48" fill="white" transform="translate(24 24)"/>
</clipPath>
</defs>
</svg>
