<svg width="96" height="96" viewBox="0 0 96 96" fill="none" xmlns="http://www.w3.org/2000/svg">
<g clip-path="url(#clip0_3682_4454)">
<circle cx="48" cy="48" r="48" fill="#E8F0EB"/>
<path d="M60.007 32.36C59.885 32.364 56.982 32.478 54.53 34.259C53.384 35.092 52.554 36.121 51.987 36.995C51.421 36.122 50.599 35.103 49.47 34.283C47.018 32.501 44.115 32.364 43.993 32.359C43.667 32.353 43.343 32.486 43.146 32.755C43.0497 32.8818 42.9873 33.0311 42.9645 33.1887C42.9418 33.3463 42.9595 33.5071 43.016 33.656C43.059 33.772 44.079 36.429 46.53 38.21C48.129 39.371 49.914 39.777 51 39.92V48H53V39.92C54.086 39.776 55.871 39.37 57.47 38.208C59.92 36.427 60.941 33.831 60.983 33.716C61.0397 33.5611 61.0575 33.3947 61.0349 33.2313C61.0122 33.0679 60.9498 32.9126 60.853 32.779C60.7545 32.6478 60.6267 32.5415 60.4798 32.4686C60.3329 32.3957 60.171 32.3591 60.007 32.36ZM47.707 36.718C46.892 36.126 46.267 35.388 45.817 34.728C46.584 34.952 47.479 35.317 48.294 35.908C49.108 36.5 49.731 37.238 50.183 37.898C49.415 37.674 48.52 37.31 47.706 36.718H47.707ZM56.294 36.718C55.479 37.309 54.585 37.674 53.817 37.898C54.269 37.238 54.892 36.5 55.707 35.908C56.522 35.316 57.415 34.952 58.183 34.728C57.731 35.388 57.109 36.126 56.294 36.718ZM61 26H35C32.243 26 30 28.243 30 31V65C30 67.757 32.243 70 35 70H61C63.757 70 66 67.757 66 65V31C66 28.243 63.757 26 61 26ZM38 68H35C33.346 68 32 66.654 32 65V31C32 29.346 33.346 28 35 28H38V68ZM64 65C64 66.654 62.654 68 61 68H40V28H61C62.654 28 64 29.346 64 31V65ZM44 60H60V62H44V60ZM44 56H60V58H44V56ZM44 52H60V54H44V52Z" fill="#1B6936"/>
</g>
<defs>
<clipPath id="clip0_3682_4454">
<rect width="96" height="96" fill="white"/>
</clipPath>
</defs>
</svg>
