<svg width="96" height="96" viewBox="0 0 96 96" fill="none" xmlns="http://www.w3.org/2000/svg">
<g clip-path="url(#clip0_3682_4434)">
<circle cx="48" cy="48" r="48" fill="#E8F0EB"/>
<path d="M30.6874 30.75H40.1876C40.3865 30.75 40.5773 30.671 40.718 30.5303C40.8586 30.3897 40.9376 30.1989 40.9376 30C40.9376 29.8011 40.8586 29.6103 40.718 29.4697C40.5773 29.329 40.3865 29.25 40.1876 29.25H30.6874C30.4885 29.25 30.2977 29.329 30.157 29.4697C30.0164 29.6103 29.9374 29.8011 29.9374 30C29.9374 30.1989 30.0164 30.3897 30.157 30.5303C30.2977 30.671 30.4885 30.75 30.6874 30.75ZM30.5625 33.75H55.6875C55.8864 33.75 56.0772 33.671 56.2178 33.5303C56.3585 33.3897 56.4375 33.1989 56.4375 33C56.4375 32.8011 56.3585 32.6103 56.2178 32.4697C56.0772 32.329 55.8864 32.25 55.6875 32.25H30.5625C30.3636 32.25 30.1728 32.329 30.0322 32.4697C29.8915 32.6103 29.8125 32.8011 29.8125 33C29.8125 33.1989 29.8915 33.3897 30.0322 33.5303C30.1728 33.671 30.3636 33.75 30.5625 33.75ZM30.5625 36.75H55.6875C55.8864 36.75 56.0772 36.671 56.2178 36.5303C56.3585 36.3897 56.4375 36.1989 56.4375 36C56.4375 35.8011 56.3585 35.6103 56.2178 35.4697C56.0772 35.329 55.8864 35.25 55.6875 35.25H30.5625C30.3636 35.25 30.1728 35.329 30.0322 35.4697C29.8915 35.6103 29.8125 35.8011 29.8125 36C29.8125 36.1989 29.8915 36.3897 30.0322 36.5303C30.1728 36.671 30.3636 36.75 30.5625 36.75ZM30.5625 42.75H55.6875C55.8864 42.75 56.0772 42.671 56.2178 42.5303C56.3585 42.3897 56.4375 42.1989 56.4375 42C56.4375 41.8011 56.3585 41.6103 56.2178 41.4697C56.0772 41.329 55.8864 41.25 55.6875 41.25H30.5625C30.3636 41.25 30.1728 41.329 30.0322 41.4697C29.8915 41.6103 29.8125 41.8011 29.8125 42C29.8125 42.1989 29.8915 42.3897 30.0322 42.5303C30.1728 42.671 30.3636 42.75 30.5625 42.75ZM55.5626 38.25H38.1874C37.9885 38.25 37.7977 38.329 37.657 38.4697C37.5164 38.6103 37.4374 38.8011 37.4374 39C37.4374 39.1989 37.5164 39.3897 37.657 39.5303C37.7977 39.671 37.9885 39.75 38.1874 39.75H55.5626C55.7615 39.75 55.9523 39.671 56.093 39.5303C56.2336 39.3897 56.3126 39.1989 56.3126 39C56.3126 38.8011 56.2336 38.6103 56.093 38.4697C55.9523 38.329 55.7615 38.25 55.5626 38.25ZM39.9375 58.5H41.0377C41.2234 58.4658 41.4127 58.455 41.601 58.4681C41.6826 58.4744 41.7639 58.485 41.8444 58.5H45.9375C45.9664 58.5012 45.9952 58.5041 46.0238 58.5086L47.4195 57.5614C47.0105 57.1998 46.4834 57.0001 45.9375 57H39.9375C39.341 57.0007 38.7691 57.238 38.3473 57.6598C37.9255 58.0816 37.6882 58.6535 37.6875 59.25V64.5C37.6882 65.0965 37.9255 65.6684 38.3473 66.0902C38.7691 66.512 39.341 66.7493 39.9375 66.75H45.9375C46.534 66.7493 47.1059 66.512 47.5277 66.0902C47.9495 65.6684 48.1868 65.0965 48.1875 64.5V62.4788L46.6875 63.4972V64.5C46.6873 64.6989 46.6082 64.8895 46.4676 65.0301C46.327 65.1707 46.1364 65.2498 45.9375 65.25H39.9375C39.7386 65.2498 39.548 65.1707 39.4074 65.0301C39.2668 64.8895 39.1877 64.6989 39.1875 64.5V59.25C39.1877 59.0511 39.2668 58.8605 39.4074 58.7199C39.548 58.5793 39.7386 58.5002 39.9375 58.5Z" fill="#1B6936"/>
<path d="M49.5578 58.8285C49.5024 58.7471 49.4316 58.6773 49.3493 58.6233C49.267 58.5692 49.1749 58.5319 49.0782 58.5134C48.9815 58.495 48.8821 58.4958 48.7857 58.5157C48.6893 58.5357 48.5978 58.5744 48.5164 58.6298L43.5454 62.0048L42.0052 60.222C41.8752 60.0714 41.6907 59.9787 41.4923 59.9641C41.2938 59.9496 41.0978 60.0145 40.9472 60.1446C40.7966 60.2746 40.7039 60.4591 40.6893 60.6576C40.6748 60.856 40.7397 61.052 40.8698 61.2026L42.8468 63.4901C42.9669 63.6293 43.134 63.7195 43.3163 63.7436C43.4987 63.7676 43.6835 63.7239 43.8356 63.6206L49.3586 59.8706C49.4402 59.8153 49.51 59.7444 49.5641 59.6621C49.6182 59.5798 49.6556 59.4876 49.6741 59.3908C49.6926 59.294 49.6918 59.1946 49.6719 59.0981C49.6519 59.0016 49.6131 58.91 49.5578 58.8285ZM54.2295 53.25H30.5625C30.3636 53.25 30.1728 53.329 30.0322 53.4697C29.8915 53.6103 29.8125 53.8011 29.8125 54C29.8125 54.1989 29.8915 54.3897 30.0322 54.5303C30.1728 54.671 30.3636 54.75 30.5625 54.75H54.7942C54.6453 54.2361 54.4564 53.7346 54.2295 53.25ZM30.5625 51.75H53.5537C53.3934 51.2645 53.2961 50.7603 53.2643 50.25H30.5625C30.3636 50.25 30.1728 50.329 30.0322 50.4697C29.8915 50.6103 29.8125 50.8011 29.8125 51C29.8125 51.1989 29.8915 51.3897 30.0322 51.5303C30.1728 51.671 30.3636 51.75 30.5625 51.75ZM37.4374 48C37.4374 48.1989 37.5164 48.3897 37.657 48.5303C37.7977 48.671 37.9885 48.75 38.1874 48.75H53.3557C53.4551 48.2299 53.6238 47.7254 53.8571 47.25H38.1874C37.9885 47.25 37.7977 47.329 37.657 47.4697C37.5164 47.6103 37.4374 47.8011 37.4374 48ZM30.5625 45.75H54.9011C55.3211 45.3077 55.8058 44.9315 56.3385 44.6344C56.274 44.5182 56.1797 44.4213 56.0652 44.3537C55.9508 44.2861 55.8204 44.2503 55.6875 44.25H30.5625C30.3636 44.25 30.1728 44.329 30.0322 44.4697C29.8915 44.6103 29.8125 44.8011 29.8125 45C29.8125 45.1989 29.8915 45.3897 30.0322 45.5303C30.1728 45.671 30.3636 45.75 30.5625 45.75Z" fill="#1B6936"/>
<path d="M29.625 72H56.625C57.3551 71.9988 58.0597 71.7316 58.607 71.2484C59.1544 70.7653 59.5069 70.0993 59.5988 69.375H58.0725C57.9902 69.6965 57.8033 69.9815 57.5412 70.1852C57.2792 70.3888 56.9569 70.4996 56.625 70.5H29.625C29.2272 70.5 28.8456 70.342 28.5643 70.0607C28.283 69.7794 28.125 69.3978 28.125 69V27C28.125 26.6022 28.283 26.2206 28.5643 25.9393C28.8456 25.658 29.2272 25.5 29.625 25.5H56.625C57.0228 25.5 57.4044 25.658 57.6857 25.9393C57.967 26.2206 58.125 26.6022 58.125 27V43.9826C58.2735 43.9545 58.4231 43.9294 58.575 43.9125C58.7991 43.8876 59.0245 43.8751 59.25 43.875C59.3768 43.875 59.5005 43.8862 59.625 43.8937V27C59.6241 26.2046 59.3077 25.4421 58.7453 24.8797C58.1829 24.3173 57.4204 24.0009 56.625 24H29.625C28.8296 24.0009 28.0671 24.3173 27.5047 24.8797C26.9423 25.4421 26.6259 26.2046 26.625 27V69C26.626 69.7953 26.9424 70.5578 27.5048 71.1202C28.0672 71.6826 28.8297 71.999 29.625 72Z" fill="#1B6936"/>
<path d="M58.74 45.4034C58.0122 45.4863 57.3157 45.7455 56.7109 46.1587C56.1061 46.5719 55.6114 47.1264 55.2696 47.7743C54.9278 48.4221 54.7494 49.1436 54.7498 49.876C54.7503 50.6085 54.9295 51.3298 55.272 51.9772C56.1296 53.5164 56.5944 55.2434 56.625 57.0052V58.1249H56.25C55.8523 58.1253 55.471 58.2835 55.1898 58.5647C54.9086 58.8459 54.7504 59.2272 54.75 59.6249V61.1249H53.625C53.0285 61.1256 52.4566 61.3629 52.0348 61.7847C51.613 62.2065 51.3757 62.7784 51.375 63.3749V64.8749C51.375 65.0739 51.454 65.2646 51.5947 65.4053C51.7353 65.5459 51.9261 65.6249 52.125 65.6249H66.375C66.5739 65.6249 66.7647 65.5459 66.9053 65.4053C67.046 65.2646 67.125 65.0739 67.125 64.8749V63.3749C67.1243 62.7784 66.887 62.2065 66.4652 61.7847C66.0434 61.3629 65.4715 61.1256 64.875 61.1249H63.75V59.6249C63.7496 59.2272 63.5914 58.8459 63.3102 58.5647C63.029 58.2835 62.6477 58.1253 62.25 58.1249H61.875V57.1301C61.8424 55.3898 62.2752 53.6723 63.1286 52.1553C63.5525 51.4344 63.7671 50.6097 63.7483 49.7736C63.7296 48.9376 63.4782 48.1233 63.0225 47.4221C62.5667 46.7209 61.9246 46.1606 61.1682 45.8041C60.4117 45.4475 59.5709 45.3088 58.74 45.4034ZM64.875 62.6249C65.0739 62.6251 65.2645 62.7042 65.4051 62.8448C65.5457 62.9854 65.6248 63.1761 65.625 63.3749V64.1249H52.875V63.3749C52.8752 63.1761 52.9543 62.9854 53.0949 62.8448C53.2355 62.7042 53.4261 62.6251 53.625 62.6249H64.875ZM62.25 59.6249V61.1249H56.25V59.6249H62.25ZM61.2502 47.6392C61.7665 48.1008 62.107 48.7269 62.2139 49.4111C62.3209 50.0953 62.1876 50.7955 61.8368 51.3926C60.8468 53.1406 60.3421 55.1215 60.375 57.1301V58.1249H58.125V57.0052C58.0952 54.998 57.5703 53.0293 56.5969 51.2737C56.3209 50.7513 56.2053 50.159 56.2646 49.5712C56.3399 48.8932 56.6413 48.2604 57.1203 47.7747C57.5992 47.289 58.2278 46.9788 58.9046 46.8941C59.3261 46.8435 59.7536 46.8838 60.1582 47.0124C60.5628 47.1409 60.9352 47.3546 61.2502 47.6392ZM66 67.1249C66 66.926 65.921 66.7353 65.7803 66.5946C65.6397 66.454 65.4489 66.3749 65.25 66.3749H53.25C53.0511 66.3749 52.8603 66.454 52.7197 66.5946C52.579 66.7353 52.5 66.926 52.5 67.1249C52.5 67.3239 52.579 67.5146 52.7197 67.6553C52.8603 67.7959 53.0511 67.8749 53.25 67.8749H65.25C65.4489 67.8749 65.6397 67.7959 65.7803 67.6553C65.921 67.5146 66 67.3239 66 67.1249Z" fill="#1B6936"/>
</g>
<defs>
<clipPath id="clip0_3682_4434">
<rect width="96" height="96" fill="white"/>
</clipPath>
</defs>
</svg>
