<svg width="96" height="96" viewBox="0 0 96 96" fill="none" xmlns="http://www.w3.org/2000/svg">
<g clip-path="url(#clip0_3658_3112)">
<circle cx="48" cy="48" r="48" fill="#E8F0EB"/>
<path d="M65.13 55.077C65.9812 54.417 66.6707 53.5718 67.1464 52.6054C67.622 51.6391 67.8712 50.577 67.875 49.5C67.8726 47.6111 67.1212 45.8002 65.7855 44.4645C64.4498 43.1288 62.6389 42.3774 60.75 42.375C59.337 42.375 58.023 42.801 56.913 43.515C55.7654 41.9572 54.1955 40.761 52.389 40.068C53.2375 39.4082 53.9247 38.564 54.3987 37.5993C54.8727 36.6347 55.1211 35.5748 55.125 34.5C55.125 30.57 51.93 27.375 48 27.375C44.07 27.375 40.875 30.57 40.875 34.5C40.875 36.765 41.955 38.763 43.611 40.068C41.8045 40.761 40.2346 41.9572 39.087 43.515C37.9446 42.7732 36.6121 42.3773 35.25 42.375C33.3611 42.3774 31.5502 43.1288 30.2145 44.4645C28.8788 45.8002 28.1274 47.6111 28.125 49.5C28.125 51.768 29.211 53.772 30.87 55.077C28.9628 55.8086 27.3217 57.1002 26.1624 58.7821C25.0031 60.464 24.38 62.4573 24.375 64.5V67.5C24.375 67.7984 24.4935 68.0845 24.7045 68.2955C24.9155 68.5065 25.2016 68.625 25.5 68.625C25.7984 68.625 26.0845 68.5065 26.2955 68.2955C26.5065 68.0845 26.625 67.7984 26.625 67.5V64.5C26.6274 62.4122 27.4578 60.4105 28.9342 58.9342C30.4105 57.4578 32.4122 56.6274 34.5 56.625H36C38.0878 56.6274 40.0895 57.4578 41.5658 58.9342C43.0422 60.4105 43.8726 62.4122 43.875 64.5V67.5C43.875 67.7984 43.9935 68.0845 44.2045 68.2955C44.4155 68.5065 44.7016 68.625 45 68.625C45.2984 68.625 45.5845 68.5065 45.7955 68.2955C46.0065 68.0845 46.125 67.7984 46.125 67.5V64.5C46.12 62.4573 45.4969 60.464 44.3376 58.7821C43.1783 57.1002 41.5372 55.8086 39.63 55.077C40.4812 54.417 41.1707 53.5718 41.6464 52.6054C42.122 51.6391 42.3712 50.577 42.375 49.5C42.375 47.826 41.772 46.305 40.8 45.09C41.5117 44.0309 42.4713 43.1617 43.5954 42.5578C44.7195 41.954 45.974 41.6338 47.25 41.625H48.75C51.36 41.625 53.739 42.96 55.2 45.087C54.1874 46.3355 53.6318 47.8925 53.625 49.5C53.625 51.768 54.711 53.772 56.37 55.077C54.4628 55.8086 52.8217 57.1002 51.6624 58.7821C50.5031 60.464 49.88 62.4573 49.875 64.5V67.5C49.875 67.7984 49.9935 68.0845 50.2045 68.2955C50.4155 68.5065 50.7016 68.625 51 68.625C51.2984 68.625 51.5845 68.5065 51.7955 68.2955C52.0065 68.0845 52.125 67.7984 52.125 67.5V64.5C52.1274 62.4122 52.9578 60.4105 54.4342 58.9342C55.9105 57.4578 57.9122 56.6274 60 56.625H61.5C63.5878 56.6274 65.5895 57.4578 67.0658 58.9342C68.5422 60.4105 69.3726 62.4122 69.375 64.5V67.5C69.375 67.7984 69.4935 68.0845 69.7045 68.2955C69.9155 68.5065 70.2016 68.625 70.5 68.625C70.7984 68.625 71.0845 68.5065 71.2955 68.2955C71.5065 68.0845 71.625 67.7984 71.625 67.5V64.5C71.62 62.4573 70.9969 60.464 69.8376 58.7821C68.6783 57.1002 67.0372 55.8086 65.13 55.077ZM35.25 54.375C32.562 54.375 30.375 52.188 30.375 49.5C30.375 46.812 32.562 44.625 35.25 44.625C37.938 44.625 40.125 46.812 40.125 49.5C40.125 52.188 37.938 54.375 35.25 54.375ZM48 29.625C50.688 29.625 52.875 31.812 52.875 34.5C52.875 37.188 50.688 39.375 48 39.375C45.312 39.375 43.125 37.188 43.125 34.5C43.125 31.812 45.312 29.625 48 29.625ZM60.75 44.625C63.438 44.625 65.625 46.812 65.625 49.5C65.625 52.188 63.438 54.375 60.75 54.375C58.062 54.375 55.875 52.188 55.875 49.5C55.875 46.812 58.062 44.625 60.75 44.625Z" fill="#1B6936"/>
</g>
<defs>
<clipPath id="clip0_3658_3112">
<rect width="96" height="96" fill="white"/>
</clipPath>
</defs>
</svg>
