<svg width="173" height="172" viewBox="0 0 173 172" fill="none" xmlns="http://www.w3.org/2000/svg">
<g opacity="0.24">
<path d="M163.354 61.6304C146.23 102.374 1.36417 115.042 43.8685 172C15.6458 166.708 24.2724 132.741 42.694 119.855C76.7891 87.4392 153.7 86.5542 161.651 32.8516C191.265 86.7421 157.059 158.822 97.7124 167.914C87.5062 169.563 70.5643 170.733 67.957 157.386C67.0233 151.882 68.8438 147.397 73.5241 143.839C97.8828 127.625 129.964 126.601 151.809 105.914C164.511 94.4338 166.096 78.5231 163.354 61.6425V61.6304Z" fill="#669B78"/>
<path d="M1.7163 100.448C19.9325 61.1467 157.194 49.2788 123.686 -8C158.039 6.73489 126.193 43.2539 105.182 53.558C71.9618 75.2815 10.4544 80.7367 2.56777 127.942C-23.6936 77.8212 3.99479 13.8872 55.8128 -2.53275C65.3495 -5.96948 75.2503 -6.32103 85.1277 -5.23001C95.927 -4.17535 100.719 11.2869 90.4951 17.9664C71.6799 30.8829 48.4135 33.4832 28.6471 44.5631C8.57524 53.7156 -8.43119 78.4091 1.7163 100.442V100.448Z" fill="#669B78"/>
</g>
</svg>
