<svg width="1680" height="485" viewBox="0 0 1680 485" fill="none" xmlns="http://www.w3.org/2000/svg" xmlns:xlink="http://www.w3.org/1999/xlink">
<path d="M0 48C0 21.4903 21.4903 0 48 0H1632C1658.51 0 1680 21.4903 1680 48V437C1680 463.51 1658.51 485 1632 485H48C21.4903 485 0 463.51 0 437V48Z" fill="url(#pattern0_3686_2514)"/>
<defs>
<pattern id="pattern0_3686_2514" patternUnits="userSpaceOnUse" patternTransform="matrix(207.36 0 0 207.36 0 0)" preserveAspectRatio="none" viewBox="0 0 324 323.999" width="1" height="1">
<use xlink:href="#pattern0_3686_2514_inner" transform="translate(0 -323.999)"/>
<g id="pattern0_3686_2514_inner">
<g opacity="0.04">
<path d="M307.537 125.335C276.714 198.673 15.9557 221.476 92.4635 323.999C41.6627 314.475 57.1904 253.334 90.3494 230.139C151.721 171.791 290.16 170.198 304.472 73.5332C357.778 170.536 296.206 300.28 189.382 316.646C171.011 319.613 140.516 321.719 135.823 297.695C134.142 287.788 137.419 279.715 145.843 273.31C189.689 244.126 247.434 242.282 286.756 205.045C309.619 184.381 312.473 155.742 307.537 125.357V125.335Z" fill="white"/>
<path d="M16.5893 195.206C49.3784 124.464 296.448 103.102 236.134 0C297.97 26.5228 240.648 92.2569 202.827 110.804C143.031 149.906 32.3179 159.726 18.122 244.695C-29.1484 154.478 20.6906 39.3968 113.963 9.84102C131.129 3.65493 148.95 3.02213 166.73 4.98597C186.168 6.88435 194.794 34.7163 176.391 46.7394C142.524 69.9891 100.644 74.6696 65.0647 94.6135C28.9354 111.088 -1.67614 155.536 16.5893 195.195V195.206Z" fill="white"/>
</g>
</g>
</pattern></defs>
</svg>
