<svg width="56" height="56" viewBox="0 0 56 56" fill="none" xmlns="http://www.w3.org/2000/svg">
<path d="M45.3906 26.25C45.3906 16.8645 37.9549 9.18914 28.6035 8.86966C18.8326 8.53541 10.639 16.4143 10.6095 26.1967C10.5954 30.8804 12.4167 35.2785 15.7383 38.5809C17.8071 40.638 19.3605 43.121 20.2344 45.7646V48.2344C20.2344 52.5163 23.7181 56 28 56C32.2819 56 35.7656 52.5163 35.7656 48.2344V45.7641C36.6492 43.0901 38.1801 40.6293 40.1966 38.6454C43.546 35.3499 45.3906 30.9478 45.3906 26.25ZM32.4844 48.2344C32.4844 50.707 30.4726 52.7188 28 52.7188C25.5274 52.7188 23.5156 50.707 23.5156 48.2344V47.1406H32.4844V48.2344ZM32.9605 43.8594H23.0386C21.9671 41.0588 20.2564 38.446 18.0518 36.2541C12.5071 30.741 12.4332 21.6963 18.2278 16.113C21.0165 13.4261 24.6615 12.019 28.4915 12.149C36.1278 12.4098 42.1094 18.6038 42.1094 26.25C42.1094 30.0613 40.6127 33.6327 37.8953 36.3064C35.7303 38.4365 34.0373 41.0315 32.9605 43.8594ZM28 6.01562C28.9061 6.01562 29.6406 5.28106 29.6406 4.375V1.64062C29.6406 0.734562 28.9061 0 28 0C27.0939 0 26.3594 0.734562 26.3594 1.64062V4.375C26.3594 5.28106 27.0939 6.01562 28 6.01562ZM11.372 11.9422C12.0128 12.5829 13.0515 12.5829 13.6922 11.9422C14.3329 11.3016 14.3329 10.2628 13.6922 9.62205L11.836 7.76584C11.1954 7.12523 10.1566 7.12523 9.51584 7.76584C8.87512 8.40645 8.87512 9.4453 9.51584 10.086L11.372 11.9422ZM6.125 24.6094H3.5C2.59394 24.6094 1.85938 25.3439 1.85938 26.25C1.85938 27.1561 2.59394 27.8906 3.5 27.8906H6.125C7.03106 27.8906 7.76562 27.1561 7.76562 26.25C7.76562 25.3439 7.03106 24.6094 6.125 24.6094ZM11.372 40.5578L9.51584 42.414C8.87512 43.0546 8.87512 44.0934 9.51584 44.7342C10.1566 45.3749 11.1953 45.3749 11.836 44.7342L13.6922 42.878C14.3329 42.2373 14.3329 41.1985 13.6922 40.5578C13.0515 39.9172 12.0127 39.9172 11.372 40.5578ZM44.628 40.5578C43.9873 39.9172 42.9485 39.9172 42.3078 40.5578C41.6671 41.1984 41.6671 42.2372 42.3078 42.878L44.164 44.7342C44.8047 45.3749 45.8434 45.3749 46.4842 44.7342C47.1249 44.0935 47.1249 43.0547 46.4842 42.414L44.628 40.5578ZM52.5 24.6094H49.875C48.9689 24.6094 48.2344 25.3439 48.2344 26.25C48.2344 27.1561 48.9689 27.8906 49.875 27.8906H52.5C53.4061 27.8906 54.1406 27.1561 54.1406 26.25C54.1406 25.3439 53.4061 24.6094 52.5 24.6094ZM44.164 7.76584L42.3078 9.62205C41.6671 10.2627 41.6671 11.3015 42.3078 11.9422C42.9485 12.5829 43.9872 12.5829 44.628 11.9422L46.4842 10.086C47.1249 9.44541 47.1249 8.40656 46.4842 7.76584C45.8435 7.12523 44.8047 7.12523 44.164 7.76584Z" fill="#1B6936"/>
<path d="M28.6312 15.1108C28.4312 15.0273 28.2167 14.9844 27.9999 14.9844C27.7832 14.9844 27.5687 15.0273 27.3687 15.1108C22.7278 17.0454 19.3594 22.4661 19.3594 28.0001C19.3594 33.534 22.7278 38.9547 27.3688 40.8894C27.5688 40.9728 27.7834 41.0157 28.0001 41.0157C28.2168 41.0157 28.4313 40.9728 28.6313 40.8894C33.2722 38.9547 36.6406 33.534 36.6406 28.0001C36.6406 22.4661 33.2722 17.0454 28.6312 15.1108ZM29.6406 36.4047V25.3751C29.6406 24.469 28.9061 23.7345 28 23.7345C27.0939 23.7345 26.3594 24.469 26.3594 25.3751V36.4047C24.1363 34.4219 22.6406 31.199 22.6406 28.0001C22.6406 24.0651 24.9036 20.0938 28 18.4393C31.0964 20.0938 33.3594 24.0652 33.3594 28.0001C33.3594 31.199 31.8637 34.4219 29.6406 36.4047Z" fill="#1B6936"/>
</svg>
