<svg width="32" height="32" viewBox="0 0 32 32" fill="none" xmlns="http://www.w3.org/2000/svg">
<path d="M26.6667 14.6667L16 4L4 16H6.66667V25.3333C6.66667 26.0406 6.94762 26.7189 7.44772 27.219C7.94781 27.719 8.62609 28 9.33333 28H16M12 28V20C12 19.2928 12.281 18.6145 12.781 18.1144C13.2811 17.6143 13.9594 17.3333 14.6667 17.3333H17.3333C17.7667 17.3333 18.1747 17.436 18.536 17.62M21.3333 29.3333C21.3333 29.3333 21.3333 26.6667 25.3333 24M25.3333 28C24.2725 28 23.2551 27.5786 22.5049 26.8284C21.7548 26.0783 21.3333 25.0609 21.3333 24C21.3333 22.9391 21.7548 21.9217 22.5049 21.1716C23.2551 20.4214 24.2725 20 25.3333 20H29.3333V24C29.3333 25.0609 28.9119 26.0783 28.1618 26.8284C27.4116 27.5786 26.3942 28 25.3333 28Z" stroke="white" stroke-width="2" stroke-linecap="round" stroke-linejoin="round"/>
</svg>
