<svg width="32" height="32" viewBox="0 0 32 32" fill="none" xmlns="http://www.w3.org/2000/svg">
<path d="M14.3603 24.4003C12.3746 24.4003 10.4335 23.8115 8.7824 22.7083C7.13133 21.6051 5.84448 20.037 5.08457 18.2025C4.32466 16.3679 4.12584 14.3491 4.51324 12.4016C4.90064 10.454 5.85685 8.66509 7.26097 7.26097C8.66509 5.85685 10.454 4.90064 12.4016 4.51324C14.3491 4.12584 16.3679 4.32466 18.2025 5.08457C20.037 5.84448 21.6051 7.13133 22.7083 8.7824C23.8115 10.4335 24.4003 12.3746 24.4003 14.3603C24.4003 15.6787 24.1406 16.9843 23.6361 18.2025C23.1315 19.4206 22.3919 20.5274 21.4597 21.4597C20.5274 22.3919 19.4206 23.1315 18.2025 23.6361C16.9843 24.1406 15.6787 24.4003 14.3603 24.4003ZM14.3603 6.33365C12.7781 6.33365 11.2314 6.80285 9.91576 7.6819C8.60017 8.56094 7.57478 9.81038 6.96929 11.2722C6.36378 12.734 6.20536 14.3425 6.51404 15.8943C6.82272 17.4462 7.58465 18.8717 8.70346 19.9905C9.82229 21.1093 11.2477 21.8713 12.7996 22.1799C14.3514 22.4886 15.9599 22.3302 17.4218 21.7247C18.8835 21.1191 20.133 20.0938 21.0121 18.7782C21.8911 17.4626 22.3603 15.9159 22.3603 14.3337C22.3603 12.2119 21.5175 10.1771 20.0171 8.6768C18.5169 7.1765 16.4821 6.33365 14.3603 6.33365Z" fill="white"/>
<path d="M26.6663 27.6663C26.535 27.6669 26.4047 27.6413 26.2834 27.5909C26.1621 27.5406 26.0519 27.4665 25.9597 27.373L20.453 21.8663C20.2763 21.6767 20.1802 21.4259 20.1847 21.1669C20.1893 20.9078 20.2943 20.6607 20.4775 20.4774C20.6607 20.2942 20.9079 20.1893 21.167 20.1847C21.4261 20.1802 21.6767 20.2763 21.8663 20.453L27.373 25.9597C27.5602 26.1471 27.6654 26.4013 27.6654 26.6663C27.6654 26.9313 27.5602 27.1854 27.373 27.373C27.2807 27.4665 27.1706 27.5406 27.0493 27.5909C26.9279 27.6413 26.7977 27.6669 26.6663 27.6663Z" fill="white"/>
</svg>
