<svg width="249" height="48" viewBox="0 0 249 48" fill="none" xmlns="http://www.w3.org/2000/svg">
<path d="M4.83767 11.3298V10.6071C4.83767 10.496 4.89326 10.4388 5.00602 10.4388H6.08124C6.19241 10.4388 6.24959 10.4944 6.24959 10.6071V16.304C6.24959 16.6407 6.31312 16.8726 6.44176 17.0013C6.57041 17.1299 6.77528 17.195 7.05481 17.195H7.79491C8.24278 17.195 8.46672 17.419 8.46672 17.8668C8.46672 18.1464 8.41272 18.3226 8.3079 18.3957C8.20149 18.4688 8.02997 18.5053 7.79491 18.5053H6.80387C6.25435 18.5053 5.82713 18.4021 5.51901 18.194C5.2109 17.9859 5.00761 17.6429 4.90597 17.1601C4.68203 17.3618 4.41203 17.5127 4.09916 17.6143C3.78628 17.7144 3.44482 17.7652 3.07477 17.7652C2.63801 17.7652 2.23143 17.7032 1.85661 17.581C1.4818 17.4587 1.15621 17.2697 0.881454 17.0187C0.606695 16.7678 0.392287 16.447 0.235054 16.061C0.077822 15.6751 0 15.2177 0 14.692C0 14.0647 0.0889399 13.539 0.268407 13.1133C0.447874 12.6877 0.682928 12.3431 0.97357 12.0794C1.2658 11.8158 1.60409 11.6252 1.99002 11.5077C2.37596 11.3901 2.77777 11.3314 3.19229 11.3314H4.83926L4.83767 11.3298ZM3.09065 16.4549C3.72911 16.4549 4.18016 16.2675 4.4438 15.8927C4.70744 15.5179 4.83926 14.9938 4.83926 14.322V12.6416H3.19229C2.6666 12.6416 2.23619 12.7909 1.90743 13.0863C1.57709 13.3833 1.41191 13.9186 1.41191 14.6904C1.41191 15.2733 1.55803 15.7132 1.84867 16.0102C2.1409 16.3072 2.55542 16.4565 3.09224 16.4565L3.09065 16.4549ZM1.6295 9.29688C1.51832 9.29688 1.46115 9.24129 1.46115 9.12853V7.90243C1.46115 7.79126 1.51674 7.73408 1.6295 7.73408H2.77142C2.88259 7.73408 2.93977 7.78967 2.93977 7.90243V9.12853C2.93977 9.2397 2.88418 9.29688 2.77142 9.29688H1.6295ZM3.67987 9.29688C3.56711 9.29688 3.51152 9.24129 3.51152 9.12853V7.90243C3.51152 7.79126 3.56711 7.73408 3.67987 7.73408H4.82179C4.93297 7.73408 4.98855 7.78967 4.98855 7.90243V9.12853C4.98855 9.2397 4.93297 9.29688 4.82179 9.29688H3.67987Z" fill="#EAEAEA"/>
<path d="M7.81235 18.5054C7.58842 18.5054 7.43754 18.4578 7.35813 18.3625C7.28031 18.2672 7.2406 18.102 7.2406 17.8669C7.2406 17.5874 7.27713 17.4048 7.35019 17.3206C7.42324 17.2364 7.5773 17.1951 7.81235 17.1951H9.66103C9.88496 17.1951 10.0533 17.2396 10.1645 17.3301C10.2757 17.4207 10.3312 17.5827 10.3312 17.8177C10.3312 18.0972 10.2788 18.2831 10.1724 18.372C10.066 18.4609 9.89449 18.507 9.66103 18.507H7.81235V18.5054Z" fill="#EAEAEA"/>
<path d="M9.77874 18.5053C9.55481 18.5053 9.38646 18.4656 9.27528 18.3878C9.16411 18.31 9.10693 18.1527 9.10693 17.9177C9.10693 17.6382 9.16093 17.4476 9.26575 17.3459C9.37216 17.2459 9.54369 17.1951 9.77874 17.1951H10.9207C11.2002 17.1951 11.4051 17.1315 11.5337 17.0013C11.6624 16.8727 11.7275 16.6408 11.7275 16.3041V11.7999C11.7275 11.6888 11.7831 11.6316 11.8958 11.6316H12.971C13.0822 11.6316 13.1378 11.6872 13.1378 11.7999V16.0515C13.1378 16.4327 13.2744 16.7186 13.5507 16.9092C13.8239 17.0998 14.1908 17.1951 14.6514 17.1951H14.8531C15.077 17.1951 15.2453 17.2427 15.3565 17.338C15.4677 17.4333 15.5249 17.5937 15.5249 17.816C15.5249 18.1067 15.4709 18.2941 15.3645 18.3783C15.2581 18.4624 15.0881 18.5037 14.8531 18.5037H14.483C14.1241 18.5037 13.8112 18.4307 13.5412 18.2846C13.2728 18.1385 13.0647 17.9209 12.9186 17.6286C12.6391 18.2115 12.0562 18.5022 11.1716 18.5022H9.77716L9.77874 18.5053ZM10.6364 21.6309C10.5236 21.6309 10.468 21.5753 10.468 21.4626V20.2365C10.468 20.1253 10.5236 20.0681 10.6364 20.0681H11.7783C11.8895 20.0681 11.9451 20.1237 11.9451 20.2365V21.4626C11.9451 21.5737 11.8895 21.6309 11.7783 21.6309H10.6364ZM12.6867 21.6309C12.5756 21.6309 12.52 21.5753 12.52 21.4626V20.2365C12.52 20.1253 12.5756 20.0681 12.6867 20.0681H13.8287C13.9398 20.0681 13.997 20.1237 13.997 20.2365V21.4626C13.997 21.5737 13.9414 21.6309 13.8287 21.6309H12.6867Z" fill="#EAEAEA"/>
<path d="M14.9705 18.5053C14.7466 18.5053 14.5782 18.4656 14.4671 18.3878C14.3559 18.3099 14.2987 18.1527 14.2987 17.9177C14.2987 17.6381 14.3527 17.4475 14.4575 17.3459C14.5639 17.2458 14.7355 17.195 14.9705 17.195H16.0298C16.3094 17.195 16.5143 17.1315 16.6429 17.0013C16.7715 16.8726 16.8367 16.6407 16.8367 16.304V11.7999C16.8367 11.6887 16.8922 11.6315 17.0034 11.6315H18.0786C18.1898 11.6315 18.247 11.6871 18.247 11.7999V16.0515C18.247 16.4327 18.3836 16.7186 18.6583 16.9091C18.9331 17.0997 19.3 17.195 19.759 17.195H19.9607C20.1846 17.195 20.3529 17.2427 20.4641 17.338C20.5753 17.4333 20.6325 17.5937 20.6325 17.816C20.6325 18.1067 20.5785 18.2941 20.4736 18.3782C20.3688 18.4624 20.1957 18.5037 19.9607 18.5037H19.5922C19.2333 18.5037 18.9204 18.4306 18.6504 18.2845C18.3804 18.1384 18.1739 17.9208 18.0278 17.6286C17.7483 18.2115 17.1654 18.5021 16.2808 18.5021H14.9705V18.5053ZM16.2649 9.33023C16.1744 9.21905 16.1013 9.08406 16.0457 8.92682C15.9901 8.76959 15.9616 8.59012 15.9616 8.38842C15.9616 8.22007 15.9886 8.04378 16.0457 7.85955C16.1013 7.67532 16.203 7.50379 16.3491 7.34656C16.4936 7.18933 16.6826 7.05909 16.9113 6.9511C17.14 6.8431 17.4354 6.79228 17.7943 6.79228C18.1072 6.79228 18.3995 6.85104 18.6679 6.96857C18.9363 7.08609 19.1316 7.24015 19.2555 7.43073C19.3 7.49744 19.2952 7.55938 19.2396 7.61497L18.8029 7.98502C18.7695 8.00725 18.7234 7.99137 18.6679 7.9342C18.5567 7.83414 18.4265 7.74679 18.2819 7.67373C18.1358 7.60067 17.9563 7.56414 17.7435 7.56414C17.4179 7.56414 17.1829 7.65467 17.0384 7.83255C16.8922 8.01202 16.8192 8.20737 16.8192 8.42019C16.8192 8.66636 16.8811 8.8633 17.0034 9.00782C17.1273 9.15394 17.2496 9.26035 17.3735 9.32705H19.2714C19.3397 9.32705 19.373 9.36676 19.373 9.44458V9.98298C19.373 10.0624 19.3397 10.1005 19.2714 10.1005H15.6916C15.6249 10.1005 15.5915 10.0608 15.5915 9.98298V9.44458C15.5915 9.36676 15.6249 9.32705 15.6916 9.32705H16.2633L16.2649 9.33023Z" fill="#EAEAEA"/>
<path d="M19.945 18.5053C19.7211 18.5053 19.5527 18.4656 19.4415 18.3878C19.3304 18.31 19.2732 18.1527 19.2732 17.9177C19.2732 17.6382 19.3272 17.4476 19.432 17.3459C19.5384 17.2459 19.71 17.1951 19.945 17.1951H21.0869C21.3665 17.1951 21.5713 17.1315 21.7 17.0013C21.8286 16.8727 21.8937 16.6408 21.8937 16.3041V11.7999C21.8937 11.6888 21.9493 11.6316 22.0621 11.6316H23.1373C23.2485 11.6316 23.3041 11.6872 23.3041 11.7999V16.0515C23.3041 16.4327 23.4406 16.7186 23.717 16.9092C23.9902 17.0998 24.357 17.1951 24.8176 17.1951H25.0193C25.2433 17.1951 25.4116 17.2427 25.5228 17.338C25.634 17.4333 25.6911 17.5937 25.6911 17.816C25.6911 18.1067 25.6371 18.2941 25.5307 18.3783C25.4243 18.4624 25.2544 18.5037 25.0193 18.5037H24.6493C24.2903 18.5037 23.9775 18.4307 23.7075 18.2846C23.4391 18.1385 23.231 17.9209 23.0849 17.6286C22.8054 18.2115 22.2225 18.5022 21.3379 18.5022H19.9434L19.945 18.5053ZM20.8026 21.6309C20.6899 21.6309 20.6343 21.5753 20.6343 21.4626V20.2365C20.6343 20.1253 20.6899 20.0681 20.8026 20.0681H21.9446C22.0557 20.0681 22.1113 20.1237 22.1113 20.2365V21.4626C22.1113 21.5737 22.0557 21.6309 21.9446 21.6309H20.8026ZM22.853 21.6309C22.7418 21.6309 22.6862 21.5753 22.6862 21.4626V20.2365C22.6862 20.1253 22.7418 20.0681 22.853 20.0681H23.9949C24.1061 20.0681 24.1633 20.1237 24.1633 20.2365V21.4626C24.1633 21.5737 24.1077 21.6309 23.9949 21.6309H22.853Z" fill="#EAEAEA"/>
<path d="M25.1381 18.5053C24.9142 18.5053 24.7458 18.4656 24.6347 18.3878C24.5235 18.31 24.4663 18.1527 24.4663 17.9177C24.4663 17.6382 24.5203 17.4476 24.6251 17.3459C24.7315 17.2459 24.9031 17.1951 25.1381 17.1951H26.1975C26.477 17.1951 26.6819 17.1315 26.8105 17.0013C26.9391 16.8727 27.0043 16.6408 27.0043 16.3041V11.7999C27.0043 11.6888 27.0598 11.6316 27.171 11.6316H28.2462C28.3574 11.6316 28.4146 11.6872 28.4146 11.7999V16.0515C28.4146 16.4327 28.5512 16.7186 28.8259 16.9092C29.1007 17.0998 29.4676 17.1951 29.9266 17.1951H30.1283C30.3522 17.1951 30.5205 17.2427 30.6317 17.338C30.7429 17.4333 30.8001 17.5937 30.8001 17.816C30.8001 18.1067 30.7461 18.2941 30.6412 18.3783C30.5364 18.4624 30.3633 18.5037 30.1283 18.5037H29.7598C29.4009 18.5037 29.088 18.4307 28.818 18.2846C28.548 18.1385 28.3415 17.9209 28.1954 17.6286C27.9159 18.2115 27.333 18.5022 26.4484 18.5022H25.1381V18.5053ZM27.171 21.5801C27.0598 21.5801 27.0043 21.5245 27.0043 21.4117V20.1856C27.0043 20.0729 27.0598 20.0173 27.171 20.0173H28.3145C28.4257 20.0173 28.4813 20.0729 28.4813 20.1856V21.4117C28.4813 21.5229 28.4257 21.5801 28.3145 21.5801H27.171Z" fill="#EAEAEA"/>
<path d="M30.0106 18.5054C29.7867 18.5054 29.6358 18.4578 29.5564 18.3625C29.4785 18.2672 29.4388 18.102 29.4388 17.8669C29.4388 17.5874 29.4754 17.4048 29.5484 17.3206C29.6215 17.2364 29.7755 17.1951 30.0106 17.1951H31.8593C32.0832 17.1951 32.2516 17.2396 32.3627 17.3301C32.4739 17.4207 32.5295 17.5827 32.5295 17.8177C32.5295 18.0972 32.4771 18.2831 32.3707 18.372C32.2643 18.4609 32.0927 18.507 31.8593 18.507H30.0106V18.5054Z" fill="#EAEAEA"/>
<path d="M31.8597 18.5053C31.6357 18.5053 31.4674 18.4655 31.3562 18.3877C31.245 18.3099 31.1879 18.1527 31.1879 17.9176C31.1879 17.6381 31.2419 17.4475 31.3467 17.3459C31.4531 17.2458 31.6246 17.195 31.8597 17.195H32.919C33.1985 17.195 33.4034 17.1315 33.5321 17.0012C33.6607 16.8726 33.7258 16.6407 33.7258 16.304V7.24647C33.7258 7.13529 33.7814 7.07812 33.8926 7.07812H34.9694C35.0806 7.07812 35.1361 7.1337 35.1361 7.24647V16.3882C35.1361 17.1172 34.9853 17.6524 34.6819 17.9939C34.3786 18.3353 33.8751 18.5068 33.1699 18.5068H31.8597V18.5053Z" fill="#EAEAEA"/>
<path d="M38.9001 18.3369C38.9001 18.4481 38.8445 18.5053 38.7333 18.5053H37.6565C37.5453 18.5053 37.4897 18.4497 37.4897 18.3369V7.24647C37.4897 7.13529 37.5453 7.07812 37.6565 7.07812H38.7333C38.8445 7.07812 38.9001 7.1337 38.9001 7.24647V18.3369Z" fill="#EAEAEA"/>
<path d="M55.343 17.0011C55.4716 16.8725 55.5351 16.6406 55.5351 16.3039V11.7998C55.5351 11.6886 55.5907 11.6314 55.7035 11.6314H56.7787C56.8899 11.6314 56.947 11.687 56.947 11.7998V16.3865C56.947 17.1155 56.7962 17.6507 56.4928 17.9922C56.1911 18.3337 55.6749 18.5052 54.9475 18.5052H46.8651C46.16 18.5052 45.6549 18.3337 45.3532 17.9922C45.0514 17.6507 44.8989 17.1155 44.8989 16.3865V12.875C44.8989 12.7638 44.9545 12.7066 45.0657 12.7066H46.1409C46.2521 12.7066 46.3092 12.7622 46.3092 12.875V16.3039C46.3092 16.6406 46.3728 16.8725 46.503 17.0011C46.6317 17.1298 46.8365 17.1949 47.1161 17.1949H54.7109C55.0015 17.1949 55.2127 17.1314 55.3414 17.0011H55.343ZM49.3523 10.9596C49.2395 10.9596 49.1839 10.904 49.1839 10.7913V9.56517C49.1839 9.454 49.2395 9.39682 49.3523 9.39682H50.4942C50.6053 9.39682 50.6609 9.45241 50.6609 9.56517V10.7913C50.6609 10.904 50.6053 10.9596 50.4942 10.9596H49.3523ZM51.4026 10.9596C51.2914 10.9596 51.2359 10.904 51.2359 10.7913V9.56517C51.2359 9.454 51.2914 9.39682 51.4026 9.39682H52.5445C52.6557 9.39682 52.7129 9.45241 52.7129 9.56517V10.7913C52.7129 10.904 52.6573 10.9596 52.5445 10.9596H51.4026Z" fill="#EAEAEA"/>
<path d="M60.4933 18.3369C60.4933 18.4481 60.4377 18.5053 60.3266 18.5053H59.2498C59.1386 18.5053 59.083 18.4497 59.083 18.3369V7.24647C59.083 7.13529 59.1386 7.07812 59.2498 7.07812H60.3266C60.4377 7.07812 60.4933 7.1337 60.4933 7.24647V18.3369Z" fill="#EAEAEA"/>
<path d="M61.8373 21.8485C61.7245 21.8485 61.6689 21.7929 61.6689 21.6801V20.705C61.6689 20.5938 61.7245 20.5366 61.8373 20.5366H62.2232C63.1301 20.5366 63.5843 20.0602 63.5843 19.1088V11.7999C63.5843 11.6888 63.6399 11.6316 63.7511 11.6316H64.8263C64.9375 11.6316 64.9946 11.6872 64.9946 11.7999V19.0755C64.9946 19.9824 64.7644 20.6716 64.3054 21.1417C63.8464 21.6119 63.173 21.8469 62.2883 21.8469H61.8341L61.8373 21.8485Z" fill="#EAEAEA"/>
<path d="M67.2657 7.24647C67.2657 7.13529 67.3213 7.07812 67.4325 7.07812H68.5093C68.6205 7.07812 68.6761 7.1337 68.6761 7.24647V16.304C68.6761 16.6407 68.7396 16.8726 68.8698 17.0012C68.9985 17.1299 69.2034 17.195 69.4829 17.195H70.223C70.6709 17.195 70.8948 17.4189 70.8948 17.8668C70.8948 18.1463 70.8408 18.3226 70.736 18.3957C70.6296 18.4687 70.458 18.5053 70.223 18.5053H69.2319C68.5268 18.5053 68.0217 18.3337 67.72 17.9923C67.4182 17.6508 67.2657 17.1156 67.2657 16.3866V7.24488V7.24647Z" fill="#EAEAEA"/>
<path d="M75.4657 18.5052C75.1067 18.5052 74.7938 18.4321 74.5238 18.286C74.2539 18.1399 74.0474 17.9223 73.9013 17.6301C73.6217 18.2129 73.0389 18.5036 72.1542 18.5036H70.3389C70.115 18.5036 69.9466 18.4639 69.8355 18.3861C69.7243 18.3082 69.6671 18.151 69.6671 17.9159C69.6671 17.6364 69.7211 17.4458 69.8259 17.3442C69.9323 17.2441 70.1039 17.1933 70.3389 17.1933H71.9017C72.1812 17.1933 72.3861 17.1298 72.5148 16.9996C72.6434 16.8709 72.7085 16.639 72.7085 16.3023V13.2434C72.7085 13.1323 72.7641 13.0751 72.8753 13.0751H73.9505C74.0617 13.0751 74.1189 13.1307 74.1189 13.2434V16.0498C74.1189 16.431 74.2539 16.7169 74.5223 16.9074C74.7907 17.098 75.1496 17.1933 75.5975 17.1933H76.0168C76.2963 17.1933 76.5012 17.1298 76.6314 16.9996C76.76 16.8709 76.8236 16.639 76.8236 16.3023V13.2434C76.8236 13.1323 76.8792 13.0751 76.9919 13.0751H78.0671C78.1783 13.0751 78.2355 13.1307 78.2355 13.2434V16.1165C78.2355 16.4754 78.3752 16.7439 78.6548 16.9233C78.9343 17.1028 79.2996 17.1917 79.7475 17.1917H80.1334C80.4129 17.1917 80.6178 17.1282 80.7464 16.998C80.8751 16.8693 80.9402 16.6374 80.9402 16.3007V11.7966C80.9402 11.6854 80.9958 11.6282 81.1085 11.6282H82.1838C82.2949 11.6282 82.3505 11.6838 82.3505 11.7966V16.0482C82.3505 16.4294 82.4871 16.7153 82.7619 16.9058C83.0366 17.0964 83.4035 17.1917 83.8625 17.1917H84.0467C84.2707 17.1917 84.439 17.2394 84.5518 17.3347C84.6629 17.43 84.7185 17.5904 84.7185 17.8127C84.7185 18.1034 84.6645 18.2908 84.5597 18.3749C84.4549 18.4591 84.2818 18.5004 84.0467 18.5004H83.6941C83.3352 18.5004 83.0223 18.4273 82.7523 18.2812C82.4839 18.1351 82.2759 17.9175 82.1298 17.6253C81.8502 18.2082 81.2674 18.4988 80.3827 18.4988H79.5759C79.217 18.4988 78.9041 18.4258 78.6341 18.2796C78.3657 18.1335 78.1577 17.9159 78.0115 17.6237C77.732 18.2066 77.1491 18.4972 76.2645 18.4972H75.4593L75.4657 18.5052Z" fill="#EAEAEA"/>
<path d="M84.0525 18.5054C83.8286 18.5054 83.6603 18.4657 83.5491 18.3879C83.4379 18.3101 83.3807 18.1529 83.3807 17.9178C83.3807 17.6383 83.4347 17.4477 83.5396 17.3461C83.646 17.246 83.8175 17.1952 84.0525 17.1952H85.1945C85.474 17.1952 85.6789 17.1316 85.8075 17.0014C85.9362 16.8728 86.0013 16.6409 86.0013 16.3042V11.8C86.0013 11.6889 86.0569 11.6317 86.1696 11.6317H87.2448C87.356 11.6317 87.4116 11.6873 87.4116 11.8V16.0517C87.4116 16.4328 87.5482 16.7187 87.8245 16.9093C88.0977 17.0999 88.4646 17.1952 88.9252 17.1952H89.1269C89.3508 17.1952 89.5191 17.2428 89.6303 17.3381C89.7415 17.4334 89.7987 17.5938 89.7987 17.8162C89.7987 18.1068 89.7447 18.2942 89.6383 18.3784C89.5319 18.4626 89.3619 18.5039 89.1269 18.5039H88.7568C88.3979 18.5039 88.085 18.4308 87.815 18.2847C87.5466 18.1386 87.3385 17.921 87.1924 17.6288C86.9129 18.2116 86.33 18.5023 85.4454 18.5023H84.051L84.0525 18.5054ZM85.0769 9.96884C84.9658 9.96884 84.9102 9.91325 84.9102 9.80049V8.57439C84.9102 8.46322 84.9658 8.40604 85.0769 8.40604H86.2189C86.33 8.40604 86.3872 8.46163 86.3872 8.57439V9.80049C86.3872 9.91325 86.3316 9.96884 86.2189 9.96884H85.0769ZM87.1273 9.96884C87.0161 9.96884 86.959 9.91325 86.959 9.80049V8.57439C86.959 8.46322 87.0146 8.40604 87.1273 8.40604H88.2692C88.3804 8.40604 88.4376 8.46163 88.4376 8.57439V9.80049C88.4376 9.91325 88.382 9.96884 88.2692 9.96884H87.1273Z" fill="#EAEAEA"/>
<path d="M89.1429 18.5054C88.919 18.5054 88.7681 18.4578 88.6887 18.3625C88.6109 18.2672 88.5712 18.102 88.5712 17.8669C88.5712 17.5874 88.6077 17.4048 88.6808 17.3206C88.7538 17.2364 88.9079 17.1951 89.1429 17.1951H90.9916C91.2155 17.1951 91.3839 17.2396 91.4951 17.3301C91.6062 17.4207 91.6618 17.5827 91.6618 17.8177C91.6618 18.0972 91.6094 18.2831 91.503 18.372C91.3966 18.4609 91.2251 18.507 90.9916 18.507H89.1429V18.5054Z" fill="#EAEAEA"/>
<path d="M96.1181 18.5052C95.7592 18.5052 95.4463 18.4322 95.1763 18.2861C94.9063 18.14 94.6998 17.9224 94.5537 17.6301C94.2742 18.213 93.6913 18.5037 92.8067 18.5037H90.9914C90.7675 18.5037 90.5991 18.464 90.4879 18.3861C90.3768 18.3083 90.3196 18.1511 90.3196 17.916C90.3196 17.6365 90.3736 17.4459 90.4784 17.3443C90.5848 17.2442 90.7563 17.1934 90.9914 17.1934H92.5542C92.8337 17.1934 93.0386 17.1299 93.1672 16.9996C93.2959 16.871 93.361 16.6391 93.361 16.3024V13.2435C93.361 13.1324 93.4166 13.0752 93.5278 13.0752H94.6046C94.7157 13.0752 94.7713 13.1308 94.7713 13.2435V16.0499C94.7713 16.4311 94.9063 16.7169 95.1747 16.9075C95.4431 17.0981 95.8021 17.1934 96.2499 17.1934H96.6708C96.9503 17.1934 97.1552 17.1299 97.2839 16.9996C97.4125 16.871 97.476 16.6391 97.476 16.3024V13.2435C97.476 13.1324 97.5316 13.0752 97.6444 13.0752H98.7196C98.8308 13.0752 98.8879 13.1308 98.8879 13.2435V16.0499C98.8879 16.4311 99.0229 16.7169 99.2914 16.9075C99.5613 17.0981 99.9187 17.1934 100.367 17.1934H100.787C101.067 17.1934 101.272 17.1299 101.4 16.9996C101.529 16.871 101.594 16.6391 101.594 16.3024V11.7983C101.594 11.6871 101.65 11.6299 101.763 11.6299H102.838C102.949 11.6299 103.006 11.6855 103.006 11.7983V16.385C103.006 17.114 102.855 17.6492 102.552 17.9907C102.25 18.3321 101.745 18.5037 101.04 18.5037H100.233C99.8742 18.5037 99.5613 18.4306 99.2914 18.2845C99.0229 18.1384 98.8149 17.9208 98.6688 17.6286C98.3893 18.2114 97.8064 18.5021 96.9218 18.5021H96.1149L96.1181 18.5052Z" fill="#EAEAEA"/>
<path d="M109.663 17.1933H111.629C111.909 17.1933 112.114 17.1298 112.242 16.9996C112.371 16.8709 112.436 16.639 112.436 16.3023V7.2448C112.436 7.13363 112.492 7.07645 112.604 7.07645H113.679C113.791 7.07645 113.846 7.13204 113.846 7.2448V16.269C113.902 16.5834 114.062 16.8153 114.326 16.9662C114.59 17.1171 114.928 17.1933 115.342 17.1933H115.527C115.751 17.1933 115.919 17.241 116.03 17.3363C116.141 17.4315 116.198 17.592 116.198 17.8143C116.198 18.1049 116.144 18.2924 116.04 18.3765C115.933 18.4607 115.762 18.502 115.527 18.502H115.174C114.826 18.502 114.518 18.4321 114.25 18.2924C113.981 18.1526 113.768 17.9366 113.611 17.646C113.354 18.2177 112.776 18.5036 111.88 18.5036H104.94C104.828 18.5036 104.773 18.448 104.773 18.3352V17.3601C104.773 17.2489 104.828 17.1917 104.94 17.1917H108.249V9.61281C108.249 9.50164 108.305 9.44446 108.418 9.44446H109.493C109.604 9.44446 109.661 9.50005 109.661 9.61281V17.1917L109.663 17.1933Z" fill="#EAEAEA"/>
<path d="M115.526 18.5053C115.302 18.5053 115.134 18.4655 115.023 18.3877C114.912 18.3099 114.854 18.1527 114.854 17.9176C114.854 17.6381 114.908 17.4475 115.013 17.3459C115.12 17.2458 115.291 17.195 115.526 17.195H116.586C116.865 17.195 117.07 17.1315 117.199 17.0012C117.327 16.8726 117.392 16.6407 117.392 16.304V7.24647C117.392 7.13529 117.448 7.07812 117.559 7.07812H118.636C118.747 7.07812 118.803 7.1337 118.803 7.24647V16.3882C118.803 17.1172 118.652 17.6524 118.349 17.9939C118.045 18.3353 117.542 18.5068 116.837 18.5068H115.526V18.5053Z" fill="#EAEAEA"/>
<path d="M135.363 17.0013C135.492 16.8727 135.557 16.6408 135.557 16.3041V11.7999C135.557 11.6888 135.612 11.6316 135.725 11.6316H136.8C136.911 11.6316 136.969 11.6872 136.969 11.7999V16.1183C136.969 16.4772 137.108 16.7456 137.388 16.9251C137.667 17.1045 138.033 17.1935 138.481 17.1935H138.665C138.889 17.1935 139.056 17.2411 139.168 17.3364C139.28 17.4317 139.335 17.5921 139.335 17.8145C139.335 18.1051 139.283 18.2925 139.176 18.3767C139.07 18.4609 138.898 18.5022 138.665 18.5022H138.312C137.953 18.5022 137.64 18.4291 137.37 18.283C137.102 18.1369 136.894 17.9193 136.748 17.627C136.602 17.9177 136.387 18.1369 136.102 18.283C135.816 18.4291 135.438 18.5022 134.968 18.5022H126.885C126.18 18.5022 125.675 18.3306 125.373 17.9892C125.071 17.6477 124.919 17.1125 124.919 16.3835V12.872C124.919 12.7608 124.975 12.7036 125.087 12.7036H126.163C126.274 12.7036 126.331 12.7592 126.331 12.872V16.3009C126.331 16.6376 126.394 16.8695 126.525 16.9981C126.653 17.1268 126.858 17.1919 127.138 17.1919H134.732C135.023 17.1919 135.234 17.1284 135.363 16.9981V17.0013ZM130.314 21.6309C130.203 21.6309 130.147 21.5753 130.147 21.4626V20.2365C130.147 20.1253 130.203 20.0681 130.314 20.0681H131.458C131.569 20.0681 131.624 20.1237 131.624 20.2365V21.4626C131.624 21.5737 131.569 21.6309 131.458 21.6309H130.314Z" fill="#EAEAEA"/>
<path d="M138.565 18.5054C138.341 18.5054 138.19 18.4578 138.11 18.3625C138.033 18.2672 137.993 18.102 137.993 17.8669C137.993 17.5874 138.029 17.4048 138.103 17.3206C138.176 17.2364 138.33 17.1951 138.565 17.1951H140.413C140.637 17.1951 140.806 17.2396 140.917 17.3301C141.028 17.4207 141.084 17.5827 141.084 17.8177C141.084 18.0972 141.031 18.2831 140.925 18.372C140.818 18.4609 140.647 18.507 140.413 18.507H138.565V18.5054Z" fill="#EAEAEA"/>
<path d="M140.413 18.5053C140.189 18.5053 140.021 18.4656 139.91 18.3878C139.799 18.31 139.741 18.1527 139.741 17.9177C139.741 17.6382 139.795 17.4476 139.9 17.3459C140.007 17.2459 140.178 17.1951 140.413 17.1951H141.573C141.852 17.1951 142.057 17.1315 142.187 17.0013C142.316 16.8727 142.379 16.6408 142.379 16.3041V11.7999C142.379 11.6888 142.435 11.6316 142.548 11.6316H143.623C143.734 11.6316 143.791 11.6872 143.791 11.7999V16.3867C143.791 17.1156 143.64 17.6509 143.337 17.9923C143.034 18.3338 142.53 18.5053 141.825 18.5053H140.413Z" fill="#EAEAEA"/>
<path d="M141.067 8.40604H142.211C142.303 8.40604 142.379 8.48069 142.379 8.57439V9.80049C142.379 9.8926 142.305 9.96884 142.211 9.96884H141.069C140.977 9.96884 140.901 9.89419 140.901 9.80049V8.57439C140.901 8.48228 140.975 8.40604 141.069 8.40604H141.067Z" fill="#EAEAEA"/>
<path d="M142.497 7.43558C142.386 7.43558 142.331 7.38 142.331 7.26723V6.04114C142.331 5.92996 142.386 5.87279 142.497 5.87279H143.639C143.75 5.87279 143.808 5.92838 143.808 6.04114V7.26723C143.808 7.37841 143.752 7.43558 143.639 7.43558H142.497Z" fill="#EAEAEA"/>
<path d="M143.959 9.96884C143.847 9.96884 143.792 9.91325 143.792 9.80049V8.57439C143.792 8.46322 143.847 8.40604 143.959 8.40604H145.102C145.213 8.40604 145.269 8.46163 145.269 8.57439V9.80049C145.269 9.91325 145.213 9.96884 145.102 9.96884H143.959Z" fill="#EAEAEA"/>
<path d="M186.256 8.40604H187.399C187.491 8.40604 187.567 8.48069 187.567 8.57439V9.80049C187.567 9.8926 187.493 9.96884 187.399 9.96884H186.257C186.165 9.96884 186.089 9.89419 186.089 9.80049V8.57439C186.089 8.48228 186.163 8.40604 186.257 8.40604H186.256Z" fill="#EAEAEA"/>
<path d="M187.683 7.43558C187.572 7.43558 187.517 7.38 187.517 7.26723V6.04114C187.517 5.92996 187.572 5.87279 187.683 5.87279H188.825C188.936 5.87279 188.994 5.92838 188.994 6.04114V7.26723C188.994 7.37841 188.938 7.43558 188.825 7.43558H187.683Z" fill="#EAEAEA"/>
<path d="M189.146 9.96884C189.035 9.96884 188.979 9.91325 188.979 9.80049V8.57439C188.979 8.46322 189.035 8.40604 189.146 8.40604H190.289C190.401 8.40604 190.456 8.46163 190.456 8.57439V9.80049C190.456 9.91325 190.401 9.96884 190.289 9.96884H189.146Z" fill="#EAEAEA"/>
<path d="M75.5366 8.40604H76.6801C76.7723 8.40604 76.8485 8.48069 76.8485 8.57439V9.80049C76.8485 9.8926 76.7738 9.96884 76.6801 9.96884H75.5382C75.4461 9.96884 75.3699 9.89419 75.3699 9.80049V8.57439C75.3699 8.48228 75.4445 8.40604 75.5382 8.40604H75.5366Z" fill="#EAEAEA"/>
<path d="M76.9645 7.43558C76.8533 7.43558 76.7977 7.38 76.7977 7.26723V6.04114C76.7977 5.92996 76.8533 5.87279 76.9645 5.87279H78.1064C78.2176 5.87279 78.2748 5.92838 78.2748 6.04114V7.26723C78.2748 7.37841 78.2192 7.43558 78.1064 7.43558H76.9645Z" fill="#EAEAEA"/>
<path d="M78.427 9.96884C78.3158 9.96884 78.2603 9.91325 78.2603 9.80049V8.57439C78.2603 8.46322 78.3158 8.40604 78.427 8.40604H79.5705C79.6817 8.40604 79.7373 8.46163 79.7373 8.57439V9.80049C79.7373 9.91325 79.6817 9.96884 79.5705 9.96884H78.427Z" fill="#EAEAEA"/>
<path d="M147.405 21.8485C147.292 21.8485 147.236 21.7929 147.236 21.6802V20.705C147.236 20.5938 147.292 20.5367 147.405 20.5367H149.422C149.646 20.5367 149.852 20.5113 150.044 20.4604C150.235 20.4096 150.4 20.3254 150.54 20.2079C150.68 20.0904 150.789 19.9284 150.867 19.7203C150.945 19.5123 150.985 19.2518 150.985 18.9389V18.5022H149.187C148.693 18.5022 148.248 18.4434 147.851 18.3259C147.452 18.2084 147.114 18.0178 146.835 17.7541C146.555 17.4905 146.342 17.1411 146.196 16.7043C146.05 16.2676 145.979 15.7292 145.979 15.0907C145.979 14.4523 146.063 13.8948 146.231 13.4183C146.398 12.9419 146.631 12.5496 146.928 12.2415C147.225 11.9334 147.57 11.7031 147.962 11.5522C148.354 11.4013 148.775 11.3251 149.222 11.3251C150.219 11.3251 150.997 11.6141 151.558 12.1906C152.117 12.7672 152.398 13.701 152.398 14.9891V18.904C152.398 19.4297 152.328 19.8792 152.188 20.2476C152.049 20.6161 151.853 20.9194 151.601 21.1545C151.348 21.3895 151.043 21.5626 150.684 21.6754C150.325 21.7866 149.928 21.8438 149.492 21.8438H147.408L147.405 21.8485ZM149.218 12.6401C148.647 12.6401 148.199 12.864 147.875 13.3119C147.549 13.7598 147.387 14.3538 147.387 15.0939C147.387 15.8896 147.546 16.4375 147.865 16.7409C148.185 17.0426 148.658 17.1951 149.285 17.1951H150.983V14.9938C150.983 14.2537 150.845 13.6772 150.572 13.2627C150.297 12.8482 149.846 12.6401 149.218 12.6401Z" fill="#EAEAEA"/>
<path d="M162.98 11.3298V10.6071C162.98 10.496 163.036 10.4388 163.148 10.4388H164.224C164.335 10.4388 164.392 10.4944 164.392 10.6071V16.304C164.392 16.6407 164.455 16.8726 164.584 17.0013C164.713 17.1299 164.918 17.195 165.197 17.195H165.937C166.385 17.195 166.609 17.419 166.609 17.8668C166.609 18.1464 166.555 18.3226 166.45 18.3957C166.344 18.4688 166.172 18.5053 165.937 18.5053H164.946C164.397 18.5053 163.969 18.4021 163.661 18.194C163.353 17.9859 163.15 17.6429 163.048 17.1601C162.824 17.3618 162.554 17.5127 162.241 17.6143C161.929 17.7144 161.587 17.7652 161.217 17.7652C160.78 17.7652 160.374 17.7032 159.999 17.581C159.624 17.4587 159.299 17.2697 159.024 17.0187C158.749 16.7678 158.535 16.447 158.377 16.061C158.22 15.6751 158.142 15.2177 158.142 14.692C158.142 14.0647 158.231 13.539 158.411 13.1133C158.59 12.6877 158.825 12.3431 159.116 12.0794C159.408 11.8158 159.746 11.6252 160.132 11.5077C160.518 11.3901 160.92 11.3314 161.335 11.3314H162.982L162.98 11.3298ZM161.233 16.4549C161.871 16.4549 162.322 16.2675 162.586 15.8927C162.85 15.5179 162.982 14.9938 162.982 14.322V12.6416H161.335C160.809 12.6416 160.379 12.7909 160.05 13.0863C159.719 13.3833 159.554 13.9186 159.554 14.6904C159.554 15.2733 159.7 15.7132 159.991 16.0102C160.283 16.3072 160.698 16.4565 161.235 16.4565L161.233 16.4549ZM159.772 9.29688C159.661 9.29688 159.603 9.24129 159.603 9.12853V7.90243C159.603 7.79126 159.659 7.73408 159.772 7.73408H160.914C161.025 7.73408 161.082 7.78967 161.082 7.90243V9.12853C161.082 9.2397 161.027 9.29688 160.914 9.29688H159.772ZM161.822 9.29688C161.709 9.29688 161.654 9.24129 161.654 9.12853V7.90243C161.654 7.79126 161.709 7.73408 161.822 7.73408H162.964C163.075 7.73408 163.131 7.78967 163.131 7.90243V9.12853C163.131 9.2397 163.075 9.29688 162.964 9.29688H161.822Z" fill="#EAEAEA"/>
<path d="M168.912 11.6316H170.408C171.26 11.6316 171.957 11.873 172.5 12.3542C173.043 12.8355 173.315 13.5914 173.315 14.6222V15.6307C173.315 16.1913 173.267 16.6551 173.17 17.0251C173.073 17.3952 172.926 17.689 172.729 17.9066C172.53 18.1258 172.279 18.2798 171.974 18.3688C171.669 18.4577 171.304 18.5038 170.878 18.5038H165.938C165.49 18.5038 165.266 18.2798 165.266 17.832C165.266 17.5524 165.32 17.3761 165.425 17.3031C165.531 17.23 165.703 17.1935 165.938 17.1935H170.356C170.67 17.1935 170.923 17.1681 171.114 17.1173C171.304 17.0664 171.449 16.9823 171.55 16.8647C171.652 16.7472 171.719 16.5932 171.752 16.4026C171.785 16.212 171.803 15.9722 171.803 15.6799V14.6381C171.803 13.5073 171.164 12.9403 169.887 12.9403H167.183C167.072 12.9403 167.014 12.8847 167.014 12.7719V11.8301C167.014 11.7745 167.033 11.7205 167.073 11.6713C167.113 11.6205 167.143 11.584 167.165 11.5617L170.845 7.22592C170.912 7.1481 170.985 7.13062 171.064 7.17509L171.871 7.84691C171.962 7.91361 171.984 7.99302 171.939 8.08196L168.912 11.6268V11.6316Z" fill="#EAEAEA"/>
<path d="M174.392 21.8485C174.279 21.8485 174.223 21.7929 174.223 21.6801V20.705C174.223 20.5938 174.279 20.5366 174.392 20.5366H174.778C175.685 20.5366 176.139 20.0602 176.139 19.1088V11.7999C176.139 11.6888 176.194 11.6316 176.306 11.6316H177.381C177.492 11.6316 177.549 11.6872 177.549 11.7999V16.0515C177.549 16.4327 177.686 16.7186 177.96 16.9092C178.235 17.0998 178.602 17.1951 179.061 17.1951H179.245C179.469 17.1951 179.638 17.2427 179.749 17.338C179.86 17.4333 179.917 17.5937 179.917 17.816C179.917 18.1067 179.863 18.2941 179.758 18.3783C179.652 18.4624 179.48 18.5037 179.245 18.5037H178.893C178.31 18.5037 177.862 18.3243 177.549 17.9653V19.0739C177.549 19.9808 177.319 20.6701 176.86 21.1402C176.401 21.6103 175.727 21.8453 174.843 21.8453H174.389L174.392 21.8485Z" fill="#EAEAEA"/>
<path d="M179.264 18.5054C179.04 18.5054 178.889 18.4578 178.81 18.3625C178.732 18.2672 178.692 18.102 178.692 17.8669C178.692 17.5874 178.729 17.4048 178.802 17.3206C178.875 17.2364 179.029 17.1951 179.264 17.1951H181.113C181.337 17.1951 181.505 17.2396 181.616 17.3301C181.727 17.4207 181.783 17.5827 181.783 17.8177C181.783 18.0972 181.73 18.2831 181.624 18.372C181.518 18.4609 181.346 18.507 181.113 18.507H179.264V18.5054Z" fill="#EAEAEA"/>
<path d="M186.238 18.5052C185.879 18.5052 185.566 18.4322 185.296 18.2861C185.026 18.14 184.819 17.9224 184.673 17.6301C184.394 18.213 183.811 18.5037 182.926 18.5037H181.111C180.887 18.5037 180.719 18.464 180.608 18.3861C180.496 18.3083 180.439 18.1511 180.439 17.916C180.439 17.6365 180.493 17.4459 180.598 17.3443C180.704 17.2442 180.876 17.1934 181.111 17.1934H182.674C182.953 17.1934 183.158 17.1299 183.287 16.9996C183.415 16.871 183.481 16.6391 183.481 16.3024V13.2435C183.481 13.1324 183.536 13.0752 183.647 13.0752H184.724C184.835 13.0752 184.891 13.1308 184.891 13.2435V16.0499C184.891 16.4311 185.026 16.7169 185.294 16.9075C185.563 17.0981 185.922 17.1934 186.37 17.1934H186.79C187.07 17.1934 187.275 17.1299 187.403 16.9996C187.532 16.871 187.596 16.6391 187.596 16.3024V13.2435C187.596 13.1324 187.651 13.0752 187.764 13.0752H188.839C188.95 13.0752 189.008 13.1308 189.008 13.2435V16.0499C189.008 16.4311 189.143 16.7169 189.411 16.9075C189.681 17.0981 190.038 17.1934 190.486 17.1934H190.907C191.187 17.1934 191.391 17.1299 191.52 16.9996C191.649 16.871 191.714 16.6391 191.714 16.3024V11.7983C191.714 11.6871 191.769 11.6299 191.882 11.6299H192.957C193.069 11.6299 193.126 11.6855 193.126 11.7983V16.385C193.126 17.114 192.975 17.6492 192.672 17.9907C192.37 18.3321 191.865 18.5037 191.16 18.5037H190.353C189.994 18.5037 189.681 18.4306 189.411 18.2845C189.143 18.1384 188.935 17.9208 188.788 17.6286C188.509 18.2114 187.926 18.5021 187.041 18.5021H186.235L186.238 18.5052Z" fill="#EAEAEA"/>
<path d="M189.557 39.1068C188.991 39.1068 188.505 38.9692 188.1 38.694C187.704 38.4188 187.424 38.0343 187.262 37.5405C187.198 37.3382 187.149 37.1277 187.117 36.9092C187.084 36.6826 187.068 36.3993 187.068 36.0593C187.068 35.7193 187.084 35.4401 187.117 35.2216C187.149 35.003 187.198 34.7926 187.262 34.5902C187.424 34.0884 187.704 33.7039 188.1 33.4368C188.505 33.1616 188.991 33.024 189.557 33.024C190.124 33.024 190.605 33.1616 191.002 33.4368C191.407 33.7039 191.69 34.0884 191.852 34.5902C191.917 34.7926 191.965 35.003 191.998 35.2216C192.03 35.4401 192.046 35.7193 192.046 36.0593C192.046 36.3993 192.03 36.6826 191.998 36.9092C191.965 37.1277 191.917 37.3382 191.852 37.5405C191.69 38.0343 191.407 38.4188 191.002 38.694C190.605 38.9692 190.124 39.1068 189.557 39.1068ZM189.557 38.1598C189.881 38.1598 190.156 38.0829 190.383 37.9291C190.609 37.7672 190.771 37.5405 190.868 37.2492C190.917 37.0873 190.949 36.9213 190.966 36.7514C190.99 36.5733 191.002 36.3426 191.002 36.0593C191.002 35.776 190.99 35.5494 190.966 35.3794C190.949 35.2094 190.917 35.0435 190.868 34.8816C190.771 34.5902 190.609 34.3676 190.383 34.2138C190.156 34.0519 189.881 33.971 189.557 33.971C189.233 33.971 188.958 34.0519 188.732 34.2138C188.505 34.3676 188.343 34.5902 188.246 34.8816C188.197 35.0435 188.161 35.2094 188.137 35.3794C188.12 35.5494 188.112 35.776 188.112 36.0593C188.112 36.3426 188.12 36.5733 188.137 36.7514C188.161 36.9213 188.197 37.0873 188.246 37.2492C188.343 37.5405 188.505 37.7672 188.732 37.9291C188.958 38.0829 189.233 38.1598 189.557 38.1598Z" fill="#EAEAEA"/>
<path d="M180.495 37.1643C180.455 37.0429 180.418 36.9214 180.386 36.8C180.362 36.6705 180.341 36.5208 180.325 36.3508C180.309 36.1727 180.297 35.9623 180.289 35.7194C180.281 35.4766 180.277 35.1852 180.277 34.8453C180.277 34.5053 180.281 34.2139 180.289 33.9711C180.297 33.7283 180.309 33.5219 180.325 33.3519C180.341 33.1738 180.362 33.0241 180.386 32.9027C180.418 32.7732 180.455 32.6477 180.495 32.5263C180.706 31.8707 181.046 31.385 181.515 31.0693C181.984 30.7456 182.559 30.5837 183.239 30.5837C183.854 30.5837 184.388 30.7294 184.842 31.0208C185.303 31.3041 185.651 31.7128 185.886 32.247C185.91 32.3199 185.894 32.3725 185.837 32.4049L185.109 32.757C185.028 32.7974 184.971 32.7772 184.939 32.6963C184.777 32.3725 184.562 32.1094 184.295 31.9071C184.028 31.6966 183.676 31.5914 183.239 31.5914C182.786 31.5914 182.422 31.6966 182.146 31.9071C181.871 32.1175 181.665 32.417 181.527 32.8055C181.503 32.8946 181.479 32.9917 181.454 33.0969C181.438 33.1941 181.422 33.3195 181.406 33.4733C181.398 33.619 181.39 33.8052 181.381 34.0318C181.373 34.2504 181.369 34.5215 181.369 34.8453C181.369 35.169 181.373 35.4442 181.381 35.6709C181.39 35.8894 181.398 36.0756 181.406 36.2294C181.422 36.3751 181.438 36.5005 181.454 36.6058C181.479 36.711 181.503 36.8041 181.527 36.885C181.665 37.2735 181.871 37.573 182.146 37.7835C182.422 37.9939 182.786 38.0991 183.239 38.0991C183.676 38.0991 184.028 37.998 184.295 37.7956C184.562 37.5852 184.777 37.3181 184.939 36.9943C184.971 36.9133 185.028 36.8931 185.109 36.9336L185.837 37.2857C185.894 37.3181 185.91 37.3707 185.886 37.4435C185.651 37.9777 185.303 38.3905 184.842 38.6819C184.388 38.9652 183.854 39.1069 183.239 39.1069C182.559 39.1069 181.984 38.949 181.515 38.6334C181.046 38.3096 180.706 37.8199 180.495 37.1643Z" fill="#EAEAEA"/>
<path d="M173.094 41.2922C172.681 41.2922 172.289 41.2113 171.917 41.0494C171.552 40.8956 171.273 40.6892 171.079 40.4302C171.03 40.3735 171.034 40.3169 171.091 40.2602L171.589 39.7624C171.645 39.7057 171.706 39.7057 171.771 39.7624C171.973 39.9486 172.18 40.0902 172.39 40.1874C172.609 40.2926 172.859 40.3452 173.143 40.3452C173.628 40.3452 173.993 40.2157 174.235 39.9567C174.486 39.7057 174.612 39.3132 174.612 38.779V38.099H174.6C174.462 38.3419 174.264 38.5361 174.005 38.6818C173.754 38.8275 173.414 38.9004 172.985 38.9004C172.491 38.9004 172.078 38.783 171.747 38.5483C171.415 38.3054 171.176 37.9534 171.03 37.492C170.957 37.2734 170.905 37.0508 170.872 36.8242C170.848 36.5895 170.836 36.3021 170.836 35.9622C170.836 35.6222 170.848 35.3389 170.872 35.1123C170.905 34.8776 170.957 34.6509 171.03 34.4324C171.176 33.971 171.415 33.623 171.747 33.3882C172.078 33.1454 172.491 33.024 172.985 33.024C173.414 33.024 173.754 33.0968 174.005 33.2425C174.264 33.3882 174.462 33.5825 174.6 33.8253H174.612V33.2789C174.612 33.198 174.652 33.1575 174.733 33.1575H175.51C175.591 33.1575 175.632 33.198 175.632 33.2789V38.7183C175.632 39.552 175.413 40.1874 174.976 40.6244C174.547 41.0696 173.92 41.2922 173.094 41.2922ZM173.24 37.9655C173.863 37.9655 174.276 37.6741 174.478 37.0913C174.527 36.9456 174.559 36.7837 174.575 36.6057C174.6 36.4276 174.612 36.2131 174.612 35.9622C174.612 35.7113 174.6 35.5008 174.575 35.3308C174.559 35.1528 174.527 34.9868 174.478 34.833C174.276 34.2583 173.863 33.971 173.24 33.971C172.625 33.971 172.216 34.2583 172.014 34.833C171.965 34.9868 171.929 35.1568 171.904 35.343C171.88 35.521 171.868 35.7274 171.868 35.9622C171.868 36.4235 171.917 36.7999 172.014 37.0913C172.216 37.6741 172.625 37.9655 173.24 37.9655Z" fill="#EAEAEA"/>
<path d="M168.372 38.9732C168.291 38.9732 168.251 38.9327 168.251 38.8518V35.4522C168.251 34.9828 168.141 34.6185 167.923 34.3595C167.712 34.1005 167.389 33.971 166.951 33.971C166.555 33.971 166.231 34.1005 165.98 34.3595C165.737 34.6104 165.616 34.9544 165.616 35.3915V38.8518C165.616 38.9327 165.575 38.9732 165.495 38.9732H164.717C164.637 38.9732 164.596 38.9327 164.596 38.8518V33.2789C164.596 33.198 164.637 33.1575 164.717 33.1575H165.495C165.575 33.1575 165.616 33.198 165.616 33.2789V33.8132H165.628C165.766 33.5865 165.972 33.4004 166.247 33.2547C166.522 33.1009 166.858 33.024 167.255 33.024C167.886 33.024 168.38 33.2223 168.736 33.6189C169.092 34.0155 169.27 34.5457 169.27 35.2094V38.8518C169.27 38.9327 169.23 38.9732 169.149 38.9732H168.372Z" fill="#EAEAEA"/>
<path d="M161.682 31.8464C161.601 31.8464 161.56 31.8059 161.56 31.725V30.8387C161.56 30.7577 161.601 30.7173 161.682 30.7173H162.507C162.588 30.7173 162.629 30.7577 162.629 30.8387V31.725C162.629 31.8059 162.588 31.8464 162.507 31.8464H161.682ZM161.706 38.9734C161.625 38.9734 161.585 38.9329 161.585 38.8519V33.2791C161.585 33.1981 161.625 33.1577 161.706 33.1577H162.483C162.564 33.1577 162.605 33.1981 162.605 33.2791V38.8519C162.605 38.9329 162.564 38.9734 162.483 38.9734H161.706Z" fill="#EAEAEA"/>
<path d="M159.43 39.034C158.864 39.034 158.459 38.9045 158.216 38.6455C157.981 38.3784 157.864 37.9575 157.864 37.3828V34.0561C157.864 34.0075 157.84 33.9832 157.791 33.9832H157.306C157.225 33.9832 157.184 33.9427 157.184 33.8618V33.279C157.184 33.1981 157.225 33.1576 157.306 33.1576H157.791C157.84 33.1576 157.864 33.1333 157.864 33.0848V31.4457C157.864 31.3647 157.905 31.3243 157.986 31.3243H158.763C158.844 31.3243 158.884 31.3647 158.884 31.4457V33.0848C158.884 33.1333 158.908 33.1576 158.957 33.1576H159.88C159.961 33.1576 160.001 33.1981 160.001 33.279V33.8618C160.001 33.9427 159.961 33.9832 159.88 33.9832H158.957C158.908 33.9832 158.884 34.0075 158.884 34.0561V37.3464C158.884 37.6377 158.941 37.836 159.054 37.9413C159.175 38.0384 159.366 38.087 159.625 38.087H159.88C159.961 38.087 160.001 38.1274 160.001 38.2084V38.9126C160.001 38.9935 159.961 39.034 159.88 39.034H159.43Z" fill="#EAEAEA"/>
<path d="M155.831 39.0341C155.321 39.0341 154.957 38.9126 154.738 38.6698C154.52 38.4189 154.41 38.0304 154.41 37.5043V30.8387C154.41 30.7577 154.451 30.7173 154.532 30.7173H155.309C155.39 30.7173 155.43 30.7577 155.43 30.8387V37.4435C155.43 37.6864 155.475 37.8564 155.564 37.9535C155.661 38.0425 155.811 38.087 156.013 38.087H156.244C156.325 38.087 156.365 38.1275 156.365 38.2085V38.9126C156.365 38.9936 156.325 39.0341 156.244 39.0341H155.831Z" fill="#EAEAEA"/>
<path d="M151.544 38.9733C151.463 38.9733 151.423 38.9328 151.423 38.8518V38.3055H151.411C151.257 38.5483 151.047 38.7426 150.779 38.8883C150.52 39.034 150.201 39.1068 149.82 39.1068C149.181 39.1068 148.683 38.9085 148.327 38.5119C147.979 38.1072 147.805 37.573 147.805 36.9092V33.279C147.805 33.198 147.845 33.1576 147.926 33.1576H148.703C148.784 33.1576 148.825 33.198 148.825 33.279V36.6664C148.825 37.144 148.93 37.5123 149.14 37.7713C149.351 38.0303 149.675 38.1598 150.112 38.1598C150.508 38.1598 150.824 38.0303 151.059 37.7713C151.302 37.5123 151.423 37.1642 151.423 36.7271V33.279C151.423 33.198 151.463 33.1576 151.544 33.1576H152.321C152.402 33.1576 152.443 33.198 152.443 33.279V38.8518C152.443 38.9328 152.402 38.9733 152.321 38.9733H151.544Z" fill="#EAEAEA"/>
<path d="M143.941 39.1068C143.658 39.1068 143.395 39.0784 143.152 39.0218C142.909 38.9732 142.687 38.9085 142.485 38.8275C142.29 38.7385 142.112 38.6454 141.95 38.5483C141.797 38.443 141.659 38.3378 141.537 38.2326C141.481 38.1759 141.481 38.1193 141.537 38.0626L142.035 37.5284C142.092 37.4717 142.149 37.4717 142.205 37.5284C142.424 37.7146 142.687 37.8724 142.994 38.0019C143.31 38.1314 143.646 38.1962 144.002 38.1962C144.431 38.1962 144.751 38.1152 144.961 37.9533C145.172 37.7834 145.277 37.5689 145.277 37.3099C145.277 37.0832 145.2 36.9052 145.046 36.7756C144.901 36.638 144.601 36.545 144.148 36.4964L143.529 36.4357C142.954 36.3709 142.521 36.201 142.23 35.9258C141.938 35.6505 141.792 35.2742 141.792 34.7966C141.792 34.2381 141.979 33.8051 142.351 33.4975C142.731 33.1818 143.266 33.024 143.954 33.024C144.383 33.024 144.771 33.0847 145.119 33.2061C145.475 33.3275 145.775 33.4813 146.018 33.6675C146.082 33.7079 146.09 33.7646 146.042 33.8374L145.629 34.3595C145.581 34.4162 145.524 34.4243 145.459 34.3838C145.273 34.2624 145.038 34.1531 144.755 34.056C144.48 33.9589 144.192 33.9103 143.893 33.9103C143.529 33.9103 143.253 33.9872 143.067 34.141C142.881 34.2867 142.788 34.4769 142.788 34.7116C142.788 34.9464 142.869 35.1285 143.031 35.258C143.193 35.3794 143.492 35.4603 143.929 35.5008L144.536 35.5615C145.127 35.6182 145.564 35.7881 145.848 36.0714C146.139 36.3547 146.285 36.7311 146.285 37.2006C146.285 37.7753 146.082 38.2366 145.678 38.5847C145.281 38.9327 144.702 39.1068 143.941 39.1068Z" fill="#EAEAEA"/>
<path d="M139.11 38.9732C139.029 38.9732 138.988 38.9327 138.988 38.8518V35.4522C138.988 34.9828 138.879 34.6185 138.66 34.3595C138.45 34.1005 138.126 33.971 137.689 33.971C137.293 33.971 136.969 34.1005 136.718 34.3595C136.475 34.6104 136.354 34.9544 136.354 35.3915V38.8518C136.354 38.9327 136.313 38.9732 136.232 38.9732H135.455C135.374 38.9732 135.334 38.9327 135.334 38.8518V33.2789C135.334 33.198 135.374 33.1575 135.455 33.1575H136.232C136.313 33.1575 136.354 33.198 136.354 33.2789V33.8132H136.366C136.503 33.5865 136.71 33.4004 136.985 33.2547C137.26 33.1009 137.596 33.024 137.993 33.024C138.624 33.024 139.118 33.2223 139.474 33.6189C139.83 34.0155 140.008 34.5457 140.008 35.2094V38.8518C140.008 38.9327 139.968 38.9732 139.887 38.9732H139.11Z" fill="#EAEAEA"/>
<path d="M131.21 39.1068C130.644 39.1068 130.158 38.9692 129.753 38.694C129.357 38.4188 129.078 38.0343 128.916 37.5405C128.851 37.3382 128.802 37.1277 128.77 36.9092C128.738 36.6826 128.721 36.3993 128.721 36.0593C128.721 35.7193 128.738 35.4401 128.77 35.2216C128.802 35.003 128.851 34.7926 128.916 34.5902C129.078 34.0884 129.357 33.7039 129.753 33.4368C130.158 33.1616 130.644 33.024 131.21 33.024C131.777 33.024 132.259 33.1616 132.655 33.4368C133.06 33.7039 133.343 34.0884 133.505 34.5902C133.57 34.7926 133.618 35.003 133.651 35.2216C133.683 35.4401 133.699 35.7193 133.699 36.0593C133.699 36.3993 133.683 36.6826 133.651 36.9092C133.618 37.1277 133.57 37.3382 133.505 37.5405C133.343 38.0343 133.06 38.4188 132.655 38.694C132.259 38.9692 131.777 39.1068 131.21 39.1068ZM131.21 38.1598C131.534 38.1598 131.809 38.0829 132.036 37.9291C132.263 37.7672 132.425 37.5405 132.522 37.2492C132.57 37.0873 132.603 36.9213 132.619 36.7514C132.643 36.5733 132.655 36.3426 132.655 36.0593C132.655 35.776 132.643 35.5494 132.619 35.3794C132.603 35.2094 132.57 35.0435 132.522 34.8816C132.425 34.5902 132.263 34.3676 132.036 34.2138C131.809 34.0519 131.534 33.971 131.21 33.971C130.887 33.971 130.611 34.0519 130.385 34.2138C130.158 34.3676 129.996 34.5902 129.899 34.8816C129.851 35.0435 129.814 35.2094 129.79 35.3794C129.774 35.5494 129.766 35.776 129.766 36.0593C129.766 36.3426 129.774 36.5733 129.79 36.7514C129.814 36.9213 129.851 37.0873 129.899 37.2492C129.996 37.5405 130.158 37.7672 130.385 37.9291C130.611 38.0829 130.887 38.1598 131.21 38.1598Z" fill="#EAEAEA"/>
<path d="M122.148 37.1643C122.107 37.0429 122.071 36.9214 122.038 36.8C122.014 36.6705 121.994 36.5208 121.978 36.3508C121.962 36.1727 121.949 35.9623 121.941 35.7194C121.933 35.4766 121.929 35.1852 121.929 34.8453C121.929 34.5053 121.933 34.2139 121.941 33.9711C121.949 33.7283 121.962 33.5219 121.978 33.3519C121.994 33.1738 122.014 33.0241 122.038 32.9027C122.071 32.7732 122.107 32.6477 122.148 32.5263C122.358 31.8707 122.698 31.385 123.168 31.0693C123.637 30.7456 124.212 30.5837 124.892 30.5837C125.507 30.5837 126.041 30.7294 126.494 31.0208C126.956 31.3041 127.304 31.7128 127.538 32.247C127.563 32.3199 127.547 32.3725 127.49 32.4049L126.761 32.757C126.68 32.7974 126.624 32.7772 126.591 32.6963C126.43 32.3725 126.215 32.1094 125.948 31.9071C125.681 31.6966 125.329 31.5914 124.892 31.5914C124.438 31.5914 124.074 31.6966 123.799 31.9071C123.524 32.1175 123.317 32.417 123.18 32.8055C123.155 32.8946 123.131 32.9917 123.107 33.0969C123.091 33.1941 123.075 33.3195 123.058 33.4733C123.05 33.619 123.042 33.8052 123.034 34.0318C123.026 34.2504 123.022 34.5215 123.022 34.8453C123.022 35.169 123.026 35.4442 123.034 35.6709C123.042 35.8894 123.05 36.0756 123.058 36.2294C123.075 36.3751 123.091 36.5005 123.107 36.6058C123.131 36.711 123.155 36.8041 123.18 36.885C123.317 37.2735 123.524 37.573 123.799 37.7835C124.074 37.9939 124.438 38.0991 124.892 38.0991C125.329 38.0991 125.681 37.998 125.948 37.7956C126.215 37.5852 126.43 37.3181 126.591 36.9943C126.624 36.9133 126.68 36.8931 126.761 36.9336L127.49 37.2857C127.547 37.3181 127.563 37.3707 127.538 37.4435C127.304 37.9777 126.956 38.3905 126.494 38.6819C126.041 38.9652 125.507 39.1069 124.892 39.1069C124.212 39.1069 123.637 38.949 123.168 38.6334C122.698 38.3096 122.358 37.8199 122.148 37.1643Z" fill="#EAEAEA"/>
<path d="M117.308 39.0341C116.799 39.0341 116.434 38.9126 116.216 38.6698C115.997 38.4189 115.888 38.0304 115.888 37.5043V30.8387C115.888 30.7577 115.928 30.7173 116.009 30.7173H116.786C116.867 30.7173 116.908 30.7577 116.908 30.8387V37.4435C116.908 37.6864 116.952 37.8564 117.041 37.9535C117.138 38.0425 117.288 38.087 117.491 38.087H117.721C117.802 38.087 117.843 38.1275 117.843 38.2085V38.9126C117.843 38.9936 117.802 39.0341 117.721 39.0341H117.308Z" fill="#EAEAEA"/>
<path d="M113.137 38.9732C113.056 38.9732 113.016 38.9327 113.016 38.8518V38.3419H113.004C112.866 38.5604 112.656 38.7425 112.372 38.8882C112.089 39.0339 111.725 39.1068 111.28 39.1068C111.004 39.1068 110.745 39.0704 110.503 38.9975C110.268 38.9247 110.062 38.8154 109.883 38.6697C109.713 38.524 109.576 38.3419 109.471 38.1233C109.374 37.9048 109.325 37.6498 109.325 37.3584C109.325 36.7433 109.523 36.29 109.92 35.9986C110.325 35.7072 110.883 35.5615 111.595 35.5615H112.919C112.967 35.5615 112.992 35.5372 112.992 35.4887V35.0637C112.992 34.659 112.894 34.3676 112.7 34.1895C112.506 34.0115 112.138 33.9224 111.595 33.9224C111.264 33.9224 110.988 33.9629 110.77 34.0438C110.551 34.1167 110.357 34.2138 110.187 34.3352C110.114 34.3919 110.057 34.3879 110.017 34.3231L109.689 33.7646C109.657 33.6998 109.665 33.6432 109.713 33.5946C109.932 33.4246 110.207 33.287 110.539 33.1818C110.871 33.0766 111.255 33.024 111.693 33.024C112.518 33.024 113.105 33.1778 113.453 33.4853C113.801 33.7848 113.975 34.2907 113.975 35.003V38.8518C113.975 38.9327 113.935 38.9732 113.854 38.9732H113.137ZM111.523 38.2326C111.984 38.2326 112.344 38.1355 112.603 37.9412C112.862 37.7389 112.992 37.4556 112.992 37.0913V36.4478C112.992 36.3993 112.967 36.375 112.919 36.375H111.753C111.243 36.375 110.875 36.4519 110.648 36.6057C110.422 36.7514 110.308 36.9901 110.308 37.322C110.308 37.6215 110.414 37.8481 110.624 38.0019C110.835 38.1557 111.134 38.2326 111.523 38.2326Z" fill="#EAEAEA"/>
<path d="M107.463 39.034C106.896 39.034 106.491 38.9045 106.249 38.6455C106.014 38.3784 105.896 37.9575 105.896 37.3828V34.0561C105.896 34.0075 105.872 33.9832 105.824 33.9832H105.338C105.257 33.9832 105.217 33.9427 105.217 33.8618V33.279C105.217 33.1981 105.257 33.1576 105.338 33.1576H105.824C105.872 33.1576 105.896 33.1333 105.896 33.0848V31.4457C105.896 31.3647 105.937 31.3243 106.018 31.3243H106.795C106.876 31.3243 106.916 31.3647 106.916 31.4457V33.0848C106.916 33.1333 106.941 33.1576 106.989 33.1576H107.912C107.993 33.1576 108.033 33.1981 108.033 33.279V33.8618C108.033 33.9427 107.993 33.9832 107.912 33.9832H106.989C106.941 33.9832 106.916 34.0075 106.916 34.0561V37.3464C106.916 37.6377 106.973 37.836 107.086 37.9413C107.208 38.0384 107.398 38.087 107.657 38.087H107.912C107.993 38.087 108.033 38.1274 108.033 38.2084V38.9126C108.033 38.9935 107.993 39.034 107.912 39.034H107.463Z" fill="#EAEAEA"/>
<path d="M102.947 38.9732C102.866 38.9732 102.825 38.9327 102.825 38.8518V35.4522C102.825 34.9828 102.716 34.6185 102.497 34.3595C102.287 34.1005 101.963 33.971 101.526 33.971C101.129 33.971 100.806 34.1005 100.555 34.3595C100.312 34.6104 100.191 34.9544 100.191 35.3915V38.8518C100.191 38.9327 100.15 38.9732 100.069 38.9732H99.2921C99.2111 38.9732 99.1707 38.9327 99.1707 38.8518V33.2789C99.1707 33.198 99.2111 33.1575 99.2921 33.1575H100.069C100.15 33.1575 100.191 33.198 100.191 33.2789V33.8132H100.203C100.34 33.5865 100.547 33.4004 100.822 33.2547C101.097 33.1009 101.433 33.024 101.83 33.024C102.461 33.024 102.955 33.2223 103.311 33.6189C103.667 34.0155 103.845 34.5457 103.845 35.2094V38.8518C103.845 38.9327 103.805 38.9732 103.724 38.9732H102.947Z" fill="#EAEAEA"/>
<path d="M95.131 39.1068C94.5401 39.1068 94.0423 38.9732 93.6376 38.7061C93.241 38.4309 92.9617 38.0383 92.7999 37.5284C92.7351 37.3422 92.6865 37.1358 92.6542 36.9092C92.6218 36.6826 92.6056 36.3993 92.6056 36.0593C92.6056 35.7193 92.6177 35.4361 92.642 35.2094C92.6744 34.9747 92.723 34.7683 92.7877 34.5902C92.9496 34.0803 93.2288 33.6918 93.6255 33.4246C94.0302 33.1575 94.5118 33.024 95.0703 33.024C95.6288 33.024 96.1063 33.1616 96.5029 33.4368C96.9077 33.7039 97.191 34.0884 97.3528 34.5902C97.3852 34.6873 97.4095 34.7885 97.4257 34.8937C97.45 34.9909 97.4702 35.1042 97.4864 35.2337C97.5026 35.3632 97.5147 35.5129 97.5228 35.6829C97.5309 35.8448 97.535 36.035 97.535 36.2536C97.535 36.3345 97.4904 36.375 97.4014 36.375H93.7226C93.674 36.375 93.6497 36.3993 93.6497 36.4478C93.6497 36.6097 93.6578 36.7433 93.674 36.8485C93.6902 36.9537 93.7145 37.0549 93.7469 37.152C93.8602 37.492 94.0423 37.7469 94.2932 37.9169C94.5442 38.0788 94.8517 38.1598 95.216 38.1598C95.564 38.1598 95.8595 38.099 96.1023 37.9776C96.3451 37.8562 96.5475 37.7024 96.7094 37.5163C96.7741 37.4515 96.8348 37.4434 96.8915 37.492L97.3893 37.9412C97.4459 37.9898 97.45 38.0464 97.4014 38.1112C97.1667 38.4026 96.855 38.6414 96.4665 38.8275C96.0861 39.0137 95.6409 39.1068 95.131 39.1068ZM96.418 35.5615C96.4665 35.5615 96.4908 35.5372 96.4908 35.4887C96.4908 35.2216 96.4625 35.003 96.4058 34.833C96.3087 34.5416 96.1428 34.3191 95.908 34.1653C95.6814 34.0034 95.4021 33.9224 95.0703 33.9224C94.7384 33.9224 94.4551 34.0034 94.2204 34.1653C93.9937 34.3191 93.8319 34.5416 93.7347 34.833C93.6781 35.003 93.6497 35.2216 93.6497 35.4887C93.6497 35.5372 93.674 35.5615 93.7226 35.5615H96.418Z" fill="#EAEAEA"/>
<path d="M90.1323 38.9732C90.0513 38.9732 90.0109 38.9327 90.0109 38.8518V35.4522C90.0109 34.9828 89.9016 34.6185 89.683 34.3595C89.4726 34.1005 89.1488 33.971 88.7117 33.971C88.3232 33.971 88.0035 34.1005 87.7526 34.3595C87.5016 34.6104 87.3762 34.9544 87.3762 35.3915V38.8518C87.3762 38.9327 87.3357 38.9732 87.2548 38.9732H86.4777C86.3968 38.9732 86.3563 38.9327 86.3563 38.8518V35.4522C86.3563 34.9828 86.247 34.6185 86.0285 34.3595C85.8181 34.1005 85.4943 33.971 85.0572 33.971C84.6606 33.971 84.3368 34.1005 84.0859 34.3595C83.8431 34.6104 83.7216 34.9544 83.7216 35.3915V38.8518C83.7216 38.9327 83.6812 38.9732 83.6002 38.9732H82.8232C82.7423 38.9732 82.7018 38.9327 82.7018 38.8518V33.2789C82.7018 33.198 82.7423 33.1575 82.8232 33.1575H83.6002C83.6812 33.1575 83.7216 33.198 83.7216 33.2789V33.8132H83.7338C83.8714 33.5865 84.0778 33.4004 84.353 33.2547C84.6282 33.1009 84.9641 33.024 85.3607 33.024C85.7573 33.024 86.0973 33.1049 86.3806 33.2668C86.672 33.4206 86.8986 33.6432 87.0605 33.9346H87.0727C87.275 33.6513 87.5259 33.4287 87.8254 33.2668C88.133 33.1049 88.5094 33.024 88.9546 33.024C89.6345 33.024 90.1485 33.2223 90.4965 33.6189C90.8526 34.0155 91.0307 34.5457 91.0307 35.2094V38.8518C91.0307 38.9327 90.9902 38.9732 90.9093 38.9732H90.1323Z" fill="#EAEAEA"/>
<path d="M79.8735 38.9732C79.7925 38.9732 79.7521 38.9327 79.7521 38.8518V35.4522C79.7521 34.9828 79.6428 34.6185 79.4243 34.3595C79.2138 34.1005 78.89 33.971 78.453 33.971C78.0563 33.971 77.7326 34.1005 77.4816 34.3595C77.2388 34.6104 77.1174 34.9544 77.1174 35.3915V38.8518C77.1174 38.9327 77.0769 38.9732 76.996 38.9732H76.219C76.138 38.9732 76.0975 38.9327 76.0975 38.8518V33.2789C76.0975 33.198 76.138 33.1575 76.219 33.1575H76.996C77.0769 33.1575 77.1174 33.198 77.1174 33.2789V33.8132H77.1295C77.2671 33.5865 77.4736 33.4004 77.7488 33.2547C78.024 33.1009 78.3599 33.024 78.7565 33.024C79.3878 33.024 79.8816 33.2223 80.2377 33.6189C80.5939 34.0155 80.7719 34.5457 80.7719 35.2094V38.8518C80.7719 38.9327 80.7315 38.9732 80.6505 38.9732H79.8735Z" fill="#EAEAEA"/>
<path d="M71.9742 39.1068C71.4076 39.1068 70.922 38.9692 70.5172 38.694C70.1206 38.4188 69.8414 38.0343 69.6795 37.5405C69.6147 37.3382 69.5662 37.1277 69.5338 36.9092C69.5014 36.6826 69.4852 36.3993 69.4852 36.0593C69.4852 35.7193 69.5014 35.4401 69.5338 35.2216C69.5662 35.003 69.6147 34.7926 69.6795 34.5902C69.8414 34.0884 70.1206 33.7039 70.5172 33.4368C70.922 33.1616 71.4076 33.024 71.9742 33.024C72.5408 33.024 73.0224 33.1616 73.419 33.4368C73.8237 33.7039 74.107 34.0884 74.2689 34.5902C74.3337 34.7926 74.3822 35.003 74.4146 35.2216C74.447 35.4401 74.4632 35.7193 74.4632 36.0593C74.4632 36.3993 74.447 36.6826 74.4146 36.9092C74.3822 37.1277 74.3337 37.3382 74.2689 37.5405C74.107 38.0343 73.8237 38.4188 73.419 38.694C73.0224 38.9692 72.5408 39.1068 71.9742 39.1068ZM71.9742 38.1598C72.298 38.1598 72.5732 38.0829 72.7998 37.9291C73.0264 37.7672 73.1883 37.5405 73.2855 37.2492C73.334 37.0873 73.3664 36.9213 73.3826 36.7514C73.4069 36.5733 73.419 36.3426 73.419 36.0593C73.419 35.776 73.4069 35.5494 73.3826 35.3794C73.3664 35.2094 73.334 35.0435 73.2855 34.8816C73.1883 34.5902 73.0264 34.3676 72.7998 34.2138C72.5732 34.0519 72.298 33.971 71.9742 33.971C71.6504 33.971 71.3752 34.0519 71.1486 34.2138C70.922 34.3676 70.7601 34.5902 70.6629 34.8816C70.6144 35.0435 70.5779 35.2094 70.5537 35.3794C70.5375 35.5494 70.5294 35.776 70.5294 36.0593C70.5294 36.3426 70.5375 36.5733 70.5537 36.7514C70.5779 36.9213 70.6144 37.0873 70.6629 37.2492C70.7601 37.5405 70.922 37.7672 71.1486 37.9291C71.3752 38.0829 71.6504 38.1598 71.9742 38.1598Z" fill="#EAEAEA"/>
<path d="M64.9785 38.9732C64.8975 38.9732 64.8571 38.9327 64.8571 38.8518V33.2789C64.8571 33.198 64.8975 33.1575 64.9785 33.1575H65.7555C65.8365 33.1575 65.8769 33.198 65.8769 33.2789V33.8739H65.8891C66.0186 33.623 66.2088 33.4206 66.4597 33.2668C66.7187 33.1049 67.0425 33.024 67.431 33.024C67.6657 33.024 67.8843 33.0645 68.0866 33.1454C68.2971 33.2182 68.4752 33.3235 68.6209 33.4611C68.6775 33.5177 68.6856 33.5744 68.6451 33.631L68.1959 34.226C68.1474 34.2907 68.0907 34.2988 68.0259 34.2503C67.8883 34.1612 67.7467 34.0924 67.601 34.0438C67.4553 33.9953 67.2975 33.971 67.1275 33.971C66.6823 33.971 66.3626 34.1288 66.1683 34.4445C65.9741 34.7521 65.8769 35.1608 65.8769 35.6708V38.8518C65.8769 38.9327 65.8365 38.9732 65.7555 38.9732H64.9785Z" fill="#EAEAEA"/>
<path d="M61.943 31.8464C61.862 31.8464 61.8215 31.8059 61.8215 31.725V30.8387C61.8215 30.7577 61.862 30.7173 61.943 30.7173H62.7686C62.8495 30.7173 62.89 30.7577 62.89 30.8387V31.725C62.89 31.8059 62.8495 31.8464 62.7686 31.8464H61.943ZM61.9672 38.9734C61.8863 38.9734 61.8458 38.9329 61.8458 38.8519V33.2791C61.8458 33.1981 61.8863 33.1577 61.9672 33.1577H62.7443C62.8252 33.1577 62.8657 33.1981 62.8657 33.2791V38.8519C62.8657 38.9329 62.8252 38.9734 62.7443 38.9734H61.9672Z" fill="#EAEAEA"/>
<path d="M57.6135 38.9733C57.5407 38.9733 57.4921 38.9328 57.4678 38.8518L55.3795 33.279C55.3552 33.198 55.3876 33.1576 55.4766 33.1576H56.3144C56.3872 33.1576 56.4399 33.198 56.4722 33.279L57.9777 37.4556H58.002L59.4711 33.279C59.4954 33.198 59.544 33.1576 59.6168 33.1576H60.4424C60.5315 33.1576 60.5638 33.198 60.5396 33.279L58.4634 38.8518C58.4391 38.9328 58.3865 38.9733 58.3056 38.9733H57.6135Z" fill="#EAEAEA"/>
<path d="M53.3143 38.9732C53.2333 38.9732 53.1929 38.9327 53.1929 38.8518V35.4522C53.1929 34.9828 53.0836 34.6185 52.8651 34.3595C52.6546 34.1005 52.3308 33.971 51.8937 33.971C51.4971 33.971 51.1734 34.1005 50.9224 34.3595C50.6796 34.6104 50.5582 34.9544 50.5582 35.3915V38.8518C50.5582 38.9327 50.5177 38.9732 50.4368 38.9732H49.6597C49.5788 38.9732 49.5383 38.9327 49.5383 38.8518V33.2789C49.5383 33.198 49.5788 33.1575 49.6597 33.1575H50.4368C50.5177 33.1575 50.5582 33.198 50.5582 33.2789V33.8132H50.5703C50.7079 33.5865 50.9143 33.4004 51.1895 33.2547C51.4648 33.1009 51.8007 33.024 52.1973 33.024C52.8286 33.024 53.3224 33.2223 53.6785 33.6189C54.0347 34.0155 54.2127 34.5457 54.2127 35.2094V38.8518C54.2127 38.9327 54.1723 38.9732 54.0913 38.9732H53.3143Z" fill="#EAEAEA"/>
<path d="M42.7214 30.8387C42.7214 30.7577 42.7619 30.7173 42.8429 30.7173H47.8086C47.8896 30.7173 47.9301 30.7577 47.9301 30.8387V31.6036C47.9301 31.6845 47.8896 31.725 47.8086 31.725H43.8749C43.8263 31.725 43.802 31.7493 43.802 31.7978V34.2261C43.802 34.2747 43.8263 34.299 43.8749 34.299H47.2137C47.2947 34.299 47.3351 34.3394 47.3351 34.4204V35.1853C47.3351 35.2662 47.2947 35.3067 47.2137 35.3067H43.8749C43.8263 35.3067 43.802 35.331 43.802 35.3795V37.8928C43.802 37.9413 43.8263 37.9656 43.8749 37.9656H47.8086C47.8896 37.9656 47.9301 38.0061 47.9301 38.087V38.8519C47.9301 38.9329 47.8896 38.9734 47.8086 38.9734H42.8429C42.7619 38.9734 42.7214 38.9329 42.7214 38.8519V30.8387Z" fill="#EAEAEA"/>
<path d="M33.3688 38.9734C33.2879 38.9734 33.2474 38.9329 33.2474 38.8519V30.8387C33.2474 30.7577 33.2879 30.7173 33.3688 30.7173H34.1459C34.2268 30.7173 34.2673 30.7577 34.2673 30.8387V33.8254H34.2794C34.417 33.5907 34.6154 33.4005 34.8744 33.2548C35.1415 33.101 35.4936 33.0241 35.9307 33.0241C36.4406 33.0241 36.8655 33.1415 37.2055 33.3762C37.5455 33.6109 37.7883 33.959 37.934 34.4204C38.0149 34.6551 38.0675 34.8979 38.0918 35.1488C38.1242 35.3917 38.1404 35.6952 38.1404 36.0594C38.1404 36.4237 38.1242 36.7313 38.0918 36.9822C38.0675 37.2331 38.0149 37.4759 37.934 37.7107C37.7883 38.172 37.5455 38.5201 37.2055 38.7548C36.8655 38.9895 36.4406 39.1069 35.9307 39.1069C35.4936 39.1069 35.1415 39.03 34.8744 38.8762C34.6154 38.7224 34.417 38.5282 34.2794 38.2934H34.2673V38.8519C34.2673 38.9329 34.2268 38.9734 34.1459 38.9734H33.3688ZM35.6878 38.1599C36.3354 38.1599 36.7603 37.8644 36.9627 37.2736C37.0112 37.1198 37.0436 36.9458 37.0598 36.7515C37.0841 36.5572 37.0962 36.3265 37.0962 36.0594C37.0962 35.8004 37.0841 35.5738 37.0598 35.3795C37.0436 35.1853 37.0112 35.0072 36.9627 34.8453C36.7603 34.2625 36.3354 33.9711 35.6878 33.9711C35.0241 33.9711 34.5951 34.2625 34.4009 34.8453C34.3523 34.991 34.3159 35.1569 34.2916 35.3431C34.2754 35.5293 34.2673 35.768 34.2673 36.0594C34.2673 36.3508 34.2754 36.5937 34.2916 36.7879C34.3159 36.9741 34.3523 37.136 34.4009 37.2736C34.5951 37.8644 35.0241 38.1599 35.6878 38.1599Z" fill="#EAEAEA"/>
<path d="M29.2079 39.1068C28.617 39.1068 28.1192 38.9732 27.7145 38.7061C27.3179 38.4309 27.0386 38.0383 26.8768 37.5284C26.812 37.3422 26.7634 37.1358 26.7311 36.9092C26.6987 36.6826 26.6825 36.3993 26.6825 36.0593C26.6825 35.7193 26.6946 35.4361 26.7189 35.2094C26.7513 34.9747 26.7999 34.7683 26.8646 34.5902C27.0265 34.0803 27.3057 33.6918 27.7024 33.4246C28.1071 33.1575 28.5887 33.024 29.1472 33.024C29.7057 33.024 30.1832 33.1616 30.5799 33.4368C30.9846 33.7039 31.2679 34.0884 31.4297 34.5902C31.4621 34.6873 31.4864 34.7885 31.5026 34.8937C31.5269 34.9909 31.5471 35.1042 31.5633 35.2337C31.5795 35.3632 31.5916 35.5129 31.5997 35.6829C31.6078 35.8448 31.6119 36.035 31.6119 36.2536C31.6119 36.3345 31.5673 36.375 31.4783 36.375H27.7995C27.7509 36.375 27.7266 36.3993 27.7266 36.4478C27.7266 36.6097 27.7347 36.7433 27.7509 36.8485C27.7671 36.9537 27.7914 37.0549 27.8238 37.152C27.9371 37.492 28.1192 37.7469 28.3701 37.9169C28.6211 38.0788 28.9286 38.1598 29.2929 38.1598C29.6409 38.1598 29.9364 38.099 30.1792 37.9776C30.422 37.8562 30.6244 37.7024 30.7863 37.5163C30.851 37.4515 30.9117 37.4434 30.9684 37.492L31.4662 37.9412C31.5228 37.9898 31.5269 38.0464 31.4783 38.1112C31.2436 38.4026 30.932 38.6414 30.5434 38.8275C30.163 39.0137 29.7178 39.1068 29.2079 39.1068ZM30.4949 35.5615C30.5434 35.5615 30.5677 35.5372 30.5677 35.4887C30.5677 35.2216 30.5394 35.003 30.4827 34.833C30.3856 34.5416 30.2197 34.3191 29.9849 34.1653C29.7583 34.0034 29.479 33.9224 29.1472 33.9224C28.8153 33.9224 28.532 34.0034 28.2973 34.1653C28.0706 34.3191 27.9088 34.5416 27.8116 34.833C27.755 35.003 27.7266 35.2216 27.7266 35.4887C27.7266 35.5372 27.7509 35.5615 27.7995 35.5615H30.4949Z" fill="#EAEAEA"/>
<path d="M24.2059 38.9734C24.1249 38.9734 24.0845 38.9329 24.0845 38.8519V35.4524C24.0845 34.9829 23.9752 34.6187 23.7566 34.3597C23.5462 34.1006 23.2224 33.9711 22.7853 33.9711C22.3887 33.9711 22.065 34.1006 21.814 34.3597C21.5712 34.6106 21.4498 34.9546 21.4498 35.3917V38.8519C21.4498 38.9329 21.4093 38.9734 21.3284 38.9734H20.5513C20.4704 38.9734 20.4299 38.9329 20.4299 38.8519V30.8387C20.4299 30.7577 20.4704 30.7173 20.5513 30.7173H21.3284C21.4093 30.7173 21.4498 30.7577 21.4498 30.8387V33.8133H21.4619C21.5995 33.5867 21.8059 33.4005 22.0812 33.2548C22.3564 33.101 22.6923 33.0241 23.0889 33.0241C23.7202 33.0241 24.214 33.2224 24.5701 33.619C24.9263 34.0157 25.1043 34.5458 25.1043 35.2095V38.8519C25.1043 38.9329 25.0639 38.9734 24.9829 38.9734H24.2059Z" fill="#EAEAEA"/>
<path d="M18.2758 39.034C17.7092 39.034 17.3045 38.9045 17.0617 38.6455C16.8269 38.3784 16.7096 37.9575 16.7096 37.3828V34.0561C16.7096 34.0075 16.6853 33.9832 16.6367 33.9832H16.1511C16.0701 33.9832 16.0297 33.9427 16.0297 33.8618V33.279C16.0297 33.1981 16.0701 33.1576 16.1511 33.1576H16.6367C16.6853 33.1576 16.7096 33.1333 16.7096 33.0848V31.4457C16.7096 31.3647 16.75 31.3243 16.831 31.3243H17.608C17.689 31.3243 17.7294 31.3647 17.7294 31.4457V33.0848C17.7294 33.1333 17.7537 33.1576 17.8023 33.1576H18.725C18.806 33.1576 18.8464 33.1981 18.8464 33.279V33.8618C18.8464 33.9427 18.806 33.9832 18.725 33.9832H17.8023C17.7537 33.9832 17.7294 34.0075 17.7294 34.0561V37.3464C17.7294 37.6377 17.7861 37.836 17.8994 37.9413C18.0208 38.0384 18.2111 38.087 18.4701 38.087H18.725C18.806 38.087 18.8464 38.1274 18.8464 38.2084V38.9126C18.8464 38.9935 18.806 39.034 18.725 39.034H18.2758Z" fill="#EAEAEA"/>
<path d="M13.8135 38.9732C13.7325 38.9732 13.6921 38.9327 13.6921 38.8518V38.3419H13.6799C13.5423 38.5604 13.3319 38.7425 13.0486 38.8882C12.7653 39.0339 12.401 39.1068 11.9558 39.1068C11.6806 39.1068 11.4216 39.0704 11.1788 38.9975C10.9441 38.9247 10.7377 38.8154 10.5596 38.6697C10.3896 38.524 10.252 38.3419 10.1468 38.1233C10.0497 37.9048 10.0011 37.6498 10.0011 37.3584C10.0011 36.7433 10.1994 36.29 10.596 35.9986C11.0007 35.7072 11.5592 35.5615 12.2715 35.5615H13.5949C13.6435 35.5615 13.6678 35.5372 13.6678 35.4887V35.0637C13.6678 34.659 13.5706 34.3676 13.3764 34.1895C13.1821 34.0115 12.8138 33.9224 12.2715 33.9224C11.9397 33.9224 11.6645 33.9629 11.4459 34.0438C11.2274 34.1167 11.0331 34.2138 10.8631 34.3352C10.7903 34.3919 10.7336 34.3879 10.6932 34.3231L10.3653 33.7646C10.333 33.6998 10.3411 33.6432 10.3896 33.5946C10.6082 33.4246 10.8834 33.287 11.2152 33.1818C11.5471 33.0766 11.9316 33.024 12.3687 33.024C13.1943 33.024 13.7811 33.1778 14.1291 33.4853C14.4772 33.7848 14.6512 34.2907 14.6512 35.003V38.8518C14.6512 38.9327 14.6107 38.9732 14.5298 38.9732H13.8135ZM12.1987 38.2326C12.66 38.2326 13.0202 38.1355 13.2793 37.9412C13.5383 37.7389 13.6678 37.4556 13.6678 37.0913V36.4478C13.6678 36.3993 13.6435 36.375 13.5949 36.375H12.4294C11.9194 36.375 11.5511 36.4519 11.3245 36.6057C11.0979 36.7514 10.9845 36.9901 10.9845 37.322C10.9845 37.6215 11.0898 37.8481 11.3002 38.0019C11.5107 38.1557 11.8102 38.2326 12.1987 38.2326Z" fill="#EAEAEA"/>
<path d="M6.61268 38.9734C6.54792 38.9734 6.5034 38.9329 6.47912 38.8519L4.71863 32.6963H4.69435L2.946 38.8519C2.92172 38.9329 2.87315 38.9734 2.80031 38.9734H2.13253C2.05969 38.9734 2.01517 38.9329 1.99898 38.8519L0.00780512 30.8387C-0.0164775 30.7577 0.0158993 30.7173 0.104936 30.7173H0.906262C0.995298 30.7173 1.04386 30.7577 1.05196 30.8387L2.52106 36.97H2.54534L4.25726 30.8387C4.28155 30.7577 4.33011 30.7173 4.40296 30.7173H5.02217C5.09501 30.7173 5.14358 30.7577 5.16786 30.8387L6.91621 36.97H6.94049L8.37317 30.8387C8.39745 30.7577 8.45006 30.7173 8.531 30.7173H9.32019C9.40113 30.7173 9.43351 30.7577 9.41732 30.8387L7.42614 38.8519C7.40996 38.9329 7.36139 38.9734 7.28045 38.9734H6.61268Z" fill="#EAEAEA"/>
<path d="M245.736 18.2452C241.105 28.9211 201.925 32.2404 213.421 47.1648C205.788 45.7783 208.121 36.878 213.103 33.5015C222.324 25.0077 243.125 24.7759 245.275 10.7044C253.285 24.8251 244.033 43.712 227.983 46.0943C225.223 46.5263 220.641 46.8328 219.935 43.3356C219.683 41.8935 220.175 40.7183 221.441 39.786C228.029 35.5375 236.705 35.2691 242.613 29.8486C246.049 26.8405 246.477 22.6715 245.736 18.2483V18.2452Z" fill="#EAEAEA"/>
<path d="M202.02 28.4162C206.947 18.1182 244.07 15.0085 235.007 0C244.298 3.86093 235.685 13.4299 230.003 16.1298C221.018 21.8219 204.384 23.2513 202.251 35.6203C195.148 22.4874 202.637 5.73501 216.651 1.43256C219.23 0.532049 221.908 0.439933 224.579 0.72581C227.5 1.00216 228.796 5.05367 226.031 6.80387C220.942 10.1883 214.65 10.8697 209.304 13.7729C203.875 16.1711 199.276 22.6415 202.02 28.4146V28.4162Z" fill="#EAEAEA"/>
</svg>
