<svg width="32" height="32" viewBox="0 0 32 32" fill="none" xmlns="http://www.w3.org/2000/svg">
<path d="M14.36 24.4C12.3743 24.4 10.4331 23.8112 8.78206 22.708C7.13099 21.6048 5.84414 20.0367 5.08423 18.2021C4.32433 16.3676 4.1255 14.3488 4.5129 12.4013C4.9003 10.4537 5.85651 8.66476 7.26063 7.26064C8.66475 5.85652 10.4537 4.90031 12.4013 4.51291C14.3488 4.12551 16.3676 4.32433 18.2021 5.08424C20.0367 5.84415 21.6048 7.131 22.708 8.78207C23.8112 10.4331 24.4 12.3743 24.4 14.36C24.4 15.6784 24.1403 16.984 23.6357 18.2021C23.1312 19.4203 22.3916 20.5271 21.4593 21.4593C20.5271 22.3916 19.4203 23.1312 18.2021 23.6357C16.984 24.1403 15.6784 24.4 14.36 24.4ZM14.36 6.33332C12.7777 6.33332 11.231 6.80252 9.91542 7.68157C8.59983 8.56061 7.57445 9.81005 6.96895 11.2719C6.36345 12.7337 6.20502 14.3421 6.5137 15.894C6.82238 17.4459 7.58431 18.8713 8.70313 19.9901C9.82195 21.1089 11.2474 21.8709 12.7993 22.1796C14.3511 22.4883 15.9596 22.3299 17.4215 21.7244C18.8832 21.1188 20.1327 20.0935 21.0117 18.7779C21.8908 17.4623 22.36 15.9156 22.36 14.3333C22.36 12.2116 21.5172 10.1768 20.0168 8.67647C18.5165 7.17617 16.4817 6.33332 14.36 6.33332Z" fill="#434343"/>
<path d="M26.6667 27.6667C26.5353 27.6672 26.4051 27.6416 26.2837 27.5912C26.1624 27.5409 26.0523 27.4668 25.96 27.3733L20.4533 21.8667C20.2767 21.6771 20.1805 21.4263 20.1851 21.1672C20.1896 20.9081 20.2947 20.6611 20.4779 20.4777C20.6611 20.2945 20.9083 20.1896 21.1673 20.1851C21.4264 20.1805 21.6771 20.2767 21.8667 20.4533L27.3733 25.96C27.5605 26.1475 27.6657 26.4016 27.6657 26.6667C27.6657 26.9316 27.5605 27.1857 27.3733 27.3733C27.2811 27.4668 27.1709 27.5409 27.0496 27.5912C26.9283 27.6416 26.798 27.6672 26.6667 27.6667Z" fill="#434343"/>
</svg>
