<svg width="80" height="80" viewBox="0 0 80 80" fill="none" xmlns="http://www.w3.org/2000/svg">
<path d="M60.0117 13.9335C59.8083 13.9402 54.97 14.1302 50.8833 17.0985C48.9733 18.4868 47.59 20.2018 46.645 21.6585C45.7017 20.2035 44.3317 18.5052 42.45 17.1385C38.3633 14.1685 33.525 13.9402 33.3217 13.9318C32.7783 13.9218 32.2383 14.1435 31.91 14.5918C31.7495 14.8032 31.6454 15.052 31.6075 15.3147C31.5696 15.5773 31.5991 15.8454 31.6933 16.0935C31.765 16.2868 33.465 20.7152 37.55 23.6835C40.215 25.6185 43.19 26.2952 45 26.5335V40.0002H48.3333V26.5335C50.1433 26.2935 53.1183 25.6168 55.7833 23.6802C59.8667 20.7118 61.5683 16.3852 61.6383 16.1935C61.7329 15.9354 61.7626 15.6579 61.7248 15.3856C61.687 15.1133 61.5829 14.8545 61.4217 14.6318C61.2576 14.4132 61.0446 14.2361 60.7997 14.1145C60.5549 13.993 60.285 13.9321 60.0117 13.9335ZM39.5117 21.1968C38.1533 20.2102 37.1117 18.9802 36.3617 17.8802C37.64 18.2535 39.1317 18.8618 40.49 19.8468C41.8467 20.8335 42.885 22.0635 43.6383 23.1635C42.3583 22.7902 40.8667 22.1835 39.51 21.1968H39.5117ZM53.8233 21.1968C52.465 22.1818 50.975 22.7902 49.695 23.1635C50.4483 22.0635 51.4867 20.8335 52.845 19.8468C54.2033 18.8602 55.6917 18.2535 56.9717 17.8802C56.2183 18.9802 55.1817 20.2102 53.8233 21.1968ZM61.6667 3.3335H18.3333C13.7383 3.3335 10 7.07183 10 11.6668V68.3335C10 72.9285 13.7383 76.6668 18.3333 76.6668H61.6667C66.2617 76.6668 70 72.9285 70 68.3335V11.6668C70 7.07183 66.2617 3.3335 61.6667 3.3335ZM23.3333 73.3335H18.3333C15.5767 73.3335 13.3333 71.0902 13.3333 68.3335V11.6668C13.3333 8.91016 15.5767 6.66683 18.3333 6.66683H23.3333V73.3335ZM66.6667 68.3335C66.6667 71.0902 64.4233 73.3335 61.6667 73.3335H26.6667V6.66683H61.6667C64.4233 6.66683 66.6667 8.91016 66.6667 11.6668V68.3335ZM33.3333 60.0002H60V63.3335H33.3333V60.0002ZM33.3333 53.3335H60V56.6668H33.3333V53.3335ZM33.3333 46.6668H60V50.0002H33.3333V46.6668Z" fill="white"/>
</svg>
