<svg width="80" height="80" viewBox="0 0 80 80" fill="none" xmlns="http://www.w3.org/2000/svg">
<g clip-path="url(#clip0_4074_5703)">
<path d="M43.7515 23.7454C47.6094 23.7454 51.275 22.1579 53.9203 19.311C56.7687 16.247 58.0765 12.1063 57.5078 7.95166C57.4765 7.72276 57.3824 7.507 57.236 7.32829C57.0896 7.14959 56.8966 7.01491 56.6783 6.93919C56.46 6.86346 56.2251 6.84966 55.9994 6.8993C55.7738 6.94893 55.5663 7.06008 55.4 7.22041C53.5844 8.97041 51.989 9.33604 49.7812 9.84229C48.6234 10.1079 47.3094 10.4079 45.7765 10.9501L45.7156 10.9735C40.3328 13.1923 41.0922 18.4798 41.5953 21.9798C41.6078 22.0626 41.6187 22.1423 41.6297 22.2235C40.45 24.2282 39.5125 26.5923 38.9625 29.2688C38.3778 28.0764 37.7045 26.9294 36.9484 25.8376C37.3 22.472 36.2125 19.1438 33.9219 16.6345C31.5125 13.9907 28.0828 12.5845 24.5172 12.7829C24.0469 12.8095 23.6312 13.097 23.4406 13.5267C23.25 13.9563 23.3187 14.4579 23.6156 14.8235C24.914 16.4142 25.0969 17.6813 25.3719 19.5985C25.514 20.5907 25.675 21.7142 26.0234 23.0423C26.0297 23.0626 26.0343 23.0829 26.0406 23.1048C27.2531 26.9204 30.3859 27.5313 33.1343 27.5313C33.7984 27.5313 34.439 27.4954 35.025 27.461C36.8406 30.1501 38.25 33.3813 38.464 36.3157L38.4828 36.6298C38.525 37.2907 39.075 37.8001 39.7297 37.8001C39.7531 37.8001 39.7765 37.8001 39.8 37.7985C40.1293 37.7806 40.4383 37.6332 40.6595 37.3886C40.8808 37.1439 40.9964 36.8218 40.9812 36.4923C40.9765 36.3813 40.9703 36.2688 40.9625 36.1579C40.6953 31.136 41.8218 26.9267 43.6218 23.7454C43.6656 23.7438 43.7094 23.7454 43.7515 23.7454ZM28.4375 22.3751C28.1312 21.1985 27.989 20.2048 27.85 19.2423C27.6594 17.9095 27.4844 16.6938 26.925 15.4298C28.8859 15.8048 30.6906 16.8032 32.0718 18.3188C33.1742 19.5242 33.9395 20.9987 34.2906 22.5938C33.8187 22.111 33.3437 21.6704 32.875 21.2845C32.3406 20.8454 31.5531 20.922 31.114 21.4548C30.675 21.9876 30.7515 22.7767 31.2843 23.2157C31.9031 23.7251 32.5297 24.3345 33.1422 25.022C30.7672 25.0267 29.1437 24.5563 28.4375 22.3751ZM46.639 13.2985C48.025 12.811 49.2 12.5423 50.339 12.2813C52.0265 11.8954 53.5515 11.5454 55.1109 10.6001C54.9422 13.1954 53.8922 15.6642 52.0875 17.6063C50.3109 19.5173 47.975 20.7329 45.45 21.111C46.6109 19.7423 47.9047 18.6923 49.2187 18.0017C49.3642 17.9253 49.4932 17.8211 49.5983 17.6948C49.7035 17.5686 49.7827 17.4229 49.8314 17.266C49.8802 17.1091 49.8976 16.9442 49.8825 16.7806C49.8675 16.617 49.8203 16.4579 49.7437 16.3126C49.6674 16.1671 49.5631 16.0381 49.4369 15.933C49.3107 15.8279 49.1649 15.7486 49.008 15.6999C48.8512 15.6511 48.6862 15.6338 48.5226 15.6488C48.359 15.6639 48.2 15.711 48.0547 15.7876C46.5718 16.5673 45.1078 17.7267 43.7875 19.2267C43.5672 16.3876 44.0203 14.3923 46.639 13.2985ZM66.5719 48.8001V10.186C66.5719 5.5251 62.7812 1.73291 58.1234 1.73291H8.44685C3.78904 1.73291 -0.00158691 5.5251 -0.00158691 10.186V19.7485C-0.00158691 20.4392 0.557788 21.0001 1.24998 21.0001H14.3984V70.8345C14.3984 71.5251 14.9578 72.086 15.65 72.086H53.2312C55.9125 75.8267 60.2953 78.2689 65.239 78.2689C73.3797 78.2689 80.0031 71.6454 80.0031 63.5048C80.0015 55.8126 74.0906 49.4767 66.5719 48.8001ZM2.49998 18.497V10.186C2.49998 6.90479 5.16716 4.23604 8.44529 4.23604C11.7265 4.23604 14.3953 6.90479 14.3953 10.186V18.497H2.49998ZM16.9 69.5829V10.186C16.9 7.86729 15.9625 5.76416 14.4453 4.23604H58.125C61.4031 4.23604 64.0703 6.90479 64.0703 10.186V48.786C56.4734 49.3829 50.4734 55.7563 50.4734 63.5048C50.4734 65.6704 50.9422 67.7282 51.7844 69.5845H16.9V69.5829ZM65.2375 75.7657C58.4765 75.7657 52.975 70.2657 52.975 63.5032C52.975 56.7407 58.4765 51.2407 65.2375 51.2407C71.9984 51.2407 77.5 56.7423 77.5 63.5032C77.5 70.2642 71.9984 75.7657 65.2375 75.7657Z" fill="#1B6936"/>
<path d="M36.2812 41.2687C36.2812 40.578 36.8406 40.0171 37.5327 40.0171H59.2624C59.9531 40.0171 60.514 40.5765 60.514 41.2687C60.514 41.9608 59.9546 42.5202 59.2624 42.5202H37.5327C36.8421 42.5202 36.2812 41.9593 36.2812 41.2687ZM48.3984 45.4921H37.5343C36.8437 45.4921 36.2827 46.0515 36.2827 46.7437C36.2827 47.4358 36.8421 47.9952 37.5343 47.9952H48.3984C49.089 47.9952 49.6499 47.4358 49.6499 46.7437C49.6499 46.0515 49.089 45.4921 48.3984 45.4921ZM33.6734 38.6515V49.3608C33.6734 50.0515 33.114 50.6124 32.4218 50.6124H21.7077C21.0171 50.6124 20.4562 50.053 20.4562 49.3608V38.6515C20.4562 37.9608 21.0156 37.3999 21.7077 37.3999H32.4218C33.1124 37.3999 33.6734 37.9608 33.6734 38.6515ZM31.1702 39.903H22.9593V48.1108H31.1702V39.903ZM25.7093 46.2515C25.9531 46.4952 26.2734 46.6171 26.5937 46.6171C26.914 46.6171 27.2343 46.4952 27.4781 46.2499L30.1968 43.5312C30.6859 43.0421 30.6859 42.2499 30.1968 41.7624C29.7077 41.2733 28.9156 41.2733 28.4281 41.7624L26.5921 43.5983L25.6968 42.7046C25.4617 42.4703 25.1432 42.3389 24.8113 42.3391C24.4794 42.3394 24.1612 42.4714 23.9265 42.7062C23.439 43.1952 23.439 43.9874 23.9281 44.4749L25.7093 46.2515ZM33.6734 54.9858V65.6952C33.6734 66.3858 33.114 66.9468 32.4218 66.9468H21.7077C21.0171 66.9468 20.4562 66.3874 20.4562 65.6952V54.9858C20.4562 54.2952 21.0156 53.7343 21.7077 53.7343H32.4218C33.1124 53.7343 33.6734 54.2952 33.6734 54.9858ZM31.1702 56.2374H22.9593V64.4452H31.1702V56.2374ZM25.7093 62.5905C25.9531 62.8343 26.2734 62.9562 26.5937 62.9562C26.914 62.9562 27.2343 62.8343 27.4796 62.589L30.1984 59.8655C30.6859 59.3765 30.6859 58.5843 30.1968 58.0968C29.7077 57.6093 28.9156 57.6093 28.4265 58.0983L26.5906 59.9374L25.6952 59.0452C25.4601 58.8109 25.1417 58.6795 24.8098 58.6798C24.4778 58.6801 24.1596 58.8121 23.9249 59.0468C23.4374 59.5358 23.4374 60.328 23.9265 60.8155L25.7093 62.5905ZM48.3984 56.353H37.5343C36.8437 56.353 36.2827 56.9124 36.2827 57.6046C36.2827 58.2968 36.8421 58.8562 37.5343 58.8562H48.3984C49.089 58.8562 49.6499 58.2968 49.6499 57.6046C49.6499 56.9124 49.089 56.353 48.3984 56.353ZM44.6593 61.8312H37.5327C36.8421 61.8312 36.2812 62.3905 36.2812 63.0827C36.2812 63.7749 36.8406 64.3343 37.5327 64.3343H44.6593C45.3499 64.3343 45.9109 63.7749 45.9109 63.0827C45.9109 62.3905 45.3499 61.8312 44.6593 61.8312ZM72.9827 58.2952C72.4937 57.8062 71.7015 57.8062 71.214 58.2952L63.453 66.0562L59.2624 61.8655C58.7734 61.3765 57.9812 61.3765 57.4937 61.8655C57.3774 61.9818 57.2852 62.1197 57.2223 62.2716C57.1593 62.4235 57.1269 62.5863 57.1269 62.7507C57.1269 62.9151 57.1593 63.0779 57.2223 63.2297C57.2852 63.3816 57.3774 63.5196 57.4937 63.6358L62.5702 68.7108C62.814 68.9546 63.1343 69.078 63.4546 69.078C63.7749 69.078 64.0952 68.9562 64.339 68.7108L72.9843 60.0655C73.2186 59.8304 73.35 59.512 73.3497 59.18C73.3495 58.8481 73.2175 58.5299 72.9827 58.2952Z" fill="#1B6936"/>
</g>
<defs>
<clipPath id="clip0_4074_5703">
<rect width="80" height="80" fill="white"/>
</clipPath>
</defs>
</svg>
