<svg width="80" height="80" viewBox="0 0 80 80" fill="none" xmlns="http://www.w3.org/2000/svg">
<path d="M64.5313 26.5596V43.3225M56.1324 43.3225V29.6846M47.7335 43.3225V32.8096" stroke="#1B6936" stroke-width="3" stroke-miterlimit="10" stroke-linecap="round" stroke-linejoin="round"/>
<path d="M22.2048 26.0816H24.1087C29.2864 26.0816 33.4837 21.8843 33.4837 16.7066V14.8027H31.5798C26.4022 14.8027 22.2048 19.0001 22.2048 24.1777V26.0816ZM22.2048 26.0816L21.6311 26.6554C19.8729 28.4135 18.8852 30.7981 18.8851 33.2845V37.4377M18.8851 37.4377C15.4625 37.4377 12.6879 40.2123 12.6879 43.6349H25.0823C25.0823 40.2123 22.3078 37.4377 18.8851 37.4377ZM18.8851 32.678H16.6558C13.204 32.678 10.4058 29.8798 10.4058 26.428V24.1987H12.6351C16.0869 24.1987 18.8851 26.997 18.8851 30.4487V32.678Z" stroke="#1B6936" stroke-width="3" stroke-miterlimit="10" stroke-linejoin="round"/>
<path d="M59.2944 14.8027H64.5312V20.0396" stroke="#1B6936" stroke-width="3" stroke-miterlimit="10" stroke-linecap="round" stroke-linejoin="round"/>
<path d="M64.2589 15.0752L57.5356 21.7985H47.8889L40.0219 29.6657" stroke="#1B6936" stroke-width="3" stroke-miterlimit="10" stroke-linecap="round" stroke-linejoin="round"/>
<path d="M40 43.6349H71.4062V20.0396" stroke="#1B6936" stroke-width="3" stroke-miterlimit="10" stroke-linecap="round" stroke-linejoin="round"/>
<path d="M73.5938 58.9474H6.40625C3.81734 58.9474 1.71875 56.8488 1.71875 54.2599V12.6152C1.71875 10.0263 3.81734 7.92773 6.40625 7.92773H73.5938C76.1827 7.92773 78.2812 10.0263 78.2812 12.6152V54.2598C78.2812 56.8487 76.1827 58.9474 73.5938 58.9474Z" stroke="#1B6936" stroke-width="3" stroke-miterlimit="10" stroke-linecap="round" stroke-linejoin="round"/>
<path d="M78.2812 50.5098H1.71875M29.7383 72.0723V58.9473M50.2617 58.9473V72.0723" stroke="#1B6936" stroke-width="3" stroke-miterlimit="10" stroke-linejoin="round"/>
<path d="M63.3383 72.0723H16.6617" stroke="#1B6936" stroke-width="3" stroke-miterlimit="10" stroke-linecap="round" stroke-linejoin="round"/>
</svg>
