<svg width="56" height="56" viewBox="0 0 56 56" fill="none" xmlns="http://www.w3.org/2000/svg">
<path d="M38.4532 30.2969C38.5721 31.8045 37.9531 33.3355 36.6575 34.3073C36.104 34.7224 35.6548 35.2606 35.3455 35.8794C35.0361 36.4981 34.8751 37.1804 34.8751 37.8722C34.8751 40.3331 36.8701 42.3281 39.331 42.3281H48.8355M29.2299 54.2973C29.5429 53.2254 29.7188 52.0948 29.7188 50.9218C29.7188 44.2771 24.3322 38.8906 17.6876 38.8906C13.7352 38.8906 10.2387 40.805 8.0455 43.7477" stroke="#1B6936" stroke-width="3" stroke-miterlimit="10"/>
<path d="M14.875 9.29688V16.0781M14.875 9.29688H17.0625C20.0828 9.29688 22.5312 6.84841 22.5312 3.82812V1.64062H20.3438C17.3235 1.64062 14.875 4.08909 14.875 7.10938M14.875 9.29688V7.10938M14.875 9.29688H12.6875C9.66722 9.29688 7.21875 6.84841 7.21875 3.82812V1.64062H9.40625C12.4265 1.64062 14.875 4.08909 14.875 7.10938M14.875 23.7344V30.2969M3.9375 30.2969C3.9375 43.5863 14.7106 54.3594 28 54.3594C41.2894 54.3594 52.0625 43.5863 52.0625 30.2969H3.9375Z" stroke="#1B6936" stroke-width="3" stroke-miterlimit="10"/>
<path d="M21.4375 30.2969V16.0781H8.3125V30.2969H21.4375ZM21.4375 30.2969H30.1875V19.3594H21.4375V30.2969ZM43.3125 23.7344V30.2969M46.5742 17.3668C46.5781 17.3009 46.5938 17.2386 46.5938 17.1719C46.5938 15.3596 45.1247 13.8906 43.3125 13.8906C41.5003 13.8906 40.0312 15.3596 40.0312 17.1719C40.0312 17.2386 40.0469 17.3009 40.0508 17.3668C38.7693 17.8132 37.8438 19.0193 37.8438 20.4531C37.8438 22.2654 39.3128 23.7344 41.125 23.7344H45.5C47.3122 23.7344 48.7812 22.2654 48.7812 20.4531C48.7812 19.0193 47.8557 17.8132 46.5742 17.3668Z" stroke="#1B6936" stroke-width="3" stroke-miterlimit="10"/>
</svg>
