<svg width="21" height="21" viewBox="0 0 21 21" fill="none" xmlns="http://www.w3.org/2000/svg">
<path d="M10.04 20.08C8.05428 20.08 6.11315 19.4912 4.46208 18.388C2.81102 17.2848 1.52416 15.7167 0.764256 13.8821C0.00434955 12.0476 -0.194477 10.0288 0.192923 8.0813C0.580323 6.13374 1.53654 4.34478 2.94066 2.94066C4.34478 1.53654 6.13374 0.580323 8.0813 0.192923C10.0288 -0.194477 12.0476 0.00434955 13.8821 0.764256C15.7167 1.52416 17.2848 2.81102 18.388 4.46208C19.4912 6.11315 20.08 8.05428 20.08 10.04C20.08 11.3584 19.8203 12.664 19.3158 13.8821C18.8112 15.1003 18.0716 16.2071 17.1393 17.1393C16.2071 18.0716 15.1003 18.8112 13.8821 19.3158C12.664 19.8203 11.3584 20.08 10.04 20.08ZM10.04 2.01334C8.45776 2.01334 6.91104 2.48254 5.59544 3.36159C4.27986 4.24063 3.25447 5.49007 2.64898 6.95187C2.04347 8.41368 1.88504 10.0221 2.19372 11.574C2.5024 13.1259 3.26434 14.5513 4.38315 15.6701C5.50198 16.7889 6.92743 17.551 8.47928 17.8596C10.0311 18.1683 11.6396 18.0099 13.1015 17.4044C14.5632 16.7988 15.8127 15.7735 16.6917 14.4579C17.5708 13.1423 18.04 11.5956 18.04 10.0133C18.04 7.8916 17.1972 5.85678 15.6968 4.35648C14.1965 2.85619 12.1617 2.01334 10.04 2.01334Z" fill="white"/>
</svg>
