<svg width="375" height="277" viewBox="0 0 375 277" fill="none" xmlns="http://www.w3.org/2000/svg" xmlns:xlink="http://www.w3.org/1999/xlink">
<g opacity="0.24">
<rect width="375" height="277" fill="url(#pattern0_4185_20460)"/>
</g>
<defs>
<pattern id="pattern0_4185_20460" patternUnits="userSpaceOnUse" patternTransform="matrix(79.36 0 0 79.36 0 0)" preserveAspectRatio="none" viewBox="0 0 124 124" width="1" height="1">
<g id="pattern0_4185_20460_inner">
<g opacity="0.16">
<path d="M117.699 47.9679C105.903 76.0357 6.10662 84.7626 35.3874 124C15.9451 120.355 21.8878 96.9551 34.5783 88.0779C58.066 65.7473 111.049 65.1376 116.526 28.1426C136.927 65.2671 113.363 114.922 72.4798 121.186C65.4488 122.321 53.7778 123.127 51.9816 113.933C51.3384 110.141 52.5925 107.051 55.8167 104.6C72.5971 93.4309 94.6972 92.7253 109.746 78.4742C118.496 70.5658 119.589 59.6051 117.699 47.9763V47.9679Z" fill="#87BB41"/>
<path d="M6.349 74.7083C18.8979 47.6343 113.455 39.4586 90.3723 0C114.038 10.1507 92.0997 35.3082 77.6252 42.4065C54.7403 57.3716 12.3686 61.1295 6.93556 93.6484C-11.1555 59.1211 7.91862 15.0778 43.6154 3.76631C50.1851 1.3988 57.0057 1.15662 63.8101 1.90821C71.2496 2.63475 74.5507 13.2865 67.5076 17.8879C54.5461 26.7859 38.5182 28.5772 24.9013 36.2101C11.074 42.5151 -0.641484 59.5261 6.349 74.7041V74.7083Z" fill="#E8F0EB"/>
</g>
</g>
</pattern></defs>
</svg>
