<svg width="452" height="280" viewBox="0 0 452 280" fill="none" xmlns="http://www.w3.org/2000/svg" xmlns:xlink="http://www.w3.org/1999/xlink">
<rect width="452" height="280" rx="21.6841" fill="url(#pattern0_3763_2747)"/>
<defs>
<pattern id="pattern0_3763_2747" patternUnits="userSpaceOnUse" patternTransform="matrix(124 0 0 124 0 0)" preserveAspectRatio="none" viewBox="0 0 124 124" width="1" height="1">
<g id="pattern0_3763_2747_inner">
<g opacity="0.16">
<path d="M117.699 47.9679C105.903 76.0358 6.10651 84.7626 35.3872 124C15.945 120.355 21.8877 96.9552 34.5782 88.078C58.0659 65.7473 111.049 65.1377 116.526 28.1426C136.927 65.2671 113.363 114.922 72.4797 121.186C65.4487 122.321 53.7777 123.127 51.9815 113.933C51.3383 110.141 52.5924 107.052 55.8166 104.601C72.597 93.431 94.6971 92.7254 109.746 78.4743C118.496 70.5659 119.589 59.6051 117.699 47.9763V47.9679Z" fill="#87BB41"/>
<path d="M6.349 74.7084C18.8979 47.6343 113.455 39.4587 90.3723 0C114.038 10.1507 92.0997 35.3082 77.6252 42.4066C54.7403 57.3716 12.3686 61.1296 6.93556 93.6486C-11.1555 59.1212 7.91862 15.0778 43.6154 3.76632C50.1851 1.3988 57.0057 1.15662 63.8101 1.90821C71.2496 2.63475 74.5507 13.2865 67.5076 17.8879C54.5461 26.786 38.5182 28.5773 24.9013 36.2101C11.074 42.5151 -0.641484 59.5262 6.349 74.7042V74.7084Z" fill="#E8F0EB" fill-opacity="0.4"/>
</g>
</g>
</pattern></defs>
</svg>
