<svg width="24" height="24" viewBox="0 0 24 24" fill="none" xmlns="http://www.w3.org/2000/svg">
<path d="M13.5 2C13.5 2 15.8335 2.21213 18.8033 5.18198C21.7731 8.15183 21.9853 10.4853 21.9853 10.4853" stroke="#C7DFA8" stroke-linecap="round"/>
<path d="M14.207 5.53564C14.207 5.53564 15.197 5.81849 16.6819 7.30341C18.1668 8.78834 18.4497 9.77829 18.4497 9.77829" stroke="#C7DFA8" stroke-linecap="round"/>
<path d="M15.6445 15.5437L16.1 15.0642L15.0124 14.0312L14.5569 14.5107L15.6445 15.5437ZM17.5987 14.8623L19.5092 15.962L20.2575 14.662L18.347 13.5623L17.5987 14.8623ZM19.8779 18.2419L18.4573 19.7375L19.5449 20.7705L20.9655 19.2749L19.8779 18.2419ZM17.6026 20.2167C16.1676 20.3584 12.4233 20.2375 8.35915 15.9587L7.27157 16.9917C11.7009 21.655 15.9261 21.8895 17.7499 21.7095L17.6026 20.2167ZM8.35915 15.9587C4.48303 11.8778 3.83285 8.43556 3.75181 6.92574L2.25397 7.00613C2.35322 8.85536 3.1384 12.6403 7.27157 16.9917L8.35915 15.9587ZM9.7345 9.32159L10.0213 9.01963L8.93372 7.9866L8.64691 8.28856L9.7345 9.32159ZM10.2466 5.26012L8.98565 3.47663L7.76086 4.3426L9.02185 6.12608L10.2466 5.26012ZM4.71766 3.09213L3.14806 4.74462L4.23564 5.77765L5.80524 4.12516L4.71766 3.09213ZM9.1907 8.80507C8.64691 8.28856 8.64622 8.28929 8.64552 8.29002C8.64529 8.29028 8.64458 8.29102 8.64411 8.29152C8.64316 8.29254 8.64219 8.29357 8.64121 8.29463C8.63924 8.29675 8.63721 8.29896 8.63511 8.30127C8.63092 8.30588 8.62647 8.31087 8.62179 8.31625C8.61244 8.32701 8.60215 8.33931 8.59116 8.3532C8.56918 8.38098 8.54431 8.41512 8.51822 8.45588C8.46591 8.53764 8.40917 8.64531 8.36112 8.78033C8.26342 9.0549 8.21018 9.4185 8.27671 9.87257C8.40742 10.7647 8.99199 11.9644 10.5193 13.5724L11.6069 12.5394C10.1793 11.0363 9.82762 10.1106 9.76087 9.65511C9.72867 9.43536 9.76138 9.31957 9.77432 9.28321C9.78159 9.26277 9.78635 9.25709 9.78169 9.26437C9.77944 9.26789 9.77494 9.27451 9.76738 9.28407C9.76359 9.28885 9.75905 9.29437 9.7536 9.30063C9.75089 9.30375 9.74793 9.30706 9.74476 9.31056C9.74317 9.31231 9.74152 9.3141 9.73981 9.31594C9.73896 9.31686 9.73809 9.31779 9.7372 9.31873C9.73676 9.3192 9.73608 9.31992 9.73586 9.32015C9.73518 9.32087 9.7345 9.32159 9.1907 8.80507ZM10.5193 13.5724C12.0422 15.1757 13.1923 15.806 14.0698 15.9485C14.5201 16.0216 14.8846 15.9632 15.1606 15.8544C15.2955 15.8012 15.4022 15.7387 15.4823 15.6819C15.5223 15.6535 15.5556 15.6266 15.5824 15.6031C15.5959 15.5913 15.6077 15.5803 15.618 15.5703C15.6232 15.5654 15.628 15.5606 15.6324 15.5562C15.6346 15.554 15.6367 15.5518 15.6387 15.5497C15.6397 15.5487 15.6407 15.5477 15.6417 15.5467C15.6422 15.5462 15.6429 15.5454 15.6431 15.5452C15.6438 15.5444 15.6445 15.5437 15.1007 15.0272C14.5569 14.5107 14.5576 14.51 14.5583 14.5093C14.5585 14.509 14.5592 14.5083 14.5596 14.5078C14.5605 14.5069 14.5614 14.506 14.5623 14.5051C14.5641 14.5033 14.5658 14.5015 14.5674 14.4998C14.5708 14.4965 14.574 14.4933 14.577 14.4904C14.583 14.4846 14.5885 14.4796 14.5933 14.4754C14.6028 14.467 14.6099 14.4616 14.6145 14.4584C14.6239 14.4517 14.6229 14.454 14.6102 14.459C14.5909 14.4666 14.5 14.4987 14.3103 14.4679C13.9077 14.4025 13.0391 14.0472 11.6069 12.5394L10.5193 13.5724ZM8.98565 3.47663C7.97206 2.04305 5.94384 1.80119 4.71766 3.09213L5.80524 4.12516C6.32808 3.57471 7.24851 3.61795 7.76086 4.3426L8.98565 3.47663ZM3.75181 6.92574C3.73038 6.52644 3.90425 6.12654 4.23564 5.77765L3.14806 4.74462C2.61221 5.30877 2.20493 6.09246 2.25397 7.00613L3.75181 6.92574ZM18.4573 19.7375C18.1783 20.0313 17.8864 20.1887 17.6026 20.2167L17.7499 21.7095C18.497 21.6357 19.1016 21.2373 19.5449 20.7705L18.4573 19.7375ZM10.0213 9.01963C10.9889 8.00095 11.0574 6.40678 10.2466 5.26012L9.02185 6.12608C9.44399 6.72315 9.37926 7.51753 8.93372 7.9866L10.0213 9.01963ZM19.5092 15.962C20.33 16.4345 20.4907 17.5968 19.8779 18.2419L20.9655 19.2749C22.2704 17.901 21.8904 15.6019 20.2575 14.662L19.5092 15.962ZM16.1 15.0642C16.4854 14.6584 17.086 14.5672 17.5987 14.8623L18.347 13.5623C17.2485 12.93 15.8861 13.1113 15.0124 14.0312L16.1 15.0642Z" fill="#C7DFA8"/>
</svg>
