<svg width="24" height="24" viewBox="0 0 24 24" fill="none" xmlns="http://www.w3.org/2000/svg">
<g clip-path="url(#clip0_3388_708)">
<path d="M12.004 5.838C11.1953 5.83787 10.3945 5.99706 9.64729 6.30648C8.90011 6.6159 8.2212 7.06949 7.64935 7.64134C7.0775 8.21319 6.62391 8.8921 6.31449 9.63928C6.00507 10.3865 5.84588 11.1873 5.84601 11.996C5.84588 12.8047 6.00507 13.6055 6.31449 14.3527C6.62391 15.0999 7.0775 15.7788 7.64935 16.3507C8.2212 16.9225 8.90011 17.3761 9.64729 17.6855C10.3945 17.9949 11.1953 18.1541 12.004 18.154C12.8127 18.1541 13.6135 17.9949 14.3607 17.6855C15.1079 17.3761 15.7868 16.9225 16.3587 16.3507C16.9305 15.7788 17.3841 15.0999 17.6935 14.3527C18.0029 13.6055 18.1621 12.8047 18.162 11.996C18.1621 11.1873 18.0029 10.3865 17.6935 9.63928C17.3841 8.8921 16.9305 8.21319 16.3587 7.64134C15.7868 7.06949 15.1079 6.6159 14.3607 6.30648C13.6135 5.99706 12.8127 5.83787 12.004 5.838ZM12.004 15.993C11.2138 15.9928 10.4413 15.7583 9.78433 15.3191C9.12734 14.88 8.61532 14.2559 8.31299 13.5257C8.01067 12.7956 7.93162 11.9922 8.08584 11.2172C8.24006 10.4421 8.62062 9.73019 9.17941 9.1714C9.7382 8.61261 10.4501 8.23205 11.2252 8.07783C12.0002 7.92361 12.8036 8.00266 13.5338 8.30498C14.2639 8.60731 14.888 9.11933 15.3271 9.77632C15.7663 10.4333 16.0008 11.2057 16.001 11.996C16.0013 12.521 15.8981 13.0408 15.6973 13.5259C15.4965 14.011 15.2021 14.4517 14.8309 14.8229C14.4597 15.1941 14.019 15.4885 13.5339 15.6893C13.0488 15.8901 12.529 15.9933 12.004 15.993Z" fill="#EAEAEA"/>
<path d="M16.9479 0.076203C14.7399 -0.026797 9.27092 -0.021797 7.06092 0.076203C5.11892 0.167203 3.40592 0.636203 2.02492 2.0172C-0.283078 4.3252 0.0119221 7.4352 0.0119221 11.9962C0.0119221 16.6642 -0.248078 19.7022 2.02492 21.9752C4.34192 24.2912 7.49692 23.9882 12.0039 23.9882C16.6279 23.9882 18.2239 23.9912 19.8589 23.3582C22.0819 22.4952 23.7599 20.5082 23.9239 16.9392C24.0279 14.7302 24.0219 9.2622 23.9239 7.0522C23.7259 2.8392 21.4649 0.284203 16.9479 0.076203ZM20.4429 20.4482C18.9299 21.9612 16.8309 21.8262 11.9749 21.8262C6.97492 21.8262 4.96992 21.9002 3.50692 20.4332C1.82192 18.7562 2.12692 16.0632 2.12692 11.9802C2.12692 6.4552 1.55992 2.4762 7.10492 2.1922C8.37892 2.1472 8.75392 2.1322 11.9609 2.1322L12.0059 2.1622C17.3349 2.1622 21.5159 1.6042 21.7669 7.1482C21.8239 8.4132 21.8369 8.7932 21.8369 11.9952C21.8359 16.9372 21.9299 18.9542 20.4429 20.4482Z" fill="#EAEAEA"/>
<path d="M18.406 7.034C19.2007 7.034 19.845 6.38974 19.845 5.595C19.845 4.80026 19.2007 4.156 18.406 4.156C17.6112 4.156 16.967 4.80026 16.967 5.595C16.967 6.38974 17.6112 7.034 18.406 7.034Z" fill="#EAEAEA"/>
</g>
<defs>
<clipPath id="clip0_3388_708">
<rect width="24" height="24" fill="white"/>
</clipPath>
</defs>
</svg>
