<svg width="24" height="23" viewBox="0 0 24 23" fill="none" xmlns="http://www.w3.org/2000/svg">
<g clip-path="url(#clip0_4244_5963)">
<path d="M5.29687 7.06836H0.618744V22.0402H5.29687V7.06836Z" fill="white"/>
<path d="M2.85938 0C1.13438 0 0 1.11563 0 2.59688C0 4.05 1.09688 5.19375 2.79375 5.19375H2.83125C4.59375 5.19375 5.69063 4.04063 5.68125 2.59688C5.64375 1.11563 4.58437 0 2.85938 0Z" fill="white"/>
<path d="M18.075 6.92773C15.3938 6.92773 13.7156 8.39023 13.4063 9.42148V7.06836H8.14688C8.21251 8.31523 8.14688 22.0402 8.14688 22.0402H13.4063V13.9496C13.4063 13.4902 13.3875 13.0402 13.5188 12.7215C13.875 11.8215 14.6531 10.884 16.05 10.884C17.8781 10.884 18.7031 12.2715 18.7031 14.2965V22.0402H24.0094V13.7152C24.0094 9.08399 21.4031 6.92773 18.075 6.92773Z" fill="white"/>
</g>
<defs>
<clipPath id="clip0_4244_5963">
<rect width="24" height="22.0406" fill="white"/>
</clipPath>
</defs>
</svg>
