<svg width="22" height="19" viewBox="0 0 22 19" fill="none" xmlns="http://www.w3.org/2000/svg">
<path fill-rule="evenodd" clip-rule="evenodd" d="M2.63534 2.4871C1.95538 3.11848 1.5 4.14295 1.5 5.75V12.75C1.5 14.357 1.95538 15.3815 2.63534 16.0129C3.32535 16.6536 4.36497 17 5.75 17H15.75C17.135 17 18.1746 16.6536 18.8647 16.0129C19.5446 15.3815 20 14.357 20 12.75V5.75C20 4.14295 19.5446 3.11848 18.8647 2.4871C18.1746 1.84637 17.135 1.5 15.75 1.5H5.75C4.36497 1.5 3.32535 1.84637 2.63534 2.4871ZM1.61466 1.3879C2.67465 0.40363 4.13503 0 5.75 0H15.75C17.365 0 18.8254 0.40363 19.8853 1.3879C20.9554 2.38152 21.5 3.85705 21.5 5.75V12.75C21.5 14.643 20.9554 16.1185 19.8853 17.1121C18.8254 18.0964 17.365 18.5 15.75 18.5H5.75C4.13503 18.5 2.67465 18.0964 1.61466 17.1121C0.54462 16.1185 0 14.643 0 12.75V5.75C0 3.85705 0.54462 2.38152 1.61466 1.3879Z" fill="#C7DFA8"/>
<path fill-rule="evenodd" clip-rule="evenodd" d="M18.1133 4.56026C18.3666 4.88802 18.3062 5.35904 17.9785 5.6123L12.4314 9.8986C11.441 10.6638 10.0589 10.6638 9.0685 9.8986L3.52144 5.6123C3.19367 5.35904 3.13328 4.88802 3.38655 4.56026C3.63982 4.23249 4.11083 4.1721 4.4386 4.42537L9.9856 8.7116C10.4358 9.0595 11.0641 9.0595 11.5142 8.7116L17.0613 4.42537C17.3891 4.1721 17.8601 4.23249 18.1133 4.56026Z" fill="#C7DFA8"/>
</svg>
