<svg width="24" height="24" viewBox="0 0 24 24" fill="none" xmlns="http://www.w3.org/2000/svg">
<g clip-path="url(#clip0_3388_694)">
<path d="M19.45 4.05C17.9915 2.58721 16.1321 1.5895 14.1068 1.18291C12.0816 0.776316 9.98122 0.979082 8.07113 1.76559C6.16103 2.5521 4.52688 3.88707 3.37511 5.60186C2.22334 7.31665 1.60563 9.33432 1.6 11.4C1.57722 13.2294 2.06181 15.0293 3 16.6L1.5 22L7.05 20.55C8.58136 21.3899 10.3035 21.8205 12.05 21.8C14.11 21.8084 16.1262 21.2048 17.8427 20.0657C19.5592 18.9266 20.8988 17.3034 21.6915 15.402C22.4842 13.5006 22.6943 11.4065 22.2953 9.38549C21.8962 7.36445 20.9059 5.50744 19.45 4.05ZM12.05 20.05C10.3632 20.0621 8.71057 19.575 7.3 18.65L4 19.55L4.9 16.35C3.90605 14.8892 3.36673 13.1668 3.35 11.4C3.3401 9.67721 3.84192 7.99026 4.79185 6.55299C5.74178 5.11572 7.09704 3.99284 8.68586 3.32669C10.2747 2.66053 12.0255 2.48109 13.7164 2.81112C15.4073 3.14114 16.9622 3.96577 18.1839 5.18047C19.4057 6.39517 20.2392 7.94526 20.579 9.63424C20.9188 11.3232 20.7494 13.0751 20.0924 14.6677C19.4354 16.2603 18.3204 17.622 16.8886 18.5802C15.4568 19.5384 13.7728 20.05 12.05 20.05Z" fill="#EAEAEA"/>
<path d="M16.8 13.6C16.22 13.276 15.6186 12.9921 15 12.75C14.8 12.65 14.6 12.6 14.45 12.85C14.3 13.1 13.75 13.7 13.6 13.9C13.5323 13.9774 13.4374 14.0258 13.335 14.0351C13.2326 14.0445 13.1305 14.014 13.05 13.95C12.2838 13.6341 11.5744 13.1949 10.95 12.65C10.3766 12.1285 9.88743 11.5213 9.50001 10.85C9.47231 10.8111 9.45287 10.7669 9.44288 10.7202C9.43289 10.6735 9.43257 10.6252 9.44194 10.5784C9.45131 10.5315 9.47017 10.4871 9.49735 10.4478C9.52454 10.4086 9.55947 10.3753 9.60001 10.35L10 9.85C10.101 9.72856 10.1851 9.594 10.25 9.45C10.2895 9.38159 10.3103 9.30399 10.3103 9.225C10.3103 9.14601 10.2895 9.06841 10.25 9C10.15 8.85 9.65001 7.6 9.45001 7.05C9.25001 6.5 9.00001 6.6 8.85001 6.6H8.35001C8.21383 6.59799 8.07915 6.62873 7.95733 6.68964C7.83551 6.75055 7.73011 6.83985 7.65001 6.95C7.35171 7.2206 7.11649 7.55342 6.96097 7.92493C6.80545 8.29645 6.73343 8.69759 6.75001 9.1C6.83718 10.0813 7.20132 11.0176 7.80001 11.8C7.95001 11.95 9.65001 14.6 12.25 15.7C12.7309 15.9317 13.2333 16.1159 13.75 16.25C14.2818 16.4273 14.8507 16.4617 15.4 16.35C15.9 16.3 16.95 15.75 17.15 15.15C17.35 14.55 17.4 14 17.3 13.9C17.165 13.7548 16.9917 13.6508 16.8 13.6Z" fill="#EAEAEA"/>
</g>
<defs>
<clipPath id="clip0_3388_694">
<rect width="24" height="24" fill="white"/>
</clipPath>
</defs>
</svg>
