<svg width="1918" height="650" viewBox="0 0 1918 650" fill="none" xmlns="http://www.w3.org/2000/svg" xmlns:xlink="http://www.w3.org/1999/xlink">
<path opacity="0.12" d="M0 650H1918V0H514L0 650Z" fill="url(#pattern0_4090_19849)"/>
<defs>
<pattern id="pattern0_4090_19849" patternUnits="userSpaceOnUse" patternTransform="matrix(-174.223 0 0 155.543 1918 0)" preserveAspectRatio="none" viewBox="0 0 124.445 111.102" width="1" height="1">
<use xlink:href="#pattern0_4090_19849_inner" transform="translate(-124.445 0)"/>
<g id="pattern0_4090_19849_inner">
<path d="M118.122 42.9786C106.283 68.1271 6.12875 75.9462 35.5144 111.102C16.0025 107.836 21.9665 86.8705 34.7025 78.9167C58.2743 58.9087 111.447 58.3625 116.944 25.2153C137.418 58.4785 113.769 102.969 72.7398 108.581C65.6837 109.598 53.9708 110.32 52.1682 102.082C51.5227 98.6853 52.7813 95.9168 56.017 93.7207C72.8576 83.713 95.0369 83.0807 110.14 70.3119C118.921 63.2261 120.018 53.4054 118.122 42.9861V42.9786Z" fill="#87BB41"/>
<path d="M6.37176 66.9378C18.9656 42.6798 113.862 35.3545 90.6963 0C114.447 9.09489 92.4298 31.6357 77.9034 37.9958C54.9365 51.4043 12.4129 54.7714 6.96042 83.908C-11.1955 52.9719 7.94701 13.5095 43.7717 3.37458C50.365 1.25331 57.21 1.03632 64.0388 1.70973C71.505 2.36071 74.8179 11.9045 67.7496 16.0274C54.7416 23.9999 38.6562 25.6049 24.9905 32.4438C11.1137 38.093 -0.643784 53.3347 6.37176 66.9341V66.9378Z" fill="#669B78"/>
</g>
</pattern></defs>
</svg>
