<svg width="269" height="51" viewBox="0 0 269 51" fill="none" xmlns="http://www.w3.org/2000/svg">
<path d="M5.22748 12.2426V11.4617C5.22748 11.3416 5.28755 11.2798 5.40939 11.2798H6.57125C6.69138 11.2798 6.75316 11.3399 6.75316 11.4617V17.6177C6.75316 17.9815 6.82181 18.2321 6.96082 18.3711C7.09983 18.5101 7.32122 18.5805 7.62326 18.5805H8.423C8.90697 18.5805 9.14895 18.8224 9.14895 19.3064C9.14895 19.6084 9.0906 19.7989 8.97733 19.8779C8.86235 19.9568 8.677 19.9963 8.423 19.9963H7.35211C6.75831 19.9963 6.29666 19.8847 5.96372 19.6599C5.63078 19.4351 5.41111 19.0644 5.30128 18.5427C5.05929 18.7607 4.76754 18.9237 4.42946 19.0335C4.09137 19.1416 3.72239 19.1966 3.32252 19.1966C2.85057 19.1966 2.41123 19.1296 2.00621 18.9975C1.60119 18.8653 1.24938 18.6611 0.95248 18.39C0.655581 18.1188 0.423896 17.7721 0.253994 17.3551C0.0840927 16.9381 0 16.4438 0 15.8758C0 15.1979 0.0961064 14.6298 0.290035 14.1699C0.483963 13.7099 0.737957 13.3375 1.05202 13.0526C1.36779 12.7678 1.73334 12.5618 2.15037 12.4348C2.5674 12.3078 3.0016 12.2443 3.44952 12.2443H5.2292L5.22748 12.2426ZM3.33968 17.7807C4.02959 17.7807 4.51698 17.5782 4.80187 17.1732C5.08675 16.7682 5.2292 16.2018 5.2292 15.4759V13.6602H3.44952C2.88146 13.6602 2.41638 13.8215 2.06113 14.1407C1.70417 14.4616 1.52568 15.04 1.52568 15.874C1.52568 16.5039 1.68357 16.9793 1.99763 17.3002C2.31341 17.6211 2.76133 17.7824 3.3414 17.7824L3.33968 17.7807ZM1.7608 10.0459C1.64067 10.0459 1.57888 9.98583 1.57888 9.86398V8.53909C1.57888 8.41896 1.63895 8.35718 1.7608 8.35718H2.99473C3.11486 8.35718 3.17665 8.41724 3.17665 8.53909V9.86398C3.17665 9.98411 3.11658 10.0459 2.99473 10.0459H1.7608ZM3.97639 10.0459C3.85454 10.0459 3.79447 9.98583 3.79447 9.86398V8.53909C3.79447 8.41896 3.85454 8.35718 3.97639 8.35718H5.21032C5.33045 8.35718 5.39052 8.41724 5.39052 8.53909V9.86398C5.39052 9.98411 5.33045 10.0459 5.21032 10.0459H3.97639Z" fill="#EAEAEA"/>
<path d="M8.44186 19.9964C8.19988 19.9964 8.03684 19.9449 7.95103 19.842C7.86694 19.739 7.82404 19.5605 7.82404 19.3065C7.82404 19.0045 7.86351 18.8071 7.94245 18.7161C8.0214 18.6252 8.18787 18.5806 8.44186 18.5806H10.4395C10.6815 18.5806 10.8634 18.6286 10.9835 18.7264C11.1037 18.8243 11.1637 18.9993 11.1637 19.2533C11.1637 19.5554 11.1071 19.7561 10.9921 19.8523C10.8771 19.9484 10.6918 19.9981 10.4395 19.9981H8.44186V19.9964Z" fill="#EAEAEA"/>
<path d="M10.5666 19.9963C10.3247 19.9963 10.1427 19.9534 10.0226 19.8693C9.90248 19.7853 9.8407 19.6154 9.8407 19.3614C9.8407 19.0593 9.89905 18.8534 10.0123 18.7435C10.1273 18.6354 10.3126 18.5805 10.5666 18.5805H11.8006C12.1026 18.5805 12.324 18.5119 12.463 18.3711C12.602 18.2321 12.6724 17.9816 12.6724 17.6177V12.7506C12.6724 12.6305 12.7325 12.5687 12.8543 12.5687H14.0162C14.1363 12.5687 14.1964 12.6288 14.1964 12.7506V17.3449C14.1964 17.7567 14.344 18.0656 14.6426 18.2716C14.9377 18.4775 15.3342 18.5805 15.8319 18.5805H16.0498C16.2918 18.5805 16.4737 18.632 16.5939 18.735C16.714 18.8379 16.7758 19.0113 16.7758 19.2515C16.7758 19.5656 16.7174 19.7681 16.6024 19.8591C16.4875 19.95 16.3038 19.9946 16.0498 19.9946H15.65C15.2621 19.9946 14.924 19.9157 14.6323 19.7578C14.3422 19.5999 14.1174 19.3648 13.9595 19.049C13.6575 19.6789 13.0276 19.9929 12.0717 19.9929H10.5649L10.5666 19.9963ZM11.4934 23.3738C11.3715 23.3738 11.3115 23.3137 11.3115 23.1919V21.867C11.3115 21.7468 11.3715 21.6851 11.4934 21.6851H12.7273C12.8474 21.6851 12.9075 21.7451 12.9075 21.867V23.1919C12.9075 23.312 12.8474 23.3738 12.7273 23.3738H11.4934ZM13.709 23.3738C13.5888 23.3738 13.5288 23.3137 13.5288 23.1919V21.867C13.5288 21.7468 13.5888 21.6851 13.709 21.6851H14.9429C15.063 21.6851 15.1248 21.7451 15.1248 21.867V23.1919C15.1248 23.312 15.0647 23.3738 14.9429 23.3738H13.709Z" fill="#EAEAEA"/>
<path d="M16.1767 19.9963C15.9348 19.9963 15.7529 19.9534 15.6327 19.8693C15.5126 19.7852 15.4508 19.6153 15.4508 19.3613C15.4508 19.0593 15.5092 18.8533 15.6224 18.7435C15.7374 18.6354 15.9228 18.5804 16.1767 18.5804H17.3214C17.6235 18.5804 17.8449 18.5118 17.9839 18.3711C18.1229 18.2321 18.1933 17.9815 18.1933 17.6177V12.7506C18.1933 12.6305 18.2533 12.5687 18.3735 12.5687H19.5353C19.6554 12.5687 19.7172 12.6287 19.7172 12.7506V17.3448C19.7172 17.7567 19.8648 18.0656 20.1617 18.2715C20.4586 18.4775 20.8551 18.5804 21.351 18.5804H21.569C21.811 18.5804 21.9929 18.6319 22.113 18.7349C22.2331 18.8379 22.2949 19.0112 22.2949 19.2515C22.2949 19.5655 22.2366 19.768 22.1233 19.859C22.01 19.95 21.823 19.9946 21.569 19.9946H21.1708C20.783 19.9946 20.4449 19.9156 20.1531 19.7577C19.8614 19.5999 19.6383 19.3647 19.4804 19.049C19.1783 19.6788 18.5485 19.9929 17.5926 19.9929H16.1767V19.9963ZM17.5754 10.0819C17.4776 9.9618 17.3987 9.81592 17.3386 9.64602C17.2785 9.47612 17.2476 9.28219 17.2476 9.06424C17.2476 8.88232 17.2768 8.69183 17.3386 8.49275C17.3987 8.29367 17.5085 8.10833 17.6664 7.93842C17.8226 7.76852 18.0268 7.6278 18.2739 7.5111C18.521 7.3944 18.8403 7.33948 19.2281 7.33948C19.5662 7.33948 19.882 7.40298 20.172 7.52997C20.462 7.65697 20.6731 7.82344 20.807 8.02938C20.855 8.10146 20.8499 8.16839 20.7898 8.22846L20.3179 8.62833C20.2818 8.65235 20.2321 8.63519 20.172 8.57341C20.0519 8.46529 19.9112 8.3709 19.755 8.29196C19.5971 8.21301 19.4032 8.17354 19.1732 8.17354C18.8214 8.17354 18.5674 8.27136 18.4112 8.46357C18.2533 8.6575 18.1744 8.86859 18.1744 9.09856C18.1744 9.36457 18.2413 9.57737 18.3735 9.73355C18.5073 9.89143 18.6395 10.0064 18.7733 10.0785H20.8242C20.898 10.0785 20.934 10.1214 20.934 10.2055V10.7873C20.934 10.8731 20.898 10.9143 20.8242 10.9143H16.9559C16.8838 10.9143 16.8478 10.8714 16.8478 10.7873V10.2055C16.8478 10.1214 16.8838 10.0785 16.9559 10.0785H17.5737L17.5754 10.0819Z" fill="#EAEAEA"/>
<path d="M21.5522 19.9963C21.3102 19.9963 21.1283 19.9534 21.0082 19.8693C20.888 19.7853 20.8262 19.6154 20.8262 19.3614C20.8262 19.0593 20.8846 18.8534 20.9979 18.7435C21.1128 18.6354 21.2982 18.5805 21.5522 18.5805H22.7861C23.0882 18.5805 23.3095 18.5119 23.4486 18.3711C23.5876 18.2321 23.6579 17.9816 23.6579 17.6177V12.7506C23.6579 12.6305 23.718 12.5687 23.8398 12.5687H25.0017C25.1218 12.5687 25.1819 12.6288 25.1819 12.7506V17.3449C25.1819 17.7567 25.3295 18.0656 25.6281 18.2716C25.9233 18.4775 26.3197 18.5805 26.8174 18.5805H27.0354C27.2773 18.5805 27.4593 18.632 27.5794 18.735C27.6995 18.8379 27.7613 19.0113 27.7613 19.2515C27.7613 19.5656 27.703 19.7681 27.588 19.8591C27.473 19.95 27.2894 19.9946 27.0354 19.9946H26.6355C26.2476 19.9946 25.9096 19.9157 25.6178 19.7578C25.3278 19.5999 25.1029 19.3648 24.9451 19.049C24.643 19.6789 24.0132 19.9929 23.0573 19.9929H21.5505L21.5522 19.9963ZM22.4789 23.3738C22.3571 23.3738 22.297 23.3137 22.297 23.1919V21.867C22.297 21.7468 22.3571 21.6851 22.4789 21.6851H23.7128C23.833 21.6851 23.893 21.7451 23.893 21.867V23.1919C23.893 23.312 23.833 23.3738 23.7128 23.3738H22.4789ZM24.6945 23.3738C24.5744 23.3738 24.5143 23.3137 24.5143 23.1919V21.867C24.5143 21.7468 24.5744 21.6851 24.6945 21.6851H25.9284C26.0486 21.6851 26.1103 21.7451 26.1103 21.867V23.1919C26.1103 23.312 26.0503 23.3738 25.9284 23.3738H24.6945Z" fill="#EAEAEA"/>
<path d="M27.1637 19.9963C26.9217 19.9963 26.7398 19.9534 26.6197 19.8694C26.4995 19.7853 26.4377 19.6154 26.4377 19.3614C26.4377 19.0593 26.4961 18.8534 26.6094 18.7435C26.7243 18.6354 26.9097 18.5805 27.1637 18.5805H28.3084C28.6104 18.5805 28.8318 18.5119 28.9708 18.3711C29.1098 18.2321 29.1802 17.9816 29.1802 17.6177V12.7506C29.1802 12.6305 29.2403 12.5687 29.3604 12.5687H30.5222C30.6424 12.5687 30.7042 12.6288 30.7042 12.7506V17.3449C30.7042 17.7567 30.8518 18.0656 31.1487 18.2716C31.4456 18.4775 31.842 18.5805 32.338 18.5805H32.5559C32.7979 18.5805 32.9798 18.632 33.0999 18.735C33.2201 18.8379 33.2819 19.0113 33.2819 19.2515C33.2819 19.5656 33.2235 19.7681 33.1102 19.8591C32.997 19.95 32.8099 19.9946 32.5559 19.9946H32.1578C31.7699 19.9946 31.4318 19.9157 31.1401 19.7578C30.8483 19.5999 30.6252 19.3648 30.4673 19.049C30.1653 19.6789 29.5354 19.9929 28.5795 19.9929H27.1637V19.9963ZM29.3604 23.3189C29.2403 23.3189 29.1802 23.2588 29.1802 23.137V21.8121C29.1802 21.6902 29.2403 21.6301 29.3604 21.6301H30.596C30.7162 21.6301 30.7762 21.6902 30.7762 21.8121V23.137C30.7762 23.2571 30.7162 23.3189 30.596 23.3189H29.3604Z" fill="#EAEAEA"/>
<path d="M32.4288 19.9964C32.1868 19.9964 32.0238 19.9449 31.938 19.842C31.8539 19.739 31.811 19.5605 31.811 19.3065C31.811 19.0045 31.8504 18.8071 31.9294 18.7161C32.0083 18.6252 32.1748 18.5806 32.4288 18.5806H34.4264C34.6684 18.5806 34.8503 18.6286 34.9705 18.7264C35.0906 18.8243 35.1507 18.9993 35.1507 19.2533C35.1507 19.5554 35.094 19.7561 34.979 19.8523C34.8641 19.9484 34.6787 19.9981 34.4264 19.9981H32.4288V19.9964Z" fill="#EAEAEA"/>
<path d="M34.4269 19.9963C34.1849 19.9963 34.003 19.9534 33.8828 19.8693C33.7627 19.7853 33.7009 19.6153 33.7009 19.3614C33.7009 19.0593 33.7593 18.8534 33.8725 18.7435C33.9875 18.6354 34.1729 18.5805 34.4269 18.5805H35.5716C35.8736 18.5805 36.095 18.5118 36.234 18.3711C36.373 18.2321 36.4434 17.9815 36.4434 17.6177V7.83035C36.4434 7.71022 36.5034 7.64844 36.6236 7.64844H37.7871C37.9073 7.64844 37.9673 7.7085 37.9673 7.83035V17.7087C37.9673 18.4964 37.8043 19.0748 37.4765 19.4437C37.1487 19.8127 36.6047 19.9981 35.8427 19.9981H34.4269V19.9963Z" fill="#EAEAEA"/>
<path d="M42.0345 19.8144C42.0345 19.9346 41.9745 19.9963 41.8543 19.9963H40.6908C40.5706 19.9963 40.5106 19.9363 40.5106 19.8144V7.83035C40.5106 7.71022 40.5706 7.64844 40.6908 7.64844H41.8543C41.9745 7.64844 42.0345 7.7085 42.0345 7.83035V19.8144Z" fill="#EAEAEA"/>
<path d="M59.8024 18.371C59.9414 18.232 60.01 17.9814 60.01 17.6176V12.7505C60.01 12.6304 60.0701 12.5686 60.1919 12.5686H61.3538C61.4739 12.5686 61.5357 12.6287 61.5357 12.7505V17.7068C61.5357 18.4946 61.3727 19.0729 61.0449 19.4419C60.7188 19.8109 60.1611 19.9962 59.375 19.9962H50.6414C49.8794 19.9962 49.3337 19.8109 49.0076 19.4419C48.6815 19.0729 48.5168 18.4946 48.5168 17.7068V13.9124C48.5168 13.7922 48.5768 13.7304 48.697 13.7304H49.8588C49.979 13.7304 50.0407 13.7905 50.0407 13.9124V17.6176C50.0407 17.9814 50.1094 18.232 50.2501 18.371C50.3891 18.51 50.6105 18.5804 50.9126 18.5804H59.1193C59.4334 18.5804 59.6616 18.5117 59.8007 18.371H59.8024ZM53.3289 11.8426C53.2071 11.8426 53.147 11.7826 53.147 11.6607V10.3358C53.147 10.2157 53.2071 10.1539 53.3289 10.1539H54.5629C54.683 10.1539 54.7431 10.214 54.7431 10.3358V11.6607C54.7431 11.7826 54.683 11.8426 54.5629 11.8426H53.3289ZM55.5445 11.8426C55.4244 11.8426 55.3643 11.7826 55.3643 11.6607V10.3358C55.3643 10.2157 55.4244 10.1539 55.5445 10.1539H56.7785C56.8986 10.1539 56.9604 10.214 56.9604 10.3358V11.6607C56.9604 11.7826 56.9003 11.8426 56.7785 11.8426H55.5445Z" fill="#EAEAEA"/>
<path d="M65.3677 19.8144C65.3677 19.9346 65.3076 19.9963 65.1875 19.9963H64.0239C63.9038 19.9963 63.8438 19.9363 63.8438 19.8144V7.83035C63.8438 7.71022 63.9038 7.64844 64.0239 7.64844H65.1875C65.3076 7.64844 65.3677 7.7085 65.3677 7.83035V19.8144Z" fill="#EAEAEA"/>
<path d="M66.8199 23.6089C66.6981 23.6089 66.638 23.5488 66.638 23.427V22.3733C66.638 22.2531 66.6981 22.1913 66.8199 22.1913H67.2369C68.2169 22.1913 68.7077 21.6765 68.7077 20.6485V12.7506C68.7077 12.6305 68.7678 12.5687 68.8879 12.5687H70.0498C70.1699 12.5687 70.2317 12.6288 70.2317 12.7506V20.6125C70.2317 21.5924 69.9828 22.3372 69.4869 22.8452C68.9909 23.3532 68.2632 23.6072 67.3073 23.6072H66.8165L66.8199 23.6089Z" fill="#EAEAEA"/>
<path d="M72.6859 7.83035C72.6859 7.71022 72.7459 7.64844 72.866 7.64844H74.0296C74.1497 7.64844 74.2098 7.7085 74.2098 7.83035V17.6177C74.2098 17.9815 74.2785 18.2321 74.4192 18.3711C74.5582 18.5101 74.7796 18.5805 75.0816 18.5805H75.8814C76.3653 18.5805 76.6073 18.8225 76.6073 19.3064C76.6073 19.6085 76.549 19.799 76.4357 19.8779C76.3207 19.9569 76.1354 19.9963 75.8814 19.9963H74.8105C74.0485 19.9963 73.5028 19.811 73.1767 19.442C72.8506 19.073 72.6859 18.4947 72.6859 17.707V7.82864V7.83035Z" fill="#EAEAEA"/>
<path d="M81.5464 19.9962C81.1586 19.9962 80.8205 19.9173 80.5287 19.7594C80.237 19.6015 80.0139 19.3664 79.856 19.0506C79.5539 19.6805 78.9241 19.9945 77.9682 19.9945H76.0066C75.7646 19.9945 75.5827 19.9516 75.4626 19.8675C75.3424 19.7834 75.2806 19.6135 75.2806 19.3595C75.2806 19.0575 75.339 18.8515 75.4523 18.7417C75.5672 18.6336 75.7526 18.5787 76.0066 18.5787H77.6953C77.9974 18.5787 78.2187 18.51 78.3577 18.3693C78.4968 18.2303 78.5671 17.9797 78.5671 17.6159V14.3105C78.5671 14.1904 78.6272 14.1286 78.7473 14.1286H79.9092C80.0293 14.1286 80.0911 14.1887 80.0911 14.3105V17.343C80.0911 17.7549 80.237 18.0638 80.527 18.2698C80.817 18.4757 81.2049 18.5787 81.6888 18.5787H82.1419C82.444 18.5787 82.6654 18.51 82.8061 18.3693C82.9451 18.2303 83.0137 17.9797 83.0137 17.6159V14.3105C83.0137 14.1904 83.0738 14.1286 83.1957 14.1286H84.3575C84.4776 14.1286 84.5394 14.1887 84.5394 14.3105V17.4151C84.5394 17.803 84.6904 18.093 84.9925 18.2869C85.2945 18.4809 85.6893 18.577 86.1732 18.577H86.5903C86.8923 18.577 87.1137 18.5083 87.2527 18.3676C87.3917 18.2286 87.4621 17.978 87.4621 17.6142V12.7471C87.4621 12.627 87.5221 12.5652 87.644 12.5652H88.8058C88.926 12.5652 88.986 12.6253 88.986 12.7471V17.3413C88.986 17.7532 89.1336 18.0621 89.4305 18.268C89.7274 18.474 90.1239 18.577 90.6198 18.577H90.8189C91.0609 18.577 91.2428 18.6284 91.3647 18.7314C91.4848 18.8344 91.5449 19.0077 91.5449 19.248C91.5449 19.562 91.4865 19.7646 91.3732 19.8555C91.26 19.9465 91.0729 19.9911 90.8189 19.9911H90.4379C90.0501 19.9911 89.712 19.9121 89.4202 19.7543C89.1302 19.5964 88.9054 19.3613 88.7475 19.0455C88.4454 19.6753 87.8156 19.9894 86.8597 19.9894H85.9879C85.6 19.9894 85.2619 19.9104 84.9702 19.7525C84.6801 19.5947 84.4553 19.3595 84.2974 19.0438C83.9954 19.6736 83.3656 19.9877 82.4096 19.9877H81.5395L81.5464 19.9962Z" fill="#EAEAEA"/>
<path d="M90.8253 19.9966C90.5833 19.9966 90.4014 19.9536 90.2813 19.8696C90.1611 19.7855 90.0994 19.6156 90.0994 19.3616C90.0994 19.0595 90.1577 18.8536 90.271 18.7437C90.386 18.6356 90.5713 18.5807 90.8253 18.5807H92.0592C92.3613 18.5807 92.5827 18.5121 92.7217 18.3713C92.8607 18.2323 92.9311 17.9818 92.9311 17.6179V12.7508C92.9311 12.6307 92.9911 12.5689 93.113 12.5689H94.2748C94.395 12.5689 94.455 12.629 94.455 12.7508V17.3451C94.455 17.7569 94.6026 18.0659 94.9012 18.2718C95.1964 18.4777 95.5928 18.5807 96.0905 18.5807H96.3085C96.5505 18.5807 96.7324 18.6322 96.8525 18.7352C96.9727 18.8381 97.0344 19.0115 97.0344 19.2517C97.0344 19.5658 96.9761 19.7683 96.8611 19.8593C96.7461 19.9502 96.5625 19.9948 96.3085 19.9948H95.9086C95.5208 19.9948 95.1827 19.9159 94.8909 19.758C94.6009 19.6001 94.3761 19.365 94.2182 19.0492C93.9161 19.6791 93.2863 19.9931 92.3304 19.9931H90.8236L90.8253 19.9966ZM91.9322 10.7721C91.8121 10.7721 91.752 10.712 91.752 10.5902V9.26529C91.752 9.14516 91.8121 9.08337 91.9322 9.08337H93.1662C93.2863 9.08337 93.3481 9.14344 93.3481 9.26529V10.5902C93.3481 10.712 93.288 10.7721 93.1662 10.7721H91.9322ZM94.1478 10.7721C94.0277 10.7721 93.9659 10.712 93.9659 10.5902V9.26529C93.9659 9.14516 94.026 9.08337 94.1478 9.08337H95.3818C95.5019 9.08337 95.5637 9.14344 95.5637 9.26529V10.5902C95.5637 10.712 95.5036 10.7721 95.3818 10.7721H94.1478Z" fill="#EAEAEA"/>
<path d="M96.3258 19.9964C96.0838 19.9964 95.9208 19.9449 95.835 19.842C95.7509 19.739 95.708 19.5605 95.708 19.3065C95.708 19.0045 95.7475 18.8071 95.8264 18.7161C95.9054 18.6252 96.0718 18.5806 96.3258 18.5806H98.3235C98.5654 18.5806 98.7474 18.6286 98.8675 18.7264C98.9876 18.8243 99.0477 18.9993 99.0477 19.2533C99.0477 19.5554 98.9911 19.7561 98.8761 19.8523C98.7611 19.9484 98.5757 19.9981 98.3235 19.9981H96.3258V19.9964Z" fill="#EAEAEA"/>
<path d="M103.863 19.9964C103.475 19.9964 103.137 19.9174 102.845 19.7595C102.554 19.6016 102.331 19.3665 102.173 19.0507C101.871 19.6806 101.241 19.9946 100.285 19.9946H98.3232C98.0812 19.9946 97.8993 19.9517 97.7792 19.8676C97.6591 19.7835 97.5973 19.6136 97.5973 19.3597C97.5973 19.0576 97.6556 18.8517 97.7689 18.7418C97.8839 18.6337 98.0692 18.5788 98.3232 18.5788H100.012C100.314 18.5788 100.535 18.5101 100.674 18.3694C100.813 18.2304 100.884 17.9798 100.884 17.616V14.3107C100.884 14.1905 100.944 14.1287 101.064 14.1287H102.228C102.348 14.1287 102.408 14.1888 102.408 14.3107V17.3431C102.408 17.755 102.554 18.0639 102.844 18.2699C103.134 18.4758 103.522 18.5788 104.005 18.5788H104.46C104.762 18.5788 104.984 18.5101 105.123 18.3694C105.262 18.2304 105.33 17.9798 105.33 17.616V14.3107C105.33 14.1905 105.39 14.1287 105.512 14.1287H106.674C106.794 14.1287 106.856 14.1888 106.856 14.3107V17.3431C106.856 17.755 107.002 18.0639 107.292 18.2699C107.584 18.4758 107.97 18.5788 108.454 18.5788H108.909C109.211 18.5788 109.432 18.5101 109.571 18.3694C109.71 18.2304 109.78 17.9798 109.78 17.616V12.7489C109.78 12.6288 109.841 12.567 109.962 12.567H111.124C111.244 12.567 111.306 12.6271 111.306 12.7489V17.7053C111.306 18.493 111.143 19.0713 110.815 19.4403C110.489 19.8093 109.943 19.9946 109.181 19.9946H108.31C107.922 19.9946 107.584 19.9157 107.292 19.7578C107.002 19.5999 106.777 19.3648 106.619 19.049C106.317 19.6789 105.687 19.9929 104.731 19.9929H103.86L103.863 19.9964Z" fill="#EAEAEA"/>
<path d="M118.499 18.5787H120.624C120.926 18.5787 121.147 18.51 121.286 18.3693C121.425 18.2303 121.496 17.9797 121.496 17.6159V7.82852C121.496 7.70839 121.556 7.64661 121.678 7.64661H122.839C122.96 7.64661 123.02 7.70667 123.02 7.82852V17.5798C123.08 17.9197 123.253 18.1702 123.538 18.3333C123.823 18.4963 124.188 18.5787 124.636 18.5787H124.835C125.077 18.5787 125.259 18.6301 125.379 18.7331C125.499 18.8361 125.561 19.0094 125.561 19.2497C125.561 19.5637 125.503 19.7663 125.39 19.8572C125.275 19.9482 125.089 19.9928 124.835 19.9928H124.454C124.078 19.9928 123.746 19.9173 123.456 19.7663C123.165 19.6152 122.936 19.3818 122.766 19.0678C122.488 19.6856 121.863 19.9945 120.895 19.9945H113.395C113.275 19.9945 113.215 19.9344 113.215 19.8126V18.7589C113.215 18.6387 113.275 18.5769 113.395 18.5769H116.972V10.3873C116.972 10.2672 117.032 10.2054 117.154 10.2054H118.316C118.436 10.2054 118.497 10.2655 118.497 10.3873V18.5769L118.499 18.5787Z" fill="#EAEAEA"/>
<path d="M124.835 19.9963C124.593 19.9963 124.411 19.9534 124.291 19.8693C124.171 19.7853 124.109 19.6153 124.109 19.3614C124.109 19.0593 124.167 18.8534 124.281 18.7435C124.396 18.6354 124.581 18.5805 124.835 18.5805H125.98C126.282 18.5805 126.503 18.5118 126.642 18.3711C126.781 18.2321 126.852 17.9815 126.852 17.6177V7.83035C126.852 7.71022 126.912 7.64844 127.032 7.64844H128.195C128.315 7.64844 128.376 7.7085 128.376 7.83035V17.7087C128.376 18.4964 128.213 19.0748 127.885 19.4437C127.557 19.8127 127.013 19.9981 126.251 19.9981H124.835V19.9963Z" fill="#EAEAEA"/>
<path d="M146.27 18.3711C146.409 18.2321 146.479 17.9816 146.479 17.6177V12.7506C146.479 12.6305 146.54 12.5687 146.661 12.5687H147.823C147.943 12.5687 148.005 12.6288 148.005 12.7506V17.4169C148.005 17.8048 148.156 18.0948 148.458 18.2887C148.76 18.4827 149.155 18.5788 149.639 18.5788H149.838C150.08 18.5788 150.26 18.6303 150.382 18.7332C150.502 18.8362 150.562 19.0095 150.562 19.2498C150.562 19.5639 150.506 19.7664 150.391 19.8573C150.276 19.9483 150.09 19.9929 149.838 19.9929H149.457C149.069 19.9929 148.731 19.914 148.439 19.7561C148.149 19.5982 147.924 19.3631 147.767 19.0473C147.609 19.3614 147.377 19.5982 147.068 19.7561C146.759 19.914 146.351 19.9929 145.843 19.9929H137.109C136.347 19.9929 135.801 19.8076 135.475 19.4386C135.149 19.0696 134.984 18.4913 134.984 17.7035V13.9091C134.984 13.7889 135.045 13.7271 135.166 13.7271H136.328C136.448 13.7271 136.51 13.7872 136.51 13.9091V17.6143C136.51 17.9781 136.579 18.2287 136.72 18.3677C136.859 18.5067 137.08 18.5771 137.382 18.5771H145.589C145.903 18.5771 146.131 18.5084 146.27 18.3677V18.3711ZM140.814 23.3738C140.694 23.3738 140.634 23.3137 140.634 23.1919V21.867C140.634 21.7468 140.694 21.6851 140.814 21.6851H142.05C142.17 21.6851 142.23 21.7451 142.23 21.867V23.1919C142.23 23.312 142.17 23.3738 142.05 23.3738H140.814Z" fill="#EAEAEA"/>
<path d="M149.73 19.9964C149.488 19.9964 149.325 19.9449 149.239 19.842C149.155 19.739 149.112 19.5605 149.112 19.3065C149.112 19.0045 149.152 18.8071 149.23 18.7161C149.309 18.6252 149.476 18.5806 149.73 18.5806H151.728C151.969 18.5806 152.151 18.6286 152.272 18.7264C152.392 18.8243 152.452 18.9993 152.452 19.2533C152.452 19.5554 152.395 19.7561 152.28 19.8523C152.165 19.9484 151.98 19.9981 151.728 19.9981H149.73V19.9964Z" fill="#EAEAEA"/>
<path d="M151.727 19.9963C151.485 19.9963 151.303 19.9534 151.183 19.8693C151.063 19.7853 151.001 19.6154 151.001 19.3614C151.001 19.0593 151.06 18.8534 151.173 18.7435C151.288 18.6354 151.473 18.5805 151.727 18.5805H152.98C153.282 18.5805 153.503 18.5119 153.644 18.3711C153.783 18.2321 153.852 17.9816 153.852 17.6177V12.7506C153.852 12.6305 153.912 12.5687 154.034 12.5687H155.196C155.316 12.5687 155.377 12.6288 155.377 12.7506V17.707C155.377 18.4947 155.214 19.073 154.887 19.442C154.559 19.811 154.015 19.9963 153.253 19.9963H151.727Z" fill="#EAEAEA"/>
<path d="M152.434 9.08337H153.67C153.769 9.08337 153.852 9.16404 153.852 9.26529V10.5902C153.852 10.6897 153.771 10.7721 153.67 10.7721H152.436C152.336 10.7721 152.254 10.6914 152.254 10.5902V9.26529C152.254 9.16575 152.335 9.08337 152.436 9.08337H152.434Z" fill="#EAEAEA"/>
<path d="M153.979 8.03467C153.859 8.03467 153.799 7.9746 153.799 7.85275V6.52786C153.799 6.40773 153.859 6.34595 153.979 6.34595H155.213C155.333 6.34595 155.395 6.40601 155.395 6.52786V7.85275C155.395 7.97288 155.335 8.03467 155.213 8.03467H153.979Z" fill="#EAEAEA"/>
<path d="M155.558 10.7721C155.438 10.7721 155.378 10.712 155.378 10.5902V9.26529C155.378 9.14516 155.438 9.08337 155.558 9.08337H156.794C156.914 9.08337 156.974 9.14344 156.974 9.26529V10.5902C156.974 10.712 156.914 10.7721 156.794 10.7721H155.558Z" fill="#EAEAEA"/>
<path d="M201.263 9.08337H202.499C202.599 9.08337 202.681 9.16404 202.681 9.26529V10.5902C202.681 10.6897 202.6 10.7721 202.499 10.7721H201.265C201.166 10.7721 201.083 10.6914 201.083 10.5902V9.26529C201.083 9.16575 201.164 9.08337 201.265 9.08337H201.263Z" fill="#EAEAEA"/>
<path d="M202.806 8.03467C202.686 8.03467 202.626 7.9746 202.626 7.85275V6.52786C202.626 6.40773 202.686 6.34595 202.806 6.34595H204.04C204.16 6.34595 204.222 6.40601 204.222 6.52786V7.85275C204.222 7.97288 204.162 8.03467 204.04 8.03467H202.806Z" fill="#EAEAEA"/>
<path d="M204.387 10.7721C204.267 10.7721 204.207 10.712 204.207 10.5902V9.26529C204.207 9.14516 204.267 9.08337 204.387 9.08337H205.622C205.743 9.08337 205.803 9.14344 205.803 9.26529V10.5902C205.803 10.712 205.743 10.7721 205.622 10.7721H204.387Z" fill="#EAEAEA"/>
<path d="M81.6232 9.08337H82.8588C82.9584 9.08337 83.0408 9.16404 83.0408 9.26529V10.5902C83.0408 10.6897 82.9601 10.7721 82.8588 10.7721H81.6249C81.5254 10.7721 81.443 10.6914 81.443 10.5902V9.26529C81.443 9.16575 81.5237 9.08337 81.6249 9.08337H81.6232Z" fill="#EAEAEA"/>
<path d="M83.1662 8.03467C83.046 8.03467 82.986 7.9746 82.986 7.85275V6.52786C82.986 6.40773 83.046 6.34595 83.1662 6.34595H84.4001C84.5202 6.34595 84.582 6.40601 84.582 6.52786V7.85275C84.582 7.97288 84.5219 8.03467 84.4001 8.03467H83.1662Z" fill="#EAEAEA"/>
<path d="M84.7465 10.7721C84.6263 10.7721 84.5663 10.712 84.5663 10.5902V9.26529C84.5663 9.14516 84.6263 9.08337 84.7465 9.08337H85.9821C86.1023 9.08337 86.1623 9.14344 86.1623 9.26529V10.5902C86.1623 10.712 86.1023 10.7721 85.9821 10.7721H84.7465Z" fill="#EAEAEA"/>
<path d="M159.282 23.6089C159.16 23.6089 159.1 23.5489 159.1 23.427V22.3733C159.1 22.2532 159.16 22.1914 159.282 22.1914H161.462C161.704 22.1914 161.927 22.1639 162.134 22.109C162.34 22.0541 162.519 21.9631 162.67 21.8361C162.821 21.7091 162.939 21.5341 163.023 21.3093C163.107 21.0844 163.15 20.803 163.15 20.4649V19.993H161.208C160.674 19.993 160.193 19.9295 159.764 19.8025C159.334 19.6755 158.968 19.4695 158.666 19.1846C158.364 18.8998 158.134 18.5222 157.976 18.0502C157.818 17.5783 157.741 16.9965 157.741 16.3066C157.741 15.6167 157.832 15.0143 158.014 14.4995C158.194 13.9846 158.446 13.5607 158.767 13.2278C159.088 12.8948 159.461 12.646 159.884 12.483C160.308 12.3199 160.763 12.2375 161.245 12.2375C162.323 12.2375 163.164 12.5499 163.77 13.1729C164.374 13.7958 164.678 14.805 164.678 16.1968V20.4272C164.678 20.9952 164.602 21.4809 164.451 21.879C164.3 22.2772 164.089 22.605 163.816 22.859C163.543 23.113 163.214 23.3 162.826 23.4219C162.438 23.542 162.009 23.6038 161.537 23.6038H159.286L159.282 23.6089ZM161.242 13.6585C160.624 13.6585 160.14 13.9005 159.79 14.3845C159.438 14.8684 159.263 15.5103 159.263 16.31C159.263 17.1698 159.435 17.7619 159.78 18.0897C160.125 18.4158 160.636 18.5805 161.314 18.5805H163.149V16.2019C163.149 15.4022 162.999 14.7792 162.704 14.3313C162.407 13.8834 161.92 13.6585 161.242 13.6585Z" fill="#EAEAEA"/>
<path d="M176.112 12.2426V11.4617C176.112 11.3416 176.173 11.2798 176.294 11.2798H177.456C177.576 11.2798 177.638 11.3399 177.638 11.4617V17.6177C177.638 17.9815 177.707 18.2321 177.846 18.3711C177.985 18.5101 178.206 18.5805 178.508 18.5805H179.308C179.792 18.5805 180.034 18.8224 180.034 19.3064C180.034 19.6084 179.976 19.7989 179.862 19.8779C179.747 19.9568 179.562 19.9963 179.308 19.9963H178.237C177.643 19.9963 177.182 19.8847 176.849 19.6599C176.516 19.4351 176.296 19.0644 176.186 18.5427C175.944 18.7607 175.653 18.9237 175.314 19.0335C174.976 19.1416 174.607 19.1966 174.208 19.1966C173.736 19.1966 173.296 19.1296 172.891 18.9975C172.486 18.8653 172.134 18.6611 171.837 18.39C171.541 18.1188 171.309 17.7721 171.139 17.3551C170.969 16.9381 170.885 16.4438 170.885 15.8758C170.885 15.1979 170.981 14.6298 171.175 14.1699C171.369 13.7099 171.623 13.3375 171.937 13.0526C172.253 12.7678 172.618 12.5618 173.035 12.4348C173.452 12.3078 173.887 12.2443 174.335 12.2443H176.114L176.112 12.2426ZM174.225 17.7807C174.915 17.7807 175.402 17.5782 175.687 17.1732C175.972 16.7682 176.114 16.2018 176.114 15.4759V13.6602H174.335C173.766 13.6602 173.301 13.8215 172.946 14.1407C172.589 14.4616 172.411 15.04 172.411 15.874C172.411 16.5039 172.569 16.9793 172.883 17.3002C173.198 17.6211 173.646 17.7824 174.226 17.7824L174.225 17.7807ZM172.646 10.0459C172.526 10.0459 172.464 9.98583 172.464 9.86398V8.53909C172.464 8.41896 172.524 8.35718 172.646 8.35718H173.88C174 8.35718 174.062 8.41724 174.062 8.53909V9.86398C174.062 9.98411 174.002 10.0459 173.88 10.0459H172.646ZM174.861 10.0459C174.74 10.0459 174.679 9.98583 174.679 9.86398V8.53909C174.679 8.41896 174.74 8.35718 174.861 8.35718H176.095C176.215 8.35718 176.276 8.41724 176.276 8.53909V9.86398C176.276 9.98411 176.215 10.0459 176.095 10.0459H174.861Z" fill="#EAEAEA"/>
<path d="M182.523 12.5688H184.139C185.059 12.5688 185.813 12.8297 186.4 13.3497C186.987 13.8697 187.28 14.6866 187.28 15.8004V16.8902C187.28 17.496 187.229 17.9971 187.124 18.397C187.019 18.7969 186.86 19.1144 186.647 19.3495C186.432 19.5863 186.161 19.7528 185.832 19.8489C185.502 19.945 185.107 19.9948 184.647 19.9948H179.308C178.824 19.9948 178.582 19.7528 178.582 19.2688C178.582 18.9668 178.641 18.7763 178.754 18.6973C178.869 18.6184 179.054 18.5789 179.308 18.5789H184.083C184.423 18.5789 184.695 18.5514 184.901 18.4965C185.107 18.4416 185.263 18.3507 185.373 18.2237C185.483 18.0967 185.555 17.9302 185.591 17.7242C185.627 17.5183 185.646 17.2592 185.646 16.9434V15.8176C185.646 14.5957 184.956 13.983 183.576 13.983H180.654C180.534 13.983 180.472 13.9229 180.472 13.8011V12.7834C180.472 12.7233 180.493 12.665 180.535 12.6118C180.578 12.5568 180.611 12.5174 180.635 12.4933L184.611 7.80817C184.683 7.72407 184.762 7.7052 184.848 7.75325L185.72 8.47919C185.818 8.55127 185.842 8.63708 185.794 8.73319L182.523 12.5637V12.5688Z" fill="#EAEAEA"/>
<path d="M188.444 23.6089C188.322 23.6089 188.262 23.5488 188.262 23.427V22.3733C188.262 22.2531 188.322 22.1913 188.444 22.1913H188.861C189.841 22.1913 190.332 21.6765 190.332 20.6485V12.7506C190.332 12.6305 190.392 12.5687 190.512 12.5687H191.674C191.794 12.5687 191.856 12.6288 191.856 12.7506V17.3449C191.856 17.7567 192.003 18.0656 192.3 18.2716C192.597 18.4775 192.993 18.5805 193.489 18.5805H193.688C193.93 18.5805 194.112 18.632 194.232 18.735C194.353 18.8379 194.414 19.0113 194.414 19.2515C194.414 19.5656 194.356 19.7681 194.243 19.8591C194.128 19.95 193.942 19.9946 193.688 19.9946H193.307C192.678 19.9946 192.194 19.8007 191.856 19.4128V20.6107C191.856 21.5907 191.607 22.3355 191.111 22.8435C190.615 23.3515 189.887 23.6055 188.931 23.6055H188.44L188.444 23.6089Z" fill="#EAEAEA"/>
<path d="M193.709 19.9964C193.467 19.9964 193.304 19.9449 193.218 19.842C193.134 19.739 193.091 19.5605 193.091 19.3065C193.091 19.0045 193.13 18.8071 193.209 18.7161C193.288 18.6252 193.455 18.5806 193.709 18.5806H195.706C195.948 18.5806 196.13 18.6286 196.25 18.7264C196.37 18.8243 196.43 18.9993 196.43 19.2533C196.43 19.5554 196.374 19.7561 196.259 19.8523C196.144 19.9484 195.958 19.9981 195.706 19.9981H193.709V19.9964Z" fill="#EAEAEA"/>
<path d="M201.244 19.9964C200.856 19.9964 200.518 19.9174 200.227 19.7595C199.935 19.6016 199.712 19.3665 199.554 19.0507C199.252 19.6806 198.622 19.9946 197.666 19.9946H195.704C195.462 19.9946 195.281 19.9517 195.16 19.8676C195.04 19.7835 194.979 19.6136 194.979 19.3597C194.979 19.0576 195.037 18.8517 195.15 18.7418C195.265 18.6337 195.45 18.5788 195.704 18.5788H197.393C197.695 18.5788 197.917 18.5101 198.056 18.3694C198.195 18.2304 198.265 17.9798 198.265 17.616V14.3107C198.265 14.1905 198.325 14.1287 198.445 14.1287H199.609C199.729 14.1287 199.789 14.1888 199.789 14.3107V17.3431C199.789 17.755 199.935 18.0639 200.225 18.2699C200.515 18.4758 200.903 18.5788 201.387 18.5788H201.842C202.144 18.5788 202.365 18.5101 202.504 18.3694C202.643 18.2304 202.712 17.9798 202.712 17.616V14.3107C202.712 14.1905 202.772 14.1287 202.894 14.1287H204.055C204.175 14.1287 204.237 14.1888 204.237 14.3107V17.3431C204.237 17.755 204.383 18.0639 204.673 18.2699C204.965 18.4758 205.351 18.5788 205.835 18.5788H206.29C206.592 18.5788 206.813 18.5101 206.952 18.3694C207.091 18.2304 207.162 17.9798 207.162 17.616V12.7489C207.162 12.6288 207.222 12.567 207.344 12.567H208.505C208.626 12.567 208.687 12.6271 208.687 12.7489V17.7053C208.687 18.493 208.524 19.0713 208.197 19.4403C207.87 19.8093 207.325 19.9946 206.563 19.9946H205.691C205.303 19.9946 204.965 19.9157 204.673 19.7578C204.383 19.5999 204.158 19.3648 204 19.049C203.698 19.6789 203.069 19.9929 202.113 19.9929H201.241L201.244 19.9964Z" fill="#EAEAEA"/>
<path d="M204.831 42.2579C204.219 42.2579 203.694 42.1092 203.257 41.8118C202.828 41.5144 202.526 41.099 202.352 40.5654C202.282 40.3468 202.229 40.1194 202.194 39.8832C202.159 39.6383 202.142 39.3322 202.142 38.9648C202.142 38.5975 202.159 38.2957 202.194 38.0596C202.229 37.8234 202.282 37.596 202.352 37.3774C202.526 36.8351 202.828 36.4196 203.257 36.131C203.694 35.8336 204.219 35.6849 204.831 35.6849C205.443 35.6849 205.964 35.8336 206.392 36.131C206.83 36.4196 207.136 36.8351 207.311 37.3774C207.381 37.596 207.433 37.8234 207.468 38.0596C207.503 38.2957 207.521 38.5975 207.521 38.9648C207.521 39.3322 207.503 39.6383 207.468 39.8832C207.433 40.1194 207.381 40.3468 207.311 40.5654C207.136 41.099 206.83 41.5144 206.392 41.8118C205.964 42.1092 205.443 42.2579 204.831 42.2579ZM204.831 41.2345C205.181 41.2345 205.478 41.1514 205.723 40.9853C205.968 40.8103 206.143 40.5654 206.248 40.2506C206.301 40.0756 206.336 39.8963 206.353 39.7127C206.379 39.5202 206.392 39.271 206.392 38.9648C206.392 38.6587 206.379 38.4138 206.353 38.2301C206.336 38.0465 206.301 37.8672 206.248 37.6922C206.143 37.3774 205.968 37.1368 205.723 36.9707C205.478 36.7957 205.181 36.7083 204.831 36.7083C204.481 36.7083 204.184 36.7957 203.939 36.9707C203.694 37.1368 203.519 37.3774 203.414 37.6922C203.362 37.8672 203.322 38.0465 203.296 38.2301C203.279 38.4138 203.27 38.6587 203.27 38.9648C203.27 39.271 203.279 39.5202 203.296 39.7127C203.322 39.8963 203.362 40.0756 203.414 40.2506C203.519 40.5654 203.694 40.8103 203.939 40.9853C204.184 41.1514 204.481 41.2345 204.831 41.2345Z" fill="#EAEAEA"/>
<path d="M195.039 40.1588C194.995 40.0276 194.956 39.8964 194.921 39.7652C194.895 39.6253 194.873 39.4635 194.855 39.2798C194.838 39.0874 194.825 38.86 194.816 38.5976C194.807 38.3352 194.803 38.0203 194.803 37.653C194.803 37.2856 194.807 36.9707 194.816 36.7083C194.825 36.446 194.838 36.2229 194.855 36.0392C194.873 35.8468 194.895 35.685 194.921 35.5538C194.956 35.4139 194.995 35.2783 195.039 35.1471C195.266 34.4387 195.634 33.9139 196.141 33.5728C196.648 33.2229 197.269 33.048 198.004 33.048C198.669 33.048 199.246 33.2054 199.736 33.5203C200.234 33.8264 200.61 34.2681 200.864 34.8454C200.89 34.9241 200.873 34.9809 200.812 35.0159L200.024 35.3964C199.937 35.4401 199.876 35.4183 199.841 35.3308C199.666 34.9809 199.434 34.6967 199.145 34.478C198.857 34.2506 198.476 34.1369 198.004 34.1369C197.514 34.1369 197.121 34.2506 196.823 34.478C196.526 34.7054 196.303 35.029 196.154 35.4489C196.128 35.5451 196.102 35.65 196.075 35.7637C196.058 35.8687 196.04 36.0043 196.023 36.1704C196.014 36.3279 196.005 36.529 195.997 36.7739C195.988 37.0101 195.984 37.3031 195.984 37.653C195.984 38.0028 195.988 38.3002 195.997 38.5451C196.005 38.7812 196.014 38.9824 196.023 39.1486C196.04 39.306 196.058 39.4416 196.075 39.5553C196.102 39.669 196.128 39.7696 196.154 39.8571C196.303 40.2769 196.526 40.6005 196.823 40.8279C197.121 41.0553 197.514 41.169 198.004 41.169C198.476 41.169 198.857 41.0597 199.145 40.841C199.434 40.6136 199.666 40.325 199.841 39.9751C199.876 39.8877 199.937 39.8658 200.024 39.9095L200.812 40.29C200.873 40.325 200.89 40.3818 200.864 40.4606C200.61 41.0378 200.234 41.4839 199.736 41.7988C199.246 42.1049 198.669 42.2579 198.004 42.2579C197.269 42.2579 196.648 42.0874 196.141 41.7463C195.634 41.3964 195.266 40.8673 195.039 40.1588Z" fill="#EAEAEA"/>
<path d="M187.042 44.6194C186.596 44.6194 186.171 44.5319 185.769 44.357C185.375 44.1908 185.074 43.9678 184.864 43.6879C184.811 43.6267 184.816 43.5655 184.877 43.5042L185.415 42.9663C185.476 42.9051 185.542 42.9051 185.612 42.9663C185.83 43.1675 186.053 43.3206 186.281 43.4255C186.517 43.5392 186.788 43.5961 187.094 43.5961C187.619 43.5961 188.013 43.4561 188.275 43.1762C188.546 42.9051 188.682 42.4809 188.682 41.9036V41.1689H188.669C188.52 41.4313 188.306 41.6412 188.026 41.7987C187.755 41.9561 187.387 42.0348 186.924 42.0348C186.39 42.0348 185.944 41.908 185.585 41.6544C185.227 41.392 184.969 41.0115 184.811 40.513C184.733 40.2768 184.676 40.0363 184.641 39.7914C184.615 39.5377 184.601 39.2272 184.601 38.8599C184.601 38.4925 184.615 38.1864 184.641 37.9415C184.676 37.6879 184.733 37.443 184.811 37.2068C184.969 36.7083 185.227 36.3322 185.585 36.0785C185.944 35.8161 186.39 35.6849 186.924 35.6849C187.387 35.6849 187.755 35.7637 188.026 35.9211C188.306 36.0785 188.52 36.2884 188.669 36.5508H188.682V35.9604C188.682 35.873 188.725 35.8293 188.813 35.8293H189.652C189.74 35.8293 189.784 35.873 189.784 35.9604V41.838C189.784 42.7389 189.548 43.4255 189.075 43.8978C188.612 44.3789 187.934 44.6194 187.042 44.6194ZM187.199 41.0246C187.873 41.0246 188.319 40.7098 188.537 40.08C188.59 39.9226 188.625 39.7476 188.642 39.5552C188.669 39.3628 188.682 39.131 188.682 38.8599C188.682 38.5887 188.669 38.3613 188.642 38.1777C188.625 37.9852 188.59 37.8059 188.537 37.6398C188.319 37.0188 187.873 36.7083 187.199 36.7083C186.534 36.7083 186.093 37.0188 185.874 37.6398C185.822 37.8059 185.782 37.9896 185.756 38.1908C185.73 38.3832 185.717 38.6062 185.717 38.8599C185.717 39.3584 185.769 39.7651 185.874 40.08C186.093 40.7098 186.534 41.0246 187.199 41.0246Z" fill="#EAEAEA"/>
<path d="M181.939 42.1136C181.851 42.1136 181.808 42.0698 181.808 41.9824V38.3089C181.808 37.8016 181.69 37.408 181.454 37.1281C181.226 36.8482 180.876 36.7083 180.404 36.7083C179.975 36.7083 179.626 36.8482 179.354 37.1281C179.092 37.3992 178.961 37.771 178.961 38.2433V41.9824C178.961 42.0698 178.917 42.1136 178.83 42.1136H177.99C177.902 42.1136 177.859 42.0698 177.859 41.9824V35.9604C177.859 35.873 177.902 35.8293 177.99 35.8293H178.83C178.917 35.8293 178.961 35.873 178.961 35.9604V36.5377H178.974C179.123 36.2928 179.346 36.0916 179.643 35.9342C179.94 35.768 180.303 35.6849 180.732 35.6849C181.414 35.6849 181.948 35.8992 182.333 36.3278C182.717 36.7564 182.91 37.3293 182.91 38.0465V41.9824C182.91 42.0698 182.866 42.1136 182.779 42.1136H181.939Z" fill="#EAEAEA"/>
<path d="M174.71 34.4125C174.622 34.4125 174.578 34.3688 174.578 34.2813V33.3236C174.578 33.2361 174.622 33.1924 174.71 33.1924H175.602C175.689 33.1924 175.733 33.2361 175.733 33.3236V34.2813C175.733 34.3688 175.689 34.4125 175.602 34.4125H174.71ZM174.736 42.1137C174.648 42.1137 174.605 42.07 174.605 41.9825V35.9606C174.605 35.8732 174.648 35.8294 174.736 35.8294H175.576C175.663 35.8294 175.707 35.8732 175.707 35.9606V41.9825C175.707 42.07 175.663 42.1137 175.576 42.1137H174.736Z" fill="#EAEAEA"/>
<path d="M172.277 42.1792C171.665 42.1792 171.227 42.0393 170.965 41.7594C170.711 41.4708 170.584 41.016 170.584 40.395V36.8002C170.584 36.7477 170.558 36.7215 170.506 36.7215H169.981C169.893 36.7215 169.85 36.6777 169.85 36.5903V35.9605C169.85 35.8731 169.893 35.8293 169.981 35.8293H170.506C170.558 35.8293 170.584 35.8031 170.584 35.7506V33.9795C170.584 33.892 170.628 33.8483 170.716 33.8483H171.555C171.643 33.8483 171.686 33.892 171.686 33.9795V35.7506C171.686 35.8031 171.713 35.8293 171.765 35.8293H172.762C172.85 35.8293 172.893 35.8731 172.893 35.9605V36.5903C172.893 36.6777 172.85 36.7215 172.762 36.7215H171.765C171.713 36.7215 171.686 36.7477 171.686 36.8002V40.3556C171.686 40.6705 171.748 40.8848 171.87 40.9985C172.001 41.1034 172.207 41.1559 172.487 41.1559H172.762C172.85 41.1559 172.893 41.1996 172.893 41.2871V42.048C172.893 42.1355 172.85 42.1792 172.762 42.1792H172.277Z" fill="#EAEAEA"/>
<path d="M168.387 42.1793C167.836 42.1793 167.443 42.0481 167.207 41.7857C166.97 41.5146 166.852 41.0948 166.852 40.5262V33.3236C166.852 33.2361 166.896 33.1924 166.984 33.1924H167.823C167.911 33.1924 167.954 33.2361 167.954 33.3236V40.4607C167.954 40.723 168.003 40.9067 168.099 41.0117C168.204 41.1079 168.366 41.156 168.584 41.156H168.833C168.921 41.156 168.965 41.1997 168.965 41.2872V42.0481C168.965 42.1356 168.921 42.1793 168.833 42.1793H168.387Z" fill="#EAEAEA"/>
<path d="M163.755 42.1135C163.668 42.1135 163.624 42.0698 163.624 41.9823V41.3919H163.611C163.445 41.6543 163.217 41.8642 162.929 42.0217C162.649 42.1791 162.303 42.2578 161.892 42.2578C161.201 42.2578 160.663 42.0436 160.279 41.615C159.903 41.1777 159.714 40.6004 159.714 39.8832V35.9604C159.714 35.873 159.758 35.8292 159.846 35.8292H160.685C160.773 35.8292 160.817 35.873 160.817 35.9604V39.6208C160.817 40.1368 160.93 40.5348 161.158 40.8147C161.385 41.0946 161.735 41.2345 162.207 41.2345C162.636 41.2345 162.977 41.0946 163.231 40.8147C163.493 40.5348 163.624 40.1587 163.624 39.6864V35.9604C163.624 35.873 163.668 35.8292 163.755 35.8292H164.595C164.682 35.8292 164.726 35.873 164.726 35.9604V41.9823C164.726 42.0698 164.682 42.1135 164.595 42.1135H163.755Z" fill="#EAEAEA"/>
<path d="M155.54 42.2579C155.234 42.2579 154.949 42.2273 154.687 42.166C154.425 42.1135 154.184 42.0436 153.965 41.9561C153.756 41.8599 153.563 41.7593 153.388 41.6544C153.222 41.5407 153.073 41.427 152.942 41.3133C152.881 41.252 152.881 41.1908 152.942 41.1296L153.48 40.5523C153.541 40.4911 153.603 40.4911 153.664 40.5523C153.9 40.7535 154.184 40.924 154.517 41.064C154.858 41.2039 155.221 41.2739 155.605 41.2739C156.069 41.2739 156.414 41.1864 156.642 41.0115C156.869 40.8278 156.983 40.596 156.983 40.3162C156.983 40.0713 156.9 39.8788 156.734 39.7389C156.576 39.5902 156.253 39.4896 155.763 39.4371L155.094 39.3715C154.473 39.3016 154.005 39.1179 153.69 38.8205C153.375 38.5231 153.218 38.1164 153.218 37.6004C153.218 36.9969 153.419 36.529 153.821 36.1966C154.232 35.8555 154.81 35.6849 155.553 35.6849C156.017 35.6849 156.436 35.7505 156.812 35.8817C157.197 36.0129 157.521 36.1791 157.783 36.3803C157.853 36.424 157.862 36.4852 157.81 36.564L157.363 37.1281C157.311 37.1893 157.25 37.1981 157.18 37.1543C156.979 37.0231 156.725 36.9051 156.419 36.8001C156.121 36.6951 155.811 36.6427 155.487 36.6427C155.094 36.6427 154.796 36.7258 154.595 36.8919C154.394 37.0494 154.293 37.2549 154.293 37.5086C154.293 37.7622 154.381 37.959 154.556 38.0989C154.731 38.2301 155.054 38.3176 155.527 38.3613L156.183 38.4269C156.821 38.4882 157.293 38.6718 157.6 38.978C157.914 39.2841 158.072 39.6908 158.072 40.1981C158.072 40.8191 157.853 41.3176 157.416 41.6937C156.987 42.0698 156.362 42.2579 155.54 42.2579Z" fill="#EAEAEA"/>
<path d="M150.319 42.1136C150.231 42.1136 150.188 42.0698 150.188 41.9824V38.3089C150.188 37.8016 150.069 37.408 149.833 37.1281C149.606 36.8482 149.256 36.7083 148.784 36.7083C148.355 36.7083 148.005 36.8482 147.734 37.1281C147.472 37.3992 147.341 37.771 147.341 38.2433V41.9824C147.341 42.0698 147.297 42.1136 147.209 42.1136H146.37C146.282 42.1136 146.239 42.0698 146.239 41.9824V35.9604C146.239 35.873 146.282 35.8293 146.37 35.8293H147.209C147.297 35.8293 147.341 35.873 147.341 35.9604V36.5377H147.354C147.502 36.2928 147.725 36.0916 148.023 35.9342C148.32 35.768 148.683 35.6849 149.112 35.6849C149.794 35.6849 150.327 35.8992 150.712 36.3278C151.097 36.7564 151.29 37.3293 151.29 38.0465V41.9824C151.29 42.0698 151.246 42.1136 151.158 42.1136H150.319Z" fill="#EAEAEA"/>
<path d="M141.783 42.2579C141.171 42.2579 140.646 42.1092 140.209 41.8118C139.78 41.5144 139.478 41.099 139.303 40.5654C139.233 40.3468 139.181 40.1194 139.146 39.8832C139.111 39.6383 139.094 39.3322 139.094 38.9648C139.094 38.5975 139.111 38.2957 139.146 38.0596C139.181 37.8234 139.233 37.596 139.303 37.3774C139.478 36.8351 139.78 36.4196 140.209 36.131C140.646 35.8336 141.171 35.6849 141.783 35.6849C142.395 35.6849 142.916 35.8336 143.344 36.131C143.782 36.4196 144.088 36.8351 144.263 37.3774C144.333 37.596 144.385 37.8234 144.42 38.0596C144.455 38.2957 144.473 38.5975 144.473 38.9648C144.473 39.3322 144.455 39.6383 144.42 39.8832C144.385 40.1194 144.333 40.3468 144.263 40.5654C144.088 41.099 143.782 41.5144 143.344 41.8118C142.916 42.1092 142.395 42.2579 141.783 42.2579ZM141.783 41.2345C142.133 41.2345 142.43 41.1514 142.675 40.9853C142.92 40.8103 143.095 40.5654 143.2 40.2506C143.252 40.0756 143.287 39.8963 143.305 39.7127C143.331 39.5202 143.344 39.271 143.344 38.9648C143.344 38.6587 143.331 38.4138 143.305 38.2301C143.287 38.0465 143.252 37.8672 143.2 37.6922C143.095 37.3774 142.92 37.1368 142.675 36.9707C142.43 36.7957 142.133 36.7083 141.783 36.7083C141.433 36.7083 141.136 36.7957 140.891 36.9707C140.646 37.1368 140.471 37.3774 140.366 37.6922C140.314 37.8672 140.274 38.0465 140.248 38.2301C140.231 38.4138 140.222 38.6587 140.222 38.9648C140.222 39.271 140.231 39.5202 140.248 39.7127C140.274 39.8963 140.314 40.0756 140.366 40.2506C140.471 40.5654 140.646 40.8103 140.891 40.9853C141.136 41.1514 141.433 41.2345 141.783 41.2345Z" fill="#EAEAEA"/>
<path d="M131.99 40.1588C131.946 40.0276 131.907 39.8964 131.872 39.7652C131.846 39.6253 131.824 39.4635 131.806 39.2798C131.789 39.0874 131.776 38.86 131.767 38.5976C131.758 38.3352 131.754 38.0203 131.754 37.653C131.754 37.2856 131.758 36.9707 131.767 36.7083C131.776 36.446 131.789 36.2229 131.806 36.0392C131.824 35.8468 131.846 35.685 131.872 35.5538C131.907 35.4139 131.946 35.2783 131.99 35.1471C132.217 34.4387 132.585 33.9139 133.092 33.5728C133.599 33.2229 134.22 33.048 134.955 33.048C135.62 33.048 136.197 33.2054 136.687 33.5203C137.185 33.8264 137.562 34.2681 137.815 34.8454C137.841 34.9241 137.824 34.9809 137.763 35.0159L136.976 35.3964C136.888 35.4401 136.827 35.4183 136.792 35.3308C136.617 34.9809 136.385 34.6967 136.097 34.478C135.808 34.2506 135.427 34.1369 134.955 34.1369C134.465 34.1369 134.072 34.2506 133.774 34.478C133.477 34.7054 133.254 35.029 133.105 35.4489C133.079 35.5451 133.053 35.65 133.027 35.7637C133.009 35.8687 132.992 36.0043 132.974 36.1704C132.965 36.3279 132.957 36.529 132.948 36.7739C132.939 37.0101 132.935 37.3031 132.935 37.653C132.935 38.0028 132.939 38.3002 132.948 38.5451C132.957 38.7812 132.965 38.9824 132.974 39.1486C132.992 39.306 133.009 39.4416 133.027 39.5553C133.053 39.669 133.079 39.7696 133.105 39.8571C133.254 40.2769 133.477 40.6005 133.774 40.8279C134.072 41.0553 134.465 41.169 134.955 41.169C135.427 41.169 135.808 41.0597 136.097 40.841C136.385 40.6136 136.617 40.325 136.792 39.9751C136.827 39.8877 136.888 39.8658 136.976 39.9095L137.763 40.29C137.824 40.325 137.841 40.3818 137.815 40.4606C137.562 41.0378 137.185 41.4839 136.687 41.7988C136.197 42.1049 135.62 42.2579 134.955 42.2579C134.22 42.2579 133.599 42.0874 133.092 41.7463C132.585 41.3964 132.217 40.8673 131.99 40.1588Z" fill="#EAEAEA"/>
<path d="M126.761 42.1793C126.21 42.1793 125.816 42.0481 125.58 41.7857C125.344 41.5146 125.226 41.0948 125.226 40.5262V33.3236C125.226 33.2361 125.27 33.1924 125.357 33.1924H126.197C126.284 33.1924 126.328 33.2361 126.328 33.3236V40.4607C126.328 40.723 126.376 40.9067 126.472 41.0117C126.577 41.1079 126.739 41.156 126.958 41.156H127.207C127.294 41.156 127.338 41.1997 127.338 41.2872V42.0481C127.338 42.1356 127.294 42.1793 127.207 42.1793H126.761Z" fill="#EAEAEA"/>
<path d="M122.254 42.1136C122.166 42.1136 122.122 42.0698 122.122 41.9824V41.4313H122.109C121.961 41.6675 121.733 41.8643 121.427 42.0217C121.121 42.1791 120.727 42.2579 120.246 42.2579C119.949 42.2579 119.669 42.2185 119.407 42.1398C119.153 42.0611 118.93 41.943 118.738 41.7856C118.554 41.6281 118.405 41.4313 118.291 41.1952C118.187 40.959 118.134 40.6835 118.134 40.3686C118.134 39.7039 118.348 39.2141 118.777 38.8992C119.214 38.5844 119.818 38.4269 120.587 38.4269H122.017C122.07 38.4269 122.096 38.4007 122.096 38.3482V37.889C122.096 37.4517 121.991 37.1368 121.781 36.9444C121.571 36.752 121.173 36.6558 120.587 36.6558C120.229 36.6558 119.931 36.6995 119.695 36.787C119.459 36.8657 119.249 36.9707 119.066 37.1019C118.987 37.1631 118.926 37.1587 118.882 37.0887L118.528 36.4852C118.493 36.4153 118.501 36.354 118.554 36.3016C118.79 36.1179 119.087 35.9692 119.446 35.8555C119.805 35.7418 120.22 35.6849 120.692 35.6849C121.584 35.6849 122.219 35.8511 122.595 36.1835C122.971 36.5071 123.159 37.0537 123.159 37.8234V41.9824C123.159 42.0698 123.115 42.1136 123.028 42.1136H122.254ZM120.509 41.3133C121.007 41.3133 121.396 41.2083 121.676 40.9984C121.956 40.7797 122.096 40.4736 122.096 40.08V39.3847C122.096 39.3322 122.07 39.306 122.017 39.306H120.758C120.207 39.306 119.809 39.389 119.564 39.5552C119.319 39.7127 119.197 39.9707 119.197 40.3293C119.197 40.6529 119.31 40.8978 119.538 41.064C119.765 41.2302 120.089 41.3133 120.509 41.3133Z" fill="#EAEAEA"/>
<path d="M116.122 42.1792C115.509 42.1792 115.072 42.0393 114.81 41.7594C114.556 41.4708 114.429 41.016 114.429 40.395V36.8002C114.429 36.7477 114.403 36.7215 114.351 36.7215H113.826C113.738 36.7215 113.695 36.6777 113.695 36.5903V35.9605C113.695 35.8731 113.738 35.8293 113.826 35.8293H114.351C114.403 35.8293 114.429 35.8031 114.429 35.7506V33.9795C114.429 33.892 114.473 33.8483 114.56 33.8483H115.4C115.488 33.8483 115.531 33.892 115.531 33.9795V35.7506C115.531 35.8031 115.558 35.8293 115.61 35.8293H116.607C116.695 35.8293 116.738 35.8731 116.738 35.9605V36.5903C116.738 36.6777 116.695 36.7215 116.607 36.7215H115.61C115.558 36.7215 115.531 36.7477 115.531 36.8002V40.3556C115.531 40.6705 115.593 40.8848 115.715 40.9985C115.846 41.1034 116.052 41.1559 116.332 41.1559H116.607C116.695 41.1559 116.738 41.1996 116.738 41.2871V42.048C116.738 42.1355 116.695 42.1792 116.607 42.1792H116.122Z" fill="#EAEAEA"/>
<path d="M111.242 42.1136C111.154 42.1136 111.111 42.0698 111.111 41.9824V38.3089C111.111 37.8016 110.992 37.408 110.756 37.1281C110.529 36.8482 110.179 36.7083 109.707 36.7083C109.278 36.7083 108.928 36.8482 108.657 37.1281C108.395 37.3992 108.264 37.771 108.264 38.2433V41.9824C108.264 42.0698 108.22 42.1136 108.132 42.1136H107.293C107.205 42.1136 107.161 42.0698 107.161 41.9824V35.9604C107.161 35.873 107.205 35.8293 107.293 35.8293H108.132C108.22 35.8293 108.264 35.873 108.264 35.9604V36.5377H108.277C108.425 36.2928 108.648 36.0916 108.946 35.9342C109.243 35.768 109.606 35.6849 110.035 35.6849C110.717 35.6849 111.25 35.8992 111.635 36.3278C112.02 36.7564 112.213 37.3293 112.213 38.0465V41.9824C112.213 42.0698 112.169 42.1136 112.081 42.1136H111.242Z" fill="#EAEAEA"/>
<path d="M102.796 42.2579C102.158 42.2579 101.62 42.1135 101.183 41.8249C100.754 41.5275 100.452 41.1033 100.277 40.5523C100.207 40.3511 100.155 40.1281 100.12 39.8832C100.085 39.6383 100.068 39.3322 100.068 38.9648C100.068 38.5975 100.081 38.2914 100.107 38.0465C100.142 37.7928 100.194 37.5698 100.264 37.3774C100.439 36.8263 100.741 36.4065 101.17 36.1179C101.607 35.8293 102.127 35.6849 102.731 35.6849C103.334 35.6849 103.85 35.8336 104.279 36.131C104.716 36.4196 105.022 36.8351 105.197 37.3774C105.232 37.4823 105.258 37.5917 105.276 37.7054C105.302 37.8103 105.324 37.9328 105.342 38.0727C105.359 38.2127 105.372 38.3745 105.381 38.5581C105.39 38.7331 105.394 38.9386 105.394 39.1748C105.394 39.2622 105.346 39.306 105.25 39.306H101.275C101.222 39.306 101.196 39.3322 101.196 39.3847C101.196 39.5596 101.205 39.7039 101.222 39.8176C101.24 39.9313 101.266 40.0406 101.301 40.1456C101.423 40.513 101.62 40.7885 101.891 40.9721C102.162 41.1471 102.495 41.2345 102.888 41.2345C103.264 41.2345 103.584 41.1689 103.846 41.0377C104.108 40.9065 104.327 40.7404 104.502 40.5392C104.572 40.4692 104.637 40.4605 104.699 40.513L105.237 40.9984C105.298 41.0509 105.302 41.1121 105.25 41.1821C104.996 41.4969 104.659 41.7549 104.24 41.9561C103.828 42.1573 103.347 42.2579 102.796 42.2579ZM104.187 38.4269C104.24 38.4269 104.266 38.4007 104.266 38.3482C104.266 38.0596 104.235 37.8234 104.174 37.6398C104.069 37.3249 103.89 37.0844 103.636 36.9182C103.391 36.7433 103.089 36.6558 102.731 36.6558C102.372 36.6558 102.066 36.7433 101.812 36.9182C101.568 37.0844 101.393 37.3249 101.288 37.6398C101.226 37.8234 101.196 38.0596 101.196 38.3482C101.196 38.4007 101.222 38.4269 101.275 38.4269H104.187Z" fill="#EAEAEA"/>
<path d="M97.3949 42.1136C97.3075 42.1136 97.2637 42.0698 97.2637 41.9824V38.3089C97.2637 37.8016 97.1457 37.408 96.9095 37.1281C96.6821 36.8482 96.3322 36.7083 95.8599 36.7083C95.4401 36.7083 95.0946 36.8482 94.8235 37.1281C94.5523 37.3992 94.4168 37.771 94.4168 38.2433V41.9824C94.4168 42.0698 94.373 42.1136 94.2856 42.1136H93.4459C93.3585 42.1136 93.3147 42.0698 93.3147 41.9824V38.3089C93.3147 37.8016 93.1967 37.408 92.9605 37.1281C92.7331 36.8482 92.3832 36.7083 91.9109 36.7083C91.4824 36.7083 91.1325 36.8482 90.8614 37.1281C90.599 37.3992 90.4678 37.771 90.4678 38.2433V41.9824C90.4678 42.0698 90.424 42.1136 90.3366 42.1136H89.4969C89.4095 42.1136 89.3657 42.0698 89.3657 41.9824V35.9604C89.3657 35.873 89.4095 35.8293 89.4969 35.8293H90.3366C90.424 35.8293 90.4678 35.873 90.4678 35.9604V36.5377H90.4809C90.6296 36.2928 90.8526 36.0916 91.15 35.9342C91.4474 35.768 91.8103 35.6849 92.2389 35.6849C92.6675 35.6849 93.0348 35.7724 93.341 35.9473C93.6558 36.1135 93.9007 36.354 94.0757 36.6689H94.0888C94.3074 36.3628 94.5786 36.1223 94.9022 35.9473C95.2346 35.7724 95.6413 35.6849 96.1223 35.6849C96.857 35.6849 97.4124 35.8992 97.7885 36.3278C98.1734 36.7564 98.3658 37.3293 98.3658 38.0465V41.9824C98.3658 42.0698 98.3221 42.1136 98.2346 42.1136H97.3949Z" fill="#EAEAEA"/>
<path d="M86.3095 42.1136C86.222 42.1136 86.1783 42.0698 86.1783 41.9824V38.3089C86.1783 37.8016 86.0602 37.408 85.824 37.1281C85.5966 36.8482 85.2468 36.7083 84.7745 36.7083C84.3459 36.7083 83.996 36.8482 83.7249 37.1281C83.4625 37.3992 83.3313 37.771 83.3313 38.2433V41.9824C83.3313 42.0698 83.2876 42.1136 83.2001 42.1136H82.3604C82.273 42.1136 82.2292 42.0698 82.2292 41.9824V35.9604C82.2292 35.873 82.273 35.8293 82.3604 35.8293H83.2001C83.2876 35.8293 83.3313 35.873 83.3313 35.9604V36.5377H83.3444C83.4931 36.2928 83.7161 36.0916 84.0135 35.9342C84.3109 35.768 84.6739 35.6849 85.1024 35.6849C85.7847 35.6849 86.3182 35.8992 86.703 36.3278C87.0879 36.7564 87.2803 37.3293 87.2803 38.0465V41.9824C87.2803 42.0698 87.2366 42.1136 87.1491 42.1136H86.3095Z" fill="#EAEAEA"/>
<path d="M77.7736 42.2579C77.1614 42.2579 76.6366 42.1092 76.1993 41.8118C75.7707 41.5144 75.4689 41.099 75.294 40.5654C75.224 40.3468 75.1716 40.1194 75.1366 39.8832C75.1016 39.6383 75.0841 39.3322 75.0841 38.9648C75.0841 38.5975 75.1016 38.2957 75.1366 38.0596C75.1716 37.8234 75.224 37.596 75.294 37.3774C75.4689 36.8351 75.7707 36.4196 76.1993 36.131C76.6366 35.8336 77.1614 35.6849 77.7736 35.6849C78.3859 35.6849 78.9063 35.8336 79.3349 36.131C79.7722 36.4196 80.0783 36.8351 80.2532 37.3774C80.3232 37.596 80.3757 37.8234 80.4107 38.0596C80.4457 38.2957 80.4632 38.5975 80.4632 38.9648C80.4632 39.3322 80.4457 39.6383 80.4107 39.8832C80.3757 40.1194 80.3232 40.3468 80.2532 40.5654C80.0783 41.099 79.7722 41.5144 79.3349 41.8118C78.9063 42.1092 78.3859 42.2579 77.7736 42.2579ZM77.7736 41.2345C78.1235 41.2345 78.4209 41.1514 78.6658 40.9853C78.9107 40.8103 79.0856 40.5654 79.1905 40.2506C79.243 40.0756 79.278 39.8963 79.2955 39.7127C79.3217 39.5202 79.3349 39.271 79.3349 38.9648C79.3349 38.6587 79.3217 38.4138 79.2955 38.2301C79.278 38.0465 79.243 37.8672 79.1905 37.6922C79.0856 37.3774 78.9107 37.1368 78.6658 36.9707C78.4209 36.7957 78.1235 36.7083 77.7736 36.7083C77.4238 36.7083 77.1264 36.7957 76.8815 36.9707C76.6366 37.1368 76.4617 37.3774 76.3567 37.6922C76.3042 37.8672 76.2649 38.0465 76.2386 38.2301C76.2211 38.4138 76.2124 38.6587 76.2124 38.9648C76.2124 39.271 76.2211 39.5202 76.2386 39.7127C76.2649 39.8963 76.3042 40.0756 76.3567 40.2506C76.4617 40.5654 76.6366 40.8103 76.8815 40.9853C77.1264 41.1514 77.4238 41.2345 77.7736 41.2345Z" fill="#EAEAEA"/>
<path d="M70.2143 42.1136C70.1269 42.1136 70.0831 42.0698 70.0831 41.9824V35.9604C70.0831 35.873 70.1269 35.8293 70.2143 35.8293H71.054C71.1414 35.8293 71.1852 35.873 71.1852 35.9604V36.6033H71.1983C71.3382 36.3322 71.5438 36.1135 71.8149 35.9473C72.0948 35.7724 72.4447 35.6849 72.8645 35.6849C73.1181 35.6849 73.3543 35.7287 73.573 35.8161C73.8004 35.8949 73.9928 36.0086 74.1502 36.1572C74.2114 36.2185 74.2202 36.2797 74.1765 36.3409L73.691 36.9838C73.6385 37.0537 73.5773 37.0625 73.5074 37.01C73.3587 36.9138 73.2056 36.8395 73.0482 36.787C72.8907 36.7345 72.7202 36.7083 72.5365 36.7083C72.0555 36.7083 71.71 36.8788 71.5001 37.2199C71.2901 37.5523 71.1852 37.994 71.1852 38.545V41.9824C71.1852 42.0698 71.1414 42.1136 71.054 42.1136H70.2143Z" fill="#EAEAEA"/>
<path d="M66.9341 34.4125C66.8466 34.4125 66.8029 34.3688 66.8029 34.2813V33.3236C66.8029 33.2361 66.8466 33.1924 66.9341 33.1924H67.8262C67.9137 33.1924 67.9574 33.2361 67.9574 33.3236V34.2813C67.9574 34.3688 67.9137 34.4125 67.8262 34.4125H66.9341ZM66.9603 42.1137C66.8728 42.1137 66.8291 42.07 66.8291 41.9825V35.9606C66.8291 35.8732 66.8728 35.8294 66.9603 35.8294H67.8C67.8874 35.8294 67.9311 35.8732 67.9311 35.9606V41.9825C67.9311 42.07 67.8874 42.1137 67.8 42.1137H66.9603Z" fill="#EAEAEA"/>
<path d="M62.2559 42.1135C62.1772 42.1135 62.1247 42.0698 62.0984 41.9823L59.8419 35.9604C59.8156 35.873 59.8506 35.8292 59.9468 35.8292H60.8521C60.9308 35.8292 60.9877 35.873 61.0226 35.9604L62.6495 40.4736H62.6757L64.2632 35.9604C64.2894 35.873 64.3419 35.8292 64.4206 35.8292H65.3128C65.409 35.8292 65.4439 35.873 65.4177 35.9604L63.1743 41.9823C63.148 42.0698 63.0912 42.1135 63.0037 42.1135H62.2559Z" fill="#EAEAEA"/>
<path d="M57.6102 42.1136C57.5227 42.1136 57.479 42.0698 57.479 41.9824V38.3089C57.479 37.8016 57.3609 37.408 57.1247 37.1281C56.8973 36.8482 56.5475 36.7083 56.0752 36.7083C55.6466 36.7083 55.2967 36.8482 55.0256 37.1281C54.7632 37.3992 54.632 37.771 54.632 38.2433V41.9824C54.632 42.0698 54.5883 42.1136 54.5008 42.1136H53.6612C53.5737 42.1136 53.53 42.0698 53.53 41.9824V35.9604C53.53 35.873 53.5737 35.8293 53.6612 35.8293H54.5008C54.5883 35.8293 54.632 35.873 54.632 35.9604V36.5377H54.6451C54.7938 36.2928 55.0169 36.0916 55.3142 35.9342C55.6116 35.768 55.9746 35.6849 56.4032 35.6849C57.0854 35.6849 57.6189 35.8992 58.0038 36.3278C58.3886 36.7564 58.581 37.3293 58.581 38.0465V41.9824C58.581 42.0698 58.5373 42.1136 58.4498 42.1136H57.6102Z" fill="#EAEAEA"/>
<path d="M46.1639 33.3236C46.1639 33.2361 46.2076 33.1924 46.2951 33.1924H51.661C51.7485 33.1924 51.7922 33.2361 51.7922 33.3236V34.1501C51.7922 34.2376 51.7485 34.2813 51.661 34.2813H47.4102C47.3578 34.2813 47.3315 34.3075 47.3315 34.36V36.984C47.3315 37.0364 47.3578 37.0627 47.4102 37.0627H51.0181C51.1056 37.0627 51.1493 37.1064 51.1493 37.1939V38.0204C51.1493 38.1079 51.1056 38.1516 51.0181 38.1516H47.4102C47.3578 38.1516 47.3315 38.1778 47.3315 38.2303V40.9461C47.3315 40.9986 47.3578 41.0248 47.4102 41.0248H51.661C51.7485 41.0248 51.7922 41.0685 51.7922 41.156V41.9825C51.7922 42.07 51.7485 42.1137 51.661 42.1137H46.2951C46.2076 42.1137 46.1639 42.07 46.1639 41.9825V33.3236Z" fill="#EAEAEA"/>
<path d="M36.0576 42.1137C35.9701 42.1137 35.9264 42.07 35.9264 41.9825V33.3236C35.9264 33.2361 35.9701 33.1924 36.0576 33.1924H36.8972C36.9847 33.1924 37.0284 33.2361 37.0284 33.3236V36.551H37.0416C37.1902 36.2974 37.4045 36.0918 37.6844 35.9344C37.9731 35.7682 38.3535 35.6851 38.8258 35.6851C39.3769 35.6851 39.836 35.8119 40.2034 36.0656C40.5707 36.3192 40.8331 36.6953 40.9906 37.1939C41.078 37.4475 41.1349 37.7099 41.1611 37.981C41.1961 38.2434 41.2136 38.5714 41.2136 38.965C41.2136 39.3586 41.1961 39.691 41.1611 39.9621C41.1349 40.2332 41.078 40.4956 40.9906 40.7493C40.8331 41.2478 40.5707 41.6239 40.2034 41.8776C39.836 42.1312 39.3769 42.258 38.8258 42.258C38.3535 42.258 37.9731 42.1749 37.6844 42.0088C37.4045 41.8426 37.1902 41.6327 37.0416 41.379H37.0284V41.9825C37.0284 42.07 36.9847 42.1137 36.8972 42.1137H36.0576ZM38.5634 41.2347C39.2631 41.2347 39.7223 40.9155 39.941 40.277C39.9935 40.1108 40.0285 39.9227 40.046 39.7128C40.0722 39.5029 40.0853 39.2536 40.0853 38.965C40.0853 38.6851 40.0722 38.4402 40.046 38.2303C40.0285 38.0204 39.9935 37.828 39.941 37.6531C39.7223 37.0233 39.2631 36.7084 38.5634 36.7084C37.8462 36.7084 37.3827 37.0233 37.1728 37.6531C37.1203 37.8105 37.0809 37.9898 37.0547 38.191C37.0372 38.3921 37.0284 38.6501 37.0284 38.965C37.0284 39.2799 37.0372 39.5423 37.0547 39.7522C37.0809 39.9534 37.1203 40.1283 37.1728 40.277C37.3827 40.9155 37.8462 41.2347 38.5634 41.2347Z" fill="#EAEAEA"/>
<path d="M31.5613 42.2579C30.9228 42.2579 30.3849 42.1135 29.9476 41.8249C29.519 41.5275 29.2172 41.1033 29.0423 40.5523C28.9723 40.3511 28.9199 40.1281 28.8849 39.8832C28.8499 39.6383 28.8324 39.3322 28.8324 38.9648C28.8324 38.5975 28.8455 38.2914 28.8718 38.0465C28.9067 37.7928 28.9592 37.5698 29.0292 37.3774C29.2041 36.8263 29.5059 36.4065 29.9344 36.1179C30.3718 35.8293 30.8922 35.6849 31.4957 35.6849C32.0992 35.6849 32.6152 35.8336 33.0438 36.131C33.4811 36.4196 33.7872 36.8351 33.9622 37.3774C33.9972 37.4823 34.0234 37.5917 34.0409 37.7054C34.0671 37.8103 34.089 37.9328 34.1065 38.0727C34.124 38.2127 34.1371 38.3745 34.1458 38.5581C34.1546 38.7331 34.159 38.9386 34.159 39.1748C34.159 39.2622 34.1109 39.306 34.0146 39.306H30.0394C29.9869 39.306 29.9607 39.3322 29.9607 39.3847C29.9607 39.5596 29.9694 39.7039 29.9869 39.8176C30.0044 39.9313 30.0307 40.0406 30.0656 40.1456C30.1881 40.513 30.3849 40.7885 30.656 40.9721C30.9272 41.1471 31.2595 41.2345 31.6531 41.2345C32.0292 41.2345 32.3485 41.1689 32.6108 41.0377C32.8732 40.9065 33.0919 40.7404 33.2668 40.5392C33.3368 40.4692 33.4024 40.4605 33.4636 40.513L34.0015 40.9984C34.0628 41.0509 34.0671 41.1121 34.0146 41.1821C33.761 41.4969 33.4243 41.7549 33.0044 41.9561C32.5934 42.1573 32.1123 42.2579 31.5613 42.2579ZM32.952 38.4269C33.0044 38.4269 33.0307 38.4007 33.0307 38.3482C33.0307 38.0596 33.0001 37.8234 32.9388 37.6398C32.8339 37.3249 32.6546 37.0844 32.4009 36.9182C32.156 36.7433 31.8543 36.6558 31.4957 36.6558C31.1371 36.6558 30.831 36.7433 30.5773 36.9182C30.3324 37.0844 30.1575 37.3249 30.0525 37.6398C29.9913 37.8234 29.9607 38.0596 29.9607 38.3482C29.9607 38.4007 29.9869 38.4269 30.0394 38.4269H32.952Z" fill="#EAEAEA"/>
<path d="M26.1563 42.1137C26.0688 42.1137 26.0251 42.07 26.0251 41.9825V38.309C26.0251 37.8017 25.907 37.4082 25.6709 37.1283C25.4435 36.8484 25.0936 36.7084 24.6213 36.7084C24.1927 36.7084 23.8429 36.8484 23.5717 37.1283C23.3094 37.3994 23.1782 37.7711 23.1782 38.2434V41.9825C23.1782 42.07 23.1344 42.1137 23.047 42.1137H22.2073C22.1198 42.1137 22.0761 42.07 22.0761 41.9825V33.3236C22.0761 33.2361 22.1198 33.1924 22.2073 33.1924H23.047C23.1344 33.1924 23.1782 33.2361 23.1782 33.3236V36.5379H23.1913C23.34 36.293 23.563 36.0918 23.8604 35.9344C24.1578 35.7682 24.5207 35.6851 24.9493 35.6851C25.6315 35.6851 26.1651 35.8994 26.5499 36.328C26.9347 36.7565 27.1272 37.3294 27.1272 38.0466V41.9825C27.1272 42.07 27.0834 42.1137 26.996 42.1137H26.1563Z" fill="#EAEAEA"/>
<path d="M19.7485 42.1792C19.1362 42.1792 18.6989 42.0393 18.4365 41.7594C18.1829 41.4708 18.056 41.016 18.056 40.395V36.8002C18.056 36.7477 18.0298 36.7215 17.9773 36.7215H17.4525C17.3651 36.7215 17.3214 36.6777 17.3214 36.5903V35.9605C17.3214 35.8731 17.3651 35.8293 17.4525 35.8293H17.9773C18.0298 35.8293 18.056 35.8031 18.056 35.7506V33.9795C18.056 33.892 18.0998 33.8483 18.1872 33.8483H19.0269C19.1144 33.8483 19.1581 33.892 19.1581 33.9795V35.7506C19.1581 35.8031 19.1843 35.8293 19.2368 35.8293H20.2339C20.3214 35.8293 20.3651 35.8731 20.3651 35.9605V36.5903C20.3651 36.6777 20.3214 36.7215 20.2339 36.7215H19.2368C19.1843 36.7215 19.1581 36.7477 19.1581 36.8002V40.3556C19.1581 40.6705 19.2193 40.8848 19.3418 40.9985C19.473 41.1034 19.6785 41.1559 19.9584 41.1559H20.2339C20.3214 41.1559 20.3651 41.1996 20.3651 41.2871V42.048C20.3651 42.1355 20.3214 42.1792 20.2339 42.1792H19.7485Z" fill="#EAEAEA"/>
<path d="M14.9265 42.1136C14.839 42.1136 14.7953 42.0698 14.7953 41.9824V41.4313H14.7822C14.6335 41.6675 14.4061 41.8643 14.1 42.0217C13.7938 42.1791 13.4003 42.2579 12.9192 42.2579C12.6218 42.2579 12.3419 42.2185 12.0795 42.1398C11.8259 42.0611 11.6029 41.943 11.4104 41.7856C11.2268 41.6281 11.0781 41.4313 10.9644 41.1952C10.8594 40.959 10.8069 40.6835 10.8069 40.3686C10.8069 39.7039 11.0212 39.2141 11.4498 38.8992C11.8871 38.5844 12.4906 38.4269 13.2603 38.4269H14.6904C14.7428 38.4269 14.7691 38.4007 14.7691 38.3482V37.889C14.7691 37.4517 14.6641 37.1368 14.4542 36.9444C14.2443 36.752 13.8463 36.6558 13.2603 36.6558C12.9017 36.6558 12.6043 36.6995 12.3682 36.787C12.132 36.8657 11.9221 36.9707 11.7384 37.1019C11.6597 37.1631 11.5985 37.1587 11.5548 37.0887L11.2005 36.4852C11.1655 36.4153 11.1743 36.354 11.2268 36.3016C11.4629 36.1179 11.7603 35.9692 12.1189 35.8555C12.4775 35.7418 12.893 35.6849 13.3653 35.6849C14.2574 35.6849 14.8915 35.8511 15.2676 36.1835C15.6437 36.5071 15.8318 37.0537 15.8318 37.8234V41.9824C15.8318 42.0698 15.788 42.1136 15.7006 42.1136H14.9265ZM13.1816 41.3133C13.6801 41.3133 14.0694 41.2083 14.3492 40.9984C14.6291 40.7797 14.7691 40.4736 14.7691 40.08V39.3847C14.7691 39.3322 14.7428 39.306 14.6904 39.306H13.4309C12.8798 39.306 12.4819 39.389 12.237 39.5552C11.9921 39.7127 11.8696 39.9707 11.8696 40.3293C11.8696 40.6529 11.9833 40.8978 12.2107 41.064C12.4382 41.2302 12.7618 41.3133 13.1816 41.3133Z" fill="#EAEAEA"/>
<path d="M7.14551 42.1137C7.07554 42.1137 7.02743 42.07 7.00119 41.9825L5.09885 35.3309H5.07261L3.18338 41.9825C3.15714 42.07 3.10466 42.1137 3.02595 42.1137H2.30437C2.22565 42.1137 2.17754 42.07 2.16005 41.9825L0.00843403 33.3236C-0.0178052 33.2361 0.0171805 33.1924 0.113391 33.1924H0.979286C1.0755 33.1924 1.12797 33.2361 1.13672 33.3236L2.7242 39.949H2.75043L4.6003 33.3236C4.62654 33.2361 4.67902 33.1924 4.75774 33.1924H5.42684C5.50555 33.1924 5.55803 33.2361 5.58427 33.3236L7.4735 39.949H7.49974L9.04785 33.3236C9.07409 33.2361 9.13094 33.1924 9.21841 33.1924H10.0712C10.1586 33.1924 10.1936 33.2361 10.1761 33.3236L8.02452 41.9825C8.00703 42.07 7.95455 42.1137 7.86709 42.1137H7.14551Z" fill="#EAEAEA"/>
<path d="M265.536 19.7153C260.532 31.2515 218.196 34.8383 230.617 50.9652C222.369 49.467 224.89 39.8495 230.274 36.2009C240.238 27.0228 262.715 26.7722 265.039 11.5669C273.693 26.8254 263.697 47.2342 246.353 49.8085C243.37 50.2753 238.419 50.6065 237.657 46.8275C237.384 45.2692 237.916 43.9992 239.284 42.9918C246.403 38.4011 255.778 38.111 262.162 32.2537C265.875 29.0033 266.338 24.4983 265.536 19.7187V19.7153Z" fill="#87BB41"/>
<path d="M218.299 30.7059C223.622 19.5782 263.736 16.2179 253.944 0C263.983 4.17203 254.676 14.512 248.536 17.4295C238.827 23.5803 220.852 25.1249 218.547 38.4904C210.873 24.2994 218.964 6.19712 234.108 1.54799C236.895 0.57492 239.788 0.475381 242.675 0.784293C245.831 1.08291 247.232 5.46088 244.244 7.35211C238.745 11.0093 231.946 11.7455 226.169 14.8827C220.303 17.4741 215.333 24.4658 218.299 30.7041V30.7059Z" fill="#1B6936"/>
</svg>
