<svg width="224" height="224" viewBox="0 0 224 224" fill="none" xmlns="http://www.w3.org/2000/svg">
<rect width="224" height="224" rx="112" fill="white"/>
<path d="M164.106 98.8732C153.071 125.13 59.7127 133.294 87.1043 170C68.9164 166.59 74.4757 144.7 86.3474 136.396C108.32 115.506 157.884 114.935 163.008 80.3269C182.093 115.056 160.049 161.508 121.804 167.367C115.226 168.43 104.308 169.184 102.628 160.582C102.026 157.036 103.199 154.145 106.216 151.852C121.913 141.403 142.588 140.743 156.666 127.411C164.851 120.013 165.873 109.76 164.106 98.881V98.8732Z" fill="#87BB41"/>
<path d="M59.9394 123.889C71.6787 98.5611 160.136 90.9129 138.542 54C160.681 63.4958 140.158 87.0302 126.617 93.6707C105.209 107.67 65.5706 111.186 60.4881 141.607C43.5642 109.307 61.4077 68.105 94.8015 57.5233C100.947 55.3086 107.328 55.082 113.693 55.7851C120.653 56.4648 123.741 66.4293 117.152 70.7339C105.027 79.0578 90.0331 80.7336 77.2947 87.874C64.3596 93.7722 53.3999 109.686 59.9394 123.885V123.889Z" fill="#1B6936"/>
</svg>
