<svg width="32" height="32" viewBox="0 0 32 32" fill="none" xmlns="http://www.w3.org/2000/svg">
  <path d="M22.6667 28C22.6667 28 24 28 24 26.6667C24 25.3333 24 22.6667 24 22.6667M22.6667 28C19.5 28 13 24.5 9.5 21C6 17.5 4 13.5 4 10.3333M22.6667 28C26.6667 28 28 26.6667 28 22.6667C28 20.3333 26.6667 18.6667 24.6667 18.6667C23.3333 18.6667 22.6667 19.3333 22.6667 20.6667V22.6667M22.6667 22.6667H20.6667C19.3333 22.6667 18.6667 23.3333 18.6667 24.6667C18.6667 26.6667 20.3333 28 22.6667 28ZM4 10.3333C4 6.33333 5.33333 5 9.33333 5C11.6667 5 13.3333 6.33333 13.3333 8.33333C13.3333 9.66667 12.6667 10.3333 11.3333 10.3333H9.33333M9.33333 10.3333V8.33333C9.33333 7 8.66667 6.33333 7.33333 6.33333C5.33333 6.33333 4 8 4 10.3333Z" stroke="#1B6936" stroke-width="2" stroke-linecap="round" stroke-linejoin="round"/>
</svg>
