<svg width="64" height="64" viewBox="0 0 64 64" fill="none" xmlns="http://www.w3.org/2000/svg">
<path d="M62.9332 60.8025H51.85L49.0758 31.2539C55.3184 34.5287 59.6502 36.1957 61.9795 36.1957C62.8952 36.1957 63.5056 35.9409 63.8067 35.4305C65.1966 32.9921 57.5375 27.6038 50.7261 23.4365C50.4739 22.8715 50.1255 22.3545 49.6965 21.9086C49.5211 13.7532 48.7081 4.26501 45.8666 4.26501C43.0115 4.26501 42.2046 13.7244 42.0371 21.8901C41.5915 22.3484 41.2317 22.8829 40.9748 23.4681C34.1865 27.6151 26.5511 32.9807 27.9316 35.4389C28.2279 35.9478 28.8321 36.2019 29.742 36.2019C32.0558 36.2019 36.3681 34.5391 42.5857 31.2676L39.2598 60.8025H23.1714L21.747 56.5314H35.2003C35.2075 56.5309 35.2138 56.5304 35.2216 56.5314C35.3987 56.5314 35.573 56.4874 35.7288 56.4032C35.8846 56.3191 36.017 56.1975 36.1141 56.0493C36.2112 55.9012 36.2698 55.7313 36.2848 55.5548C36.2998 55.3784 36.2706 55.201 36.1998 55.0387L33.0408 40.3096C32.9898 40.0709 32.8584 39.8568 32.6686 39.7034C32.4788 39.5499 32.242 39.4662 31.9979 39.4663H4.26853C4.02442 39.4662 3.78766 39.5499 3.59785 39.7034C3.40804 39.8568 3.27667 40.0709 3.22571 40.3096L0.0240015 55.2413C-0.00947715 55.3967 -0.00772171 55.5577 0.029139 55.7124C0.0659997 55.867 0.13703 56.0115 0.237015 56.1351C0.337011 56.2589 0.463412 56.3587 0.606966 56.4273C0.750521 56.4958 0.907596 56.5315 1.06669 56.5315H14.5198L13.0951 60.8027H1.06669C0.783789 60.8027 0.512471 60.915 0.312427 61.1151C0.112383 61.3151 0 61.5864 0 61.8694C0 62.1523 0.112383 62.4236 0.312427 62.6236C0.512471 62.8237 0.783789 62.936 1.06669 62.936H13.8606C13.8616 62.936 13.8628 62.9365 13.8639 62.9365C13.865 62.9365 13.8661 62.936 13.8671 62.936H22.3991C22.4002 62.936 22.4013 62.9365 22.4024 62.9365C22.4034 62.9365 22.4046 62.936 22.4057 62.936H62.9333C63.0734 62.936 63.2121 62.9084 63.3415 62.8548C63.471 62.8012 63.5886 62.7226 63.6876 62.6236C63.7867 62.5245 63.8652 62.4069 63.9188 62.2775C63.9724 62.148 64 62.0093 64 61.8692C64 61.7291 63.9724 61.5904 63.9188 61.461C63.8652 61.3316 63.7866 61.214 63.6875 61.1149C63.5885 61.0159 63.4708 60.9373 63.3414 60.8837C63.212 60.8301 63.0733 60.8025 62.9332 60.8025ZM51.1312 26.2018C56.9052 29.8525 60.3473 32.7148 61.4748 34.0873C59.8919 33.8242 56.1037 32.5431 49.7596 29.2075C50.5103 28.3969 50.9984 27.3563 51.1312 26.2018ZM30.264 34.0852C31.3941 32.7108 34.8305 29.8554 40.5886 26.2204C40.724 27.3624 41.208 28.3917 41.9493 29.1964C35.63 32.5316 31.8496 33.8177 30.264 34.0852ZM32.7374 49.0679L33.8803 54.398H25.4619L24.7001 49.0679H32.7374ZM31.1359 41.5998L32.2798 46.9345H24.3952L23.6328 41.5998H31.1359ZM14.7885 41.5998H21.478L22.2404 46.9345H14.026L14.7885 41.5998ZM10.8044 54.398H2.38665L3.52948 49.0679H11.5664L10.8044 54.398ZM11.8713 46.9345H3.98676L5.13046 41.5998H12.6336L11.8713 46.9345ZM12.9592 54.398L13.721 49.0679H22.5453L23.3071 54.398H12.9592ZM15.3444 60.8025L16.7691 56.5314H19.4978L20.9221 60.8025H15.3444ZM45.865 6.94443C46.5094 8.65492 47.2869 13.3121 47.5248 20.5552C46.9977 20.3803 46.4444 20.2624 45.8592 20.2624C45.2785 20.2624 44.7296 20.3789 44.206 20.5513C44.4357 13.3132 45.2164 8.65542 45.865 6.94443ZM45.8592 22.3959C47.6233 22.3959 49.0589 23.8314 49.0589 25.5961C49.0589 27.3609 47.6234 28.7968 45.8592 28.7968C44.0945 28.7968 42.659 27.3609 42.659 25.5961C42.659 23.8314 44.0945 22.3959 45.8592 22.3959ZM41.4065 60.8025L44.7829 30.8208C45.1307 30.8924 45.4906 30.9304 45.8592 30.9304C46.2131 30.9304 46.558 30.892 46.8928 30.8258L49.7072 60.8025H41.4065ZM13.8665 23.4595C18.5699 23.4595 22.3962 19.6328 22.3962 14.9293C22.3962 10.2259 18.5699 6.39965 13.8665 6.39965C9.16359 6.39965 5.33734 10.2259 5.33734 14.9293C5.33734 19.6328 9.16359 23.4595 13.8665 23.4595ZM13.8665 8.53304C17.3932 8.53304 20.2628 11.4025 20.2628 14.9293C20.2628 18.4567 17.3934 21.3261 13.8665 21.3261C10.3397 21.3261 7.47073 18.4567 7.47073 14.9293C7.47086 11.4025 10.3398 8.53304 13.8665 8.53304ZM13.8665 5.33133C14.1494 5.33133 14.4207 5.21895 14.6208 5.0189C14.8208 4.81886 14.9332 4.54754 14.9332 4.26464V2.13212C14.9332 1.84922 14.8208 1.5779 14.6208 1.37786C14.4207 1.17781 14.1494 1.06543 13.8665 1.06543C13.5836 1.06543 13.3123 1.17781 13.1123 1.37786C12.9122 1.5779 12.7998 1.84922 12.7998 2.13212V4.26451C12.7998 4.4046 12.8274 4.54332 12.881 4.67276C12.9346 4.80219 13.0132 4.91979 13.1122 5.01886C13.2113 5.11792 13.3289 5.19651 13.4583 5.25012C13.5877 5.30373 13.7264 5.33133 13.8665 5.33133ZM12.7998 25.6019V27.7343C12.7998 28.0172 12.9122 28.2885 13.1123 28.4885C13.3123 28.6886 13.5836 28.801 13.8665 28.801C14.1494 28.801 14.4207 28.6886 14.6208 28.4885C14.8208 28.2885 14.9332 28.0172 14.9332 27.7343V25.6019C14.9332 25.319 14.8208 25.0477 14.6208 24.8476C14.4207 24.6476 14.1494 24.5352 13.8665 24.5352C13.5836 24.5352 13.3123 24.6476 13.1123 24.8476C12.9122 25.0477 12.7998 25.319 12.7998 25.6019ZM23.4676 14.9334C23.4676 15.2164 23.58 15.4877 23.7801 15.6877C23.9801 15.8878 24.2514 16.0001 24.5343 16.0001H26.6667C26.9496 16.0001 27.2209 15.8878 27.421 15.6877C27.621 15.4877 27.7334 15.2164 27.7334 14.9334C27.7334 14.6505 27.621 14.3792 27.421 14.1792C27.2209 13.9791 26.9496 13.8668 26.6667 13.8668H24.5343C24.2514 13.8668 23.9801 13.9792 23.7801 14.1792C23.5801 14.3793 23.4677 14.6506 23.4676 14.9334ZM1.06669 16.0001H3.19908C3.48199 16.0001 3.7533 15.8878 3.95335 15.6877C4.15339 15.4877 4.26578 15.2164 4.26578 14.9334C4.26578 14.6505 4.15339 14.3792 3.95335 14.1792C3.7533 13.9791 3.48199 13.8668 3.19908 13.8668H1.06669C0.783789 13.8668 0.512471 13.9791 0.312427 14.1792C0.112383 14.3792 0 14.6505 0 14.9334C0 15.2164 0.112383 15.4877 0.312427 15.6877C0.512471 15.8878 0.783789 16.0001 1.06669 16.0001ZM21.4103 8.45591C21.5504 8.45614 21.6891 8.42864 21.8186 8.375C21.948 8.32137 22.0655 8.24265 22.1644 8.14339L23.6718 6.63554C24.0884 6.21889 24.0884 5.54322 23.6718 5.12707C23.2551 4.71041 22.579 4.71041 22.1633 5.12707L20.656 6.63491C20.2393 7.05157 20.2393 7.72723 20.656 8.14339C20.7549 8.24261 20.8725 8.32131 21.0019 8.37494C21.1314 8.42857 21.2701 8.45609 21.4103 8.45591ZM5.56911 21.723L4.06176 23.2309C3.64511 23.6475 3.64511 24.3232 4.06176 24.7393C4.16068 24.8385 4.27823 24.9172 4.40766 24.9709C4.53709 25.0245 4.67584 25.052 4.81594 25.0519C4.95604 25.0521 5.09481 25.0246 5.22425 24.9709C5.35368 24.9173 5.47123 24.8386 5.57011 24.7393L7.07746 23.2315C7.49411 22.8148 7.49411 22.1392 7.07746 21.723C6.6608 21.3062 5.98476 21.3062 5.56911 21.723Z" fill="#1B6936"/>
<path d="M22.1653 21.7239C22.0662 21.6248 21.9487 21.5462 21.8193 21.4926C21.6898 21.439 21.5511 21.4114 21.411 21.4114C21.271 21.4114 21.1323 21.439 21.0028 21.4926C20.8734 21.5462 20.7558 21.6248 20.6568 21.7239C20.2402 22.14 20.2402 22.8156 20.6568 23.2323L22.1642 24.7402C22.2631 24.8394 22.3806 24.9181 22.5101 24.9717C22.6395 25.0254 22.7782 25.0529 22.9183 25.0527C23.0584 25.0529 23.1972 25.0254 23.3266 24.9717C23.456 24.9181 23.5736 24.8394 23.6725 24.7402C24.0892 24.324 24.0892 23.6485 23.6725 23.2317L22.1653 21.7239ZM5.56996 8.14425C5.77835 8.35264 6.05124 8.45677 6.32413 8.45677C6.59703 8.45677 6.87004 8.35264 7.07831 8.14425C7.49496 7.7281 7.49496 7.05255 7.07831 6.63578L5.57096 5.12793C5.47193 5.02886 5.35435 4.95027 5.22493 4.89665C5.09552 4.84303 4.95681 4.81543 4.81673 4.81543C4.67664 4.81543 4.53793 4.84303 4.40852 4.89665C4.27911 4.95027 4.16152 5.02886 4.06249 5.12793C3.64584 5.54408 3.64584 6.21963 4.06249 6.6364L5.56996 8.14425Z" fill="#1B6936"/>
</svg>
