<svg width="64" height="64" viewBox="0 0 64 64" fill="none" xmlns="http://www.w3.org/2000/svg">
<path fill-rule="evenodd" clip-rule="evenodd" d="M19.4629 35.8041H18.9222V36.3448H19.4629V35.8041ZM21.1785 34.9463V37.2025C21.1783 37.43 21.0879 37.6481 20.9271 37.8089C20.7662 37.9698 20.5481 38.0602 20.3206 38.0604H18.0644C17.8369 38.0602 17.6188 37.9698 17.458 37.8089C17.2972 37.6481 17.2068 37.43 17.2067 37.2025V34.9463C17.2068 34.7188 17.2973 34.5007 17.4581 34.3399C17.6189 34.1791 17.8369 34.0886 18.0644 34.0884H20.3206C20.5481 34.0886 20.7662 34.1791 20.927 34.3399C21.0879 34.5007 21.1783 34.7188 21.1785 34.9463ZM29.844 21.2262H29.3027V21.7669H29.844V21.2262ZM30.7017 23.4825H28.4447C28.3321 23.4825 28.2206 23.4603 28.1165 23.4172C28.0125 23.3741 27.918 23.3109 27.8384 23.2312C27.7588 23.1516 27.6956 23.057 27.6526 22.9529C27.6096 22.8489 27.5875 22.7373 27.5876 22.6247V20.3683C27.5876 19.8951 27.9715 19.5105 28.4447 19.5105H30.7017C30.9291 19.5107 31.1471 19.6011 31.3078 19.762C31.4686 19.9228 31.5588 20.141 31.5588 20.3683V22.6246C31.5589 22.7372 31.5369 22.8488 31.4938 22.9529C31.4508 23.057 31.3877 23.1516 31.3081 23.2312C31.2285 23.3109 31.134 23.3741 31.0299 23.4172C30.9259 23.4603 30.8143 23.4825 30.7017 23.4825ZM14.0471 30.5204H13.5058V31.0611H14.0471V30.5204ZM15.7621 29.6626V31.9188C15.7621 32.0315 15.74 32.1431 15.6969 32.2472C15.6538 32.3513 15.5907 32.4459 15.511 32.5256C15.4313 32.6053 15.3367 32.6685 15.2326 32.7115C15.1285 32.7546 15.0169 32.7768 14.9042 32.7767H12.6479C12.5353 32.7766 12.4238 32.7544 12.3198 32.7112C12.2158 32.6681 12.1213 32.6049 12.0417 32.5252C11.9621 32.4456 11.899 32.351 11.856 32.247C11.8129 32.1429 11.7908 32.0314 11.7909 31.9188V29.6626C11.7907 29.5499 11.8128 29.4384 11.8558 29.3343C11.8989 29.2302 11.962 29.1356 12.0416 29.056C12.1212 28.9763 12.2157 28.9131 12.3198 28.87C12.4238 28.8269 12.5353 28.8047 12.6479 28.8047H14.9042C15.0169 28.8045 15.1285 28.8266 15.2327 28.8697C15.3368 28.9127 15.4314 28.9759 15.5111 29.0556C15.5908 29.1353 15.654 29.2299 15.6971 29.3341C15.7401 29.4382 15.7622 29.5499 15.7621 29.6626ZM14.0471 25.2359H13.5058V25.7766H14.0471V25.2359ZM15.7621 24.3782V26.6345C15.7622 26.7472 15.7401 26.8588 15.697 26.9629C15.654 27.067 15.5908 27.1617 15.5111 27.2414C15.4314 27.321 15.3368 27.3842 15.2326 27.4273C15.1285 27.4704 15.0169 27.4925 14.9042 27.4923H12.6479C12.5353 27.4923 12.4238 27.4701 12.3198 27.427C12.2157 27.3839 12.1212 27.3207 12.0416 27.241C11.962 27.1614 11.8989 27.0668 11.8558 26.9627C11.8128 26.8586 11.7907 26.7471 11.7909 26.6345V24.3782C11.7908 24.2656 11.8129 24.1541 11.856 24.05C11.899 23.946 11.9621 23.8514 12.0417 23.7718C12.1213 23.6921 12.2158 23.6289 12.3198 23.5858C12.4238 23.5426 12.5353 23.5204 12.6479 23.5203H14.9042C15.0169 23.5202 15.1285 23.5424 15.2326 23.5854C15.3367 23.6285 15.4313 23.6917 15.511 23.7714C15.5907 23.8511 15.6539 23.9457 15.697 24.0498C15.74 24.1539 15.7622 24.2655 15.7621 24.3782ZM57.8798 36.4176L56.4662 35.2248C56.3559 35.1318 56.2709 35.0123 56.2192 34.8776C56.1675 34.7429 56.1507 34.5973 56.1704 34.4544C56.2741 33.6894 56.2695 32.9136 56.1567 32.1499C56.1355 32.0069 56.1506 31.861 56.2008 31.7254C56.2509 31.5899 56.3344 31.4693 56.4435 31.3746L57.8435 30.1646L57.1617 28.546L55.3181 28.7022C55.1744 28.714 55.0299 28.6896 54.8981 28.6311C54.7662 28.5725 54.6512 28.4818 54.5636 28.3672C54.0968 27.7522 53.5451 27.2065 52.9251 26.7465C52.8091 26.6604 52.7167 26.5464 52.6564 26.415C52.5962 26.2837 52.5701 26.1393 52.5805 25.9952L52.7146 24.1504L51.0878 23.488L49.8956 24.9002C49.8025 25.0107 49.683 25.096 49.5483 25.1481C49.4135 25.2001 49.2677 25.2173 49.1245 25.198C48.3593 25.0937 47.5833 25.0981 46.8193 25.2111C46.6765 25.2327 46.5305 25.2177 46.3951 25.1676C46.2596 25.1174 46.1391 25.0337 46.0448 24.9243L44.8348 23.5244L43.2169 24.2062L43.3724 26.0498C43.3847 26.1936 43.3605 26.3382 43.3019 26.4701C43.2434 26.6021 43.1524 26.7171 43.0374 26.8044C42.4224 27.2715 41.8768 27.8234 41.4168 28.4437C41.3305 28.5594 41.2164 28.6516 41.0851 28.7116C40.9539 28.7717 40.8096 28.7979 40.6656 28.7877L38.8207 28.6542L38.1583 30.2803L39.5713 31.4731C39.6816 31.5662 39.7666 31.6856 39.8185 31.8203C39.8705 31.9549 39.8876 32.1005 39.8684 32.2435C39.7641 33.0089 39.7685 33.7852 39.8815 34.5493C39.903 34.6921 39.888 34.8379 39.8379 34.9733C39.7877 35.1086 39.704 35.229 39.5946 35.3232L38.1955 36.5332L38.8766 38.1519L40.7201 37.9964C40.8639 37.9842 41.0085 38.0086 41.1404 38.0671C41.2723 38.1257 41.3873 38.2166 41.4748 38.3314C41.9422 38.9465 42.4941 39.4925 43.1141 39.9534C43.573 40.2945 43.4529 40.7758 43.4147 41.3058H52.7219C52.6751 40.7465 52.54 40.2451 53.0019 39.8936C53.6168 39.426 54.1628 38.8742 54.6239 38.2543C54.7099 38.1386 54.8237 38.0464 54.9547 37.9862C55.0858 37.9261 55.2299 37.9 55.3737 37.9104L57.2187 38.0445L57.8798 36.4176ZM53.1017 43.0214H43.1995C42.6856 45.233 42.0246 47.2815 41.2342 49.1203H48.843C50.5586 47.311 51.994 45.2553 53.1017 43.0214ZM47.0455 50.8359H40.4307C39.3842 52.8809 38.0472 54.8219 36.4024 56.2689C40.3365 55.343 43.9881 53.479 47.0455 50.8359ZM37.146 52.914C35.1882 55.5439 32.9457 56.9348 30.6591 56.9348C27.3582 56.9348 24.6529 54.0827 22.8343 50.8359H38.484C38.0629 51.5851 37.6172 52.2812 37.146 52.914ZM24.9144 56.2689C23.2661 54.8174 21.9381 52.8852 20.8868 50.8359H14.272C17.3295 53.4786 20.9807 55.3426 24.9144 56.2689ZM12.4753 49.1203H20.0827C19.2937 47.2816 18.6326 45.2331 18.118 43.0214H8.21582C9.32355 45.2554 10.7593 47.3112 12.4753 49.1203ZM9.21818 41.3058V20.8843C9.21835 20.7227 9.28259 20.5677 9.39682 20.4533C9.51104 20.3389 9.66595 20.2745 9.82759 20.2741H23.7505V41.3058H9.21818ZM19.8825 43.0214H41.4342C40.8915 45.2626 40.1905 47.3145 39.3568 49.1203H21.9607C21.1269 47.3147 20.426 45.2627 19.8825 43.0214ZM25.4661 41.3058V12.2004L29.5729 9.4351L33.6796 12.2004V29.3916H30.8332C29.9149 29.3916 29.1671 30.1386 29.1671 31.0576V41.306H25.4661V41.3058ZM30.8819 31.1072H36.4917L38.1144 32.4884C38.0619 33.0997 38.0658 33.7145 38.1261 34.3251L36.6017 35.6431C36.4646 35.7615 36.3684 35.9204 36.3272 36.0969C36.2859 36.2734 36.3016 36.4584 36.372 36.6254L37.5373 39.3927C37.681 39.7346 38.0298 39.9438 38.3992 39.9142L40.4072 39.7436C40.8016 40.214 41.239 40.6467 41.7135 41.0361L41.6942 41.3058H30.8819V31.1072ZM59.7041 36.4879L58.5711 39.2691C58.4309 39.6138 58.0847 39.8263 57.7141 39.8008L55.7061 39.655C55.3168 40.1295 54.8841 40.5666 54.4136 40.9606L54.4439 41.306H56.2262C56.4537 41.306 56.6719 41.3964 56.8327 41.5572C56.9936 41.7181 57.084 41.9363 57.084 42.1638C57.0841 42.2765 57.062 42.3881 57.0189 42.4922C56.9758 42.5963 56.9126 42.6909 56.833 42.7705C56.7533 42.8502 56.6587 42.9134 56.5546 42.9565C56.4504 42.9995 56.3389 43.0216 56.2262 43.0215H55.0031C50.6467 52.5351 41.153 58.6505 30.6592 58.6505C20.164 58.6505 10.671 52.5351 6.31527 43.0215H5.09223C4.97956 43.0216 4.86797 42.9995 4.76385 42.9565C4.65974 42.9134 4.56513 42.8502 4.48546 42.7705C4.40578 42.6909 4.34259 42.5963 4.29951 42.4922C4.25642 42.3881 4.23429 42.2765 4.23438 42.1638C4.23444 41.9363 4.32485 41.7182 4.48571 41.5573C4.64657 41.3964 4.86473 41.306 5.09223 41.306H7.50324V20.8843C7.50324 19.6021 8.54606 18.5592 9.82759 18.5592H23.7505V11.7442C23.7505 11.6037 23.785 11.4654 23.851 11.3414C23.917 11.2173 24.0124 11.1114 24.1289 11.0329L29.0934 7.68905C29.235 7.59387 29.4018 7.54303 29.5725 7.54303C29.7432 7.54303 29.9099 7.59387 30.0516 7.68905L35.0161 11.0329C35.1327 11.1114 35.2282 11.2173 35.2943 11.3413C35.3604 11.4653 35.395 11.6037 35.3951 11.7442V29.3915H36.6677L37.4662 27.4288C37.5348 27.2611 37.6546 27.1194 37.8085 27.0239C37.9624 26.9284 38.1426 26.884 38.3233 26.8971L40.332 27.0437C40.7216 26.5695 41.1541 26.1322 41.6239 25.7373L41.4541 23.7294C41.439 23.5489 41.4815 23.3683 41.5754 23.2134C41.6693 23.0586 41.8098 22.9375 41.9768 22.8674L44.7429 21.7015C44.91 21.6313 45.0949 21.6158 45.2713 21.657C45.4477 21.6983 45.6066 21.7943 45.7252 21.9312L47.0426 23.4556C47.6532 23.3959 48.268 23.3922 48.8792 23.4446L50.1787 21.9051C50.2957 21.767 50.4533 21.6694 50.629 21.626C50.8048 21.5827 50.9897 21.5959 51.1575 21.6637L53.9387 22.7974C54.1065 22.8656 54.2483 22.9853 54.3439 23.1391C54.4394 23.293 54.4837 23.4732 54.4704 23.6539L54.3246 25.6626C54.7988 26.052 55.2358 26.4844 55.6302 26.9545L57.6389 26.7845C57.8193 26.7695 57.9998 26.8119 58.1546 26.9057C58.3094 26.9994 58.4306 27.1398 58.5009 27.3066L59.6662 30.0733C59.7366 30.2403 59.7523 30.4253 59.711 30.6018C59.6697 30.7783 59.5736 30.9371 59.4364 31.0556L57.9121 32.3728C57.9726 32.9851 57.9761 33.5987 57.9237 34.2095L59.4625 35.509C59.6009 35.6258 59.6987 35.7834 59.7421 35.9592C59.7855 36.1351 59.7722 36.3201 59.7041 36.4879ZM52.433 31.4903C52.929 32.6693 52.9372 33.9722 52.4544 35.1567C51.4583 37.6015 48.6579 38.7805 46.2125 37.7844C43.7663 36.7883 42.5873 33.9879 43.5834 31.5425C44.0663 30.358 44.9813 29.4314 46.1603 28.9354C48.5942 27.911 51.4019 29.042 52.433 31.4903ZM54.0145 30.8244C55.8258 35.1317 52.6394 39.8551 48.0105 39.8551C47.1718 39.8548 46.3412 39.6912 45.5651 39.3735C42.2432 38.0204 40.6418 34.2164 41.9949 30.8952C43.351 27.5649 47.1428 25.9691 50.4726 27.325C52.0815 27.98 53.3397 29.2236 54.0145 30.8244ZM19.4629 30.5204H18.9222V31.0611H19.4629V30.5204ZM21.1785 29.6626C21.1785 29.5499 21.1564 29.4383 21.1133 29.3342C21.0702 29.2301 21.007 29.1355 20.9273 29.0559C20.8477 28.9762 20.7531 28.913 20.649 28.8699C20.5449 28.8268 20.4333 28.8047 20.3206 28.8047H18.0644C17.9517 28.8047 17.8402 28.8269 17.7361 28.87C17.632 28.9131 17.5375 28.9763 17.4578 29.0559C17.3782 29.1356 17.315 29.2302 17.2719 29.3343C17.2288 29.4383 17.2066 29.5499 17.2067 29.6626V31.9188C17.2067 32.1463 17.2971 32.3645 17.4579 32.5253C17.6188 32.6862 17.8369 32.7766 18.0644 32.7767H20.3206C20.5481 32.7766 20.7663 32.6862 20.9272 32.5253C21.088 32.3645 21.1784 32.1463 21.1785 31.9188V29.6626ZM19.4629 25.2359H18.9222V25.7766H19.4629V25.2359ZM21.1785 24.3782C21.1785 24.1507 21.0881 23.9325 20.9272 23.7716C20.7663 23.6108 20.5482 23.5204 20.3206 23.5203H18.0644C17.8369 23.5204 17.6188 23.6108 17.4579 23.7717C17.2971 23.9326 17.2067 24.1507 17.2067 24.3782V26.6345C17.2066 26.7471 17.2288 26.8587 17.2719 26.9628C17.315 27.0668 17.3782 27.1614 17.4578 27.2411C17.5375 27.3207 17.632 27.3839 17.7361 27.427C17.8402 27.4702 17.9517 27.4923 18.0644 27.4923H20.3206C20.4333 27.4923 20.5449 27.4702 20.649 27.4271C20.7531 27.384 20.8477 27.3208 20.9273 27.2411C21.007 27.1615 21.0702 27.0669 21.1133 26.9628C21.1564 26.8587 21.1785 26.7471 21.1785 26.6345V24.3782ZM14.0471 35.8041H13.5058V36.3448H14.0471V35.8041ZM15.7621 34.9463C15.7621 34.8336 15.7399 34.722 15.6968 34.6179C15.6537 34.5138 15.5905 34.4193 15.5109 34.3396C15.4312 34.2599 15.3366 34.1967 15.2325 34.1536C15.1284 34.1105 15.0169 34.0884 14.9042 34.0884H12.6479C12.1747 34.0884 11.7909 34.4729 11.7909 34.9463V37.2025C11.7909 37.6757 12.1747 38.0604 12.6479 38.0604H14.9042C15.0169 38.0604 15.1284 38.0382 15.2325 37.9951C15.3366 37.952 15.4312 37.8889 15.5109 37.8092C15.5905 37.7295 15.6537 37.6349 15.6968 37.5308C15.7399 37.4268 15.7621 37.3152 15.7621 37.2025V34.9463ZM14.7584 14.4181C14.7584 15.7089 16.4734 15.589 16.4734 14.4979C16.4734 13.2087 14.7584 13.3262 14.7584 14.4181ZM18.2179 12.4467C18.5267 12.807 19.0696 12.8464 19.4264 12.5403C19.5121 12.467 19.5824 12.3775 19.6335 12.2771C19.6846 12.1766 19.7153 12.067 19.724 11.9547C19.7327 11.8423 19.7191 11.7293 19.6841 11.6222C19.6491 11.515 19.5934 11.4158 19.52 11.3303C17.4156 8.871 13.8145 8.87113 11.7103 11.3303C11.5624 11.5032 11.4891 11.7277 11.5066 11.9546C11.5242 12.1815 11.6311 12.3922 11.8039 12.5403C12.1644 12.8477 12.705 12.8057 13.0125 12.4467C14.437 10.7818 16.7937 10.7806 18.2179 12.4467ZM29.3025 16.4832H29.8438V15.9425H29.3025V16.4832ZM27.5876 17.341C27.5876 17.8142 27.9715 18.1989 28.4447 18.1989H30.7017C30.9291 18.1987 31.1471 18.1082 31.3078 17.9474C31.4686 17.7865 31.5588 17.5684 31.5588 17.341V15.0848C31.5588 14.6115 31.1749 14.2269 30.7017 14.2269H28.4447C27.9715 14.2269 27.5876 14.6114 27.5876 15.0848V17.341ZM9.7746 9.58294C9.89143 9.58299 10.007 9.55916 10.1143 9.51292C10.2216 9.46667 10.3183 9.39898 10.3985 9.31401C13.2374 6.30844 17.9928 6.30627 20.8318 9.31401C21.1565 9.65795 21.6998 9.67446 22.0438 9.34908C22.2092 9.19293 22.306 8.97748 22.3126 8.75007C22.3193 8.52266 22.2355 8.3019 22.0795 8.13628C18.5824 4.42313 12.6473 4.42351 9.15047 8.13628C8.63348 8.68553 9.03041 9.58294 9.7746 9.58294ZM50.6204 17.0279C50.6936 17.1137 50.783 17.1842 50.8835 17.2354C50.984 17.2866 51.0936 17.3174 51.206 17.3261C51.3184 17.3348 51.4314 17.3212 51.5386 17.2861C51.6458 17.251 51.7449 17.195 51.8304 17.1215C52.1902 16.814 52.2314 16.2726 51.924 15.9129C49.8212 13.456 46.2227 13.4511 44.1143 15.9129C43.8061 16.2727 43.8474 16.814 44.2079 17.1215C44.2933 17.1949 44.3924 17.2506 44.4994 17.2857C44.6064 17.3207 44.7193 17.3342 44.8316 17.3255C44.9439 17.3168 45.0533 17.2861 45.1537 17.235C45.254 17.1839 45.3433 17.1136 45.4165 17.0279C46.8402 15.3638 49.1981 15.3637 50.6204 17.0279ZM42.8026 13.8967C45.6365 10.8905 50.4026 10.8908 53.2358 13.8967C53.5596 14.2401 54.1032 14.2562 54.4479 13.9311C54.5298 13.8539 54.5958 13.7612 54.6419 13.6585C54.688 13.5557 54.7134 13.4449 54.7167 13.3324C54.7199 13.2198 54.701 13.1077 54.6609 13.0024C54.6208 12.8972 54.5603 12.8009 54.483 12.7191C50.977 9.00348 45.0547 9.00566 41.5547 12.7191C41.3988 12.8845 41.3149 13.1051 41.3215 13.3323C41.328 13.5596 41.4245 13.7749 41.5898 13.9311C41.7552 14.0872 41.9759 14.1713 42.2033 14.1649C42.4307 14.1584 42.6462 14.062 42.8026 13.8967ZM48.0181 18.1431C47.9055 18.1431 47.794 18.1653 47.6899 18.2085C47.5859 18.2516 47.4914 18.3148 47.4118 18.3945C47.3323 18.4741 47.2691 18.5687 47.2261 18.6728C47.183 18.7768 47.1609 18.8883 47.161 19.0009V19.0807C47.161 20.1717 48.8759 20.2909 48.8759 19.0009C48.876 18.8882 48.8539 18.7766 48.8108 18.6725C48.7677 18.5684 48.7046 18.4738 48.6249 18.3941C48.5452 18.3144 48.4506 18.2512 48.3465 18.2082C48.2423 18.1651 48.1307 18.143 48.0181 18.1431Z" fill="#1B6936"/>
</svg>
