<svg width="64" height="64" viewBox="0 0 64 64" fill="none" xmlns="http://www.w3.org/2000/svg">
<g clip-path="url(#clip0_4108_25291)">
<path d="M53.7185 10.1502C53.5929 11.8891 53.1762 12.8127 52.4826 12.8127C52.1432 12.8127 51.8178 12.9475 51.5778 13.1875C51.3378 13.4275 51.203 13.753 51.203 14.0924C51.203 14.4318 51.3378 14.7573 51.5778 14.9973C51.8178 15.2372 52.1432 15.3721 52.4826 15.3721C54.7707 15.3721 56.0362 13.6205 56.2729 10.1895C62.3464 9.55095 63.9998 4.20731 63.9998 1.29555C63.9998 0.95616 63.865 0.630667 63.625 0.39068C63.385 0.150693 63.0595 0.0158696 62.7201 0.0158696C61.1917 -0.0791249 59.667 0.253741 58.3173 0.977108C56.9675 1.70048 55.8461 2.78571 55.0788 4.11102C54.2338 2.84171 53.0861 1.80273 51.7392 1.0878C50.3924 0.372875 48.8887 0.00448639 47.3639 0.0158696C47.0245 0.0158696 46.699 0.150693 46.459 0.39068C46.219 0.630667 46.0842 0.95616 46.0842 1.29555C45.8523 5.81379 49.2159 9.71459 53.7185 10.1502ZM53.643 7.52889C52.4281 7.3483 51.3016 6.78778 50.4249 5.92766C49.5481 5.06755 48.9661 3.95197 48.7623 2.74079C51.2548 3.11062 53.2255 5.04391 53.643 7.52889ZM61.2755 2.69457C60.9049 5.18707 58.9716 7.15714 56.4866 7.57512C56.8571 5.08262 58.7904 3.11254 61.2755 2.69457ZM38.406 7.69397H43.5247C43.8641 7.69397 44.1896 7.55915 44.4296 7.31916C44.6696 7.07917 44.8044 6.75368 44.8044 6.41429C44.8044 6.07489 44.6696 5.7494 44.4296 5.50941C44.1896 5.26943 43.8641 5.1346 43.5247 5.1346H38.406C38.0666 5.1346 37.7411 5.26943 37.5011 5.50941C37.2611 5.7494 37.1263 6.07489 37.1263 6.41429C37.1263 6.75368 37.2611 7.07917 37.5011 7.31916C37.7411 7.55915 38.0666 7.69397 38.406 7.69397ZM38.406 11.533H43.5247C43.8641 11.533 44.1896 11.3982 44.4296 11.1582C44.6696 10.9182 44.8044 10.5927 44.8044 10.2533C44.8044 9.91394 44.6696 9.58845 44.4296 9.34846C44.1896 9.10848 43.8641 8.97365 43.5247 8.97365H38.406C38.0666 8.97365 37.7411 9.10848 37.5011 9.34846C37.2611 9.58845 37.1263 9.91394 37.1263 10.2533C37.1263 10.5927 37.2611 10.9182 37.5011 11.1582C37.7411 11.3982 38.0666 11.533 38.406 11.533ZM62.7199 56.3219H61.4403V32.0079C61.4403 31.6686 61.3054 31.3431 61.0654 31.1031C60.8255 30.8631 60.5 30.7283 60.1606 30.7283H48.6434V21.7705C48.6431 21.4588 48.5291 21.1578 48.3228 20.9242C48.1164 20.6905 47.8319 20.5402 47.5226 20.5014L27.0477 17.942C26.8676 17.9193 26.6849 17.9353 26.5115 17.9887C26.3381 18.0421 26.178 18.1318 26.042 18.2519C25.9059 18.3719 25.797 18.5195 25.7224 18.6849C25.6478 18.8503 25.6092 19.0297 25.6093 19.2111V28.9524L16.2471 32.0735C15.9922 32.1584 15.7705 32.3213 15.6134 32.5392C15.4563 32.7571 15.3718 33.019 15.3718 33.2876V56.3219H12.7675L11.5326 21.7423V16.6518C11.5326 16.3124 11.3978 15.9869 11.1578 15.7469C10.9178 15.5069 10.5923 15.3721 10.2529 15.3721H5.1342C4.7948 15.3721 4.46931 15.5069 4.22933 15.7469C3.98934 15.9869 3.85451 16.3124 3.85451 16.6518V21.7423L2.6193 56.3219H1.29531C0.955915 56.3219 0.630423 56.4568 0.390436 56.6967C0.150448 56.9367 0.015625 57.2622 0.015625 57.6016V62.7203C0.015625 63.0597 0.150448 63.3852 0.390436 63.6252C0.630423 63.8652 0.955915 64 1.29531 64H62.7201C63.0595 64 63.385 63.8652 63.625 63.6252C63.865 63.3852 63.9998 63.0597 63.9998 62.7203V57.6016C63.9998 57.2622 63.865 56.9367 63.625 56.6967C63.385 56.4568 63.0595 56.3219 62.7201 56.3219H62.7199ZM6.36909 23.0502H9.01772L10.2069 56.3219H5.17995L6.36909 23.0502ZM2.57483 58.8813H61.4403V61.4407H2.57483V58.8813ZM17.931 34.2106L30.7279 29.944V56.3219H17.931V34.2106ZM58.8809 56.3219H33.2872V33.2876H58.8809V56.3219ZM28.1685 20.6613L46.0841 22.9008V30.7283H43.5247V28.1689C43.5247 27.8295 43.3899 27.504 43.1499 27.264C42.9099 27.024 42.5844 26.8892 42.245 26.8892C41.9056 26.8892 41.5801 27.024 41.3401 27.264C41.1002 27.504 40.9653 27.8295 40.9653 28.1689V30.7283H38.406V28.1689C38.406 27.8295 38.2711 27.504 38.0312 27.264C37.7912 27.024 37.4657 26.8892 37.1263 26.8892C36.7869 26.8892 36.4614 27.024 36.2214 27.264C35.9814 27.504 35.8466 27.8295 35.8466 28.1689V30.7283H33.2872V28.1689C33.2873 27.9662 33.2392 27.7663 33.1468 27.5858C33.0545 27.4053 32.9205 27.2493 32.7561 27.1308C32.5916 27.0122 32.4013 26.9344 32.2009 26.9038C32.0005 26.8732 31.7957 26.8907 31.6033 26.9548L28.1687 28.1064L28.1685 20.6613ZM6.41388 17.9314H8.97325V20.4908H6.41388V17.9314Z" fill="#1B6936"/>
<path d="M21.7703 35.847C21.4309 35.847 21.1054 35.9818 20.8654 36.2218C20.6254 36.4618 20.4906 36.7873 20.4906 37.1266V42.2454C20.4906 42.5848 20.6254 42.9103 20.8654 43.1502C21.1054 43.3902 21.4309 43.5251 21.7703 43.5251C22.1097 43.5251 22.4351 43.3902 22.6751 43.1502C22.9151 42.9103 23.0499 42.5848 23.0499 42.2454V37.1266C23.0499 36.7873 22.9151 36.4618 22.6751 36.2218C22.4351 35.9818 22.1097 35.847 21.7703 35.847ZM26.889 35.847C26.5496 35.847 26.2241 35.9818 25.9841 36.2218C25.7441 36.4618 25.6093 36.7873 25.6093 37.1266V42.2454C25.6093 42.5848 25.7441 42.9103 25.9841 43.1502C26.2241 43.3902 26.5496 43.5251 26.889 43.5251C27.2284 43.5251 27.5539 43.3902 27.7939 43.1502C28.0339 42.9103 28.1687 42.5848 28.1687 42.2454V37.1266C28.1687 36.7873 28.0339 36.4618 27.7939 36.2218C27.5539 35.9818 27.2284 35.847 26.889 35.847ZM21.7703 46.0844C21.4309 46.0844 21.1054 46.2192 20.8654 46.4592C20.6254 46.6992 20.4906 47.0247 20.4906 47.3641V52.4828C20.4906 52.8222 20.6254 53.1477 20.8654 53.3877C21.1054 53.6277 21.4309 53.7625 21.7703 53.7625C22.1097 53.7625 22.4351 53.6277 22.6751 53.3877C22.9151 53.1477 23.0499 52.8222 23.0499 52.4828V47.3641C23.0499 47.0247 22.9151 46.6992 22.6751 46.4592C22.4351 46.2192 22.1097 46.0844 21.7703 46.0844ZM26.889 46.0844C26.5496 46.0844 26.2241 46.2192 25.9841 46.4592C25.7441 46.6992 25.6093 47.0247 25.6093 47.3641V52.4828C25.6093 52.8222 25.7441 53.1477 25.9841 53.3877C26.2241 53.6277 26.5496 53.7625 26.889 53.7625C27.2284 53.7625 27.5539 53.6277 27.7939 53.3877C28.0339 53.1477 28.1687 52.8222 28.1687 52.4828V47.3641C28.1687 47.0247 28.0339 46.6992 27.7939 46.4592C27.5539 46.2192 27.2284 46.0844 26.889 46.0844ZM46.0842 35.847C44.8242 35.8482 43.5785 36.1146 42.4282 36.629C41.2779 37.1434 40.2488 37.8941 39.4078 38.8325C38.9449 39.3599 38.9924 40.1627 39.5159 40.6307C39.7672 40.8559 40.0972 40.9726 40.4342 40.9556C40.7711 40.9385 41.0877 40.789 41.3149 40.5396C42.1469 39.6063 43.235 38.9384 44.4438 38.6187C45.6525 38.2991 46.9286 38.3419 48.1132 38.7418C49.2977 39.1419 50.3385 39.8814 51.1061 40.8684C51.8737 41.8554 52.3342 43.0463 52.4304 44.2929H49.9233L53.7623 48.1319L57.6014 44.2929H55.0164C54.7451 39.5566 50.828 35.8532 46.0842 35.847ZM50.8538 49.0699C50.0217 50.0033 48.9335 50.6714 47.7246 50.991C46.5157 51.3107 45.2395 51.2677 44.0548 50.8676C42.8703 50.4676 41.8296 49.7281 41.0621 48.7412C40.2947 47.7543 39.8343 46.5635 39.7385 45.3169H42.2453L38.4063 41.4779L34.5673 45.3169H37.1522C37.3554 48.9317 39.7165 52.0679 43.1344 53.2626C46.5518 54.4572 50.3526 53.4751 52.764 50.7745C52.9163 50.6075 53.0216 50.4032 53.0694 50.1823C53.1171 49.9615 53.1055 49.7319 53.0357 49.5169C52.966 49.302 52.8405 49.1094 52.6722 48.9586C52.5039 48.8079 52.2986 48.7044 52.0773 48.6587C51.856 48.6131 51.6266 48.627 51.4124 48.6987C51.1982 48.7705 51.0068 48.8977 50.8576 49.0674L50.8538 49.0699ZM7.69375 12.8127C8.03314 12.8127 8.35863 12.6778 8.59862 12.4378C8.83861 12.1979 8.97343 11.8724 8.97343 11.533V7.69393C8.97343 6.28052 10.1195 5.13456 11.5328 5.13456H12.8125C14.226 5.13456 15.3718 6.28052 15.3718 7.69393C15.3718 10.5212 17.6633 12.8127 20.4906 12.8127H21.7703C24.5972 12.8127 26.889 10.5212 26.889 7.69393V3.85488C26.889 3.51549 26.7542 3.18999 26.5142 2.95001C26.2742 2.71002 25.9487 2.5752 25.6093 2.5752C25.2699 2.5752 24.9444 2.71002 24.7044 2.95001C24.4645 3.18999 24.3296 3.51549 24.3296 3.85488V7.69393C24.3296 9.10798 23.1838 10.2533 21.7703 10.2533H20.4906C19.0773 10.2533 17.9312 9.10798 17.9312 7.69393C17.9312 4.86711 15.6395 2.5752 12.8125 2.5752H11.5328C8.7055 2.5752 6.41406 4.86711 6.41406 7.69393V11.533C6.41406 11.8724 6.54889 12.1979 6.78887 12.4378C7.02886 12.6778 7.35435 12.8127 7.69375 12.8127Z" fill="#1B6936"/>
</g>
<defs>
<clipPath id="clip0_4108_25291">
<rect width="64" height="64" fill="white"/>
</clipPath>
</defs>
</svg>
