<svg width="64" height="64" viewBox="0 0 64 64" fill="none" xmlns="http://www.w3.org/2000/svg">
<path d="M32.6869 11.6526C32.4976 8.69738 30.137 6.32987 27.1864 6.12625C26.6547 4.41275 25.0547 3.16462 23.1687 3.16462C22.6171 3.16462 22.0811 3.2705 21.5841 3.47263C20.2312 1.34963 17.8511 0 15.278 0C11.5799 0 8.50375 2.66887 7.91175 6.22525C7.70037 6.21685 7.4887 6.21965 7.27762 6.23362C4.36275 6.42912 2.01587 8.77413 1.81837 11.6888C1.8054 11.8808 1.80165 12.0734 1.80712 12.2659C1.899 15.464 4.47837 17.9691 7.67912 17.9691H26.7714C28.3036 17.9735 29.7777 17.3826 30.8827 16.3211C31.9878 15.2596 32.6374 13.8105 32.6946 12.2793C32.7027 12.0704 32.7001 11.8612 32.6869 11.6526ZM30.1962 12.1801C30.163 13.0654 29.7873 13.9032 29.1483 14.5168C28.5092 15.1303 27.6569 15.4718 26.771 15.469H7.679C5.84037 15.469 4.35887 14.0304 4.30612 12.1935C4.30285 12.0813 4.30506 11.9691 4.31275 11.8571C4.42587 10.1854 5.7725 8.84025 7.44512 8.72812C7.73003 8.70916 8.0162 8.72579 8.297 8.77763C8.34 8.78563 8.383 8.79125 8.426 8.79463C8.69025 8.82063 9.23275 8.8165 9.70375 8.44825C10.0469 8.18013 10.2596 7.788 10.3062 7.3405C10.3089 7.31887 10.3109 7.29725 10.3122 7.27575C10.3129 7.26625 10.3135 7.25688 10.3139 7.24738C10.4309 4.58537 12.6114 2.5 15.278 2.5C17.3295 2.5 19.1966 3.78988 19.9239 5.70975C19.9976 5.90437 20.1188 6.07751 20.2764 6.21345C20.434 6.3494 20.623 6.44385 20.8264 6.48825C21.0297 6.53255 21.2408 6.52543 21.4407 6.46752C21.6405 6.40961 21.8228 6.30275 21.9709 6.15662C22.2893 5.84064 22.7199 5.66376 23.1685 5.66475C24.104 5.66475 24.8659 6.422 24.8737 7.35575C24.8732 7.36863 24.873 7.38175 24.8727 7.39488C24.871 7.57457 24.908 7.75254 24.9812 7.91664C25.0545 8.08074 25.1623 8.22711 25.2972 8.34577C25.4322 8.46444 25.5911 8.55261 25.7633 8.60427C25.9354 8.65593 26.1166 8.66986 26.2946 8.64513C26.5236 8.61344 26.7551 8.60448 26.9857 8.61837C28.7036 8.723 30.0819 10.0961 30.1917 11.8123C30.1995 11.9342 30.2011 12.0583 30.1962 12.1801ZM25.794 41.9851C25.7777 41.9051 25.754 41.8262 25.7227 41.7514C25.6915 41.6765 25.6527 41.604 25.6077 41.5351C25.5627 41.4676 25.5102 41.4026 25.4527 41.3451C25.3952 41.2876 25.3302 41.2351 25.2627 41.1901C25.1262 41.0995 24.9734 41.0363 24.8127 41.0039C24.6514 40.9714 24.4853 40.9714 24.324 41.0039C24.1634 41.0364 24.0107 41.0996 23.8741 41.1901C23.8065 41.2351 23.7416 41.2876 23.6841 41.3451C23.6266 41.4026 23.574 41.4678 23.5291 41.5351C23.4841 41.6039 23.4454 41.6765 23.4141 41.7514C23.3829 41.8262 23.3591 41.9051 23.3429 41.9851C23.3266 42.0662 23.3179 42.1476 23.3179 42.2289C23.3179 42.5576 23.4517 42.8801 23.6842 43.1125C23.7417 43.17 23.8067 43.2225 23.8742 43.2687C23.9429 43.3137 24.0154 43.3525 24.0905 43.3838C24.1654 43.415 24.2441 43.4388 24.3241 43.455C24.4054 43.4711 24.4867 43.4787 24.5679 43.4787C24.6504 43.4787 24.7317 43.4712 24.8127 43.4551C24.8929 43.4389 24.9715 43.4151 25.0465 43.3839C25.1215 43.3526 25.194 43.3139 25.2627 43.2689C25.3304 43.2226 25.3952 43.1701 25.4527 43.1126C25.5102 43.0551 25.5627 42.9914 25.6077 42.9226C25.6527 42.8551 25.6915 42.7826 25.7227 42.7076C25.754 42.6314 25.7777 42.5539 25.794 42.4739C25.8102 42.3926 25.819 42.3114 25.819 42.2289C25.819 42.1476 25.8102 42.0662 25.794 41.9851ZM8.57412 41.985C8.54196 41.8243 8.47873 41.6715 8.388 41.535C8.34175 41.4675 8.28925 41.4025 8.23175 41.345C8.11527 41.2299 7.97773 41.1382 7.82662 41.075C7.75037 41.0438 7.67162 41.0201 7.59287 41.0037C7.43158 40.9713 7.26542 40.9713 7.10412 41.0037C6.94359 41.0364 6.79085 41.0996 6.65425 41.19C6.5855 41.235 6.52162 41.2875 6.46412 41.345C6.34842 41.4614 6.25672 41.5995 6.19425 41.7513C6.163 41.8261 6.13925 41.905 6.123 41.985C6.10675 42.0661 6.098 42.1475 6.098 42.2287C6.098 42.3112 6.10675 42.3925 6.123 42.4738C6.13925 42.5538 6.163 42.6313 6.19425 42.7075C6.2255 42.7825 6.26425 42.855 6.30925 42.9225C6.35419 42.991 6.40609 43.0547 6.46412 43.1125C6.58016 43.229 6.71827 43.3212 6.87037 43.3838C7.02169 43.4467 7.18399 43.479 7.34787 43.4787C7.42925 43.4787 7.51162 43.4713 7.59275 43.4549C7.6715 43.4386 7.75025 43.4149 7.8265 43.3836C7.9015 43.3524 7.974 43.3136 8.0415 43.2686C8.11025 43.2224 8.17412 43.1699 8.23162 43.1124C8.4652 42.8775 8.59679 42.56 8.59787 42.2287C8.59787 42.1475 8.59037 42.0661 8.57412 41.985Z" fill="#1B6936"/>
<path d="M61.7875 50.7184C61.7315 50.486 61.6101 50.2746 61.4377 50.1091C61.2653 49.9437 61.049 49.8311 60.8146 49.7847C60.6475 49.7516 58.304 49.3045 55.6853 49.618V46.1731C55.6853 45.4829 55.1256 44.9231 54.4353 44.9231C54.2375 44.9231 54.0193 44.9231 53.7866 44.9269C53.1605 43.8677 52.4236 42.9559 51.7666 42.2445V33.49C57.5152 31.959 61.7628 26.708 61.7628 20.4835C61.7628 16.8314 60.2797 13.3485 57.6703 10.819C57.7264 10.3995 57.7546 9.97681 57.7546 9.55362C57.7546 4.34337 53.516 0.104492 48.306 0.104492C43.0958 0.104492 38.8572 4.34337 38.8572 9.55362C38.8572 9.97737 38.8856 10.4006 38.9415 10.819C37.6468 12.0737 36.6174 13.5757 35.9143 15.2359C35.2113 16.8961 34.849 18.6806 34.849 20.4835C34.849 26.7075 39.096 31.9582 44.8441 33.4896V37.144L42.5527 35.3755C42.3337 35.2064 42.0648 35.1148 41.7881 35.115C41.5114 35.1152 41.2426 35.2072 41.0238 35.3765L37.4938 38.1087L33.9412 35.3745C33.7224 35.206 33.454 35.1148 33.1779 35.115C32.9018 35.1152 32.6335 35.2068 32.415 35.3756L28.8737 38.1089L25.3323 35.3756C25.1135 35.2067 24.8449 35.1151 24.5685 35.1151C24.2921 35.1151 24.0235 35.2067 23.8047 35.3756L20.2635 38.1089L16.7221 35.3756C16.5033 35.2067 16.2347 35.1151 15.9583 35.1151C15.6819 35.1151 15.4133 35.2067 15.1945 35.3756L11.6532 38.1089L8.11184 35.3756C7.89304 35.2067 7.62443 35.1151 7.34803 35.1151C7.07163 35.1151 6.80302 35.2067 6.58422 35.3756L2.27922 38.6984C2.12791 38.8152 2.0054 38.9651 1.92111 39.1366C1.83681 39.3082 1.79297 39.4967 1.79297 39.6879V62.7496C1.79297 63.4399 2.35272 63.9996 3.04297 63.9996H46.0941C46.2536 63.9996 46.4062 63.9696 46.5465 63.9151C47.9578 63.8647 48.9736 63.6707 49.0816 63.6494C49.1321 63.6394 49.1813 63.6264 49.2295 63.6106C49.2775 63.6264 49.3268 63.6394 49.3773 63.6494C49.5015 63.674 50.8266 63.9271 52.5736 63.9271C54.9122 63.9271 58.0068 63.4734 59.9863 61.4107V61.4109C63.4442 57.8076 61.8567 51.0062 61.7875 50.7184ZM8.59772 61.4996V47.2235C8.59772 46.5332 8.03797 45.9735 7.34772 45.9735C6.65747 45.9735 6.09772 46.5332 6.09772 47.2235V61.4996H4.29272V40.302L7.34772 37.944L10.4028 40.302V61.4996H8.59772ZM12.903 61.4996V40.302L15.958 37.944L19.0131 40.302V61.4996H12.903ZM27.6233 61.4996H25.8182V47.2235C25.8182 46.5332 25.2585 45.9735 24.5682 45.9735C23.878 45.9735 23.3182 46.5332 23.3182 47.2235V61.4996H21.5132V40.302L24.5682 37.944L27.6233 40.302V61.4996ZM30.1233 61.4996V40.302L33.1795 37.9432L36.2456 40.3031V61.4996H30.1233ZM37.3487 20.4835C37.3489 18.9173 37.6847 17.3694 38.3335 15.944C38.9824 14.5185 39.9291 13.2487 41.1101 12.22C41.2783 12.0733 41.4041 11.8843 41.4746 11.6726C41.5451 11.4609 41.5577 11.2342 41.511 11.016C41.4085 10.5353 41.3569 10.0451 41.3571 9.55362C41.3571 5.72187 44.4743 2.60449 48.3058 2.60449C52.1372 2.60449 55.2545 5.72174 55.2545 9.55362C55.2547 10.0451 55.2031 10.5353 55.1006 11.016C55.0539 11.2342 55.0664 11.4609 55.1369 11.6727C55.2075 11.8844 55.3334 12.0734 55.5016 12.22C56.6825 13.2487 57.6292 14.5186 58.278 15.944C58.9268 17.3694 59.2627 18.9173 59.2628 20.4835C59.2628 26.1029 55.0112 30.7479 49.556 31.3701V25.0719C49.5621 25.0665 49.5682 25.061 49.5742 25.0554L54.3368 20.6676C54.8447 20.1999 54.877 19.4091 54.4092 18.9014C53.9415 18.3935 53.1507 18.3611 52.643 18.829L49.556 21.673V18.4137L52.9202 15.2941C53.4265 14.8246 53.4562 14.0337 52.9868 13.5275C52.5172 13.0212 51.7263 12.9919 51.2202 13.4609L49.556 15.0041V12.193C49.556 11.5027 48.9962 10.943 48.306 10.943C47.6157 10.943 47.056 11.5027 47.056 12.193V21.6732L43.9688 18.8291C43.461 18.3612 42.6702 18.3939 42.2026 18.9015C41.7348 19.4092 41.7672 20.2 42.275 20.6677L47.0376 25.0555L47.056 25.0721V31.3702C41.6005 30.7479 37.3487 26.1029 37.3487 20.4835ZM49.2302 43.229C49.7278 43.7027 50.3972 44.4042 51.0213 45.2657C50.3655 45.4519 49.7403 45.7391 49.2293 46.1824C48.7185 45.7394 48.0936 45.4522 47.438 45.2661C48.0617 44.4071 48.7322 43.7041 49.2302 43.229ZM47.3438 41.5731V33.907C47.9839 33.9523 48.6264 33.9523 49.2665 33.907V40.3146C48.9762 40.3057 48.692 40.3983 48.4626 40.5764C48.4183 40.6107 47.9661 40.965 47.3438 41.5731ZM38.7457 40.3009L41.7898 37.9447L44.844 40.3019V44.6427C44.7856 44.7362 44.7281 44.8309 44.6713 44.9267C44.4386 44.923 44.2206 44.923 44.0228 44.923C43.8586 44.923 43.6959 44.9554 43.5442 45.0183C43.3924 45.0812 43.2546 45.1734 43.1385 45.2896C43.0224 45.4058 42.9303 45.5438 42.8676 45.6956C42.8049 45.8474 42.7727 46.0101 42.7728 46.1744L42.7766 49.6182C41.1923 49.4281 39.7085 49.5166 38.7457 49.6235V40.3009ZM47.7802 61.3225C47.3217 61.3771 46.7755 61.4191 46.1842 61.4292C46.1151 61.4244 46.0458 61.4251 45.9768 61.4315C44.0138 61.4394 41.6215 61.0821 40.2758 59.6799C38.4778 57.8066 38.6263 54.1116 38.9446 52.1117C40.9536 51.8726 44.6435 51.8732 46.449 53.7546C48.247 55.6277 48.0985 59.3226 47.7802 61.3225ZM49.2291 53.3322C48.9601 52.8651 48.6377 52.4244 48.2526 52.0232C47.4135 51.149 46.3742 50.5639 45.2771 50.1797L45.2741 47.4567C47.7611 47.6079 47.9688 48.2611 47.9783 49.2545C47.9851 49.94 48.5446 50.4924 49.2303 50.4924C49.9161 50.4924 50.4736 49.9401 50.4803 49.2545C50.4898 48.261 50.6977 47.6077 53.1853 47.4567V50.1784C52.0866 50.5625 51.0457 51.148 50.2056 52.0232C49.8206 52.4244 49.4981 52.8652 49.2291 53.3322ZM58.1822 59.6796C56.3842 61.5532 52.6866 61.5561 50.6757 61.3204C50.5419 60.4794 50.4755 59.629 50.4773 58.7774C50.4851 56.982 50.8298 54.9832 52.0092 53.7545C53.8071 51.8811 57.5043 51.8776 59.5157 52.1137C59.8371 54.1112 59.9881 57.7981 58.1822 59.6796Z" fill="#1B6936"/>
</svg>
